<?xml version="1.0" standalone="no"?>
<!DOCTYPE svg PUBLIC "-//W3C//DTD SVG 1.1//EN" "http://www.w3.org/Graphics/SVG/1.1/DTD/svg11.dtd" >
<svg xmlns="http://www.w3.org/2000/svg">
<metadata></metadata>
<defs>
<font id="brandon_textbold_italic" horiz-adv-x="1091" >
<font-face units-per-em="2048" ascent="1434" descent="-614" />
<missing-glyph horiz-adv-x="491" />
<glyph unicode="&#xfb01;" horiz-adv-x="1189" d="M61 -440l164 1157h-98q-18 0 -28.5 14t-8.5 31l19 139q6 45 45 45h100l10 58q18 100 52 183t88.5 142.5t131 92t181.5 32.5q51 0 100 -11t90 -27.5t74 -35t53 -32.5q10 -8 12.5 -25.5t-8.5 -34.5l-75 -108q-16 -25 -29.5 -30t-32.5 7q-35 23 -81 41.5t-113 18.5 q-88 0 -132.5 -60.5t-56.5 -159.5l-6 -51h565q16 0 25.5 -12t5.5 -33l-119 -856q-2 -18 -15 -31.5t-30 -13.5h-180q-18 0 -27.5 13.5t-7.5 31.5l96 672h-344l-159 -1157q-4 -29 -17.5 -38t-38.5 -9h-170q-16 0 -27.5 14t-7.5 33z" />
<glyph unicode="&#xfb02;" horiz-adv-x="1255" d="M63 -440l164 1157h-102q-18 0 -29.5 13t-7.5 30l21 141q6 45 45 45h102l6 37q39 229 163 350t316 121q72 0 127.5 -20.5t96.5 -44.5q47 -29 82 -64l36 66q10 20 22.5 31.5t35.5 11.5h63q14 0 24.5 -13.5t8.5 -31.5l-188 -1344q-4 -18 -16.5 -31.5t-28.5 -13.5h-183 q-16 0 -27.5 13.5t-7.5 31.5l146 1073q-4 6 -18.5 22.5t-38 34t-56.5 30t-74 12.5q-82 0 -145 -55.5t-78 -180.5l-4 -35h178q16 0 27.5 -12t7.5 -33l-20 -141q-4 -16 -17.5 -29.5t-29.5 -13.5h-179l-159 -1157q-4 -18 -17.5 -32.5t-29.5 -14.5h-183q-16 0 -26.5 14t-6.5 33z " />
<glyph unicode="ffh" horiz-adv-x="2390" d="M61 -440l164 1157h-100q-18 0 -28.5 14t-8.5 31l18 139q4 20 16.5 32.5t29.5 12.5h102l4 27q12 100 47 185t91.5 146.5t135 95.5t177.5 34q104 0 173.5 -36t114.5 -73h4q66 66 144 97.5t186 31.5q72 0 128.5 -20.5t96.5 -44.5q47 -29 86 -64l37 66q10 18 22.5 30.5 t35.5 12.5h59q16 0 27.5 -13.5t9.5 -31.5l-70 -496q39 29 90.5 51.5t118.5 22.5q100 0 163 -37t94.5 -100.5t37.5 -145.5t-6 -170l-66 -469q-2 -18 -16 -31.5t-31 -13.5h-174q-16 0 -26.5 13.5t-8.5 31.5l66 473q14 98 -3 154.5t-108 56.5q-47 0 -78.5 -18.5t-52.5 -40.5 q-23 -25 -39 -58l-79 -567q-4 -20 -15.5 -32.5t-38.5 -12.5h-174q-16 0 -27.5 13.5t-7.5 31.5l154 1073q-4 6 -19.5 22.5t-41 34t-59.5 30t-75 12.5q-82 0 -142 -55.5t-77 -180.5l-4 -35h174q16 0 27.5 -12t7.5 -33l-20 -141q-4 -16 -17.5 -29.5t-29.5 -13.5h-175 l-159 -1157q-4 -18 -17.5 -32.5t-29.5 -14.5h-183q-16 0 -27.5 14t-6.5 33l163 1157h-342l-161 -1157q-2 -18 -16.5 -32.5t-31.5 -14.5h-178q-16 0 -27.5 14t-7.5 33zM518 946h338l4 35q4 29 12.5 67.5t16.5 61.5q-18 29 -65.5 61.5t-123.5 32.5q-45 0 -75.5 -16.5t-51 -47 t-33 -71.5t-18.5 -90z" />
<glyph unicode="fk" horiz-adv-x="1746" d="M63 -440l164 1157h-102q-18 0 -29.5 13t-7.5 30l21 141q6 45 45 45h102l6 37q39 229 163 350t316 121q72 0 127.5 -20.5t96.5 -44.5q47 -29 82 -64l36 66q10 20 22.5 31.5t35.5 11.5h59q16 0 27.5 -13.5t9.5 -31.5l-115 -809l305 338q25 29 58 28h219q29 0 33 -22.5 t-17 -42.5l-366 -387l274 -435q12 -20 2 -39.5t-39 -19.5h-194q-23 0 -33 6t-18 21l-240 428l-57 -410q-4 -18 -18.5 -31.5t-29.5 -13.5h-180q-16 0 -27.5 13.5t-7.5 31.5l146 1073q-4 6 -18.5 22.5t-38 34t-56.5 30t-74 12.5q-82 0 -145 -55.5t-78 -180.5l-4 -35h178 q16 0 27.5 -12t7.5 -33l-20 -141q-4 -16 -17.5 -29.5t-29.5 -13.5h-179l-159 -1157q-4 -18 -17.5 -32.5t-29.5 -14.5h-183q-16 0 -26.5 14t-6.5 33z" />
<glyph unicode="fj" horiz-adv-x="1189" d="M61 -440l164 1157h-98q-18 0 -28.5 14t-8.5 31l19 139q6 45 45 45h100l10 58q18 100 52 183t88.5 142.5t131 92t181.5 32.5q51 0 100 -11t90 -27.5t74 -35t53 -32.5q10 -8 12.5 -25.5t-8.5 -34.5l-75 -108q-16 -25 -29.5 -30t-32.5 7q-35 23 -81 41.5t-113 18.5 q-88 0 -132.5 -60.5t-56.5 -159.5l-6 -51h565q16 0 25.5 -12t5.5 -33l-133 -940q-14 -104 -48 -181t-80 -130t-102.5 -90t-117.5 -62q-27 -10 -53.5 -9t-34.5 30l-43 121q-6 29 1 48t35 33q27 14 55.5 31t54.5 39.5t45.5 56t25.5 80.5l112 789h-344l-159 -1157 q-4 -29 -17.5 -38t-38.5 -9h-170q-16 0 -27.5 14t-7.5 33z" />
<glyph unicode="ffj" horiz-adv-x="1789" d="M61 -440l164 1157h-100q-18 0 -28.5 14t-8.5 31l18 139q4 20 16.5 32.5t29.5 12.5h102l4 27q12 100 47 185t91.5 146.5t135 95.5t177.5 34q104 0 175.5 -36t116.5 -73q33 33 66 57.5t70 40t80 23.5t96 8q55 0 104 -11t91 -27.5t74 -35t52 -32.5q10 -8 12.5 -25.5 t-8.5 -34.5l-75 -108q-16 -25 -29.5 -30t-32.5 7q-35 23 -81 41.5t-113 18.5q-88 0 -130 -63.5t-55 -162.5l-6 -45h561q16 0 25.5 -12t5.5 -33l-133 -940q-14 -104 -48 -181t-80 -130t-103.5 -90t-118.5 -62q-27 -10 -53.5 -9t-34.5 30l-43 121q-6 29 1 48t35 33 q27 14 57 30t55.5 39.5t45 56t25.5 79.5l112 791h-340l-159 -1157q-4 -29 -17.5 -38t-38.5 -9h-176q-16 0 -27.5 14t-7.5 33l164 1157h-340l-161 -1157q-2 -18 -16.5 -32.5t-31.5 -14.5h-178q-16 0 -27.5 14t-7.5 33zM518 946h338l4 35q4 29 11.5 67.5t15.5 61.5 q-18 29 -64.5 61.5t-122.5 32.5q-45 0 -75.5 -16.5t-51 -47t-33 -71.5t-18.5 -90z" />
<glyph unicode="fb" horiz-adv-x="1816" d="M63 -440l164 1157h-102q-18 0 -29.5 13t-7.5 30l21 141q6 45 45 45h102l6 37q39 229 163 350t316 121q72 0 127.5 -20.5t96.5 -44.5q47 -29 82 -64l36 66q10 18 22.5 30.5t35.5 12.5h59q16 0 27.5 -13.5t9.5 -31.5l-66 -465q39 18 93.5 30.5t95.5 12.5q88 0 155.5 -34 t114.5 -93.5t71.5 -141.5t24.5 -178q0 -106 -36.5 -204.5t-101 -174t-152.5 -121t-193 -45.5q-70 0 -119 21.5t-82 50.5q-37 31 -61 72l-35 -78q-18 -41 -51 -41h-74q-16 0 -27.5 13.5t-7.5 31.5l146 1073q-4 6 -18.5 22.5t-38 34t-56.5 30t-74 12.5q-82 0 -145 -55.5 t-78 -180.5l-4 -35h178q16 0 27.5 -12t7.5 -33l-20 -141q-4 -16 -17.5 -29.5t-29.5 -13.5h-179l-159 -1157q-4 -18 -17.5 -32.5t-29.5 -14.5h-183q-16 0 -26.5 14t-6.5 33zM1094 369q2 -20 13 -46t29.5 -49.5t46 -40t64.5 -16.5q43 0 84 21.5t73 61.5t50.5 95.5t18.5 122.5 q0 98 -46.5 154.5t-119.5 56.5q-37 0 -69 -9t-54 -20q-27 -12 -47 -26z" />
<glyph unicode="ffk" horiz-adv-x="2342" d="M61 -440l164 1157h-100q-18 0 -28.5 14t-8.5 31l18 139q4 20 16.5 32.5t29.5 12.5h102l4 27q12 100 47 185t91.5 146.5t135 95.5t177.5 34q104 0 173.5 -36t114.5 -73h4q66 66 144 97.5t186 31.5q72 0 128.5 -20.5t96.5 -44.5q47 -29 86 -64l37 66q10 18 22.5 30.5 t35.5 12.5h59q16 0 27.5 -13.5t9.5 -31.5l-115 -809l305 338q25 29 58 28h219q29 0 33 -22.5t-17 -42.5l-366 -387l274 -435q12 -20 2 -39.5t-39 -19.5h-194q-23 0 -33 6t-18 21l-240 428l-57 -410q-4 -18 -18.5 -31.5t-29.5 -13.5h-180q-16 0 -27.5 13.5t-7.5 31.5 l146 1073q-4 6 -18.5 22.5t-38 34t-56.5 30t-74 12.5q-82 0 -142 -55.5t-77 -180.5l-4 -35h174q16 0 27.5 -12t7.5 -33l-20 -141q-4 -16 -17.5 -29.5t-29.5 -13.5h-175l-159 -1157q-4 -18 -17.5 -32.5t-29.5 -14.5h-183q-16 0 -27.5 14t-6.5 33l163 1157h-342l-161 -1157 q-2 -18 -16.5 -32.5t-31.5 -14.5h-178q-16 0 -27.5 14t-7.5 33zM518 946h338l4 35q4 29 12.5 67.5t16.5 61.5q-18 29 -65.5 61.5t-123.5 32.5q-45 0 -75.5 -16.5t-51 -47t-33 -71.5t-18.5 -90z" />
<glyph unicode="fh" horiz-adv-x="1794" d="M63 -440l164 1157h-102q-18 0 -29.5 13t-7.5 30l21 141q6 45 45 45h102l6 37q39 229 163 350t316 121q72 0 127.5 -20.5t96.5 -44.5q47 -29 82 -64l36 66q10 20 22.5 31.5t35.5 11.5h59q16 0 27.5 -13.5t9.5 -31.5l-70 -496q39 29 90.5 51.5t118.5 22.5q100 0 163 -37 t94.5 -100.5t37.5 -145.5t-6 -170l-66 -469q-2 -18 -16 -31.5t-31 -13.5h-174q-16 0 -26.5 13.5t-8.5 31.5l66 473q14 98 -3 154.5t-108 56.5q-47 0 -78.5 -18.5t-52.5 -40.5q-23 -25 -39 -58l-79 -567q-4 -20 -15.5 -32.5t-38.5 -12.5h-174q-16 0 -27.5 13.5t-7.5 31.5 l146 1073q-4 6 -18.5 22.5t-38 34t-56.5 30t-74 12.5q-82 0 -145 -55.5t-78 -180.5l-4 -35h178q16 0 27.5 -12t7.5 -33l-20 -141q-4 -16 -17.5 -29.5t-29.5 -13.5h-179l-159 -1157q-4 -18 -17.5 -32.5t-29.5 -14.5h-183q-16 0 -26.5 14t-6.5 33z" />
<glyph unicode="ffb" horiz-adv-x="2408" d="M61 -440l164 1157h-100q-18 0 -28.5 14t-8.5 31l18 139q4 20 16.5 32.5t29.5 12.5h102l4 27q12 100 47 185t91.5 146.5t135 95.5t177.5 34q104 0 173.5 -36t114.5 -73h4q66 66 144 97.5t186 31.5q72 0 128.5 -20.5t96.5 -44.5q47 -29 86 -64l37 66q10 18 22.5 30.5 t35.5 12.5h57q16 0 27.5 -13.5t9.5 -31.5l-64 -465q39 18 91.5 30.5t93.5 12.5q88 0 155.5 -34t114.5 -93.5t71.5 -141.5t24.5 -178q0 -106 -36.5 -204.5t-101 -174t-153 -121t-192.5 -45.5q-70 0 -119 21.5t-82 50.5q-37 31 -61 72l-35 -78q-18 -41 -51 -41h-70 q-16 0 -27.5 13.5t-7.5 31.5l146 1073q-4 6 -18.5 22.5t-38 34t-56.5 30t-74 12.5q-82 0 -142 -55.5t-77 -180.5l-4 -35h174q16 0 27.5 -12t7.5 -33l-20 -141q-4 -16 -17.5 -29.5t-29.5 -13.5h-175l-159 -1157q-4 -18 -17.5 -32.5t-29.5 -14.5h-183q-16 0 -27.5 14t-6.5 33 l163 1157h-342l-161 -1157q-2 -18 -16.5 -32.5t-31.5 -14.5h-178q-16 0 -27.5 14t-7.5 33zM518 946h338l4 35q4 29 12.5 67.5t16.5 61.5q-18 29 -65.5 61.5t-123.5 32.5q-45 0 -75.5 -16.5t-51 -47t-33 -71.5t-18.5 -90zM1690 369q2 -20 13 -46t29.5 -49.5t46 -40 t64.5 -16.5q43 0 84 21.5t73 61.5t50 95.5t18 122.5q0 98 -46 154.5t-119 56.5q-37 0 -69 -9t-54 -20q-27 -12 -47 -26z" />
<glyph unicode="&#xd;" horiz-adv-x="0" />
<glyph unicode=" "  horiz-adv-x="491" />
<glyph unicode="&#x09;" horiz-adv-x="491" />
<glyph unicode="&#xa0;" horiz-adv-x="491" />
<glyph unicode="!" horiz-adv-x="538" d="M41 127q0 39 16.5 72.5t42 60.5t59.5 42t70 15q63 0 104.5 -45t41.5 -104q0 -39 -16.5 -73t-43 -59.5t-61.5 -40.5t-72 -15q-59 0 -100 44t-41 103zM199 1161l32 234q2 16 13.5 27.5t25.5 11.5h236q14 0 22.5 -11.5t6.5 -27.5l-33 -230l-162 -575q-4 -12 -16.5 -22.5 t-24.5 -10.5h-68q-14 0 -23 10.5t-7 22.5z" />
<glyph unicode="&#x22;" horiz-adv-x="735" d="M168 1065l47 330q2 16 13.5 27.5t25.5 11.5h172q18 0 27.5 -14.5t-0.5 -37.5l-129 -325q-4 -12 -12.5 -21.5t-24.5 -9.5h-90q-14 0 -23.5 11.5t-5.5 27.5zM494 1065l47 330q2 16 13 27.5t26 11.5h172q18 0 27 -14.5t-1 -37.5l-129 -325q-4 -12 -13 -21.5t-24 -9.5h-90 q-14 0 -23.5 11.5t-4.5 27.5z" />
<glyph unicode="#" horiz-adv-x="1071" d="M72 424l4 29q4 39 39 39h145l90 335h-133q-14 0 -23.5 11.5t-7.5 27.5l4 29q2 16 14.5 27.5t26.5 11.5h146l125 467q4 12 15 22.5t24 10.5h32q16 0 23.5 -13.5t3.5 -31.5l-119 -455h291l121 467q4 12 16.5 22.5t24.5 10.5h31q16 0 24 -13.5t4 -31.5l-121 -455h115 q16 0 24.5 -11.5t4.5 -27.5l-4 -29q-2 -16 -12.5 -27.5t-26.5 -11.5h-129l-88 -335h116q14 0 23.5 -11.5t5.5 -27.5l-4 -29q-2 -16 -14.5 -27.5t-26.5 -11.5h-131l-92 -352q-8 -33 -41 -33h-31q-16 0 -24.5 13.5t-4.5 31.5l93 340h-293l-90 -352q-4 -14 -16.5 -23.5 t-24.5 -9.5h-31q-16 0 -24.5 13.5t-4.5 31.5l90 340h-131q-16 0 -24 11.5t-4 27.5zM362 492h291l88 335h-288z" />
<glyph unicode="$" horiz-adv-x="1228" d="M127 164.5q-2 13.5 14 36.5l80 114q18 27 38 28t36 -15q33 -29 86 -59.5t123 -47.5l57 381q-55 35 -110.5 76t-100.5 91t-73.5 111.5t-28.5 139.5q0 84 26.5 159.5t80 134t135 95.5t192.5 43l8 66q4 16 15.5 27t25.5 11h29q14 0 23.5 -11t4.5 -27l-8 -68 q61 -6 111.5 -22.5t90.5 -37t68.5 -41t43.5 -32.5q12 -10 13 -30.5t-11 -37.5l-88 -114q-12 -16 -28.5 -20.5t-35.5 11.5q-29 27 -84 54.5t-115 38.5l-51 -369q49 -29 106.5 -71t106.5 -95t82 -118.5t33 -139.5q0 -92 -29.5 -172t-87 -140.5t-142.5 -95t-194 -38.5l-28 -211 q-4 -16 -15.5 -26.5t-25.5 -10.5h-33q-12 0 -20.5 10t-4.5 27l29 213q-68 4 -123 24.5t-97 45t-69 48t-37 33.5q-16 18 -18 31.5zM504 1061q0 -92 92 -160l47 326q-61 -10 -100 -56.5t-39 -109.5zM606 219q57 12 98 52t41 112q0 94 -90 172z" />
<glyph unicode="%" horiz-adv-x="1257" d="M142 17.5q-7 17.5 5 37.5l826 1358q14 20 35 21h106q20 0 27.5 -17.5t-4.5 -38.5l-828 -1358q-4 -6 -13 -13t-20 -7h-104q-23 0 -30 17.5zM156 1141q0 63 20.5 120.5t57 100.5t88 67.5t114.5 24.5q47 0 88 -18.5t71 -51t47 -76.5t17 -94q0 -66 -21.5 -123t-59 -99 t-89 -66.5t-108.5 -24.5q-49 0 -90 18.5t-71 51.5t-47 77t-17 93zM332 1161q0 -35 16 -59.5t45 -24.5q33 0 59.5 34t26.5 81q0 35 -15 59.5t-44 24.5q-35 0 -61.5 -34t-26.5 -81zM639 219q0 63 20.5 120.5t57.5 100.5t88 67.5t115 24.5q47 0 88 -18t70.5 -51t47 -77 t17.5 -93q0 -66 -21.5 -123t-59.5 -99t-89 -66.5t-109 -24.5q-49 0 -90 18t-70.5 51t-47 77t-17.5 93zM815 240q0 -35 16.5 -59.5t45.5 -24.5q33 0 59.5 33.5t26.5 80.5q0 35 -15.5 59.5t-44.5 24.5q-35 0 -61.5 -33.5t-26.5 -80.5z" />
<glyph unicode="&#x26;" horiz-adv-x="1292" d="M76 322q0 78 23.5 141t59.5 114.5t78 89.5t78.5 64.5t63.5 43t31 22.5v4l-33 47q-33 45 -67 113.5t-34 140.5q0 76 28 141.5t77 111.5t117.5 72.5t148.5 26.5t144.5 -24.5t109.5 -66.5t69.5 -96.5t24.5 -115.5q0 -96 -41 -171t-92 -127t-98 -82t-57 -38l163 -241 q18 31 39 67q16 33 35 76t33 96q10 35 25.5 48.5t50.5 2.5l94 -28q33 -10 38 -35t-1 -49q-18 -78 -47 -140.5t-58 -109.5q-33 -53 -67 -96l129 -172q16 -18 16 -45t-33 -50l-88 -59q-23 -14 -44 -11t-34 21l-92 133q-47 -45 -112 -82q-55 -31 -135 -55t-181 -24 q-82 0 -148.5 27.5t-114.5 74.5t-73.5 109.5t-25.5 130.5zM319 365q0 -72 46.5 -120t115.5 -48q57 0 103.5 19.5t79.5 43.5q37 27 67 64l-211 305q-8 -6 -41 -25.5t-67.5 -52.5t-63.5 -80t-29 -106zM500 1100q0 -43 17.5 -76t45.5 -74l33 -49q8 6 37 22.5t59.5 44t55 67.5 t24.5 91q0 53 -32.5 92t-92.5 39q-66 0 -106.5 -46t-40.5 -111z" />
<glyph unicode="'" horiz-adv-x="409" d="M168 1065l47 330q2 16 14.5 27.5t26.5 11.5h170q18 0 27.5 -14.5t-0.5 -37.5l-129 -325q-4 -12 -14.5 -21.5t-22.5 -9.5h-88q-14 0 -23.5 11.5t-7.5 27.5z" />
<glyph unicode="(" horiz-adv-x="665" d="M88 424q0 209 26.5 364.5t71.5 268t104.5 186.5t126 119t135.5 65.5t134 26.5q16 2 24.5 -7t6.5 -24l-12 -135q-2 -29 -29 -37q-86 -20 -144.5 -76.5t-95.5 -132t-56.5 -165t-26.5 -173t-8 -156.5t-1 -118q0 -150 40 -252t124 -137q8 -4 14 -12.5t2 -24.5l-24 -133 q-6 -33 -41 -33q-66 2 -132.5 38t-119.5 106.5t-86 180t-33 261.5z" />
<glyph unicode=")" horiz-adv-x="667" d="M-33 -129l13 135q2 16 10 24.5t18 12.5q63 20 124 72.5t107 147.5t73.5 240.5t27.5 354.5q0 74 -9 140.5t-28.5 118.5t-51.5 87t-75 47q-23 8 -16 37l24 135q4 14 14.5 23.5t26.5 7.5q66 -6 132.5 -38t119.5 -100.5t86 -179t33 -270.5q0 -211 -26.5 -367.5t-71.5 -270 t-104.5 -187.5t-126 -118t-136.5 -63.5t-133 -21.5q-35 0 -31 33z" />
<glyph unicode="*" horiz-adv-x="835" d="M177 967.5q5 15.5 20 25.5l172 103l-144 102q-12 8 -12 25.5t10 29.5l47 56q10 10 23.5 13t23.5 -5l121 -103l23 181q2 16 12 27.5t27 11.5h69q14 0 23.5 -11.5t5.5 -27.5l-29 -181l150 105q12 8 26.5 5t20.5 -15l29 -56q8 -14 4 -29.5t-21 -25.5l-170 -102l142 -105 q12 -10 12 -25.5t-10 -27.5l-47 -55q-10 -12 -24.5 -17.5t-25.5 4.5l-120 103l-21 -176q-2 -16 -14.5 -27.5t-26.5 -11.5h-67q-14 0 -23.5 11t-5.5 28l29 178l-150 -103q-12 -10 -26.5 -6t-20.5 17l-29 55q-8 14 -3 29.5z" />
<glyph unicode="+" horiz-adv-x="1228" d="M221 651l17 115q2 16 14 27.5t27 11.5h260l45 309q2 16 13 26.5t26 10.5h133q14 0 23 -10.5t5 -26.5l-43 -309h271q14 0 22 -11.5t6 -27.5l-16 -115q-2 -16 -13.5 -27.5t-25.5 -11.5h-270l-43 -305q-2 -16 -14.5 -26.5t-26.5 -10.5h-131q-14 0 -23.5 10.5t-7.5 26.5 l43 305h-262q-14 0 -22.5 11.5t-6.5 27.5z" />
<glyph unicode="," horiz-adv-x="542" d="M23 154q0 39 15 74.5t43 62t64.5 43t79.5 16.5q74 0 122 -53t48 -156q0 -143 -63.5 -274t-167.5 -236q-25 -25 -47 -2l-58 45q-18 23 11 52q31 35 59.5 75.5t50 81.5t33.5 80t12 72v12q-35 -23 -82 -22q-61 0 -90.5 37t-29.5 92z" />
<glyph unicode="-" horiz-adv-x="712" d="M92 430l19 137q2 16 13 27.5t28 11.5h417q33 0 29 -39l-18 -137q-2 -16 -13.5 -26.5t-27.5 -10.5h-418q-16 0 -23.5 10.5t-5.5 26.5z" />
<glyph unicode="." horiz-adv-x="538" d="M20 145q0 45 18.5 85t49.5 70t70 47.5t82 17.5q72 0 119 -50.5t47 -121.5q0 -43 -18.5 -83t-49.5 -69t-71 -46.5t-83 -17.5q-70 0 -117 49t-47 119z" />
<glyph unicode="/" horiz-adv-x="774" d="M17.5 14.5q-9.5 14.5 0.5 36.5l553 1356q4 10 12.5 18.5t24.5 8.5h160q18 0 26.5 -14.5t-1.5 -37.5l-549 -1355q-4 -10 -14.5 -18.5t-22.5 -8.5h-162q-18 0 -27.5 14.5z" />
<glyph unicode="0" horiz-adv-x="1234" d="M137 541q0 207 42 375.5t120 288.5t190.5 184.5t251.5 64.5q92 0 165 -39t123 -111.5t78 -175t28 -229.5q0 -207 -40 -377t-117 -290.5t-189 -186t-257 -65.5q-92 0 -165.5 39.5t-123.5 113.5t-78 177.5t-28 230.5zM403 547q0 -147 45 -233.5t119 -86.5q68 0 123 49.5 t95 137.5t61.5 209.5t21.5 269.5q0 143 -46 229t-117 86q-68 0 -123.5 -49t-95.5 -136t-61.5 -209t-21.5 -267z" />
<glyph unicode="1" horiz-adv-x="753" d="M152 1038l10 115q2 16 6 26.5t20 22.5l269 207q33 25 73 25h115q14 0 22.5 -11.5t6.5 -27.5l-189 -1354q-2 -16 -14 -28.5t-27 -12.5h-190q-16 0 -24.5 12.5t-6.5 28.5l144 1010l-183 -41q-14 -4 -24 4t-8 24z" />
<glyph unicode="2" horiz-adv-x="1062" d="M14 41q4 29 8.5 42t24.5 36l569 669q41 49 81 114t40 140q0 66 -36.5 116t-112.5 50q-74 0 -128 -44t-93 -89q-10 -14 -26.5 -12t-27.5 12l-104 117q-10 10 -9 26.5t15 28.5q12 12 45 46t84 70t121 63.5t153 27.5q92 0 163 -29.5t120 -83t73.5 -125t24.5 -157.5 q0 -180 -155 -367l-398 -463v-4h383q16 0 24.5 -11t6.5 -28l-18 -145q-2 -16 -15.5 -28.5t-27.5 -12.5h-756q-16 0 -23.5 12.5t-5.5 28.5z" />
<glyph unicode="3" horiz-adv-x="1064" d="M36 193.5q3 15.5 13 25.5l113 103q12 12 29.5 11t31.5 -24q23 -31 74 -64.5t129 -33.5q88 0 149.5 59.5t61.5 157.5q0 37 -13.5 70.5t-41 59.5t-67.5 42t-91 16h-109q-14 0 -23 11.5t-5 29.5l18 134q6 43 43 43h105q59 0 106 18t81 49t51.5 72t17.5 88q0 63 -40 101 t-100 38q-35 0 -63.5 -11t-52 -26.5t-42 -34t-32.5 -30.5q-27 -31 -53 -2l-101 116q-10 10 -7 27.5t13 28.5q14 16 47 47t81.5 61.5t112 54t140.5 23.5q78 0 144.5 -23.5t116 -67.5t77 -106.5t27.5 -138.5q0 -74 -21.5 -134t-56.5 -109.5t-80 -85t-92 -60.5v-6 q29 -14 61.5 -41t60.5 -64.5t46 -87t18 -106.5q0 -94 -33.5 -175t-97 -141.5t-153.5 -94t-203 -33.5q-90 0 -156.5 21.5t-112.5 52t-74 62.5t-42 50q-8 12 -5 27.5z" />
<glyph unicode="4" horiz-adv-x="1214" d="M35 346l16 133q6 41 33 72l758 870q18 23 29.5 28t37.5 5h105q14 0 23.5 -12t4.5 -29l-122 -889h149q16 0 24.5 -10t6.5 -27l-19 -141q-2 -16 -14 -28.5t-29 -12.5h-149l-35 -264q-4 -16 -16.5 -28.5t-26.5 -12.5h-184q-14 0 -23.5 12.5t-7.5 28.5l39 264h-572 q-16 0 -24 12.5t-4 28.5zM348 518h328l72 471h-5l-395 -465v-6z" />
<glyph unicode="5" horiz-adv-x="1085" d="M69 193.5q3 15.5 13 25.5l106 103q27 25 62 -13q35 -39 82 -68.5t125 -29.5q59 0 107 23.5t81 63.5t50.5 92t17.5 110q0 84 -45 141t-138 57h-292q-29 0 -41.5 23.5t-8.5 50.5l91 623q2 16 13 27.5t27 11.5h607q16 0 24 -11.5t6 -27.5l-20 -144q-2 -16 -14.5 -28.5 t-28.5 -12.5h-401l-41 -280h147q88 0 158.5 -32t118 -87t73 -131t25.5 -166q0 -119 -37 -217t-104.5 -169t-163 -109.5t-211.5 -38.5q-84 0 -149.5 21.5t-114 52t-78 62.5t-41.5 50q-8 12 -5 27.5z" />
<glyph unicode="6" horiz-adv-x="1122" d="M113 473q0 172 45 308.5t116.5 242.5t159.5 183t174 131.5t160 85t119 44.5q47 12 53 -28l33 -129q12 -41 -43 -62q-35 -12 -101.5 -41.5t-140.5 -75t-139.5 -107.5t-95.5 -142q23 10 51 18q25 6 60.5 12.5t78.5 6.5q76 0 141.5 -28t114.5 -79t77 -125t28 -168 q0 -117 -39 -215t-105.5 -171t-157 -113.5t-190.5 -40.5q-92 0 -166 39.5t-126 107.5t-79.5 158t-27.5 188zM351 462q3 -63 23.5 -116t58.5 -90t93 -37q53 0 96.5 22.5t74 61.5t47 90t16.5 109q0 88 -49 147.5t-136 59.5q-41 0 -75.5 -14.5t-62 -36t-47 -44t-30.5 -36.5 q-12 -53 -9 -116z" />
<glyph unicode="7" horiz-adv-x="997" d="M41 33q0 25 16 51l643 1116v6h-477q-14 0 -25.5 12.5t-7.5 28.5l23 148q2 16 14.5 27.5t26.5 11.5h790q31 0 31 -31t-18 -64l-731 -1282q-33 -57 -74 -57h-172q-16 0 -27.5 6t-11.5 27z" />
<glyph unicode="8" horiz-adv-x="1163" d="M92 334q0 82 37 151.5t86 120.5t96 84t66 45v8q-23 14 -49.5 42t-49 65t-38 82t-15.5 98q0 94 36 172t99.5 134.5t149.5 87t186 30.5q80 0 148.5 -23.5t120 -67.5t81 -106.5t29.5 -138.5q0 -74 -25.5 -133t-63.5 -106.5t-81 -81t-78 -54.5v-8q27 -16 60 -44.5t60.5 -68.5 t47 -90.5t19.5 -107.5q0 -92 -35 -173t-100.5 -141.5t-163 -95t-219.5 -34.5q-96 0 -172 26.5t-127.5 74.5t-78 112.5t-26.5 140.5zM375 360q0 -74 43 -114.5t108 -40.5q90 0 148.5 55t58.5 156q0 61 -39 117.5t-110 78.5q-96 -29 -152.5 -99.5t-56.5 -152.5zM492 1030 q0 -59 30 -104t96 -68q92 27 139.5 88.5t47.5 136.5q0 66 -35 104t-100 38q-72 0 -125 -53.5t-53 -141.5z" />
<glyph unicode="9" horiz-adv-x="1118" d="M158 915q0 117 39 215.5t105.5 171t155.5 112.5t191 40q92 0 165 -39t125 -106.5t80 -156.5t28 -187q0 -172 -45.5 -309.5t-116 -244t-158.5 -184t-174 -131t-161 -85t-120 -44.5q-41 -14 -51 29l-35 129q-4 18 5.5 33.5t39.5 27.5q35 12 101.5 41t139.5 75t138.5 109.5 t98.5 143.5q-25 -12 -54 -20q-25 -8 -59.5 -13.5t-77.5 -5.5q-76 0 -141.5 27.5t-114.5 79t-76.5 126t-27.5 166.5zM399 934q0 -86 50.5 -146.5t136.5 -60.5q39 0 73.5 15.5t62.5 36t48.5 43t30.5 36.5q12 51 8 113.5t-24.5 116t-57.5 89t-92 35.5q-49 0 -92 -21.5t-75 -59 t-50.5 -89t-18.5 -108.5z" />
<glyph unicode=":" horiz-adv-x="557" d="M53 125q0 39 15.5 73.5t42 61.5t60.5 41t71 14q59 0 99 -42t40 -105q0 -41 -15.5 -75t-42 -60.5t-60.5 -41t-70 -14.5q-61 0 -100.5 43.5t-39.5 104.5zM145 774q0 39 15.5 75t42 61.5t59.5 41t70 15.5q61 0 101 -44t40 -106q0 -41 -15.5 -74.5t-42 -60.5t-60 -41 t-70.5 -14q-61 0 -100.5 42t-39.5 105z" />
<glyph unicode=";" horiz-adv-x="567" d="M51 139q0 35 13.5 68t38 57.5t58.5 38.5t72 14q66 0 110 -48t44 -142q0 -125 -54 -245t-153 -212q-23 -23 -43 -2l-53 41q-10 10 -5 22.5t15 24.5q51 55 93 128t46 161q-35 -20 -73 -20q-53 0 -81 32.5t-28 81.5zM141 797q4 35 20.5 65.5t41 54t56.5 37t65 13.5 q63 0 103 -44t40 -106q0 -41 -15.5 -74.5t-42 -60.5t-60.5 -41t-73 -14q-66 0 -105.5 49t-29.5 121z" />
<glyph unicode="&#x3c;" horiz-adv-x="1228" d="M213 467l2 14q2 12 7 18.5t14 10.5l704 434q18 12 34.5 2t12.5 -35l-20 -159q-2 -14 -8.5 -21.5t-12.5 -11.5l-411 -258v-10l337 -248q14 -10 13 -33l-21 -139q-4 -25 -21.5 -28t-33.5 7l-584 420q-14 12 -12 37z" />
<glyph unicode="=" horiz-adv-x="1228" d="M231 299l17 117q2 16 12 27.5t27 11.5h614q16 0 24.5 -11.5t6.5 -27.5l-17 -117q-2 -16 -13 -27.5t-28 -11.5h-614q-16 0 -23.5 11.5t-5.5 27.5zM291 729l16 117q2 16 12.5 27.5t26.5 11.5h615q16 0 24 -11.5t6 -27.5l-16 -117q-2 -16 -13.5 -27.5t-27.5 -11.5h-615 q-16 0 -23 11.5t-5 27.5z" />
<glyph unicode="&#x3e;" horiz-adv-x="1228" d="M209 41l22 162q2 23 21 33l418 251v5l-346 260q-12 10 -11 32l19 136q4 25 21.5 30.5t33.5 -6.5l582 -434q18 -14 14 -33l-2 -14q-4 -23 -23 -33l-702 -422q-20 -12 -35.5 -2t-11.5 35z" />
<glyph unicode="?" horiz-adv-x="919" d="M162 1244.5q4 15.5 14 27.5q10 10 37 39.5t73 61.5t112.5 56.5t152.5 24.5q70 0 132 -23.5t108.5 -65.5t73 -98.5t26.5 -121.5q0 -70 -23.5 -123t-58.5 -95t-77 -75t-80 -62.5t-66.5 -58.5t-34.5 -63l-16 -78q-6 -33 -39 -33h-177q-14 0 -24 11.5t-6 27.5l12 86 q6 51 32.5 91t61.5 75t74 65.5t71.5 62.5t54 64.5t21.5 73.5q0 47 -27.5 76t-80.5 29q-31 0 -59.5 -12.5t-53 -30t-43 -36t-30.5 -28.5q-16 -14 -33 -11t-27 13l-94 105q-10 10 -6 25.5zM182 127q0 39 16.5 72.5t42 60.5t60.5 42t72 15q61 0 102 -45t41 -104 q0 -39 -16.5 -73t-43 -59.5t-60.5 -40.5t-70 -15q-61 0 -102.5 44t-41.5 103z" />
<glyph unicode="@" horiz-adv-x="1886" d="M84 328q0 240 71.5 445.5t204 357t318.5 237.5t414 86q168 0 304 -55.5t230 -153.5t145.5 -231t51.5 -289q0 -123 -29 -245t-90.5 -219t-156.5 -158.5t-226 -61.5q-47 0 -82 13.5t-57.5 35t-37 50t-20.5 61.5h-12q-23 -29 -52.5 -57.5t-66.5 -51t-79 -37t-85 -14.5 q-66 0 -118 28.5t-88.5 79t-56 117t-19.5 140.5q0 104 31.5 195t86 157.5t127 104.5t156.5 38q41 0 76 -13.5t62.5 -31.5t48 -39.5t30.5 -36.5l35 70q6 14 12.5 22.5t26.5 8.5h70q14 0 23 -11.5t5 -27.5l-53 -375q-8 -63 -4 -103t16.5 -62.5t29.5 -31t38 -8.5q49 0 90 33 t70.5 91t46 138t16.5 172q0 115 -30.5 214.5t-92 173t-157 116.5t-224.5 43q-170 0 -312 -65.5t-244.5 -183t-159 -281.5t-56.5 -363q0 -102 24.5 -196.5t70 -174t107.5 -142t138 -101.5q12 -6 18.5 -19.5t-3.5 -29.5l-68 -129q-8 -16 -20.5 -22.5t-24.5 -0.5 q-98 45 -184 124t-148.5 182.5t-99.5 227.5t-37 259zM776 414q0 -70 31 -111t80 -41q35 0 68.5 19.5t60 52.5t46 78t28.5 96l12 84q-10 25 -49 56.5t-97 31.5q-88 0 -134 -77.5t-46 -188.5z" />
<glyph unicode="A" horiz-adv-x="1267" d="M-58 16q-2 6 -1 13q0 11 6 24l770 1379q12 22 33 22h2h18q20 0 29 -22l377 -1379q2 -7 2 -13q0 -12 -8 -24q-12 -16 -33 -16h-179q-45 0 -53 41l-51 227h-510l-119 -227q-8 -16 -24.5 -28.5t-40.5 -12.5h-189q-23 0 -29 16zM465 489h323l-96 447h-4z" />
<glyph unicode="B" horiz-adv-x="1167" d="M94 39l191 1356q2 16 13 27.5t28 11.5h426q74 0 137 -27t109 -74t72 -110.5t26 -135.5q0 -76 -24.5 -136t-61.5 -105t-81 -77t-83 -48q31 -12 64.5 -35.5t61 -59.5t46 -83t18.5 -107q0 -92 -32.5 -172t-93 -138t-145.5 -92t-190 -34h-452q-17 0 -25 12q-6 8 -5 17 q0 5 1 10zM387 242h180q80 0 134.5 56t54.5 153q0 74 -42 114.5t-100 40.5h-174zM471 831h147q82 0 136.5 55.5t54.5 157.5q0 70 -34 108t-87 38h-166z" />
<glyph unicode="C" horiz-adv-x="1286" d="M109 616q0 180 59 334t162.5 265.5t243 175t298.5 63.5q139 0 247 -54t179 -140q9 -10 9 -25q0 -20 -17 -33l-110 -106q-16 -16 -35 -15.5t-33 15.5q-41 39 -104.5 70.5t-149.5 31.5q-92 0 -175 -44t-146.5 -120t-100.5 -174t-37 -209q0 -82 21.5 -154.5t61.5 -128 t98.5 -88t132.5 -32.5q90 0 158.5 37t121.5 84q19 16 35 16q17 0 31 -18l106 -134q8 -10 4 -27.5t-14 -27.5q-109 -104 -224.5 -151t-238.5 -47q-133 0 -240.5 50t-184.5 136t-117.5 201.5t-40.5 248.5z" />
<glyph unicode="D" horiz-adv-x="1392" d="M94 39l191 1356q2 16 13 27.5t26 11.5h442q121 0 223.5 -50.5t176 -136.5t114.5 -198.5t41 -237.5q0 -166 -55.5 -313.5t-155.5 -258t-238.5 -175t-306.5 -64.5h-444q-15 0 -23 12q-6 8 -5 17q0 5 1 10zM389 250h191q94 0 177 42t145.5 114.5t98 172t35.5 214.5 q0 84 -22.5 155.5t-65.5 124.5t-102.5 83t-132.5 30h-193z" />
<glyph unicode="E" horiz-adv-x="1095" d="M94 39l191 1356q2 16 13 27.5t26 11.5h757q17 0 25 -12q7 -9 6 -21v-6l-25 -168q-2 -16 -13 -27.5t-27 -11.5h-525l-47 -336h434q14 0 23.5 -11.5t7.5 -27.5l-25 -170q-4 -16 -15 -27.5t-26 -11.5h-434l-51 -358h526q16 0 23.5 -11.5t5.5 -27.5l-22 -168 q-2 -16 -13.5 -27.5t-27.5 -11.5h-758q-17 0 -25 12q-6 8 -5 17q0 5 1 10z" />
<glyph unicode="F" horiz-adv-x="1060" d="M94 39l191 1356q2 16 13 27.5t26 11.5h757q17 0 25 -12q7 -9 6 -21v-6l-25 -168q-2 -16 -13 -27.5t-27 -11.5h-525l-55 -385h436q14 0 23.5 -11.5t5.5 -27.5l-23 -168q-2 -16 -14 -27.5t-27 -11.5h-436l-72 -518q-4 -16 -15 -27.5t-26 -11.5h-196q-17 0 -25 12 q-6 8 -5 17q0 5 1 10z" />
<glyph unicode="G" horiz-adv-x="1349" d="M109 616q0 180 59 334t161.5 265.5t243 175t299.5 63.5q139 0 244 -51t182 -143q9 -10 9 -25q0 -20 -17 -33l-108 -106q-20 -14 -37 -14t-31 14q-41 39 -100.5 70.5t-155.5 31.5q-92 0 -175 -44t-146.5 -120t-100.5 -174t-37 -209q0 -82 25 -155.5t66.5 -129t100 -88 t126.5 -32.5q72 0 126 15t83 34l24 180h-131q-16 0 -24.5 10.5t-6.5 26.5l23 160q6 39 41 39h362q14 0 22.5 -11.5t6.5 -27.5l-67 -492q-4 -25 -13.5 -39t-19.5 -24q-8 -6 -42 -28.5t-92.5 -46.5t-139.5 -43t-185 -19q-125 0 -230.5 50t-182 136t-119.5 201.5t-43 248.5z " />
<glyph unicode="H" horiz-adv-x="1437" d="M94 39l191 1356q2 16 14 27.5t27 11.5h196q16 0 24.5 -11.5t6.5 -27.5l-76 -543h559l76 543q2 16 13.5 27.5t27.5 11.5h197q14 0 23 -12q7 -9 7 -21v-6l-190 -1356q-4 -16 -15.5 -27.5t-25.5 -11.5h-199q-16 0 -23 11.5t-5 27.5l79 565h-559l-80 -565q-4 -16 -14 -27.5 t-26 -11.5h-199q-13 0 -23 12q-7 8 -7 18q0 4 1 9z" />
<glyph unicode="I" horiz-adv-x="610" d="M94 39l191 1356q2 16 13 27.5t26 11.5h200q14 0 24 -12q7 -8 6 -18q0 -4 -1 -9l-191 -1356q-2 -16 -13 -27.5t-25 -11.5h-201q-13 0 -23 12q-7 8 -7 18q0 4 1 9z" />
<glyph unicode="J" horiz-adv-x="868" d="M-34 156q5 14 16 24l94 92q16 16 27.5 13.5t23.5 -15.5q16 -16 46 -32.5t75 -16.5q61 0 104 44t54 116l143 1014q2 16 13 27.5t26 11.5h203q16 0 24 -12q6 -9 6 -21v-6l-143 -1008q-12 -92 -43 -167t-83 -128t-126 -82.5t-172 -29.5q-61 0 -109.5 16t-83 39.5t-58.5 49.5 t-34 44q-5 7 -5 16q0 5 2 11z" />
<glyph unicode="K" horiz-adv-x="1234" d="M96 49l189 1335q4 20 17 35t34 15h192q18 0 29.5 -14.5t7.5 -35.5l-78 -553l482 566q16 20 33.5 28.5t50.5 8.5h202q27 0 34 -22q2 -6 2 -12q0 -17 -15 -34l-559 -627l413 -676q10 -20 -2 -41.5t-38 -21.5h-187q-29 0 -44 8t-30 33l-364 633l-88 -625q-2 -20 -17.5 -34.5 t-31.5 -14.5h-193q-21 0 -31 14q-9 12 -8 29v6z" />
<glyph unicode="L" horiz-adv-x="962" d="M94 39l191 1356q2 16 13 27.5t28 11.5h198q14 0 22.5 -11.5t6.5 -27.5l-162 -1149h453q16 0 23 -12q5 -9 6 -20q0 -3 -1 -7l-22 -168q-2 -16 -13.5 -27.5t-27.5 -11.5h-684q-17 0 -25 12q-7 9 -6 21v6z" />
<glyph unicode="M" horiz-adv-x="1658" d="M27 47l405 1376q4 12 13.5 21.5t25.5 9.5h29q23 0 28 -20l279 -928h4l557 928q14 20 35 20h31q10 0 19 -9t9 -22l19 -1376q0 -23 -12.5 -35t-28.5 -12h-197q-16 0 -23.5 10t-7.5 21l17 735h-6l-428 -764q-12 -22 -33 -22h-2h-33q-20 0 -29 22l-209 764h-4l-196 -735 q-4 -10 -12.5 -20.5t-26.5 -10.5h-195q-15 0 -25 12q-5 7 -6 18q0 8 3 17z" />
<glyph unicode="N" horiz-adv-x="1443" d="M96 35l193 1382q2 16 13 26.5t26 10.5h22q16 0 26.5 -4t26.5 -29l603 -852h2l110 826q2 16 12.5 27.5t26.5 11.5h199q14 0 24 -12q7 -9 7 -20q0 -4 -1 -7l-194 -1379q-2 -16 -13.5 -26t-25.5 -10h-20q-23 0 -33 7t-27 29l-598 875h-2l-111 -852q-2 -16 -13 -27.5 t-27 -11.5h-197q-11 0 -21 10q-8 8 -8 20v5z" />
<glyph unicode="O" horiz-adv-x="1521" d="M109 614q0 174 58 327t160.5 266.5t243 180t303.5 66.5q125 0 230.5 -51t182.5 -139t120 -204t43 -247q0 -172 -59.5 -324.5t-162 -265t-242.5 -178t-302 -65.5q-125 0 -230.5 51t-182 138t-119.5 202.5t-43 242.5zM385 649q0 -84 22.5 -156.5t65.5 -128t103.5 -87 t136.5 -31.5q94 0 177 42t146.5 114.5t100.5 170t37 207.5q0 82 -23 157t-66 130t-104 88t-137 33q-92 0 -175 -43t-146.5 -117t-100.5 -172t-37 -207z" />
<glyph unicode="P" horiz-adv-x="1128" d="M94 39l191 1356q2 16 13 27.5t28 11.5h438q76 0 141.5 -34t112.5 -90.5t73.5 -131t26.5 -154.5q0 -113 -38 -205t-103.5 -158.5t-153.5 -103.5t-186 -37h-209l-68 -481q-2 -16 -14 -27.5t-27 -11.5h-196q-17 0 -25 12q-6 8 -5 17q0 5 1 10zM463 770h190q37 0 73 19.5 t63.5 52t44 77t16.5 93.5q0 72 -40 121t-99 49h-191z" />
<glyph unicode="Q" horiz-adv-x="1519" d="M106 614q0 174 59.5 327t163 266.5t244 180t301.5 66.5q125 0 229.5 -50t181.5 -137t120 -204t43 -250q0 -139 -33 -255t-92 -211t-140 -169t-177 -127l172 -401q10 -23 -2.5 -39.5t-34.5 -16.5h-201q-20 0 -31.5 7.5t-19.5 29.5l-139 355q-18 -4 -39 -5t-33 -1 q-125 0 -230.5 53t-181.5 141t-118 202.5t-42 237.5zM385 649q0 -84 22.5 -156.5t65.5 -128t103.5 -87t136.5 -31.5q94 0 177 42t146.5 114.5t100.5 170t37 207.5q0 82 -23 157t-66 130t-104 88t-137 33q-92 0 -175 -43t-146.5 -117t-100.5 -172t-37 -207z" />
<glyph unicode="R" horiz-adv-x="1265" d="M94 39l191 1356q2 16 13 27.5t26 11.5h540q76 0 139.5 -30t109.5 -82t71.5 -122t25.5 -149q0 -188 -89 -307t-236 -166l168 -525q6 -20 -3.5 -36.5t-31.5 -16.5h-195q-16 0 -28.5 7t-16.5 26l-149 528h-195l-74 -522q-2 -16 -13 -27.5t-25 -11.5h-199q-17 0 -25 12 q-6 8 -5 17q0 5 1 10zM467 780h256q49 0 88 19.5t67.5 51.5t44 75t15.5 92q0 86 -38 128t-95 42h-281z" />
<glyph unicode="S" horiz-adv-x="1046" d="M44 168q0 13 13 33l80 116q14 23 32.5 21t31.5 -12q39 -33 99 -70t155 -37q35 0 67.5 12.5t58 36t41 55t15.5 70.5q0 68 -45 118t-131 107q-51 33 -103.5 73t-95.5 89t-69.5 109.5t-26.5 138.5q0 76 26.5 152.5t84 137t144.5 98.5t208 38q72 0 132 -16.5t108.5 -38 t80 -44t43.5 -34.5q20 -20 20 -43q0 -19 -14 -39l-79 -113q-14 -21 -33 -21q-17 0 -39 17q-47 39 -100.5 64.5t-131.5 25.5q-39 0 -70.5 -13t-55 -35.5t-36 -51.5t-12.5 -59q0 -61 43 -102.5t136 -102.5q51 -35 106 -74t101 -90t77 -115.5t31 -148.5q0 -90 -34 -170 t-97.5 -140.5t-154.5 -95t-204 -34.5q-72 0 -133 16t-110 40.5t-85 52t-61 50.5q-13 13 -13 29z" />
<glyph unicode="T" horiz-adv-x="1007" d="M152 1227l24 168q2 16 13.5 27.5t25.5 11.5h813q16 0 24 -12q7 -9 8 -21q0 -3 -1 -6l-25 -168q-2 -16 -13 -27.5t-28 -11.5h-270l-162 -1149q-2 -16 -14 -27.5t-27 -11.5h-198q-14 0 -23.5 11.5t-7.5 27.5l162 1149h-271q-16 0 -24 11q-6 9 -6 21v7z" />
<glyph unicode="U" horiz-adv-x="1355" d="M141 436q0 39 6 82l125 877q2 16 14.5 27.5t26.5 11.5h203q16 0 24.5 -11.5t6.5 -27.5l-123 -863q-4 -16 -4 -32.5v-32.5q0 -102 52 -159.5t157 -57.5q127 0 197.5 75.5t88.5 204.5l123 865q2 16 13.5 27.5t27.5 11.5h203q14 0 24 -12q8 -10 7 -22v-5l-125 -877 q-16 -117 -63.5 -215t-122 -171t-175 -112.5t-219.5 -39.5q-102 0 -188 33.5t-147.5 94t-96.5 144.5t-35 184z" />
<glyph unicode="V" horiz-adv-x="1265" d="M127 1380q-2 7 -2 13q0 13 8 24q12 17 33 17h203q10 0 18 -7.5t10 -15.5l211 -856h8l455 856q4 8 12.5 15.5t20.5 7.5h229q23 0 29 -16q2 -6 2 -14q0 -11 -6 -24l-770 -1378q-12 -22 -33 -22h-2h-18q-20 0 -29 22z" />
<glyph unicode="W" horiz-adv-x="1669" d="M168 1384q-1 6 -1 11q0 15 9 25q12 14 31 14h178q10 0 18.5 -9.5t10.5 -19.5l69 -776h9l413 803q10 22 33 22h2h33q25 0 28 -22l166 -803h9l290 776q4 10 15.5 19.5t21.5 9.5h195q20 0 28 -14q4 -6 4 -13q0 -10 -6 -23l-540 -1376q-10 -28 -35 -28h-2h-31q-25 0 -29 22 l-208 887h-9l-454 -887q-12 -22 -33 -22h-2h-29q-27 0 -30 28z" />
<glyph unicode="X" horiz-adv-x="1204" d="M-27 16q-2 4 -2 9q0 13 13 28l479 682l-283 645q-8 20 3.5 37t35.5 17h207q20 0 27 -19l186 -465h4l301 465q12 18 33 19h250q23 0 30 -16q2 -5 2 -11q0 -13 -12 -27l-465 -645l291 -682q10 -23 -1 -38t-34 -15h-196q-12 0 -19.5 7t-9.5 11l-205 500h-6l-330 -500 q-4 -6 -12 -12t-22 -6h-236q-23 0 -29 16z" />
<glyph unicode="Y" horiz-adv-x="1136" d="M125 1384q-5 10 -5 18q0 9 6 17q11 15 34 15h192q16 0 24.5 -6.5t14.5 -22.5l213 -467h4l342 477q4 6 12.5 12.5t20.5 6.5h225q23 0 28 -16q1 -5 1 -9q0 -14 -10 -29l-516 -688l-90 -653q-2 -16 -14.5 -27.5t-26.5 -11.5h-199q-16 0 -23.5 11.5t-5.5 27.5l92 651z" />
<glyph unicode="Z" horiz-adv-x="1026" d="M-12 69q4 13 16 33l664 1078v6h-435q-14 0 -23 11t-7 28l24 170q2 16 14.5 27.5t26.5 11.5h776q31 0 31 -31q0 -10 -3 -24.5t-11 -26.5l-658 -1098v-6h439q16 0 23 -11.5t5 -27.5l-22 -170q-2 -16 -13.5 -27.5t-27.5 -11.5h-795q-28 0 -28 31q0 25 4 38z" />
<glyph unicode="[" horiz-adv-x="690" d="M-14 -449l260 1844q2 16 13 27.5t26 11.5h438q14 0 22.5 -11.5t6.5 -27.5l-17 -127q-2 -16 -14 -27.5t-27 -11.5h-235l-213 -1512h235q14 0 23.5 -10t7.5 -26l-18 -130q-2 -16 -14.5 -27t-26.5 -11h-437q-14 0 -23 11t-7 27z" />
<glyph unicode="\" horiz-adv-x="761" d="M209 1382q-4 23 8 37.5t33 14.5h141q27 0 31 -27l170 -1356q4 -23 -9.5 -37t-31.5 -14h-143q-27 0 -31 27z" />
<glyph unicode="]" horiz-adv-x="692" d="M-92 -449l18 130q2 16 14.5 26t26.5 10h236l213 1512h-238q-14 0 -23.5 11t-4.5 28l18 127q2 16 13.5 27.5t25.5 11.5h438q14 0 23.5 -11.5t5.5 -27.5l-258 -1844q-2 -16 -14.5 -27t-26.5 -11h-436q-14 0 -23.5 11t-7.5 27z" />
<glyph unicode="^" horiz-adv-x="966" d="M89 803.5q-5 15.5 11 34.5l469 604q6 8 14.5 14t20.5 6h10q20 0 29 -20l293 -602q10 -20 1 -36t-32 -16h-133q-25 0 -33 19l-164 344h-2l-264 -344q-4 -6 -15 -12.5t-28 -6.5h-149q-23 0 -28 15.5z" />
<glyph unicode="_" horiz-adv-x="1138" d="M111 -139l10 80q2 16 13 27.5t28 11.5h645q16 0 25.5 -11.5t5.5 -27.5l-13 -80q-4 -16 -13 -26.5t-26 -10.5h-647q-14 0 -22 10t-6 27z" />
<glyph unicode="`" horiz-adv-x="557" d="M169 1183.5q-5 18.5 11 41.5l47 69q16 27 37 27t31 -8l223 -158q12 -6 16.5 -22.5t-6.5 -32.5l-32 -53q-23 -37 -62 -17l-246 127q-14 8 -19 26.5z" />
<glyph unicode="a" d="M59 412q0 115 36 216t100.5 176t152.5 119t193 44q49 0 92 -13.5t77.5 -33t59.5 -41t37 -37.5l43 73q6 12 14 21.5t25 9.5h84q17 0 27 -12q8 -9 7 -22q0 -5 -1 -11l-117 -856q-2 -18 -16.5 -31.5t-30.5 -13.5h-84q-10 0 -21.5 7t-15.5 34l-16 72q-12 -12 -39 -36 t-64 -45.5t-83 -38t-99 -16.5q-82 0 -148.5 34t-113.5 92.5t-73 138.5t-26 170zM315 418q0 -39 9.5 -76t29 -64.5t50 -44t71.5 -16.5q37 0 71 17.5t60.5 42t45 50t24.5 44.5l31 227q-4 18 -15.5 41t-33 43t-51 33.5t-66.5 13.5q-47 0 -88 -22.5t-72 -63.5t-48.5 -98.5 t-17.5 -126.5z" />
<glyph unicode="b" horiz-adv-x="1081" d="M53 45l191 1344q2 18 16 31.5t29 13.5h178q16 0 27.5 -13.5t9.5 -31.5l-68 -465q39 18 93.5 30.5t95.5 12.5q88 0 155.5 -34t114.5 -93.5t71.5 -141.5t24.5 -178q0 -106 -36.5 -204.5t-101.5 -174t-153 -121t-192 -45.5q-70 0 -119 21.5t-82 50.5q-37 31 -61 72l-35 -78 q-18 -41 -51 -41h-72q-16 0 -28 14q-9 10 -8 22q0 4 1 9zM356 369q2 -20 13.5 -46t30 -49.5t46 -40t64.5 -16.5q43 0 84 21.5t72.5 61.5t50 95.5t18.5 122.5q0 98 -46 154.5t-120 56.5q-37 0 -68.5 -9t-54.5 -20q-27 -12 -47 -26z" />
<glyph unicode="c" horiz-adv-x="925" d="M61 418q0 121 39 221t105.5 173t156 114t191.5 41q109 0 191.5 -49.5t129.5 -114.5q8 -10 8 -21q0 -6 -3 -12q-7 -18 -23 -35l-78 -80q-18 -18 -34.5 -14t-26.5 16q-16 20 -57.5 46t-100.5 26q-49 0 -92 -19.5t-76 -57.5t-52.5 -93t-19.5 -125q0 -111 46.5 -164 t113.5 -53q31 0 58.5 11.5t49 27.5t38 32.5t26.5 28.5t26.5 16.5t33.5 -11.5l88 -89q14 -14 18 -31.5t-8 -33.5q-63 -82 -153.5 -136.5t-202.5 -54.5q-88 0 -160 33t-123 92.5t-80 139.5t-29 176z" />
<glyph unicode="d" horiz-adv-x="1089" d="M59 412q0 115 37 216t103.5 176t156.5 119t195 44q25 0 54.5 -4.5t57 -11.5t51 -16t36.5 -17l67 468q4 31 20.5 39.5t43.5 8.5h155q16 0 28 -14q10 -12 9 -26v-5l-188 -1344q-2 -18 -16.5 -31.5t-30.5 -13.5h-80q-10 0 -21.5 7t-15.5 34l-16 72q-12 -12 -38 -36 t-63 -45.5t-85 -38t-105 -16.5q-76 0 -140.5 34t-112.5 92.5t-75 138.5t-27 170zM313 418q0 -100 45 -150.5t117 -50.5q37 0 71 16.5t59.5 39t44 47t24.5 42.5l43 318q-20 14 -47 25q-23 10 -54.5 17t-66.5 7q-53 0 -97 -26.5t-75 -69.5t-47.5 -99.5t-16.5 -115.5z" />
<glyph unicode="e" horiz-adv-x="948" d="M57 397q0 106 36 209t104.5 182.5t167 129t223.5 49.5q70 0 127 -20.5t99 -56.5t64.5 -83t22.5 -102q0 -90 -53 -151.5t-139 -99.5t-192.5 -54.5t-213.5 -16.5v-14q0 -63 33 -110q37 -52 123 -52q41 0 92 22.5t82 42.5q14 10 28.5 13.5t24.5 -13.5l78 -104 q10 -14 9 -30.5t-15 -31.5q-63 -57 -148.5 -93t-179.5 -36q-90 0 -159.5 34t-117 91.5t-72 133t-24.5 161.5zM328 557q66 0 124 8t101 23.5t68.5 37t25.5 50.5q0 27 -22.5 50.5t-75.5 23.5q-37 0 -72 -17.5t-65.5 -45.5t-53 -62.5t-30.5 -67.5z" />
<glyph unicode="f" horiz-adv-x="774" d="M59 -440l168 1157h-102q-18 0 -28.5 14t-8.5 31l23 139q6 45 43 45h104l10 76q12 96 40 176t76 136.5t118.5 88t169.5 31.5q43 0 84 -9t74.5 -22.5t59 -29t38.5 -27.5q8 -10 8 -25.5t-6 -27.5l-60 -111q-14 -25 -29.5 -26.5t-33.5 8.5q-23 12 -53.5 22.5t-81.5 10.5 q-41 0 -66.5 -15.5t-41 -42t-24 -62.5t-14.5 -75l-10 -76h223q36 0 36 -34q0 -5 -1 -11l-20 -139q-4 -16 -16.5 -30.5t-30.5 -14.5h-222l-166 -1157q-4 -18 -17 -32.5t-30 -14.5h-180q-16 0 -26 14q-8 10 -8 23q0 5 1 10z" />
<glyph unicode="g" d="M59 406q0 106 33 207.5t96.5 179t153.5 126t207 48.5q68 0 116 -22.5t80 -49.5q37 -31 62 -70l33 76q16 45 47 45h84q16 0 27 -13q9 -10 9 -23q0 -4 -1 -9l-127 -911q-18 -133 -66.5 -223.5t-116 -143.5t-148.5 -75.5t-163 -22.5q-55 0 -103.5 13t-88 31.5t-68.5 39 t-41 33.5q-10 10 -11 25.5t9 27.5l72 129q8 14 23.5 18t27.5 -6q10 -8 29.5 -20.5t44 -23.5t55.5 -19.5t63 -8.5q49 0 88 10.5t68 36t48.5 69.5t29.5 110l4 26q-33 -12 -87 -25.5t-120 -13.5q-84 0 -152.5 31t-116.5 87.5t-74 135t-26 175.5zM324 422q0 -43 8 -81 t26.5 -66.5t49 -46t77.5 -17.5q41 0 73 8t54 19q27 10 47 26l48 338q-4 20 -14.5 43t-29 42.5t-47 32.5t-69.5 13q-59 0 -102.5 -30.5t-70 -76.5t-38.5 -100.5t-12 -103.5z" />
<glyph unicode="h" horiz-adv-x="1058" d="M53 45l191 1344q2 18 16 31.5t29 13.5h176q16 0 27.5 -13.5t9.5 -31.5l-70 -496q39 29 90 51.5t119 22.5q100 0 162.5 -37t94.5 -100.5t38 -145.5q2 -27 2 -55q0 -56 -8 -115l-66 -469q-2 -18 -16 -31.5t-31 -13.5h-174q-16 0 -26.5 13.5t-8.5 31.5l66 473q6 44 6 79 q0 43 -10 75q-18 56 -107 57q-47 0 -78.5 -18.5t-52.5 -40.5q-23 -25 -39 -58l-80 -567q-4 -20 -15 -32.5t-38 -12.5h-172q-16 0 -26 14q-9 11 -9 25v6z" />
<glyph unicode="i" horiz-adv-x="516" d="M53 45l121 856q4 20 17.5 32.5t29.5 12.5h176q16 0 28.5 -12t8.5 -33l-123 -856q-4 -18 -17 -31.5t-30 -13.5h-174q-16 0 -28 14q-10 12 -9 26v5zM190 1249q0 39 15.5 73t40 58.5t58.5 39t71 14.5q61 0 100 -42t39 -102q0 -37 -15.5 -69.5t-41 -58t-58 -40t-69.5 -14.5 q-61 0 -100.5 41t-39.5 100z" />
<glyph unicode="j" horiz-adv-x="516" d="M-182 -360q-3 13 -3 25q0 13 4 23q7 19 36 33q27 14 56.5 30t55 39.5t45 56t25.5 79.5l137 975q4 20 19.5 32.5t31.5 12.5h166q16 0 29.5 -12t9.5 -33l-131 -940q-14 -104 -48 -181t-80 -130t-103.5 -90t-118.5 -62q-25 -9 -49 -9h-4q-27 1 -35 30zM186 1249 q0 39 15.5 73t40 58.5t58.5 39t71 14.5q61 0 100 -42t39 -102q0 -37 -15.5 -69.5t-41 -58t-58 -40t-69.5 -14.5q-61 0 -100.5 41t-39.5 100z" />
<glyph unicode="k" horiz-adv-x="1013" d="M53 45l191 1344q2 18 16 31.5t29 13.5h178q16 0 27.5 -13.5t9.5 -31.5l-115 -809l305 338q24 28 56 28h2h219q29 0 33 -22q1 -4 1 -8q0 -19 -18 -35l-366 -387l274 -435q12 -20 2 -39.5t-39 -19.5h-194q-23 0 -33 6t-19 21l-239 428l-58 -410q-4 -18 -18 -31.5t-29 -13.5 h-180q-16 0 -28 14q-9 10 -8 22q0 4 1 9z" />
<glyph unicode="l" horiz-adv-x="522" d="M55 45l191 1344q2 18 16 31.5t29 13.5h176q15 0 27 -14q10 -12 11 -26q0 -3 -1 -5l-191 -1344q-2 -18 -16 -31.5t-31 -13.5h-176q-16 0 -26 14q-9 11 -9 25v6z" />
<glyph unicode="m" horiz-adv-x="1566" d="M53 45l121 856q2 20 15.5 32.5t29.5 12.5h74q27 0 33 -26l20 -91q20 20 47 45t60.5 45.5t76.5 34t97 13.5q92 0 144 -36t85 -108q16 16 44 41t66 47.5t85 39t102 16.5q100 0 162.5 -37t94.5 -99.5t37 -145.5l2 -44q0 -63 -11 -131l-68 -465q-4 -18 -17.5 -31.5 t-29.5 -13.5h-176q-16 0 -26.5 13.5t-8.5 31.5l74 483q6 40 6 72q0 48 -12 78q-20 52 -95 51q-41 0 -73.5 -19.5t-55.5 -41.5q-27 -27 -45 -62l-80 -561q-4 -18 -17 -31.5t-30 -13.5h-170q-18 0 -27 13.5t-5 31.5l75 483q6 39 6 71q0 43 -11 75q-19 54 -95 55 q-45 0 -75.5 -19.5t-53.5 -41.5q-25 -27 -41 -62l-84 -561q-2 -18 -16.5 -31.5t-30.5 -13.5h-168q-16 0 -28 14q-9 10 -8 22q0 4 1 9z" />
<glyph unicode="n" horiz-adv-x="1054" d="M53 45l121 856q2 20 15.5 32.5t29.5 12.5h78q29 0 33 -28l20 -89q16 14 42 38t61.5 46.5t83 38t106.5 15.5q98 0 159.5 -37t93.5 -98.5t38 -143.5q2 -27 2 -56q0 -57 -8 -118l-68 -469q-2 -18 -15.5 -31.5t-29.5 -13.5h-180q-16 0 -25.5 13.5t-7.5 31.5l74 483q5 37 5 69 q-1 45 -11 77q-18 54 -97 55q-47 0 -81.5 -20.5t-57.5 -44.5q-27 -29 -47 -66l-82 -553q-4 -27 -15 -36t-34 -9h-168q-16 0 -28 14q-9 10 -8 22q0 4 1 9z" />
<glyph unicode="o" horiz-adv-x="1036" d="M57 408q0 115 41 216t111 178t164 121t200 44q82 0 151 -34t119 -92.5t78.5 -136t28.5 -163.5q0 -115 -42 -217.5t-112.5 -179t-163.5 -122t-198 -45.5q-84 0 -152.5 36t-118.5 95.5t-78 137.5t-28 162zM305 434q0 -88 40 -152.5t124 -64.5q47 0 89 23.5t73 64.5t49 95.5 t18 117.5q0 43 -10 81t-29.5 66.5t-49 46t-68.5 17.5q-51 0 -94.5 -23.5t-75 -63.5t-49 -93t-17.5 -115z" />
<glyph unicode="p" horiz-adv-x="1083" d="M-12 -449l186 1350q2 20 15.5 32.5t29.5 12.5h80q10 0 20.5 -6t14.5 -22l16 -76q20 20 49 42.5t67 41t85 30t102 11.5q82 0 145.5 -34t106.5 -91.5t65.5 -134t22.5 -162.5q0 -121 -37.5 -224.5t-104.5 -179t-156 -120t-191 -44.5q-53 0 -108.5 16.5t-84.5 37.5l-63 -471 q-4 -23 -15.5 -35t-42.5 -12h-170q-14 0 -24 11q-8 9 -8 22v5zM344 276q20 -18 43 -30q20 -10 49 -19.5t66 -9.5q49 0 92 24.5t74.5 67.5t51 100.5t19.5 125.5q0 86 -38.5 140t-122.5 54q-37 0 -70 -13.5t-57.5 -31.5t-41 -37.5t-24.5 -34.5z" />
<glyph unicode="q" horiz-adv-x="1079" d="M59 403q0 115 36 217.5t100.5 179.5t151.5 122t192 45q49 0 92 -13.5t77.5 -33t59.5 -41t37 -37.5l43 73q6 12 14 21.5t25 9.5h76q16 0 26 -12q7 -9 7 -22q0 -5 -1 -11l-188 -1341q-2 -18 -16.5 -32.5t-30.5 -14.5h-172q-18 0 -29.5 12t-7.5 35l63 469q-33 -18 -92 -35 t-112 -17q-76 0 -139.5 33t-110.5 91.5t-74 135t-27 166.5zM309 424q0 -86 43 -146.5t129 -60.5q35 0 68 9.5t57 19.5q29 12 51 30l50 332q-6 14 -19.5 36t-34 40t-49.5 31.5t-65 13.5q-49 0 -91 -22.5t-73 -62.5t-48.5 -96t-17.5 -124z" />
<glyph unicode="r" horiz-adv-x="759" d="M53 45l121 856q2 20 15.5 32.5t29.5 12.5h78q16 0 24.5 -9t12.5 -22l18 -92q14 23 40 47.5t58.5 46t72.5 36t85 14.5q53 0 93 -13.5t59 -25.5q10 -10 15 -24q2 -4 2 -9q0 -11 -7 -25l-74 -143q-16 -35 -49 -18q-16 8 -41.5 14t-58.5 6q-66 0 -100.5 -36t-55.5 -77 l-82 -571q-4 -27 -17 -36t-38 -9h-166q-16 0 -28 14q-9 10 -8 22q0 4 1 9z" />
<glyph unicode="s" horiz-adv-x="788" d="M25 129l57 111q8 14 25.5 18t31.5 -6q35 -20 79 -36.5t97 -16.5q45 0 73 17t28 54q0 35 -33 66t-94 67q-88 53 -141.5 112.5t-53.5 160.5q0 57 22.5 109.5t65.5 92.5t108.5 64.5t151.5 24.5q45 0 86 -7.5t76 -18.5t61.5 -24.5t41.5 -25.5q14 -11 18 -31q1 -6 1 -11 q0 -14 -7 -28l-55 -106q-18 -29 -56 -13q-35 16 -81 32t-93 16q-55 0 -77.5 -21.5t-22.5 -48.5q0 -29 24.5 -52.5t87.5 -58.5q94 -49 159 -117.5t65 -170.5q0 -61 -23.5 -116.5t-70 -96.5t-112 -66t-151.5 -25q-49 0 -93 10.5t-81 26t-65.5 31.5t-44.5 29q-14 10 -14 24 t10 31z" />
<glyph unicode="t" horiz-adv-x="749" d="M78 764l16 137q4 20 16.5 32.5t28.5 12.5h105l35 262q4 18 17 31.5t30 13.5h180q16 0 25.5 -13t5.5 -32l-35 -262h180q34 0 34 -34q0 -5 -1 -11l-17 -137q-2 -16 -15 -30.5t-32 -14.5h-182l-57 -416q-6 -47 10 -59.5t35 -12.5q31 0 62.5 11.5t47.5 19.5q18 8 30.5 0 t16.5 -24l23 -144q1 -4 1 -8q0 -26 -36 -47q-6 -4 -28.5 -14.5t-56.5 -20.5t-77 -18.5t-88 -8.5q-111 0 -168 80q-41 57 -41 148q0 37 7 78l63 436h-100q-17 1 -27 15q-9 12 -8 25v5z" />
<glyph unicode="u" horiz-adv-x="1021" d="M85 232q-1 15 -1 32q0 63 10 135l74 502q6 45 45 45h176q16 0 27.5 -12t7.5 -33l-74 -510q-5 -36 -6 -64q0 -45 14 -70q22 -40 82 -40q43 0 74 19.5t51 44.5q23 29 37 65l78 555q4 29 18.5 37t32.5 8h172q15 0 27 -12q9 -9 9 -23q0 -5 -1 -10l-119 -856 q-2 -18 -16.5 -31.5t-30.5 -13.5h-78q-16 0 -24 10t-13 25l-16 80l-40.5 -45t-55.5 -45.5t-77.5 -34t-107.5 -13.5q-96 0 -154.5 32t-88 89.5t-32.5 133.5z" />
<glyph unicode="v" horiz-adv-x="931" d="M80 893q-2 8 -2 15q0 13 7 23q11 15 36 15h170q29 0 35 -26l112 -451h6l240 451q10 18 24.5 22t32.5 4h172q23 0 31 -18q3 -6 3 -12q0 -13 -11 -27l-510 -887q-10 -25 -41 -25h-8q-14 0 -21.5 7.5t-11.5 17.5z" />
<glyph unicode="w" horiz-adv-x="1345" d="M96 897q-1 6 -1 10q0 39 42 39h162q10 0 20.5 -7t12.5 -21l63 -420h2l279 450q8 10 14 16.5t23 6.5h20q18 0 31 -23l147 -450h2l185 420q8 20 22.5 24t30.5 4h156q25 0 31 -16q2 -6 1 -11q0 -11 -6 -26l-391 -889q-14 -27 -41 -27h-12q-20 0 -29 23l-190 553h-2 l-351 -553q-12 -23 -38 -23h-9q-29 0 -32 27z" />
<glyph unicode="x" horiz-adv-x="980" d="M-28 20v5q0 17 14 36l331 428l-217 390q-12 25 -1.5 46t38.5 21h180q12 0 22.5 -5t22.5 -28l130 -249h2l178 249q16 20 29.5 26.5t35.5 6.5h195q29 0 34 -22q1 -5 1 -9q0 -17 -13 -36l-325 -410l221 -406q10 -23 -3 -43t-38 -20h-162q-23 0 -32 11.5t-17 27.5l-141 270 h-4l-205 -291q-10 -18 -37 -18h-207q-29 0 -32 20z" />
<glyph unicode="y" horiz-adv-x="966" d="M-2 -472q-2 4 -2 10q0 13 10 32l264 498l-182 817q-4 23 3 42t34 19h182q10 0 21.5 -7t13.5 -19l92 -578h6l267 578q8 16 20 21t27 5h186q25 0 32 -20q3 -7 3 -14q0 -13 -8 -27l-705 -1344q-4 -10 -14 -19t-27 -9h-194q-23 0 -29 15z" />
<glyph unicode="z" horiz-adv-x="794" d="M-10 37q0 16 4 26.5t14 26.5l389 617v6h-256q-16 0 -24 14t-4 31l20 143q2 20 14.5 32.5t28.5 12.5h569q39 0 39 -37q0 -14 -8 -28l-411 -643v-7h243q18 0 26.5 -13t6.5 -32l-23 -141q-2 -18 -15 -31.5t-32 -13.5h-544q-20 0 -28.5 12.5t-8.5 24.5z" />
<glyph unicode="{" horiz-adv-x="747" d="M23 416l12 100q4 16 12 23.5t19 11.5q6 2 28.5 11t48 27.5t47 44t25.5 58.5l33 240q23 168 77 271.5t127.5 158.5t158.5 73.5t169 18.5q33 0 31 -35l-10 -129q-2 -16 -11.5 -25.5t-19.5 -11.5q-63 -14 -112.5 -36.5t-86 -59.5t-60.5 -92t-34 -133l-26 -195 q-10 -66 -38 -115t-61 -81.5t-60.5 -50t-33.5 -19.5v-8q18 -8 42 -25.5t43 -48.5t29.5 -76t2.5 -106l-27 -199q-10 -78 -2 -132t35 -90t70 -57.5t100 -33.5q10 -2 16 -12.5t2 -26.5l-22 -129q-4 -16 -16.5 -26.5t-26.5 -8.5q-72 2 -146.5 39t-133 103.5t-90.5 160.5t-15 213 l31 232q4 35 -6.5 59.5t-27 41.5t-37 25.5t-36.5 12.5q-27 4 -20 37z" />
<glyph unicode="|" horiz-adv-x="358" d="M-14 -451l276 1969q2 16 13.5 27t25.5 11h29q33 0 28 -38l-276 -1969q-2 -16 -14.5 -26t-26.5 -10h-25q-14 0 -23 10t-7 26z" />
<glyph unicode="}" horiz-adv-x="745" d="M-96 -475l12 129q2 16 11.5 26.5t19.5 12.5q68 14 118 35.5t84.5 57.5t56 90t32.5 132l26 199q8 61 31.5 106t51.5 76t57.5 48.5t50.5 25.5l2 8q-6 2 -28.5 19.5t-45.5 50t-38 82t-5 114.5l27 195q10 78 -0.5 133t-38 93t-69.5 60.5t-95 34.5q-10 2 -16.5 11.5t-2.5 25.5 l25 129q6 35 41 35q68 0 142.5 -30.5t135 -95t93 -163t14.5 -233.5l-33 -240q-4 -33 9.5 -58.5t34 -44t40 -27.5t25.5 -11q23 -8 20 -35l-14 -100q-6 -33 -33 -37q-16 -4 -39.5 -12.5t-45 -25.5t-39 -42t-21.5 -59l-33 -232q-23 -150 -74 -249t-123.5 -159.5t-158.5 -85 t-174 -24.5q-14 0 -24.5 9t-8.5 26z" />
<glyph unicode="~" horiz-adv-x="1032" d="M56.5 520.5q0.5 14.5 11.5 24.5q43 53 92 96q41 37 94 67.5t113 30.5q59 0 106 -27.5t82 -56.5q27 -20 55.5 -42.5t69.5 -22.5q20 0 40.5 11t39 27.5t34 35t27.5 32.5q31 33 56 4l81 -96q8 -10 7.5 -24.5t-11.5 -24.5q-41 -55 -88 -98q-41 -37 -93 -67t-109 -30 q-68 0 -119 28t-90 61q-23 20 -47.5 38.5t-59.5 18.5q-43 0 -81 -37t-60 -68q-12 -16 -27.5 -16t-25.5 12l-88 99q-10 10 -9.5 24.5z" />
<glyph unicode="&#xa1;" horiz-adv-x="497" d="M-41 -449l33 230l162 575q4 12 16 22.5t25 10.5h67q14 0 23.5 -10t7.5 -23l2 -571l-33 -234q-2 -16 -13 -27t-26 -11h-235q-14 0 -22.5 11t-6.5 27zM119 778q0 39 16.5 73t43 59.5t61 41t71.5 15.5q59 0 100.5 -44t41.5 -104q0 -39 -16.5 -73.5t-42 -60.5t-59.5 -41 t-71 -15q-63 0 -104 45t-41 104z" />
<glyph unicode="&#xa2;" horiz-adv-x="1019" d="M106 418q0 121 39 221t105.5 173t156 114t191.5 41q41 0 88 -11l41 107q6 16 21.5 24.5t29.5 4.5l31 -7q16 -4 22.5 -18t-0.5 -35l-45 -114q41 -23 75 -52.5t59 -62.5q12 -16 5 -33.5t-24 -34.5l-78 -80q-18 -18 -34.5 -14t-26.5 16q-10 10 -23.5 22.5t-33.5 22.5 l-189 -485h8q31 0 58.5 11.5t49 27.5t38 32.5t26.5 28.5t26.5 16.5t33.5 -11.5l88 -89q14 -14 18 -31.5t-8 -33.5q-63 -82 -153.5 -136.5t-202.5 -54.5q-39 0 -72 7l-88 -230q-6 -16 -20.5 -25.5t-30.5 -4.5l-29 8q-16 4 -24.5 18t2.5 33l90 233q-104 51 -162 156t-58 246z M365 434q0 -47 14 -91t43 -75l176 461q-47 -2 -90 -25.5t-75 -63.5t-50 -92.5t-18 -113.5z" />
<glyph unicode="&#xa3;" horiz-adv-x="1228" d="M213 39l6 37q45 72 72.5 140.5t43 134t20.5 127t3 118.5h-77q-14 0 -23.5 11t-5.5 28l4 27q4 16 14.5 27t24.5 11h57q-6 47 -11 114t-5 138q0 117 33.5 210t95 157.5t146.5 99.5t186 35q59 0 107 -16.5t85 -40t62.5 -48t42.5 -40.5q10 -10 8 -25.5t-12 -28.5l-117 -114 q-29 -29 -49 -6q-6 8 -20.5 22t-33 28.5t-43 26t-53.5 11.5q-31 0 -62.5 -14.5t-57 -44t-41 -75t-15.5 -106.5q0 -63 13.5 -139t17.5 -144h188q16 0 26.5 -11t6.5 -27l-6 -29q-4 -16 -14.5 -26.5t-26.5 -10.5h-172q-4 -74 -20.5 -174t-51.5 -195h334q33 0 27 -39l-21 -149 q-2 -16 -13.5 -27.5t-25.5 -11.5h-616q-14 0 -23.5 11.5t-7.5 27.5z" />
<glyph unicode="&#xa4;" horiz-adv-x="950" d="M123 439.5q4 17.5 14 27.5l107 98q-6 31 -6 66q0 88 38 164l-79 98q-8 10 -6 27.5t14 27.5l94 80q12 10 26.5 10t22.5 -10l78 -96q53 27 100 26q47 0 95 -26l104 96q10 10 24.5 10t24.5 -10l72 -82q10 -10 7 -26.5t-13 -26.5l-105 -96q4 -16 6 -34t2 -36q0 -86 -41 -164 l78 -96q8 -10 6 -27.5t-14 -27.5l-96 -80q-12 -10 -25.5 -11.5t-21.5 9.5l-80 98q-47 -27 -100 -27t-93 27l-106 -98q-10 -10 -24.5 -10.5t-24.5 10.5l-72 82q-10 10 -6 27.5zM399 662q0 -37 20.5 -62t53.5 -25q45 0 72.5 40t27.5 87q0 37 -19 60.5t-54 23.5 q-45 0 -73 -40.5t-28 -83.5z" />
<glyph unicode="&#xa5;" horiz-adv-x="1228" d="M168 1384q-10 20 1 35t34 15h192q16 0 24.5 -6.5t14.5 -22.5l215 -471l344 481q4 6 12.5 12.5t20.5 6.5h225q23 0 28 -16.5t-9 -37.5l-516 -688l-15 -96h193q16 0 24.5 -11.5t4.5 -27.5l-3 -29q-4 -16 -14 -26t-26 -10h-193l-18 -142h190q16 0 24.5 -11t6.5 -28l-4 -28 q-4 -16 -14.5 -26.5t-26.5 -10.5h-191l-28 -207q-2 -16 -14.5 -27.5t-26.5 -11.5h-199q-16 0 -23.5 11.5t-5.5 27.5l29 207h-195q-14 0 -21 11t-5 28l4 26q2 16 13 27.5t26 11.5h192l21 142h-195q-14 0 -22.5 11t-3.5 27l4 27q2 16 12 27.5t25 11.5h194l14 94z" />
<glyph unicode="&#xa6;" horiz-adv-x="370" d="M-8 -451l94 678q4 16 15.5 27.5t25.5 11.5h29q33 0 28 -39l-96 -678q-2 -16 -14.5 -26t-26.5 -10h-24q-14 0 -23.5 10t-7.5 26zM172 840l96 678q2 16 13.5 27t25.5 11h29q33 0 29 -38l-97 -678q-2 -16 -13 -26.5t-26 -10.5h-26q-14 0 -23.5 10t-7.5 27z" />
<glyph unicode="&#xa7;" horiz-adv-x="1073" d="M9.5 -327.5q-1.5 14.5 15.5 38.5l67 99q14 20 31.5 26t38.5 -10q6 -4 29.5 -20.5t57.5 -35t76 -32.5t83 -14q61 0 108 38.5t47 104.5q0 74 -43 128t-121 101q-49 29 -98 65t-89 81t-65.5 101t-25.5 126q0 117 50 200t122 130q-35 31 -63.5 92t-28.5 145q0 76 25.5 151 t79.5 134t138 96t199 37q72 0 129 -16.5t100 -38t72 -43t45 -33.5q12 -10 13.5 -28.5t-11.5 -34.5l-84 -111q-29 -39 -63 -10q-12 12 -37 26.5t-55.5 27.5t-66.5 22.5t-73 9.5q-68 0 -109.5 -44t-41.5 -104q0 -106 168 -192q49 -27 103 -60.5t99.5 -80t74 -105.5t28.5 -137 q0 -57 -15.5 -109.5t-40 -95.5t-55 -77t-61.5 -56q33 -29 61.5 -91.5t28.5 -150.5t-30.5 -167t-90 -137t-146.5 -93t-200 -35q-72 0 -133.5 19.5t-108.5 44t-78.5 50t-41.5 38.5q-12 16 -13.5 30.5zM369 508q0 -39 15 -68.5t43 -55.5t65.5 -49t80.5 -52q23 18 43 45 q16 23 29.5 57.5t13.5 81.5q0 72 -60 122t-153 97q-6 -6 -19 -19.5t-25.5 -35t-22.5 -53t-10 -70.5z" />
<glyph unicode="&#xa8;" horiz-adv-x="763" d="M109 1260q6 63 52 105t99 42q59 0 93 -42t28 -105q-4 -31 -18.5 -58.5t-36 -48t-48 -32t-53.5 -11.5q-57 0 -91 43t-25 107zM496 1260q6 63 52 105t99 42q57 0 92 -42t29 -105q-8 -63 -55.5 -106.5t-100.5 -43.5q-59 0 -92 43t-24 107z" />
<glyph unicode="&#xa9;" horiz-adv-x="1566" d="M131 621q0 170 61.5 321.5t167 265t247 180t298.5 66.5q123 0 227.5 -50t180.5 -138t118 -205t42 -248q0 -172 -62.5 -322.5t-168 -264t-247 -179t-297.5 -65.5q-123 0 -227 50t-180 137t-118 203t-42 249zM287 639q0 -102 31.5 -192.5t90 -158t137.5 -107.5t175 -40 q117 0 224.5 51.5t190.5 140.5t132 207.5t49 254.5q0 102 -32 193t-90 158.5t-138 106.5t-174 39q-117 0 -224.5 -51t-190.5 -140t-132 -208t-49 -254zM469 672q0 92 31.5 170t86 135t127 89t154.5 32q55 0 110.5 -17.5t94.5 -60.5q10 -12 10 -29.5t-16 -29.5l-84 -74 q-25 -20 -45 -4q-23 16 -45.5 22t-46.5 6q-37 0 -71 -17t-58.5 -48t-39.5 -72t-15 -86q0 -68 35.5 -115t95.5 -47q25 0 49 11.5t47 27.5q27 20 45 -4l67 -88q18 -29 -10 -57q-55 -47 -108.5 -66.5t-112.5 -19.5q-66 0 -120 26.5t-95 72.5t-63.5 108.5t-22.5 134.5z" />
<glyph unicode="&#xaa;" horiz-adv-x="657" d="M131 991q0 98 66.5 162t181.5 64q16 0 33.5 -2.5t29.5 -6.5q14 -4 27 -8q10 57 0 83t-57 26q-31 0 -74 -8.5t-68 -14.5q-33 -6 -28 31l-2 67q0 25 28 41q23 12 68 20.5t117 8.5q127 0 164.5 -66.5t19.5 -197.5l-45 -330q-4 -29 -31 -29h-55q-16 0 -23.5 19.5t-11.5 44.5 q-29 -27 -70.5 -53.5t-107.5 -26.5q-74 0 -118 48t-44 128zM301 1016q0 -29 15 -45.5t40 -16.5q29 0 51.5 17.5t30.5 38.5l8 80q-8 6 -26.5 11t-36.5 5q-33 0 -57.5 -24.5t-24.5 -65.5z" />
<glyph unicode="&#xab;" horiz-adv-x="952" d="M66 459q-12 27 6 49l233 303q6 8 16.5 16.5t26.5 8.5h131q25 0 30 -19.5t-9 -44.5l-164 -305l65 -281q6 -25 -4 -43t-32 -18h-127q-16 0 -25 16zM451 459q-12 27 6 49l233 303q6 8 16.5 16.5t26.5 8.5h131q25 0 30 -19.5t-9 -44.5l-164 -305l65 -281q6 -25 -4 -43 t-32 -18h-127q-16 0 -25 16z" />
<glyph unicode="&#xac;" horiz-adv-x="1085" d="M131 653l16 115q2 16 13.5 27.5t25.5 11.5h734q16 0 23 -12.5t5 -26.5l-65 -463q-2 -16 -13.5 -26.5t-25.5 -10.5h-119q-14 0 -23.5 10.5t-5.5 26.5l43 309h-579q-14 0 -22.5 11.5t-6.5 27.5z" />
<glyph unicode="&#xad;" horiz-adv-x="712" d="M92 430l19 137q2 16 13 27.5t28 11.5h417q33 0 29 -39l-18 -137q-2 -16 -13.5 -26.5t-27.5 -10.5h-418q-16 0 -23.5 10.5t-5.5 26.5z" />
<glyph unicode="&#xae;" horiz-adv-x="1566" d="M131 621q0 170 61.5 321.5t167 265t247 180t298.5 66.5q123 0 227.5 -50t180.5 -138t118 -205t42 -248q0 -172 -62.5 -322.5t-168 -264t-247 -179t-297.5 -65.5q-123 0 -227 50t-180 137t-118 203t-42 249zM287 639q0 -102 31.5 -192.5t90 -158t137.5 -107.5t175 -40 q117 0 224.5 51.5t190.5 140.5t132 207.5t49 254.5q0 102 -32 193t-90 158.5t-138 106.5t-174 39q-117 0 -224.5 -51t-190.5 -140t-132 -208t-49 -254zM506 383l94 672q2 16 13.5 27.5t25.5 11.5h293q78 0 136 -58.5t58 -158.5q0 -59 -15 -102.5t-38.5 -73t-52.5 -49 t-57 -29.5l51 -224q4 -23 -7.5 -39t-31.5 -16h-111q-10 0 -18 9t-10 20l-41 229h-88l-31 -219q-2 -16 -12.5 -27.5t-26.5 -11.5h-102q-16 0 -24.5 11.5t-4.5 27.5zM723 754h135q31 0 55.5 28.5t24.5 69.5q0 31 -15.5 50.5t-39.5 19.5h-135z" />
<glyph unicode="&#xaf;" horiz-adv-x="763" d="M78 1204l8 70q2 16 13.5 27.5t27.5 11.5h473q14 0 23.5 -11.5t5.5 -27.5l-11 -70q-2 -16 -12 -26.5t-26 -10.5h-474q-16 0 -23 10.5t-5 26.5z" />
<glyph unicode="&#xb0;" horiz-adv-x="643" d="M152 1141q0 63 20.5 120.5t57 100.5t88 67.5t114.5 24.5q47 0 88 -18.5t71 -51t47 -76.5t17 -94q0 -66 -21.5 -123t-59 -99t-89 -66.5t-108.5 -24.5q-49 0 -90 18.5t-71 51.5t-47 77t-17 93zM328 1161q0 -35 16 -59.5t45 -24.5q33 0 59.5 34t26.5 81q0 35 -15.5 59.5 t-43.5 24.5q-35 0 -61.5 -34t-26.5 -81z" />
<glyph unicode="&#xb1;" horiz-adv-x="1228" d="M143 135l15 115q2 16 14 27.5t27 11.5h733q14 0 22.5 -11.5t6.5 -27.5l-17 -115q-2 -16 -13 -27.5t-26 -11.5h-727q-18 0 -27.5 11.5t-7.5 27.5zM258 782l16 115q2 16 13.5 27.5t25.5 11.5h269l43 303q2 16 14 26.5t27 10.5h125q14 0 23 -10.5t7 -26.5l-43 -303h269 q14 0 22 -11.5t6 -27.5l-16 -115q-2 -16 -13.5 -27.5t-25.5 -11.5h-268l-27 -211q-4 -16 -15.5 -26t-25.5 -10h-127q-14 0 -23.5 10t-5.5 26l27 211h-268q-14 0 -22.5 11.5t-6.5 27.5z" />
<glyph unicode="&#xb2;" horiz-adv-x="536" d="M125 1051l6 34l229 258q59 70 60 117q0 23 -12.5 40.5t-36.5 17.5q-23 0 -45.5 -11.5t-44.5 -27.5q-10 -6 -17.5 -5t-15.5 15l-37 67q-6 12 -6 20.5t20 22.5q10 8 57.5 34t123.5 26t128 -45t52 -117q0 -55 -21.5 -104.5t-64.5 -98.5l-117 -131h135q20 0 17 -18l-15 -94 q0 -8 -6 -13.5t-12 -5.5h-361q-20 0 -16 19z" />
<glyph unicode="&#xb3;" horiz-adv-x="528" d="M143 1079q-16 16 0 37l45 53q18 18 35 5q10 -10 28.5 -18.5t47.5 -8.5q41 0 59.5 19.5t18.5 54.5q0 25 -15.5 41t-48.5 16h-57q-27 0 -20 29l8 63q2 29 35 29h53q29 0 50 20.5t21 53.5q0 51 -53 51q-18 0 -35.5 -10.5t-31.5 -22.5q-10 -4 -15.5 -5t-13.5 11l-43 64 q-6 8 -4 19t12 17q20 16 45 31q23 10 52.5 20.5t66.5 10.5q84 0 137 -40t53 -108q0 -66 -38.5 -107.5t-77.5 -57.5q27 -12 58.5 -45t31.5 -93q0 -47 -19.5 -84t-51.5 -61.5t-75 -37.5t-92 -13q-72 0 -113.5 27.5t-52.5 39.5z" />
<glyph unicode="&#xb4;" horiz-adv-x="557" d="M135 1116q-14 37 21 53l266 158q16 10 34.5 8t28.5 -22l39 -86q12 -20 4 -40t-26 -26l-305 -137l-15 5q-14 5 -20 24z" />
<glyph unicode="&#xb5;" horiz-adv-x="1062" d="M18 -442l193 1343q6 45 45 45h176q16 0 27.5 -12t7.5 -33l-74 -516q-10 -78 13.5 -123t76.5 -45q43 0 74 19.5t51 44.5q23 29 37 65l78 555q4 29 18.5 37t32.5 8h172q16 0 27.5 -12t7.5 -33l-119 -856q-2 -18 -16.5 -31.5t-30.5 -13.5h-78q-16 0 -24 10t-13 25l-16 80 l-40.5 -45t-55.5 -45.5t-77 -34t-108 -13.5q-37 0 -67 7l-60 -426q-2 -18 -16 -31.5t-31 -13.5h-176q-16 0 -26.5 13t-8.5 32z" />
<glyph unicode="&#xb6;" horiz-adv-x="1398" d="M121 948q0 98 34.5 186.5t93 155t134.5 105.5t160 39h846q14 0 24 -11.5t6 -27.5l-14 -95q-6 -39 -39 -38h-127l-240 -1711q-2 -16 -13 -27t-28 -11h-116q-14 0 -22.5 11t-6.5 27l240 1709h-242l-240 -1709q-2 -16 -13 -27t-26 -11h-116q-14 0 -23.5 11t-7.5 27l143 1024 h-79q-72 0 -131.5 29t-103.5 79t-68.5 118.5t-24.5 146.5z" />
<glyph unicode="&#xb7;" horiz-adv-x="536" d="M74 504q0 43 17.5 81t47 66.5t66.5 45t78 16.5q72 0 117.5 -48.5t45.5 -117.5q0 -41 -18 -79t-48 -65.5t-69 -44t-80 -16.5q-68 0 -112.5 48t-44.5 114z" />
<glyph unicode="&#xb8;" horiz-adv-x="505" d="M45 -453q-18 20 6 58l25 41q27 47 59 18q10 -10 31.5 -21.5t50.5 -11.5q16 0 35.5 5.5t36 15.5t27 28.5t10.5 43.5q0 33 -22.5 49t-61.5 16q-29 0 -47.5 -9t-32.5 -13q-16 -6 -28.5 8t-2.5 28l123 203h139l-102 -133q20 6 43 6q63 0 107 -39t44 -110q0 -53 -20.5 -96.5 t-55 -74t-81.5 -47t-103 -16.5q-59 0 -108 14.5t-72 36.5z" />
<glyph unicode="&#xb9;" horiz-adv-x="415" d="M174 1456l6 62q2 12 6 18t13 10l151 92h107q18 0 14 -18l-80 -569q-4 -18 -20 -19h-127q-16 0 -17 19l56 395l-97 -8q-16 0 -12 18z" />
<glyph unicode="&#xba;" horiz-adv-x="643" d="M152 1059q0 180 76.5 287.5t213.5 107.5q94 0 147.5 -67.5t53.5 -184.5q0 -178 -78 -286.5t-213 -108.5q-92 0 -146 68.5t-54 183.5zM324 1065q0 -49 13 -78t36 -29q43 0 70.5 70t27.5 168q0 49 -13.5 78t-35.5 29q-23 0 -41.5 -19.5t-30.5 -52.5t-19 -76t-7 -90z" />
<glyph unicode="&#xbb;" horiz-adv-x="952" d="M29.5 144.5q-4.5 19.5 9.5 43.5l164 306l-66 280q-6 25 4.5 43.5t32.5 18.5h127q16 0 25 -17l147 -317q12 -27 -6 -49l-234 -303q-6 -8 -16 -16.5t-27 -8.5h-131q-25 0 -29.5 19.5zM414.5 144.5q-4.5 19.5 9.5 43.5l164 306l-66 280q-6 25 4.5 43.5t32.5 18.5h127 q16 0 25 -17l147 -317q12 -27 -6 -49l-234 -303q-6 -8 -16 -16.5t-27 -8.5h-131q-25 0 -29.5 19.5z" />
<glyph unicode="&#xbc;" horiz-adv-x="1249" d="M101 17.5q-7 17.5 5 37.5l826 1358q14 20 35 21h106q20 0 27.5 -17.5t-4.5 -38.5l-828 -1358q-4 -6 -13 -13t-19 -7h-105q-23 0 -30 17.5zM172 1251l6 62q2 12 6 18t13 10l151 93h107q18 0 14 -19l-80 -569q-4 -18 -20 -19h-127q-16 0 -17 19l56 395l-97 -8q-16 0 -12 18 zM610 133l15 105l342 358q8 8 13 9t13 1h80q6 0 11.5 -5t2.5 -13l-49 -348h72q18 0 14 -17l-12 -88q0 -8 -6 -13t-12 -5h-74l-12 -99q-4 -18 -21 -18h-115q-20 0 -16 18l14 99h-245q-14 0 -15 16zM768 238h121l24 147z" />
<glyph unicode="&#xbd;" horiz-adv-x="1232" d="M101 17.5q-7 17.5 5 37.5l826 1358q14 20 35 21h106q20 0 27.5 -17.5t-4.5 -38.5l-828 -1358q-4 -6 -13 -13t-19 -7h-105q-23 0 -30 17.5zM172 1251l6 62q2 12 6 18t13 10l151 93h107q18 0 14 -19l-80 -569q-4 -18 -20 -19h-127q-16 0 -17 19l56 395l-97 -8q-16 0 -12 18 zM659 18l7 35l229 258q59 70 59 117q0 23 -12 40t-37 17q-23 0 -45 -11t-45 -28q-10 -6 -17 -5t-16 16l-37 67q-6 12 -6 20.5t21 22.5q10 8 57 34t123 26t128 -45t52 -117q0 -55 -21.5 -104.5t-64.5 -98.5l-116 -131h135q20 0 16 -18l-14 -95q0 -8 -6.5 -13t-12.5 -5h-360 q-20 0 -17 18z" />
<glyph unicode="&#xbe;" horiz-adv-x="1351" d="M137 874q-16 16 0 37l45 54q18 18 35 4q10 -10 28.5 -18.5t47.5 -8.5q41 0 59.5 19.5t18.5 54.5q0 25 -15.5 41t-48.5 16h-57q-27 0 -21 29l9 63q2 29 34 29h54q29 0 50 20.5t21 53.5q0 51 -53 51q-18 0 -35.5 -10.5t-32.5 -22.5q-10 -4 -15 -5t-13 11l-43 64q-6 8 -4 19 t12 18q20 16 45 30q23 10 52.5 20.5t66.5 10.5q84 0 137 -40t53 -107q0 -66 -39 -108t-77 -58q27 -12 58.5 -45t31.5 -92q0 -47 -19.5 -84t-51.5 -61.5t-75 -38t-92 -13.5q-72 0 -114 27.5t-52 39.5zM206 17.5q-7 17.5 5 37.5l825 1358q14 20 35 21h107q20 0 27 -17.5 t-5 -38.5l-827 -1358q-4 -6 -13.5 -13t-19.5 -7h-104q-23 0 -30 17.5zM715 133l14 105l342 358q8 8 13.5 9t13.5 1h80q6 0 11 -5t3 -13l-49 -348h71q18 0 15 -17l-12 -88q0 -8 -6.5 -13t-12.5 -5h-74l-12 -99q-4 -18 -20 -18h-115q-20 0 -16 18l14 99h-246q-14 0 -14 16z M872 238h121l25 147z" />
<glyph unicode="&#xbf;" horiz-adv-x="858" d="M-53 -199q0 70 23.5 123t58 95t76.5 75t80 62.5t66 58.5t36 64l16 77q6 33 39 33h176q14 0 23.5 -11t7.5 -28l-12 -86q-6 -51 -33 -91t-61.5 -75t-73.5 -65.5t-72 -62t-54.5 -65.5t-21.5 -73q0 -47 27.5 -75.5t81.5 -28.5q31 0 59.5 12t53 29.5t43 36t30.5 28.5 q16 14 32.5 11t26.5 -13l95 -104q10 -10 6 -25.5t-14 -28.5q-10 -10 -38 -39.5t-74 -61.5t-111.5 -56.5t-151.5 -24.5q-72 0 -133.5 23.5t-107.5 64.5t-72.5 98.5t-26.5 122.5zM322 778q0 39 16 73t43 59.5t60.5 41t70.5 15.5q61 0 102 -44t41 -104q0 -39 -16 -73.5 t-42 -60.5t-60.5 -41t-71.5 -15q-61 0 -102 45t-41 104z" />
<glyph unicode="&#xc0;" horiz-adv-x="1267" d="M-57.5 16.5q-5.5 16.5 4.5 36.5l770 1379q12 23 35 22h18q20 0 29 -22l377 -1379q6 -20 -5.5 -36.5t-33.5 -16.5h-179q-45 0 -53 41l-51 227h-510l-119 -227q-8 -16 -24.5 -28.5t-40.5 -12.5h-189q-23 0 -28.5 16.5zM465 489h323l-96 447h-4zM587 1705.5q-5 18.5 11 41.5 l47 69q16 27 37 27t31 -8l223 -158q12 -6 16.5 -22.5t-6.5 -32.5l-32 -53q-23 -37 -62 -17l-246 127q-14 8 -19 26.5z" />
<glyph unicode="&#xc1;" horiz-adv-x="1267" d="M-57.5 16.5q-5.5 16.5 4.5 36.5l770 1379q12 23 35 22h18q20 0 29 -22l377 -1379q6 -20 -5.5 -36.5t-33.5 -16.5h-179q-45 0 -53 41l-51 227h-510l-119 -227q-8 -16 -24.5 -28.5t-40.5 -12.5h-189q-23 0 -28.5 16.5zM465 489h323l-96 447h-4zM602 1636q-14 37 21 53 l266 158q16 10 34.5 8t28.5 -22l39 -86q12 -20 4 -40t-26 -26l-305 -137l-15 5q-14 5 -20 24z" />
<glyph unicode="&#xc2;" horiz-adv-x="1267" d="M-57.5 16.5q-5.5 16.5 4.5 36.5l770 1379q12 23 35 22h18q20 0 29 -22l377 -1379q6 -20 -5.5 -36.5t-33.5 -16.5h-179q-45 0 -53 41l-51 227h-510l-119 -227q-8 -16 -24.5 -28.5t-40.5 -12.5h-189q-23 0 -28.5 16.5zM465 489h323l-96 447h-4zM539 1654.5q6 14.5 18 24.5 l219 166q29 20 55 -2l174 -164q10 -8 14.5 -24.5t-8.5 -30.5l-47 -60q-25 -33 -55 -8l-119 94l-153 -96q-20 -12 -32.5 -7t-23.5 17l-36 56q-12 20 -6 34.5z" />
<glyph unicode="&#xc3;" horiz-adv-x="1267" d="M-57.5 16.5q-5.5 16.5 4.5 36.5l770 1379q12 23 35 22h18q20 0 29 -22l377 -1379q6 -20 -5.5 -36.5t-33.5 -16.5h-179q-45 0 -53 41l-51 227h-510l-119 -227q-8 -16 -24.5 -28.5t-40.5 -12.5h-189q-23 0 -28.5 16.5zM465 489h323l-96 447h-4zM539.5 1634.5 q0.5 15.5 9.5 28.5q6 10 20 34.5t35.5 48t53.5 43t71 19.5q33 0 55.5 -16.5t39.5 -33.5t31.5 -28.5t26.5 -11.5t21.5 12.5t17.5 28.5q10 20 31.5 29.5t42.5 -6.5l37 -29q20 -16 19 -34.5t-11 -39.5q-4 -12 -18.5 -35.5t-36 -45t-51 -38t-66.5 -16.5q-35 0 -59.5 15.5t-43 34 t-31.5 30.5t-24 12q-14 0 -25.5 -19.5t-21.5 -35.5q-8 -16 -28.5 -20.5t-34.5 8.5l-45 34q-16 16 -15.5 31.5z" />
<glyph unicode="&#xc4;" horiz-adv-x="1267" d="M-57.5 16.5q-5.5 16.5 4.5 36.5l770 1379q12 23 35 22h18q20 0 29 -22l377 -1379q6 -20 -5.5 -36.5t-33.5 -16.5h-179q-45 0 -53 41l-51 227h-510l-119 -227q-8 -16 -24.5 -28.5t-40.5 -12.5h-189q-23 0 -28.5 16.5zM438 1718q6 63 51.5 105.5t98.5 42.5q59 0 93 -42 t28 -106q-4 -31 -18.5 -58.5t-36 -48t-48 -31.5t-53.5 -11q-57 0 -90 43t-25 106zM465 489h323l-96 447h-4zM893 1718q6 63 52 105.5t99 42.5q57 0 91 -42t28 -106q-8 -63 -54 -106t-99 -43q-59 0 -92 43t-25 106z" />
<glyph unicode="&#xc5;" horiz-adv-x="1267" d="M-57.5 16.5q-5.5 16.5 4.5 36.5l770 1379q12 23 35 22h18q20 0 29 -22l377 -1379q6 -20 -5.5 -36.5t-33.5 -16.5h-179q-45 0 -53 41l-51 227h-510l-119 -227q-8 -16 -24.5 -28.5t-40.5 -12.5h-189q-23 0 -28.5 16.5zM465 489h323l-96 447h-4zM596 1745q0 55 19.5 102 t52 83t78 56.5t96.5 20.5q39 0 71.5 -15.5t57 -43t38 -64.5t13.5 -78q0 -55 -19.5 -102t-52 -83t-78 -56.5t-94.5 -20.5q-80 0 -131 58.5t-51 142.5zM725 1763q0 -35 20.5 -62.5t49.5 -27.5q37 0 67.5 35t30.5 80q0 35 -19.5 60.5t-50.5 25.5q-37 0 -67.5 -33t-30.5 -78z " />
<glyph unicode="&#xc6;" horiz-adv-x="1683" d="M-89 16.5q-3 16.5 11 36.5l924 1317q23 31 39 47.5t51 16.5h735q14 0 22.5 -11.5t6.5 -27.5l-25 -168q-2 -16 -12 -27.5t-27 -11.5h-528l-47 -336h436q14 0 23.5 -11.5t7.5 -27.5l-25 -170q-4 -16 -15 -27.5t-26 -11.5h-436l-51 -358h528q16 0 23.5 -11.5t5.5 -27.5 l-23 -168q-2 -16 -13 -27.5t-28 -11.5h-757q-16 0 -24.5 11.5t-6.5 27.5l33 223h-359l-151 -231q-23 -31 -56 -31h-210q-23 0 -26 16.5zM518 489h225l64 455z" />
<glyph unicode="&#xc7;" horiz-adv-x="1286" d="M109 616q0 180 59 334t162.5 265.5t243 175t298.5 63.5q139 0 247 -54t179 -140q10 -12 8.5 -29t-16.5 -29l-110 -106q-16 -16 -35 -15.5t-33 15.5q-41 39 -104.5 70.5t-149.5 31.5q-92 0 -175 -44t-146.5 -120t-100.5 -174t-37 -209q0 -82 21.5 -154.5t61.5 -128 t98.5 -88t132.5 -32.5q90 0 158.5 37t121.5 84q39 33 66 -2l106 -134q8 -10 4 -27.5t-14 -27.5q-102 -98 -209.5 -145t-224.5 -53l-82 -107q20 6 43 6q63 0 107.5 -39t44.5 -110q0 -53 -20.5 -96.5t-55.5 -74t-82 -47t-103 -16.5q-59 0 -108 14.5t-72 36.5q-18 20 6 58 l25 41q27 47 59 18q10 -10 32 -21.5t50 -11.5q16 0 36 5.5t36 15.5t26.5 28.5t10.5 43.5q0 33 -22.5 49t-61.5 16q-29 0 -47.5 -9t-32.5 -13q-16 -6 -28.5 8t-2.5 28l111 185q-111 18 -200 74.5t-151.5 139.5t-96 189t-33.5 225z" />
<glyph unicode="&#xc8;" horiz-adv-x="1095" d="M94 39l191 1356q2 16 13 27.5t26 11.5h757q16 0 24.5 -11.5t6.5 -27.5l-25 -168q-2 -16 -13 -27.5t-27 -11.5h-525l-47 -336h434q14 0 23.5 -11.5t7.5 -27.5l-25 -170q-4 -16 -15 -27.5t-26 -11.5h-434l-51 -358h526q16 0 23.5 -11.5t5.5 -27.5l-22 -168 q-2 -16 -13.5 -27.5t-27.5 -11.5h-758q-16 0 -24.5 11.5t-4.5 27.5zM486 1705.5q-5 18.5 11 41.5l47 69q16 27 37 27t31 -8l223 -158q12 -6 16.5 -22.5t-6.5 -32.5l-32 -53q-23 -37 -62 -17l-246 127q-14 8 -19 26.5z" />
<glyph unicode="&#xc9;" horiz-adv-x="1095" d="M94 39l191 1356q2 16 13 27.5t26 11.5h757q16 0 24.5 -11.5t6.5 -27.5l-25 -168q-2 -16 -13 -27.5t-27 -11.5h-525l-47 -336h434q14 0 23.5 -11.5t7.5 -27.5l-25 -170q-4 -16 -15 -27.5t-26 -11.5h-434l-51 -358h526q16 0 23.5 -11.5t5.5 -27.5l-22 -168 q-2 -16 -13.5 -27.5t-27.5 -11.5h-758q-16 0 -24.5 11.5t-4.5 27.5zM586 1636q-14 37 21 53l266 158q16 10 34.5 8t28.5 -22l39 -86q12 -20 4 -40t-26 -26l-305 -137l-15 5q-14 5 -20 24z" />
<glyph unicode="&#xca;" horiz-adv-x="1095" d="M94 39l191 1356q2 16 13 27.5t26 11.5h757q16 0 24.5 -11.5t6.5 -27.5l-25 -168q-2 -16 -13 -27.5t-27 -11.5h-525l-47 -336h434q14 0 23.5 -11.5t7.5 -27.5l-25 -170q-4 -16 -15 -27.5t-26 -11.5h-434l-51 -358h526q16 0 23.5 -11.5t5.5 -27.5l-22 -168 q-2 -16 -13.5 -27.5t-27.5 -11.5h-758q-16 0 -24.5 11.5t-4.5 27.5zM496 1652.5q6 14.5 18 24.5l219 166q29 20 55 -2l174 -164q10 -8 14.5 -24.5t-8.5 -30.5l-47 -60q-25 -33 -55 -8l-119 94l-153 -96q-20 -12 -32.5 -7t-23.5 17l-36 56q-12 20 -6 34.5z" />
<glyph unicode="&#xcb;" horiz-adv-x="1095" d="M94 39l191 1356q2 16 13 27.5t26 11.5h757q16 0 24.5 -11.5t6.5 -27.5l-25 -168q-2 -16 -13 -27.5t-27 -11.5h-525l-47 -336h434q14 0 23.5 -11.5t7.5 -27.5l-25 -170q-4 -16 -15 -27.5t-26 -11.5h-434l-51 -358h526q16 0 23.5 -11.5t5.5 -27.5l-22 -168 q-2 -16 -13.5 -27.5t-27.5 -11.5h-758q-16 0 -24.5 11.5t-4.5 27.5zM383 1718q6 63 51 105.5t98 42.5q59 0 93 -42t28 -106q-4 -31 -18 -58.5t-35.5 -48t-48 -31.5t-53.5 -11q-57 0 -90 43t-25 106zM838 1718q6 63 52 105.5t99 42.5q57 0 91 -42t28 -106q-8 -63 -54.5 -106 t-99.5 -43q-59 0 -92 43t-24 106z" />
<glyph unicode="&#xcc;" horiz-adv-x="610" d="M94 39l191 1356q2 16 13 27.5t26 11.5h200q14 0 23.5 -11.5t5.5 -27.5l-191 -1356q-2 -16 -13 -27.5t-25 -11.5h-201q-14 0 -23.5 11.5t-5.5 27.5zM212 1703.5q-5 18.5 11 41.5l47 69q16 27 37 27t31 -8l223 -158q12 -6 16.5 -22.5t-6.5 -32.5l-32 -53q-23 -37 -62 -17 l-246 127q-14 8 -19 26.5z" />
<glyph unicode="&#xcd;" horiz-adv-x="610" d="M94 39l191 1356q2 16 13 27.5t26 11.5h200q14 0 23.5 -11.5t5.5 -27.5l-191 -1356q-2 -16 -13 -27.5t-25 -11.5h-201q-14 0 -23.5 11.5t-5.5 27.5zM295 1636q-14 37 21 53l266 158q16 10 34.5 8t28.5 -22l39 -86q12 -20 4 -40t-26 -26l-305 -137l-15 5q-14 5 -20 24z" />
<glyph unicode="&#xce;" horiz-adv-x="610" d="M94 39l191 1356q2 16 13 27.5t26 11.5h200q14 0 23.5 -11.5t5.5 -27.5l-191 -1356q-2 -16 -13 -27.5t-25 -11.5h-201q-14 0 -23.5 11.5t-5.5 27.5zM165 1667.5q5 11.5 15 20.5l275 206q23 16 43 0l217 -206q8 -6 11 -17.5t-5 -21.5l-59 -76q-18 -25 -41 -6l-160 127 l-205 -127q-16 -10 -24.5 -7t-16.5 13l-45 67q-10 16 -5 27.5z" />
<glyph unicode="&#xcf;" horiz-adv-x="610" d="M94 39l191 1356q2 16 13 27.5t26 11.5h200q14 0 23.5 -11.5t5.5 -27.5l-191 -1356q-2 -16 -13 -27.5t-25 -11.5h-201q-14 0 -23.5 11.5t-5.5 27.5zM100 1718q6 63 51.5 105.5t98.5 42.5q59 0 93 -42t28 -106q-4 -31 -18.5 -58.5t-36 -48t-48 -31.5t-53.5 -11 q-57 0 -90 43t-25 106zM555 1718q6 63 52 105.5t100 42.5q57 0 90.5 -42t27.5 -106q-8 -63 -54 -106t-99 -43q-59 0 -92 43t-25 106z" />
<glyph unicode="&#xd0;" horiz-adv-x="1394" d="M96 39l86 618h-53q-14 0 -22.5 11.5t-6.5 27.5l2 27q2 16 14.5 27.5t26.5 11.5h54l90 633q2 16 13 27.5t26 11.5h442q121 0 223.5 -51.5t176 -137.5t114.5 -198.5t41 -235.5q0 -166 -58.5 -313.5t-161 -258t-240.5 -175t-296 -64.5h-444q-14 0 -22.5 11.5t-4.5 27.5z M391 250h191q94 0 177 42t145.5 114.5t98 172t35.5 214.5q0 84 -22.5 155.5t-65.5 124.5t-102.5 83t-132.5 30h-193l-59 -424h280q16 0 23.5 -11.5t5.5 -27.5l-4 -29q-2 -16 -12.5 -26.5t-26.5 -10.5h-280z" />
<glyph unicode="&#xd1;" horiz-adv-x="1443" d="M96 35l193 1382q2 16 13 26.5t26 10.5h22q16 0 26.5 -4t26.5 -29l603 -852h2l110 826q2 16 12.5 27.5t26.5 11.5h199q14 0 23.5 -11.5t6.5 -27.5l-194 -1379q-2 -16 -13.5 -26t-25.5 -10h-20q-23 0 -33 7t-27 29l-598 875h-2l-111 -852q-2 -16 -13 -27.5t-27 -11.5h-197 q-12 0 -21.5 10t-7.5 25zM570.5 1683.5q0.5 12.5 7.5 22.5q8 14 25.5 44t43 57.5t61 49t78.5 21.5q35 0 59.5 -17.5t46 -39t42 -39t45.5 -17.5t40 20.5t25 43.5q10 18 28 25.5t34 -5.5l47 -37q16 -12 15 -28.5t-11 -38.5q-6 -14 -22.5 -41t-42 -52.5t-58.5 -44t-73 -18.5 q-37 0 -65 17.5t-50.5 39t-42 40t-39.5 18.5q-29 0 -47.5 -28.5t-30.5 -51.5q-6 -12 -21.5 -15t-27.5 7l-55 43q-12 12 -11.5 24.5z" />
<glyph unicode="&#xd2;" horiz-adv-x="1521" d="M109 614q0 174 58 327t160.5 266.5t243 180t303.5 66.5q125 0 230.5 -51t182.5 -139t120 -204t43 -247q0 -172 -59.5 -324.5t-162 -265t-242.5 -178t-302 -65.5q-125 0 -230.5 51t-182 138t-119.5 202.5t-43 242.5zM385 649q0 -84 22.5 -156.5t65.5 -128t103.5 -87 t136.5 -31.5q94 0 177 42t146.5 114.5t100.5 170t37 207.5q0 82 -23 157t-66 130t-104 88t-137 33q-92 0 -175 -43t-146.5 -117t-100.5 -172t-37 -207zM704 1703.5q-5 18.5 11 41.5l47 69q16 27 37 27t31 -8l223 -158q12 -6 16.5 -22.5t-6.5 -32.5l-32 -53q-23 -37 -62 -17 l-246 127q-14 8 -19 26.5z" />
<glyph unicode="&#xd3;" horiz-adv-x="1521" d="M109 614q0 174 58 327t160.5 266.5t243 180t303.5 66.5q125 0 230.5 -51t182.5 -139t120 -204t43 -247q0 -172 -59.5 -324.5t-162 -265t-242.5 -178t-302 -65.5q-125 0 -230.5 51t-182 138t-119.5 202.5t-43 242.5zM385 649q0 -84 22.5 -156.5t65.5 -128t103.5 -87 t136.5 -31.5q94 0 177 42t146.5 114.5t100.5 170t37 207.5q0 82 -23 157t-66 130t-104 88t-137 33q-92 0 -175 -43t-146.5 -117t-100.5 -172t-37 -207zM710 1636q-14 37 21 53l266 158q16 10 34.5 8t28.5 -22l39 -86q12 -20 4 -40t-26 -26l-305 -137l-15 5q-14 5 -20 24z " />
<glyph unicode="&#xd4;" horiz-adv-x="1521" d="M109 614q0 174 58 327t160.5 266.5t243 180t303.5 66.5q125 0 230.5 -51t182.5 -139t120 -204t43 -247q0 -172 -59.5 -324.5t-162 -265t-242.5 -178t-302 -65.5q-125 0 -230.5 51t-182 138t-119.5 202.5t-43 242.5zM385 649q0 -84 22.5 -156.5t65.5 -128t103.5 -87 t136.5 -31.5q94 0 177 42t146.5 114.5t100.5 170t37 207.5q0 82 -23 157t-66 130t-104 88t-137 33q-92 0 -175 -43t-146.5 -117t-100.5 -172t-37 -207zM638 1652.5q6 14.5 18 24.5l219 166q29 20 55 -2l174 -164q10 -8 14.5 -24.5t-8.5 -30.5l-47 -60q-25 -33 -55 -8 l-119 94l-153 -96q-20 -12 -32.5 -7t-23.5 17l-36 56q-12 20 -6 34.5z" />
<glyph unicode="&#xd5;" horiz-adv-x="1521" d="M109 614q0 174 58 327t160.5 266.5t243 180t303.5 66.5q125 0 230.5 -51t182.5 -139t120 -204t43 -247q0 -172 -59.5 -324.5t-162 -265t-242.5 -178t-302 -65.5q-125 0 -230.5 51t-182 138t-119.5 202.5t-43 242.5zM385 649q0 -84 22.5 -156.5t65.5 -128t103.5 -87 t136.5 -31.5q94 0 177 42t146.5 114.5t100.5 170t37 207.5q0 82 -23 157t-66 130t-104 88t-137 33q-92 0 -175 -43t-146.5 -117t-100.5 -172t-37 -207zM636.5 1634.5q0.5 15.5 9.5 28.5q6 10 20 34.5t35.5 48t53.5 43t71 19.5q33 0 55.5 -16.5t39.5 -33.5t31.5 -28.5 t26.5 -11.5t21.5 12.5t17.5 28.5q10 20 31.5 29.5t42.5 -6.5l37 -29q20 -16 19 -34.5t-11 -39.5q-4 -12 -18.5 -35.5t-36 -45t-51 -38t-66.5 -16.5q-35 0 -59.5 15.5t-43 34t-31.5 30.5t-24 12q-14 0 -25.5 -19.5t-21.5 -35.5q-8 -16 -28.5 -20.5t-34.5 8.5l-45 34 q-16 16 -15.5 31.5z" />
<glyph unicode="&#xd6;" horiz-adv-x="1521" d="M109 614q0 174 58 327t160.5 266.5t243 180t303.5 66.5q125 0 230.5 -51t182.5 -139t120 -204t43 -247q0 -172 -59.5 -324.5t-162 -265t-242.5 -178t-302 -65.5q-125 0 -230.5 51t-182 138t-119.5 202.5t-43 242.5zM385 649q0 -84 22.5 -156.5t65.5 -128t103.5 -87 t136.5 -31.5q94 0 177 42t146.5 114.5t100.5 170t37 207.5q0 82 -23 157t-66 130t-104 88t-137 33q-92 0 -175 -43t-146.5 -117t-100.5 -172t-37 -207zM541 1718q6 63 51 105.5t98 42.5q59 0 93 -42t28 -106q-4 -31 -18.5 -58.5t-36 -48t-48 -31.5t-53.5 -11q-57 0 -90 43 t-24 106zM995 1718q6 63 52.5 105.5t99.5 42.5q57 0 91 -42t28 -106q-8 -63 -54.5 -106t-99.5 -43q-59 0 -92 43t-25 106z" />
<glyph unicode="&#xd7;" horiz-adv-x="1228" d="M261 468.5q3 16.5 13 27.5l228 221l-160 215q-8 10 -6 27.5t14 27.5l86 74q12 10 26.5 10t22.5 -10l160 -215l227 223q12 10 25.5 9t24.5 -11l75 -86q10 -10 8.5 -26.5t-14.5 -26.5l-227 -223l160 -216q10 -12 7 -28.5t-16 -26.5l-88 -72q-12 -10 -25.5 -11t-21.5 9 l-162 218l-227 -222q-10 -10 -23.5 -10t-23.5 10l-76 86q-10 10 -7 26.5z" />
<glyph unicode="&#xd8;" horiz-adv-x="1521" d="M50 71.5q1 14.5 16 28.5l149 144q-51 78 -78.5 172t-27.5 198q0 174 58 327t160.5 266.5t243 180t303.5 66.5q123 0 228.5 -51t183.5 -137l152 145q10 10 23.5 10t23.5 -10l18 -20q20 -25 -8 -54l-154 -147q51 -80 80 -176t29 -201q0 -172 -59.5 -324.5t-162 -265 t-242.5 -178t-302 -65.5q-125 0 -229.5 50t-182.5 136l-147 -141q-10 -10 -23.5 -9.5t-23.5 11.5l-19 20q-10 10 -9 24.5zM385 649q0 -111 41 -203l653 623q-43 53 -103.5 86t-131.5 33q-88 0 -171 -43t-146.5 -117t-102.5 -172t-39 -207zM477 362q43 -53 103.5 -84.5 t132.5 -31.5q88 0 172 42t147.5 114.5t102.5 170t39 207.5q0 55 -11.5 107.5t-32.5 99.5z" />
<glyph unicode="&#xd9;" horiz-adv-x="1355" d="M141 436q0 39 6 82l125 877q2 16 14.5 27.5t26.5 11.5h203q16 0 24.5 -11.5t6.5 -27.5l-123 -863q-4 -16 -4 -32.5v-32.5q0 -102 52 -159.5t157 -57.5q127 0 197.5 75.5t88.5 204.5l123 865q2 16 13.5 27.5t27.5 11.5h203q14 0 23.5 -11.5t7.5 -27.5l-125 -877 q-16 -117 -63.5 -215t-122 -171t-175 -112.5t-219.5 -39.5q-102 0 -188 33.5t-147.5 94t-96.5 144.5t-35 184zM585 1705.5q-5 18.5 11 41.5l47 69q16 27 37 27t31 -8l223 -158q12 -6 16.5 -22.5t-6.5 -32.5l-32 -53q-23 -37 -62 -17l-246 127q-14 8 -19 26.5z" />
<glyph unicode="&#xda;" horiz-adv-x="1355" d="M141 436q0 39 6 82l125 877q2 16 14.5 27.5t26.5 11.5h203q16 0 24.5 -11.5t6.5 -27.5l-123 -863q-4 -16 -4 -32.5v-32.5q0 -102 52 -159.5t157 -57.5q127 0 197.5 75.5t88.5 204.5l123 865q2 16 13.5 27.5t27.5 11.5h203q14 0 23.5 -11.5t7.5 -27.5l-125 -877 q-16 -117 -63.5 -215t-122 -171t-175 -112.5t-219.5 -39.5q-102 0 -188 33.5t-147.5 94t-96.5 144.5t-35 184zM639 1636q-14 37 21 53l266 158q16 10 34.5 8t28.5 -22l39 -86q12 -20 4 -40t-26 -26l-305 -137l-15 5q-14 5 -20 24z" />
<glyph unicode="&#xdb;" horiz-adv-x="1355" d="M141 436q0 39 6 82l125 877q2 16 14.5 27.5t26.5 11.5h203q16 0 24.5 -11.5t6.5 -27.5l-123 -863q-4 -16 -4 -32.5v-32.5q0 -102 52 -159.5t157 -57.5q127 0 197.5 75.5t88.5 204.5l123 865q2 16 13.5 27.5t27.5 11.5h203q14 0 23.5 -11.5t7.5 -27.5l-125 -877 q-16 -117 -63.5 -215t-122 -171t-175 -112.5t-219.5 -39.5q-102 0 -188 33.5t-147.5 94t-96.5 144.5t-35 184zM534 1667.5q5 11.5 15 20.5l274 206q23 16 43 0l217 -206q8 -6 11.5 -17.5t-4.5 -21.5l-60 -76q-18 -25 -41 -6l-160 127l-204 -127q-16 -10 -24.5 -7t-16.5 13 l-45 67q-10 16 -5 27.5z" />
<glyph unicode="&#xdc;" horiz-adv-x="1355" d="M141 436q0 39 6 82l125 877q2 16 14.5 27.5t26.5 11.5h203q16 0 24.5 -11.5t6.5 -27.5l-123 -863q-4 -16 -4 -32.5v-32.5q0 -102 52 -159.5t157 -57.5q127 0 197.5 75.5t88.5 204.5l123 865q2 16 13.5 27.5t27.5 11.5h203q14 0 23.5 -11.5t7.5 -27.5l-125 -877 q-16 -117 -63.5 -215t-122 -171t-175 -112.5t-219.5 -39.5q-102 0 -188 33.5t-147.5 94t-96.5 144.5t-35 184zM469 1718q6 63 51 105.5t98 42.5q59 0 93 -42t28 -106q-4 -31 -18 -58.5t-35.5 -48t-48 -31.5t-53.5 -11q-57 0 -90 43t-25 106zM924 1718q6 63 52 105.5t99 42.5 q57 0 91 -42t28 -106q-8 -63 -54.5 -106t-99.5 -43q-59 0 -92 43t-24 106z" />
<glyph unicode="&#xdd;" horiz-adv-x="1136" d="M125 1384q-10 20 1 35t34 15h192q16 0 24.5 -6.5t14.5 -22.5l213 -467h4l342 477q4 6 12.5 12.5t20.5 6.5h225q23 0 28 -16.5t-9 -37.5l-516 -688l-90 -653q-2 -16 -14.5 -27.5t-26.5 -11.5h-199q-16 0 -23.5 11.5t-5.5 27.5l92 651zM586 1603q-14 37 21 53l266 158 q16 10 34.5 8t28.5 -22l39 -86q12 -20 4 -40t-26 -26l-305 -137l-15 5q-14 5 -20 24z" />
<glyph unicode="&#xde;" horiz-adv-x="1122" d="M94 39l191 1356q2 16 13 27.5t28 11.5h196q14 0 22.5 -11.5t6.5 -27.5l-31 -221h207q78 0 142.5 -32t111.5 -86.5t73.5 -126t26.5 -151.5q0 -106 -37.5 -200.5t-103.5 -165t-154 -111.5t-186 -41h-209l-31 -221q-2 -16 -14 -27.5t-27 -11.5h-196q-16 0 -24.5 11.5 t-4.5 27.5zM426 510h192q37 0 73 19.5t63.5 52t44 76.5t16.5 94q0 72 -39 121t-100 49h-191z" />
<glyph unicode="&#xdf;" horiz-adv-x="1112" d="M-16 -440l196 1376q16 117 57.5 212t103.5 162.5t147 105.5t192 38q80 0 149.5 -24.5t122 -69.5t82 -111.5t29.5 -148.5q0 -78 -34 -134.5t-74 -99.5t-73.5 -75.5t-33.5 -63.5q0 -29 23.5 -65.5t53 -83t53 -101.5t23.5 -123q0 -98 -36.5 -168.5t-95 -116.5t-131 -69 t-146.5 -23q-27 0 -56.5 6.5t-29.5 43.5v145q0 16 12 30.5t47 14.5q68 0 109 33t41 108q0 49 -23.5 94.5t-51.5 87.5t-51.5 80.5t-23.5 75.5q0 55 34 108.5t75 103.5t74.5 96.5t33.5 87.5q0 57 -26.5 91t-91.5 34q-86 0 -146.5 -79t-79.5 -210l-194 -1368 q-4 -18 -18.5 -32.5t-28.5 -14.5h-181q-18 0 -27 14t-5 33z" />
<glyph unicode="&#xe0;" d="M59 412q0 115 36 216t100.5 176t152.5 119t193 44q49 0 92 -13.5t77.5 -33t59.5 -41t37 -37.5l43 73q6 12 14 21.5t25 9.5h84q16 0 26.5 -12t6.5 -33l-117 -856q-2 -18 -16.5 -31.5t-30.5 -13.5h-84q-10 0 -21.5 7t-15.5 34l-16 72q-12 -12 -39 -36t-64 -45.5t-83 -38 t-99 -16.5q-82 0 -148.5 34t-113.5 92.5t-73 138.5t-26 170zM315 418q0 -39 9.5 -76t29 -64.5t50 -44t71.5 -16.5q37 0 71 17.5t60.5 42t45 50t24.5 44.5l31 227q-4 18 -15.5 41t-33 43t-51 33.5t-66.5 13.5q-47 0 -88 -22.5t-72 -63.5t-48.5 -98.5t-17.5 -126.5z M448 1183.5q-5 18.5 11 41.5l47 69q16 27 37 27t31 -8l223 -158q12 -6 16.5 -22.5t-6.5 -32.5l-32 -53q-23 -37 -62 -17l-246 127q-14 8 -19 26.5z" />
<glyph unicode="&#xe1;" d="M59 412q0 115 36 216t100.5 176t152.5 119t193 44q49 0 92 -13.5t77.5 -33t59.5 -41t37 -37.5l43 73q6 12 14 21.5t25 9.5h84q16 0 26.5 -12t6.5 -33l-117 -856q-2 -18 -16.5 -31.5t-30.5 -13.5h-84q-10 0 -21.5 7t-15.5 34l-16 72q-12 -12 -39 -36t-64 -45.5t-83 -38 t-99 -16.5q-82 0 -148.5 34t-113.5 92.5t-73 138.5t-26 170zM315 418q0 -39 9.5 -76t29 -64.5t50 -44t71.5 -16.5q37 0 71 17.5t60.5 42t45 50t24.5 44.5l31 227q-4 18 -15.5 41t-33 43t-51 33.5t-66.5 13.5q-47 0 -88 -22.5t-72 -63.5t-48.5 -98.5t-17.5 -126.5zM416 1116 q-14 37 21 53l266 158q16 10 34.5 8t28.5 -22l39 -86q12 -20 4 -40t-26 -26l-305 -137l-15 5q-14 5 -20 24z" />
<glyph unicode="&#xe2;" d="M59 412q0 115 36 216t100.5 176t152.5 119t193 44q49 0 92 -13.5t77.5 -33t59.5 -41t37 -37.5l43 73q6 12 14 21.5t25 9.5h84q16 0 26.5 -12t6.5 -33l-117 -856q-2 -18 -16.5 -31.5t-30.5 -13.5h-84q-10 0 -21.5 7t-15.5 34l-16 72q-12 -12 -39 -36t-64 -45.5t-83 -38 t-99 -16.5q-82 0 -148.5 34t-113.5 92.5t-73 138.5t-26 170zM315 418q0 -39 9.5 -76t29 -64.5t50 -44t71.5 -16.5q37 0 71 17.5t60.5 42t45 50t24.5 44.5l31 227q-4 18 -15.5 41t-33 43t-51 33.5t-66.5 13.5q-47 0 -88 -22.5t-72 -63.5t-48.5 -98.5t-17.5 -126.5z M367 1132.5q6 14.5 18 24.5l219 166q29 20 55 -2l174 -164q10 -8 14.5 -24.5t-8.5 -30.5l-47 -60q-25 -33 -55 -8l-119 94l-153 -96q-20 -12 -32.5 -7t-23.5 17l-36 56q-12 20 -6 34.5z" />
<glyph unicode="&#xe3;" d="M59 412q0 115 36 216t100.5 176t152.5 119t193 44q49 0 92 -13.5t77.5 -33t59.5 -41t37 -37.5l43 73q6 12 14 21.5t25 9.5h84q16 0 26.5 -12t6.5 -33l-117 -856q-2 -18 -16.5 -31.5t-30.5 -13.5h-84q-10 0 -21.5 7t-15.5 34l-16 72q-12 -12 -39 -36t-64 -45.5t-83 -38 t-99 -16.5q-82 0 -148.5 34t-113.5 92.5t-73 138.5t-26 170zM315 418q0 -39 9.5 -76t29 -64.5t50 -44t71.5 -16.5q37 0 71 17.5t60.5 42t45 50t24.5 44.5l31 227q-4 18 -15.5 41t-33 43t-51 33.5t-66.5 13.5q-47 0 -88 -22.5t-72 -63.5t-48.5 -98.5t-17.5 -126.5z M363.5 1114.5q0.5 15.5 9.5 28.5q6 10 20 34.5t35.5 48t53.5 43t71 19.5q33 0 55.5 -16.5t39.5 -33.5t31.5 -28.5t26.5 -11.5t21.5 12.5t17.5 28.5q10 20 31.5 29.5t42.5 -6.5l37 -29q20 -16 19 -34.5t-11 -39.5q-4 -12 -18.5 -35.5t-36 -45t-51 -38t-66.5 -16.5 q-35 0 -59.5 15.5t-43 34t-31.5 30.5t-24 12q-14 0 -25.5 -19.5t-21.5 -35.5q-8 -16 -28.5 -20.5t-34.5 8.5l-45 34q-16 16 -15.5 31.5z" />
<glyph unicode="&#xe4;" d="M59 412q0 115 36 216t100.5 176t152.5 119t193 44q49 0 92 -13.5t77.5 -33t59.5 -41t37 -37.5l43 73q6 12 14 21.5t25 9.5h84q16 0 26.5 -12t6.5 -33l-117 -856q-2 -18 -16.5 -31.5t-30.5 -13.5h-84q-10 0 -21.5 7t-15.5 34l-16 72q-12 -12 -39 -36t-64 -45.5t-83 -38 t-99 -16.5q-82 0 -148.5 34t-113.5 92.5t-73 138.5t-26 170zM315 418q0 -39 9.5 -76t29 -64.5t50 -44t71.5 -16.5q37 0 71 17.5t60.5 42t45 50t24.5 44.5l31 227q-4 18 -15.5 41t-33 43t-51 33.5t-66.5 13.5q-47 0 -88 -22.5t-72 -63.5t-48.5 -98.5t-17.5 -126.5zM330 1260 q6 63 52 105t99 42q59 0 93 -42t28 -105q-4 -31 -18.5 -58.5t-36 -48t-48 -32t-53.5 -11.5q-57 0 -90.5 43t-25.5 107zM717 1260q6 63 52 105t99 42q57 0 92 -42t29 -105q-8 -63 -55 -106.5t-100 -43.5q-59 0 -92 43t-25 107z" />
<glyph unicode="&#xe5;" d="M59 412q0 115 36 216t100.5 176t152.5 119t193 44q49 0 92 -13.5t77.5 -33t59.5 -41t37 -37.5l43 73q6 12 14 21.5t25 9.5h84q16 0 26.5 -12t6.5 -33l-117 -856q-2 -18 -16.5 -31.5t-30.5 -13.5h-84q-10 0 -21.5 7t-15.5 34l-16 72q-12 -12 -39 -36t-64 -45.5t-83 -38 t-99 -16.5q-82 0 -148.5 34t-113.5 92.5t-73 138.5t-26 170zM315 418q0 -39 9.5 -76t29 -64.5t50 -44t71.5 -16.5q37 0 71 17.5t60.5 42t45 50t24.5 44.5l31 227q-4 18 -15.5 41t-33 43t-51 33.5t-66.5 13.5q-47 0 -88 -22.5t-72 -63.5t-48.5 -98.5t-17.5 -126.5zM434 1245 q0 55 19.5 102.5t52.5 83t78 56t96 20.5q39 0 71.5 -15t57.5 -43t38 -64.5t13 -77.5q0 -55 -19.5 -102.5t-52 -83.5t-78 -56.5t-94.5 -20.5q-80 0 -131 58.5t-51 142.5zM563 1264q0 -35 20.5 -62.5t49.5 -27.5q37 0 67.5 34.5t30.5 79.5q0 35 -19.5 60.5t-49.5 25.5 q-37 0 -68 -32.5t-31 -77.5z" />
<glyph unicode="&#xe6;" horiz-adv-x="1445" d="M27 250q0 76 27.5 139.5t77.5 109.5t121 72.5t157 26.5q31 0 57.5 -3t46.5 -7q23 -6 45 -10q10 92 -7 131t-85 39q-25 0 -56.5 -4.5t-62.5 -9.5t-59.5 -11t-48.5 -12q-16 -2 -29.5 9t-13.5 28l-4 126q0 18 13 32t30 18q47 12 98 20q43 8 94 15.5t98 7.5q98 0 154.5 -35 t85.5 -82q25 27 60.5 49.5t78.5 36.5t89 22.5t91 8.5q70 0 127.5 -20.5t99.5 -56.5t64.5 -83t22.5 -102q0 -90 -54.5 -151.5t-140.5 -99.5t-192.5 -54.5t-210.5 -16.5q-6 -72 32.5 -124t124.5 -52q43 0 91.5 22.5t76.5 42.5q16 10 32 13.5t26 -13.5l80 -106q8 -14 7 -30.5 t-16 -31.5q-63 -57 -147 -92t-188 -35q-98 0 -170 41t-121 113h-2q-12 -20 -39 -47t-67 -50.5t-96 -40t-130 -16.5q-117 0 -192.5 73t-75.5 200zM274 287q0 -49 32 -78t73 -29q49 0 79.5 22.5t47 57.5t24 77t9.5 81q-8 2 -45 8t-74 6q-25 0 -50.5 -10t-47 -28.5t-35 -46 t-13.5 -60.5zM825 557q66 0 124.5 8t101.5 23.5t68.5 37t25.5 50.5q0 27 -22.5 50.5t-75.5 23.5q-37 0 -72 -17.5t-65.5 -45.5t-53.5 -62.5t-31 -67.5z" />
<glyph unicode="&#xe7;" horiz-adv-x="925" d="M61 418q0 121 39 221t105.5 173t156 114t191.5 41q109 0 191.5 -49.5t129.5 -114.5q12 -16 5 -33.5t-23 -34.5l-78 -80q-18 -18 -34.5 -14t-26.5 16q-16 20 -57.5 46t-100.5 26q-49 0 -92 -23.5t-76 -63.5t-52.5 -93t-19.5 -115q0 -43 12.5 -82t34 -68.5t50 -48 t63.5 -18.5q31 0 58.5 11.5t49 27.5t38 32.5t26.5 28.5t26.5 16.5t33.5 -11.5l88 -89q14 -14 18 -31.5t-8 -33.5q-57 -74 -135 -125t-174 -63l-82 -107q20 6 43 6q63 0 107 -39t44 -110q0 -53 -20.5 -96.5t-55 -74t-81.5 -47t-103 -16.5q-59 0 -108 14.5t-72 36.5 q-18 20 6 58l25 41q27 47 59 18q10 -10 31.5 -21.5t50.5 -11.5q16 0 35.5 5.5t36 15.5t27 28.5t10.5 43.5q0 33 -22.5 49t-61.5 16q-29 0 -47.5 -9t-32.5 -13q-16 -6 -28.5 8t-2.5 28l111 183q-70 14 -127.5 52t-97.5 94t-61.5 129t-21.5 157z" />
<glyph unicode="&#xe8;" horiz-adv-x="948" d="M57 397q0 106 36 209t104.5 182.5t167 129t223.5 49.5q70 0 127 -20.5t99 -56.5t64.5 -83t22.5 -102q0 -90 -53 -151.5t-139 -99.5t-192.5 -54.5t-213.5 -16.5q-4 -72 33 -124t123 -52q41 0 92 22.5t82 42.5q14 10 28.5 13.5t24.5 -13.5l78 -104q10 -14 9 -30.5 t-15 -31.5q-63 -57 -148.5 -93t-179.5 -36q-90 0 -159.5 34t-117 91.5t-72 133t-24.5 161.5zM328 557q66 0 124 8t101 23.5t68.5 37t25.5 50.5q0 27 -22.5 50.5t-75.5 23.5q-37 0 -72 -17.5t-65.5 -45.5t-53 -62.5t-30.5 -67.5zM409 1185.5q-5 18.5 11 41.5l47 69 q16 27 37 27t31 -8l223 -158q12 -6 16.5 -22.5t-6.5 -32.5l-32 -53q-23 -37 -62 -17l-246 127q-14 8 -19 26.5z" />
<glyph unicode="&#xe9;" horiz-adv-x="948" d="M57 397q0 106 36 209t104.5 182.5t167 129t223.5 49.5q70 0 127 -20.5t99 -56.5t64.5 -83t22.5 -102q0 -90 -53 -151.5t-139 -99.5t-192.5 -54.5t-213.5 -16.5q-4 -72 33 -124t123 -52q41 0 92 22.5t82 42.5q14 10 28.5 13.5t24.5 -13.5l78 -104q10 -14 9 -30.5 t-15 -31.5q-63 -57 -148.5 -93t-179.5 -36q-90 0 -159.5 34t-117 91.5t-72 133t-24.5 161.5zM328 557q66 0 124 8t101 23.5t68.5 37t25.5 50.5q0 27 -22.5 50.5t-75.5 23.5q-37 0 -72 -17.5t-65.5 -45.5t-53 -62.5t-30.5 -67.5zM414 1116q-14 37 21 53l266 158q16 10 34.5 8 t28.5 -22l39 -86q12 -20 4 -40t-26 -26l-305 -137l-15 5q-14 5 -20 24z" />
<glyph unicode="&#xea;" horiz-adv-x="948" d="M57 397q0 106 36 209t104.5 182.5t167 129t223.5 49.5q70 0 127 -20.5t99 -56.5t64.5 -83t22.5 -102q0 -90 -53 -151.5t-139 -99.5t-192.5 -54.5t-213.5 -16.5q-4 -72 33 -124t123 -52q41 0 92 22.5t82 42.5q14 10 28.5 13.5t24.5 -13.5l78 -104q10 -14 9 -30.5 t-15 -31.5q-63 -57 -148.5 -93t-179.5 -36q-90 0 -159.5 34t-117 91.5t-72 133t-24.5 161.5zM328 557q66 0 124 8t101 23.5t68.5 37t25.5 50.5q0 27 -22.5 50.5t-75.5 23.5q-37 0 -72 -17.5t-65.5 -45.5t-53 -62.5t-30.5 -67.5zM390 1134.5q6 14.5 18 24.5l219 166 q29 20 55 -2l174 -164q10 -8 14.5 -24.5t-8.5 -30.5l-47 -60q-25 -33 -55 -8l-119 94l-153 -96q-20 -12 -32.5 -7t-23.5 17l-36 56q-12 20 -6 34.5z" />
<glyph unicode="&#xeb;" horiz-adv-x="948" d="M57 397q0 106 36 209t104.5 182.5t167 129t223.5 49.5q70 0 127 -20.5t99 -56.5t64.5 -83t22.5 -102q0 -90 -53 -151.5t-139 -99.5t-192.5 -54.5t-213.5 -16.5q-4 -72 33 -124t123 -52q41 0 92 22.5t82 42.5q14 10 28.5 13.5t24.5 -13.5l78 -104q10 -14 9 -30.5 t-15 -31.5q-63 -57 -148.5 -93t-179.5 -36q-90 0 -159.5 34t-117 91.5t-72 133t-24.5 161.5zM328 557q66 0 124 8t101 23.5t68.5 37t25.5 50.5q0 27 -22.5 50.5t-75.5 23.5q-37 0 -72 -17.5t-65.5 -45.5t-53 -62.5t-30.5 -67.5zM330 1260q6 63 52 105t99 42q59 0 93 -42 t28 -105q-4 -31 -18.5 -58.5t-36 -48t-48 -32t-53.5 -11.5q-57 0 -90.5 43t-25.5 107zM717 1260q6 63 52 105t99 42q57 0 92 -42t29 -105q-8 -63 -55 -106.5t-100 -43.5q-59 0 -92 43t-25 107z" />
<glyph unicode="&#xec;" horiz-adv-x="516" d="M53 45l121 856q4 20 17.5 32.5t29.5 12.5h176q16 0 28.5 -12t8.5 -33l-123 -856q-2 -18 -16 -31.5t-31 -13.5h-174q-16 0 -27.5 13.5t-9.5 31.5zM155 1183.5q-5 18.5 11 41.5l47 69q16 27 37 27t31 -8l223 -158q12 -6 16.5 -22.5t-6.5 -32.5l-32 -53q-23 -37 -62 -17 l-246 127q-14 8 -19 26.5z" />
<glyph unicode="&#xed;" horiz-adv-x="516" d="M53 45l121 856q4 20 17.5 32.5t29.5 12.5h176q16 0 28.5 -12t8.5 -33l-123 -856q-2 -18 -16 -31.5t-31 -13.5h-174q-16 0 -27.5 13.5t-9.5 31.5zM158 1116q-14 37 21 53l266 158q16 10 34.5 8t28.5 -22l39 -86q12 -20 4 -40t-26 -26l-305 -137l-15 5q-14 5 -20 24z" />
<glyph unicode="&#xee;" horiz-adv-x="516" d="M46 1178.5q5 11.5 15 19.5l275 207q23 16 43 0l217 -207q8 -6 11 -17.5t-5 -21.5l-59 -76q-18 -25 -41 -6l-160 127l-205 -127q-16 -10 -24.5 -7t-16.5 13l-45 68q-10 16 -5 27.5zM53 45l121 856q4 20 17.5 32.5t29.5 12.5h176q16 0 28.5 -12t8.5 -33l-123 -856 q-2 -18 -16 -31.5t-31 -13.5h-174q-16 0 -27.5 13.5t-9.5 31.5z" />
<glyph unicode="&#xef;" horiz-adv-x="516" d="M20 1260q6 63 52.5 105t99.5 42q59 0 93 -42t28 -105q-4 -31 -18.5 -58.5t-36 -48t-48 -32t-53.5 -11.5q-57 0 -91 43t-26 107zM53 45l121 856q4 20 17.5 32.5t29.5 12.5h176q16 0 28.5 -12t8.5 -33l-123 -856q-2 -18 -16 -31.5t-31 -13.5h-174q-16 0 -27.5 13.5 t-9.5 31.5zM408 1260q6 63 52 105t99 42q57 0 92 -42t29 -105q-8 -63 -55.5 -106.5t-100.5 -43.5q-59 0 -92 43t-24 107z" />
<glyph unicode="&#xf0;" horiz-adv-x="1054" d="M63 463q14 113 60.5 199t110 143t137 86t145.5 29q66 0 120 -21.5t77 -38.5q-10 88 -54.5 157.5t-97.5 123.5l-176 -101q-14 -8 -27.5 -4t-17.5 17l-10 26q-6 14 -1 28.5t19 25.5l129 75q-35 23 -63.5 38.5t-48.5 23.5q-25 10 -30 26.5t5 34.5l57 121q23 41 58 29 q41 -16 105.5 -52t133.5 -96l142 82q14 8 25 2t20 -18l14 -23q8 -14 2 -30.5t-23 -24.5l-104 -59q49 -55 91 -125t69.5 -156t37 -190.5t-9.5 -229.5q-16 -119 -59 -224.5t-111.5 -185t-159.5 -125.5t-202 -46q-88 0 -160.5 37.5t-122 103t-72 154t-8.5 188.5zM295 467 q-6 -49 2 -94t29.5 -79t55.5 -54.5t77 -20.5q57 0 102 28.5t76 73t49.5 99.5t26.5 110q-4 29 -15.5 61t-33 59.5t-54 45t-80.5 17.5q-45 0 -84.5 -19.5t-70.5 -53.5t-52.5 -78t-27.5 -95z" />
<glyph unicode="&#xf1;" horiz-adv-x="1054" d="M53 45l121 856q2 20 15.5 32.5t29.5 12.5h78q29 0 33 -28l20 -89q16 14 42 38t61.5 46.5t83 38t106.5 15.5q98 0 159.5 -37t93.5 -98.5t38 -143.5t-6 -174l-68 -469q-2 -18 -15.5 -31.5t-29.5 -13.5h-180q-16 0 -25.5 13.5t-7.5 31.5l74 483q12 92 -5.5 146.5t-97.5 54.5 q-47 0 -81.5 -20.5t-57.5 -44.5q-27 -29 -47 -66l-82 -553q-4 -27 -15 -36t-34 -9h-168q-16 0 -27.5 13.5t-7.5 31.5zM339 1218.5q1 12.5 7 22.5q8 14 25.5 44t43 57.5t61.5 49t79 21.5q35 0 59.5 -17.5t46 -39t42 -39t45.5 -17.5t40 20.5t25 43.5q10 18 27.5 25.5 t33.5 -5.5l48 -36q16 -12 15 -28.5t-11 -39.5q-6 -14 -22.5 -41t-42 -52.5t-58.5 -44t-74 -18.5q-37 0 -64.5 17.5t-50 39t-42 40t-40.5 18.5q-29 0 -47 -28.5t-30 -51.5q-6 -12 -21.5 -15t-27.5 7l-56 43q-12 12 -11 24.5z" />
<glyph unicode="&#xf2;" horiz-adv-x="1036" d="M57 408q0 115 41 216t111 178t164 121t200 44q82 0 151 -34t119 -92.5t78.5 -136t28.5 -163.5q0 -115 -42 -217.5t-112.5 -179t-163.5 -122t-198 -45.5q-84 0 -152.5 36t-118.5 95.5t-78 137.5t-28 162zM305 434q0 -88 40 -152.5t124 -64.5q47 0 89 23.5t73 64.5t49 95.5 t18 117.5q0 43 -10 81t-29.5 66.5t-49 46t-68.5 17.5q-51 0 -94.5 -23.5t-75 -63.5t-49 -93t-17.5 -115zM357 1183.5q-5 18.5 11 41.5l47 69q16 27 37 27t31 -8l223 -158q12 -6 16.5 -22.5t-6.5 -32.5l-32 -53q-23 -37 -62 -17l-246 127q-14 8 -19 26.5z" />
<glyph unicode="&#xf3;" horiz-adv-x="1036" d="M57 408q0 115 41 216t111 178t164 121t200 44q82 0 151 -34t119 -92.5t78.5 -136t28.5 -163.5q0 -115 -42 -217.5t-112.5 -179t-163.5 -122t-198 -45.5q-84 0 -152.5 36t-118.5 95.5t-78 137.5t-28 162zM305 434q0 -88 40 -152.5t124 -64.5q47 0 89 23.5t73 64.5t49 95.5 t18 117.5q0 43 -10 81t-29.5 66.5t-49 46t-68.5 17.5q-51 0 -94.5 -23.5t-75 -63.5t-49 -93t-17.5 -115zM393 1116q-14 37 21 53l266 158q16 10 34.5 8t28.5 -22l39 -86q12 -20 4 -40t-26 -26l-305 -137l-15 5q-14 5 -20 24z" />
<glyph unicode="&#xf4;" horiz-adv-x="1036" d="M57 408q0 115 41 216t111 178t164 121t200 44q82 0 151 -34t119 -92.5t78.5 -136t28.5 -163.5q0 -115 -42 -217.5t-112.5 -179t-163.5 -122t-198 -45.5q-84 0 -152.5 36t-118.5 95.5t-78 137.5t-28 162zM305 434q0 -88 40 -152.5t124 -64.5q47 0 89 23.5t73 64.5t49 95.5 t18 117.5q0 43 -10 81t-29.5 66.5t-49 46t-68.5 17.5q-51 0 -94.5 -23.5t-75 -63.5t-49 -93t-17.5 -115zM351 1132.5q6 14.5 18 24.5l219 166q29 20 55 -2l174 -164q10 -8 14.5 -24.5t-8.5 -30.5l-47 -60q-25 -33 -55 -8l-119 94l-153 -96q-20 -12 -32.5 -7t-23.5 17l-36 56 q-12 20 -6 34.5z" />
<glyph unicode="&#xf5;" horiz-adv-x="1036" d="M57 408q0 115 41 216t111 178t164 121t200 44q82 0 151 -34t119 -92.5t78.5 -136t28.5 -163.5q0 -115 -42 -217.5t-112.5 -179t-163.5 -122t-198 -45.5q-84 0 -152.5 36t-118.5 95.5t-78 137.5t-28 162zM305 434q0 -88 40 -152.5t124 -64.5q47 0 89 23.5t73 64.5t49 95.5 t18 117.5q0 43 -10 81t-29.5 66.5t-49 46t-68.5 17.5q-51 0 -94.5 -23.5t-75 -63.5t-49 -93t-17.5 -115zM343.5 1114.5q0.5 15.5 9.5 28.5q6 10 20 34.5t35.5 48t53.5 43t71 19.5q33 0 55.5 -16.5t39.5 -33.5t31.5 -28.5t26.5 -11.5t21.5 12.5t17.5 28.5q10 20 31.5 29.5 t42.5 -6.5l37 -29q20 -16 19 -34.5t-11 -39.5q-4 -12 -18.5 -35.5t-36 -45t-51 -38t-66.5 -16.5q-35 0 -59.5 15.5t-43 34t-31.5 30.5t-24 12q-14 0 -25.5 -19.5t-21.5 -35.5q-8 -16 -28.5 -20.5t-34.5 8.5l-45 34q-16 16 -15.5 31.5z" />
<glyph unicode="&#xf6;" horiz-adv-x="1036" d="M57 408q0 115 41 216t111 178t164 121t200 44q82 0 151 -34t119 -92.5t78.5 -136t28.5 -163.5q0 -115 -42 -217.5t-112.5 -179t-163.5 -122t-198 -45.5q-84 0 -152.5 36t-118.5 95.5t-78 137.5t-28 162zM291 1260q6 63 52 105t99 42q59 0 93 -42t28 -105 q-4 -31 -18.5 -58.5t-36 -48t-47.5 -32t-53 -11.5q-57 0 -91 43t-26 107zM305 434q0 -88 40 -152.5t124 -64.5q47 0 89 23.5t73 64.5t49 95.5t18 117.5q0 43 -10 81t-29.5 66.5t-49 46t-68.5 17.5q-51 0 -94.5 -23.5t-75 -63.5t-49 -93t-17.5 -115zM678 1260q6 63 52 105 t99 42q57 0 92 -42t29 -105q-8 -63 -55 -106.5t-100 -43.5q-59 0 -92 43t-25 107z" />
<glyph unicode="&#xf7;" horiz-adv-x="1228" d="M223 651l17 115q2 16 13 27.5t26 11.5h733q14 0 22 -11.5t6 -27.5l-16 -115q-2 -16 -13.5 -27.5t-25.5 -11.5h-733q-14 0 -22.5 11.5t-6.5 27.5zM438 309q0 66 46 112t106 46q51 0 84 -35t33 -86q0 -33 -13.5 -62.5t-35 -51t-49 -34t-58.5 -12.5q-49 0 -81 36t-32 87z M549 1090q0 33 12 61.5t33.5 50t49.5 33.5t58 12q49 0 82 -35.5t33 -87.5q0 -33 -13 -61.5t-34.5 -50t-49 -34.5t-58.5 -13q-49 0 -81 36.5t-32 88.5z" />
<glyph unicode="&#xf8;" horiz-adv-x="1036" d="M37 85.5q2 18.5 16 33.5l62 59q-58 105 -58 230q0 115 41 216t111 178t164 121t200 44q74 0 138.5 -29t113.5 -80l66 64q31 29 55 0l21 -23q23 -29 -9 -63l-67 -66q29 -49 44 -107.5t15 -121.5q0 -115 -42 -217.5t-112.5 -179t-163.5 -122t-198 -45.5q-78 0 -141.5 30 t-112.5 81l-59 -57q-12 -12 -27.5 -10t-27.5 12l-21 22q-10 12 -8 30.5zM305 434q0 -37 6 -67l332 317q-39 45 -102 45q-51 0 -94.5 -23.5t-75 -63.5t-49 -93.5t-17.5 -114.5zM360 262q41 -45 109 -45q47 0 89 23.5t73 64.5t49 95.5t18 117.5q0 33 -6 62z" />
<glyph unicode="&#xf9;" horiz-adv-x="1021" d="M85 232.5q-3 76.5 9 166.5l74 502q6 45 45 45h176q16 0 27.5 -12t7.5 -33l-74 -510q-14 -94 8.5 -134t81.5 -40q43 0 74 19.5t51 44.5q23 29 37 65l78 555q4 29 18.5 37t32.5 8h172q16 0 27.5 -12t7.5 -33l-119 -856q-2 -18 -16.5 -31.5t-30.5 -13.5h-78q-16 0 -24 10 t-13 25l-16 80l-40.5 -45t-55.5 -45.5t-77.5 -34t-107.5 -13.5q-96 0 -154.5 32t-88 89.5t-32.5 134zM345 1183.5q-5 18.5 11 41.5l47 69q16 27 37 27t31 -8l223 -158q12 -6 16.5 -22.5t-6.5 -32.5l-32 -53q-23 -37 -62 -17l-246 127q-14 8 -19 26.5z" />
<glyph unicode="&#xfa;" horiz-adv-x="1021" d="M85 232.5q-3 76.5 9 166.5l74 502q6 45 45 45h176q16 0 27.5 -12t7.5 -33l-74 -510q-14 -94 8.5 -134t81.5 -40q43 0 74 19.5t51 44.5q23 29 37 65l78 555q4 29 18.5 37t32.5 8h172q16 0 27.5 -12t7.5 -33l-119 -856q-2 -18 -16.5 -31.5t-30.5 -13.5h-78q-16 0 -24 10 t-13 25l-16 80l-40.5 -45t-55.5 -45.5t-77.5 -34t-107.5 -13.5q-96 0 -154.5 32t-88 89.5t-32.5 134zM463 1116q-14 37 21 53l266 158q16 10 34.5 8t28.5 -22l39 -86q12 -20 4 -40t-26 -26l-305 -137l-15 5q-14 5 -20 24z" />
<glyph unicode="&#xfb;" horiz-adv-x="1021" d="M85 232.5q-3 76.5 9 166.5l74 502q6 45 45 45h176q16 0 27.5 -12t7.5 -33l-74 -510q-14 -94 8.5 -134t81.5 -40q43 0 74 19.5t51 44.5q23 29 37 65l78 555q4 29 18.5 37t32.5 8h172q16 0 27.5 -12t7.5 -33l-119 -856q-2 -18 -16.5 -31.5t-30.5 -13.5h-78q-16 0 -24 10 t-13 25l-16 80l-40.5 -45t-55.5 -45.5t-77.5 -34t-107.5 -13.5q-96 0 -154.5 32t-88 89.5t-32.5 134zM312 1178.5q5 11.5 16 19.5l274 207q23 16 43 0l217 -207q8 -6 11.5 -17.5t-5.5 -21.5l-59 -76q-18 -25 -41 -6l-160 127l-205 -127q-16 -10 -24 -7t-17 13l-45 68 q-10 16 -5 27.5z" />
<glyph unicode="&#xfc;" horiz-adv-x="1021" d="M85 232.5q-3 76.5 9 166.5l74 502q6 45 45 45h176q16 0 27.5 -12t7.5 -33l-74 -510q-14 -94 8.5 -134t81.5 -40q43 0 74 19.5t51 44.5q23 29 37 65l78 555q4 29 18.5 37t32.5 8h172q16 0 27.5 -12t7.5 -33l-119 -856q-2 -18 -16.5 -31.5t-30.5 -13.5h-78q-16 0 -24 10 t-13 25l-16 80l-40.5 -45t-55.5 -45.5t-77.5 -34t-107.5 -13.5q-96 0 -154.5 32t-88 89.5t-32.5 134zM272 1260q6 63 52.5 105t99.5 42q59 0 93 -42t28 -105q-4 -31 -18.5 -58.5t-36 -48t-48 -32t-53.5 -11.5q-57 0 -91 43t-26 107zM659 1260q6 63 52.5 105t99.5 42 q57 0 92 -42t29 -105q-8 -63 -55.5 -106.5t-100.5 -43.5q-59 0 -92 43t-25 107z" />
<glyph unicode="&#xfd;" horiz-adv-x="966" d="M-2 -472q-6 15 8 42l264 498l-182 817q-4 23 3 42t34 19h182q10 0 21.5 -7t13.5 -19l92 -578h6l267 578q8 16 20 21t27 5h186q25 0 32 -19.5t-5 -41.5l-705 -1344q-4 -10 -14 -19t-27 -9h-194q-23 0 -29 15zM440 1116q-14 37 21 53l266 158q16 10 34.5 8t28.5 -22l39 -86 q12 -20 4 -40t-26 -26l-305 -137l-15 5q-14 5 -20 24z" />
<glyph unicode="&#xfe;" horiz-adv-x="1079" d="M-14 -442l256 1831q2 18 16 31.5t29 13.5h178q16 0 27.5 -13.5t9.5 -31.5l-68 -486q12 12 37 23.5t54.5 20.5t61 14.5t62.5 5.5q78 0 140.5 -34t106.5 -93.5t67.5 -140.5t23.5 -175q0 -119 -37 -219t-103.5 -173t-158.5 -114t-203 -41q-20 0 -45.5 5.5t-51.5 13.5 t-46 17.5t-33 17.5l-65 -473q-2 -16 -15.5 -30.5t-29.5 -14.5h-181q-16 0 -26 14t-6 31zM348 285q16 -25 57 -46.5t95 -21.5q45 0 87 20.5t74.5 58.5t52 92t19.5 124q0 39 -10 78t-30.5 69.5t-51.5 50t-72 19.5t-72.5 -15.5t-54.5 -31.5q-25 -23 -43 -47z" />
<glyph unicode="&#xff;" horiz-adv-x="966" d="M-2 -472q-6 15 8 42l264 498l-182 817q-4 23 3 42t34 19h182q10 0 21.5 -7t13.5 -19l92 -578h6l267 578q8 16 20 21t27 5h186q25 0 32 -19.5t-5 -41.5l-705 -1344q-4 -10 -14 -19t-27 -9h-194q-23 0 -29 15zM268 1260q6 63 52.5 105t99.5 42q59 0 93 -42t28 -105 q-4 -31 -18.5 -58.5t-36 -48t-48 -32t-53.5 -11.5q-57 0 -91 43t-26 107zM655 1260q6 63 52.5 105t99.5 42q57 0 92 -42t29 -105q-8 -63 -55.5 -106.5t-100.5 -43.5q-59 0 -92 43t-25 107z" />
<glyph unicode="&#x100;" horiz-adv-x="1267" d="M-57.5 16.5q-5.5 16.5 4.5 36.5l770 1379q12 23 35 22h18q20 0 29 -22l377 -1379q6 -20 -5.5 -36.5t-33.5 -16.5h-179q-45 0 -53 41l-51 227h-510l-119 -227q-8 -16 -24.5 -28.5t-40.5 -12.5h-189q-23 0 -28.5 16.5zM465 489h323l-96 447h-4zM526 1692l11 69q6 39 41 39 h473q35 0 28 -39l-10 -69q-2 -16 -13.5 -26.5t-27.5 -10.5h-471q-16 0 -24.5 10t-6.5 27z" />
<glyph unicode="&#x101;" d="M59 412q0 115 36 216t100.5 176t152.5 119t193 44q49 0 92 -13.5t77.5 -33t59.5 -41t37 -37.5l43 73q6 12 14 21.5t25 9.5h84q16 0 26.5 -12t6.5 -33l-117 -856q-2 -18 -16.5 -31.5t-30.5 -13.5h-84q-10 0 -21.5 7t-15.5 34l-16 72q-12 -12 -39 -36t-64 -45.5t-83 -38 t-99 -16.5q-82 0 -148.5 34t-113.5 92.5t-73 138.5t-26 170zM315 418q0 -39 9.5 -76t29 -64.5t50 -44t71.5 -16.5q37 0 71 17.5t60.5 42t45 50t24.5 44.5l31 227q-4 18 -15.5 41t-33 43t-51 33.5t-66.5 13.5q-47 0 -88 -22.5t-72 -63.5t-48.5 -98.5t-17.5 -126.5zM373 1204 l8 70q2 16 13.5 27.5t27.5 11.5h473q14 0 23.5 -11.5t5.5 -27.5l-11 -70q-2 -16 -12 -26.5t-27 -10.5h-473q-16 0 -23 10.5t-5 26.5z" />
<glyph unicode="&#x102;" horiz-adv-x="1267" d="M-57.5 16.5q-5.5 16.5 4.5 36.5l770 1379q12 23 35 22h18q20 0 29 -22l377 -1379q6 -20 -5.5 -36.5t-33.5 -16.5h-179q-45 0 -53 41l-51 227h-510l-119 -227q-8 -16 -24.5 -28.5t-40.5 -12.5h-189q-23 0 -28.5 16.5zM465 489h323l-96 447h-4zM582 1753q0 23 14 38t35 15 h57q16 0 25.5 -12t13.5 -25q4 -33 19.5 -53t46.5 -20q27 0 51 23.5t37 53.5q12 33 45 33h65q23 0 34 -17.5t5 -39.5q-25 -88 -91.5 -146.5t-160.5 -58.5q-84 0 -140 59.5t-56 149.5z" />
<glyph unicode="&#x103;" d="M59 412q0 115 36 216t100.5 176t152.5 119t193 44q49 0 92 -13.5t77.5 -33t59.5 -41t37 -37.5l43 73q6 12 14 21.5t25 9.5h84q16 0 26.5 -12t6.5 -33l-117 -856q-2 -18 -16.5 -31.5t-30.5 -13.5h-84q-10 0 -21.5 7t-15.5 34l-16 72q-12 -12 -39 -36t-64 -45.5t-83 -38 t-99 -16.5q-82 0 -148.5 34t-113.5 92.5t-73 138.5t-26 170zM315 418q0 -39 9.5 -76t29 -64.5t50 -44t71.5 -16.5q37 0 71 17.5t60.5 42t45 50t24.5 44.5l31 227q-4 18 -15.5 41t-33 43t-51 33.5t-66.5 13.5q-47 0 -88 -22.5t-72 -63.5t-48.5 -98.5t-17.5 -126.5zM412 1233 q0 23 14 38t35 15h57q16 0 25.5 -12t13.5 -25q4 -33 19.5 -53t46.5 -20q27 0 51 23.5t37 53.5q12 33 45 33h65q23 0 34 -17.5t5 -39.5q-25 -88 -91.5 -146.5t-160.5 -58.5q-84 0 -140 59.5t-56 149.5z" />
<glyph unicode="&#x104;" horiz-adv-x="1267" d="M-57.5 16.5q-5.5 16.5 4.5 36.5l770 1379q12 23 35 22h18q20 0 29 -22l377 -1379q6 -20 -5.5 -36.5t-33.5 -16.5h-72q-35 -20 -75 -48t-73.5 -62.5t-57 -74.5t-23.5 -85q0 -68 69 -68q41 0 80 23.5t53 33.5q16 12 28.5 7t10.5 -21l-12 -106q-2 -18 -10 -34t-29 -30 q-27 -16 -75 -28.5t-97 -12.5q-100 0 -152.5 50t-52.5 132q0 53 22.5 102.5t59.5 92.5t83 81t95 71l-55 245h-510l-119 -227q-8 -16 -24.5 -28.5t-40.5 -12.5h-189q-23 0 -28.5 16.5zM465 489h323l-96 447h-4z" />
<glyph unicode="&#x105;" d="M59 412q0 115 36 216t100.5 176t152.5 119t193 44q49 0 92 -13.5t77.5 -33t59.5 -41t37 -37.5l43 73q6 12 14 21.5t25 9.5h84q16 0 26.5 -12t6.5 -33l-117 -856q-2 -16 -13.5 -27.5t-23.5 -17.5q-35 -18 -76 -47t-75.5 -63.5t-58.5 -74.5t-24 -85q0 -68 70 -68 q41 0 80 23.5t53 33.5q16 12 28.5 7t10.5 -21l-12 -106q-2 -18 -10.5 -34t-28.5 -30q-27 -16 -75 -28.5t-97 -12.5q-100 0 -152.5 50t-52.5 132q0 51 26.5 102.5t68.5 97.5t93.5 88t100.5 75l-16 74q-12 -12 -39 -36t-64 -45.5t-83 -38t-99 -16.5q-82 0 -148.5 34 t-113.5 92.5t-73 138.5t-26 170zM315 418q0 -39 9.5 -76t29 -64.5t50 -44t71.5 -16.5q37 0 71 17.5t60.5 42t45 50t24.5 44.5l31 227q-4 18 -15.5 41t-33 43t-51 33.5t-66.5 13.5q-47 0 -88 -22.5t-72 -63.5t-48.5 -98.5t-17.5 -126.5z" />
<glyph unicode="&#x106;" horiz-adv-x="1286" d="M109 616q0 180 59 334t162.5 265.5t243 175t298.5 63.5q139 0 247 -54t179 -140q10 -12 8.5 -29t-16.5 -29l-110 -106q-16 -16 -35 -15.5t-33 15.5q-41 39 -104.5 70.5t-149.5 31.5q-92 0 -175 -44t-146.5 -120t-100.5 -174t-37 -209q0 -82 21.5 -154.5t61.5 -128 t98.5 -88t132.5 -32.5q90 0 158.5 37t121.5 84q39 33 66 -2l106 -134q8 -10 4 -27.5t-14 -27.5q-109 -104 -224.5 -151t-238.5 -47q-133 0 -240.5 50t-184.5 136t-117.5 201.5t-40.5 248.5zM684 1665q-10 27 16 39l336 199q14 10 27.5 8t21.5 -19l50 -106q10 -18 2.5 -33.5 t-21.5 -21.5l-352 -158q-23 -10 -32 -6t-15 18z" />
<glyph unicode="&#x107;" horiz-adv-x="925" d="M61 418q0 121 39 221t105.5 173t156 114t191.5 41q109 0 191.5 -49.5t129.5 -114.5q12 -16 5 -33.5t-23 -34.5l-78 -80q-18 -18 -34.5 -14t-26.5 16q-16 20 -57.5 46t-100.5 26q-49 0 -92 -19.5t-76 -57.5t-52.5 -93t-19.5 -125q0 -111 46.5 -164t113.5 -53 q31 0 58.5 11.5t49 27.5t38 32.5t26.5 28.5t26.5 16.5t33.5 -11.5l88 -89q14 -14 18 -31.5t-8 -33.5q-63 -82 -153.5 -136.5t-202.5 -54.5q-88 0 -160 33t-123 92.5t-80 139.5t-29 176zM420 1174q-10 27 16 38l336 199q14 10 27.5 8t21.5 -18l49 -107q10 -18 3 -33.5 t-21 -21.5l-352 -158q-23 -10 -32 -6t-15 19z" />
<glyph unicode="&#x108;" horiz-adv-x="1286" d="M109 616q0 180 59 334t162.5 265.5t243 175t298.5 63.5q139 0 247 -54t179 -140q10 -12 8.5 -29t-16.5 -29l-110 -106q-16 -16 -35 -15.5t-33 15.5q-41 39 -104.5 70.5t-149.5 31.5q-92 0 -175 -44t-146.5 -120t-100.5 -174t-37 -209q0 -82 21.5 -154.5t61.5 -128 t98.5 -88t132.5 -32.5q90 0 158.5 37t121.5 84q39 33 66 -2l106 -134q8 -10 4 -27.5t-14 -27.5q-109 -104 -224.5 -151t-238.5 -47q-133 0 -240.5 50t-184.5 136t-117.5 201.5t-40.5 248.5zM616 1667.5q5 11.5 15 20.5l274 206q23 16 43 0l217 -206q8 -6 11.5 -17.5 t-5.5 -21.5l-59 -76q-18 -25 -41 -6l-160 127l-204 -127q-16 -10 -24.5 -7t-16.5 13l-45 67q-10 16 -5 27.5z" />
<glyph unicode="&#x109;" horiz-adv-x="925" d="M61 418q0 121 39 221t105.5 173t156 114t191.5 41q109 0 191.5 -49.5t129.5 -114.5q12 -16 5 -33.5t-23 -34.5l-78 -80q-18 -18 -34.5 -14t-26.5 16q-16 20 -57.5 46t-100.5 26q-49 0 -92 -19.5t-76 -57.5t-52.5 -93t-19.5 -125q0 -111 46.5 -164t113.5 -53 q31 0 58.5 11.5t49 27.5t38 32.5t26.5 28.5t26.5 16.5t33.5 -11.5l88 -89q14 -14 18 -31.5t-8 -33.5q-63 -82 -153.5 -136.5t-202.5 -54.5q-88 0 -160 33t-123 92.5t-80 139.5t-29 176zM317 1178.5q5 11.5 15 19.5l274 207q23 16 43 0l217 -207q8 -6 11.5 -17.5t-5.5 -21.5 l-59 -76q-18 -25 -41 -6l-160 127l-204 -127q-16 -10 -24.5 -7t-16.5 13l-45 68q-10 16 -5 27.5z" />
<glyph unicode="&#x10a;" horiz-adv-x="1286" d="M109 616q0 180 59 334t162.5 265.5t243 175t298.5 63.5q139 0 247 -54t179 -140q10 -12 8.5 -29t-16.5 -29l-110 -106q-16 -16 -35 -15.5t-33 15.5q-41 39 -104.5 70.5t-149.5 31.5q-92 0 -175 -44t-146.5 -120t-100.5 -174t-37 -209q0 -82 21.5 -154.5t61.5 -128 t98.5 -88t132.5 -32.5q90 0 158.5 37t121.5 84q39 33 66 -2l106 -134q8 -10 4 -27.5t-14 -27.5q-109 -104 -224.5 -151t-238.5 -47q-133 0 -240.5 50t-184.5 136t-117.5 201.5t-40.5 248.5zM754 1722q0 39 15 73t40 58.5t58.5 39t70.5 14.5q61 0 100 -42t39 -102 q0 -37 -15 -69.5t-41 -58t-58.5 -40t-69.5 -14.5q-61 0 -100 41t-39 100z" />
<glyph unicode="&#x10b;" horiz-adv-x="925" d="M61 418q0 121 39 221t105.5 173t156 114t191.5 41q109 0 191.5 -49.5t129.5 -114.5q12 -16 5 -33.5t-23 -34.5l-78 -80q-18 -18 -34.5 -14t-26.5 16q-16 20 -57.5 46t-100.5 26q-49 0 -92 -19.5t-76 -57.5t-52.5 -93t-19.5 -125q0 -111 46.5 -164t113.5 -53 q31 0 58.5 11.5t49 27.5t38 32.5t26.5 28.5t26.5 16.5t33.5 -11.5l88 -89q14 -14 18 -31.5t-8 -33.5q-63 -82 -153.5 -136.5t-202.5 -54.5q-88 0 -160 33t-123 92.5t-80 139.5t-29 176zM465 1249q0 39 15.5 73t40 58.5t58 39t70.5 14.5q61 0 100 -42t39 -102 q0 -37 -15 -69.5t-40.5 -58t-58.5 -40t-70 -14.5q-61 0 -100 41t-39 100z" />
<glyph unicode="&#x10c;" horiz-adv-x="1286" d="M109 616q0 180 59 334t162.5 265.5t243 175t298.5 63.5q139 0 247 -54t179 -140q10 -12 8.5 -29t-16.5 -29l-110 -106q-16 -16 -35 -15.5t-33 15.5q-41 39 -104.5 70.5t-149.5 31.5q-92 0 -175 -44t-146.5 -120t-100.5 -174t-37 -209q0 -82 21.5 -154.5t61.5 -128 t98.5 -88t132.5 -32.5q90 0 158.5 37t121.5 84q39 33 66 -2l106 -134q8 -10 4 -27.5t-14 -27.5q-109 -104 -224.5 -151t-238.5 -47q-133 0 -240.5 50t-184.5 136t-117.5 201.5t-40.5 248.5zM648 1789q-3 11 5 21l60 76q18 25 41 6l159 -127l205 127q16 10 24.5 7t16.5 -13 l45 -67q10 -16 5 -27.5t-15 -19.5l-274 -207q-23 -16 -43 0l-218 207q-8 6 -11 17z" />
<glyph unicode="&#x10d;" horiz-adv-x="925" d="M61 418q0 121 39 221t105.5 173t156 114t191.5 41q109 0 191.5 -49.5t129.5 -114.5q12 -16 5 -33.5t-23 -34.5l-78 -80q-18 -18 -34.5 -14t-26.5 16q-16 20 -57.5 46t-100.5 26q-49 0 -92 -19.5t-76 -57.5t-52.5 -93t-19.5 -125q0 -111 46.5 -164t113.5 -53 q31 0 58.5 11.5t49 27.5t38 32.5t26.5 28.5t26.5 16.5t33.5 -11.5l88 -89q14 -14 18 -31.5t-8 -33.5q-63 -82 -153.5 -136.5t-202.5 -54.5q-88 0 -160 33t-123 92.5t-80 139.5t-29 176zM318.5 1299.5q-3.5 11.5 5.5 21.5l59 76q18 25 41 6l160 -127l204 127q16 10 24.5 7 t16.5 -13l45 -68q10 -16 5 -27.5t-15 -19.5l-274 -207q-23 -16 -43 0l-217 207q-8 6 -11.5 17.5z" />
<glyph unicode="&#x10e;" horiz-adv-x="1392" d="M94 39l191 1356q2 16 13 27.5t26 11.5h442q121 0 223.5 -50.5t176 -136.5t114.5 -198.5t41 -237.5q0 -166 -55.5 -313.5t-155.5 -258t-238.5 -175t-306.5 -64.5h-444q-14 0 -22.5 11.5t-4.5 27.5zM389 250h191q94 0 177 42t145.5 114.5t98 172t35.5 214.5 q0 84 -22.5 155.5t-65.5 124.5t-102.5 83t-132.5 30h-193zM476 1789q-3 11 5 21l60 76q18 25 41 6l159 -127l205 127q16 10 24.5 7t16.5 -13l45 -67q10 -16 5 -27.5t-15 -19.5l-274 -207q-23 -16 -43 0l-218 207q-8 6 -11 17z" />
<glyph unicode="&#x10f;" horiz-adv-x="1093" d="M59 412q0 115 37 216t103.5 176t156.5 119t195 44q25 0 54.5 -4.5t57 -11.5t51 -16t36.5 -17l67 468q4 31 20.5 39.5t43.5 8.5h155q16 0 27.5 -13.5t9.5 -31.5l-188 -1344q-2 -18 -16.5 -31.5t-30.5 -13.5h-80q-10 0 -21.5 7t-15.5 34l-16 72q-12 -12 -38 -36t-63 -45.5 t-85 -38t-105 -16.5q-76 0 -140.5 34t-112.5 92.5t-75 138.5t-27 170zM313 418q0 -100 45 -150.5t117 -50.5q37 0 71 16.5t59.5 39t44 47t24.5 42.5l43 318q-20 14 -47 25q-23 10 -54.5 17t-66.5 7q-53 0 -97 -26.5t-75 -69.5t-47.5 -99.5t-16.5 -115.5zM1126 1290 q0 72 53.5 118t127.5 46q70 0 113.5 -38t43.5 -122q0 -92 -44 -172t-107 -151q-10 -10 -20.5 -12.5t-20.5 8.5l-45 41q-18 18 2 43q31 35 51 77.5t25 83.5q-10 -6 -30 -13t-42 -7q-49 0 -78 28.5t-29 69.5z" />
<glyph unicode="&#x110;" horiz-adv-x="1394" d="M96 39l86 618h-53q-14 0 -22.5 11.5t-6.5 27.5l2 27q2 16 14.5 27.5t26.5 11.5h54l90 633q2 16 13 27.5t26 11.5h442q121 0 223.5 -51.5t176 -137.5t114.5 -198.5t41 -235.5q0 -166 -58.5 -313.5t-161 -258t-240.5 -175t-296 -64.5h-444q-14 0 -22.5 11.5t-4.5 27.5z M391 250h191q94 0 177 42t145.5 114.5t98 172t35.5 214.5q0 84 -22.5 155.5t-65.5 124.5t-102.5 83t-132.5 30h-193l-59 -424h280q16 0 23.5 -11.5t5.5 -27.5l-4 -29q-2 -16 -12.5 -26.5t-26.5 -10.5h-280z" />
<glyph unicode="&#x111;" horiz-adv-x="1089" d="M59 412q0 115 37 216t103.5 176t156.5 119t195 44q25 0 54.5 -4.5t57 -11.5t51 -16t36.5 -17l24 174h-190q-16 0 -24.5 10t-6.5 26l4 29q2 16 13.5 27.5t27.5 11.5h190l29 190q4 31 20.5 39.5t43.5 8.5h155q16 0 27.5 -13.5t9.5 -31.5l-29 -193h60q14 0 23.5 -11t5.5 -28 l-5 -27q-4 -16 -14 -27t-24 -11h-60l-145 -1047q-4 -18 -17.5 -31.5t-29.5 -13.5h-80q-10 0 -20.5 7t-16.5 34l-16 72q-12 -12 -38 -36t-63 -45.5t-85 -38t-105 -16.5q-76 0 -140.5 34t-112.5 92.5t-75 138.5t-27 170zM313 418q0 -100 45 -150.5t117 -50.5q37 0 71 16.5 t59.5 39t44 47t24.5 42.5l43 318q-20 14 -47 25q-23 10 -54.5 17t-66.5 7q-53 0 -97 -26.5t-75 -69.5t-47.5 -99.5t-16.5 -115.5z" />
<glyph unicode="&#x112;" horiz-adv-x="1095" d="M94 39l191 1356q2 16 13 27.5t26 11.5h757q16 0 24.5 -11.5t6.5 -27.5l-25 -168q-2 -16 -13 -27.5t-27 -11.5h-525l-47 -336h434q14 0 23.5 -11.5t7.5 -27.5l-25 -170q-4 -16 -15 -27.5t-26 -11.5h-434l-51 -358h526q16 0 23.5 -11.5t5.5 -27.5l-22 -168 q-2 -16 -13.5 -27.5t-27.5 -11.5h-758q-16 0 -24.5 11.5t-4.5 27.5zM471 1692l10 69q6 39 41 39h473q35 0 29 -39l-10 -69q-2 -16 -13.5 -26.5t-27.5 -10.5h-471q-16 0 -24.5 10t-6.5 27z" />
<glyph unicode="&#x113;" horiz-adv-x="948" d="M57 397q0 106 36 209t104.5 182.5t167 129t223.5 49.5q70 0 127 -20.5t99 -56.5t64.5 -83t22.5 -102q0 -90 -53 -151.5t-139 -99.5t-192.5 -54.5t-213.5 -16.5q-4 -72 33 -124t123 -52q41 0 92 22.5t82 42.5q14 10 28.5 13.5t24.5 -13.5l78 -104q10 -14 9 -30.5 t-15 -31.5q-63 -57 -148.5 -93t-179.5 -36q-90 0 -159.5 34t-117 91.5t-72 133t-24.5 161.5zM328 557q66 0 124 8t101 23.5t68.5 37t25.5 50.5q0 27 -22.5 50.5t-75.5 23.5q-37 0 -72 -17.5t-65.5 -45.5t-53 -62.5t-30.5 -67.5zM377 1204l8 70q2 16 13.5 27.5t27.5 11.5h473 q14 0 23.5 -11.5t5.5 -27.5l-10 -70q-2 -16 -12.5 -26.5t-26.5 -10.5h-473q-16 0 -23.5 10.5t-5.5 26.5z" />
<glyph unicode="&#x114;" horiz-adv-x="1095" d="M94 39l191 1356q2 16 13 27.5t26 11.5h757q16 0 24.5 -11.5t6.5 -27.5l-25 -168q-2 -16 -13 -27.5t-27 -11.5h-525l-47 -336h434q14 0 23.5 -11.5t7.5 -27.5l-25 -170q-4 -16 -15 -27.5t-26 -11.5h-434l-51 -358h526q16 0 23.5 -11.5t5.5 -27.5l-22 -168 q-2 -16 -13.5 -27.5t-27.5 -11.5h-758q-16 0 -24.5 11.5t-4.5 27.5zM512 1810q0 16 11.5 29.5t29.5 13.5h76q12 0 16 -9t6 -19q8 -47 33 -78t70 -31q43 0 78.5 33t52.5 76q12 29 35 28h84q16 0 24 -13t4 -30q-29 -104 -106.5 -172.5t-188.5 -68.5q-47 0 -88 18.5t-71.5 51 t-48 76.5t-17.5 95z" />
<glyph unicode="&#x115;" horiz-adv-x="948" d="M57 397q0 106 36 209t104.5 182.5t167 129t223.5 49.5q70 0 127 -20.5t99 -56.5t64.5 -83t22.5 -102q0 -90 -53 -151.5t-139 -99.5t-192.5 -54.5t-213.5 -16.5q-4 -72 33 -124t123 -52q41 0 92 22.5t82 42.5q14 10 28.5 13.5t24.5 -13.5l78 -104q10 -14 9 -30.5 t-15 -31.5q-63 -57 -148.5 -93t-179.5 -36q-90 0 -159.5 34t-117 91.5t-72 133t-24.5 161.5zM328 557q66 0 124 8t101 23.5t68.5 37t25.5 50.5q0 27 -22.5 50.5t-75.5 23.5q-37 0 -72 -17.5t-65.5 -45.5t-53 -62.5t-30.5 -67.5zM397 1323q0 18 12.5 31.5t28.5 13.5h74 q10 0 17.5 -9t9.5 -20q6 -47 30.5 -77.5t71.5 -30.5q43 0 78 32.5t51 75.5q10 29 37 29h84q16 0 24.5 -13.5t4.5 -31.5q-31 -104 -108.5 -173t-186.5 -69q-98 0 -163 69t-65 173z" />
<glyph unicode="&#x116;" horiz-adv-x="1095" d="M94 39l191 1356q2 16 13 27.5t26 11.5h757q16 0 24.5 -11.5t6.5 -27.5l-25 -168q-2 -16 -13 -27.5t-27 -11.5h-525l-47 -336h434q14 0 23.5 -11.5t7.5 -27.5l-25 -170q-4 -16 -15 -27.5t-26 -11.5h-434l-51 -358h526q16 0 23.5 -11.5t5.5 -27.5l-22 -168 q-2 -16 -13.5 -27.5t-27.5 -11.5h-758q-16 0 -24.5 11.5t-4.5 27.5zM590 1722q0 39 15.5 73t40 58.5t58 39t70.5 14.5q61 0 100 -42t39 -102q0 -37 -15 -69.5t-41 -58t-58.5 -40t-69.5 -14.5q-61 0 -100 41t-39 100z" />
<glyph unicode="&#x117;" horiz-adv-x="948" d="M57 397q0 106 36 209t104.5 182.5t167 129t223.5 49.5q70 0 127 -20.5t99 -56.5t64.5 -83t22.5 -102q0 -90 -53 -151.5t-139 -99.5t-192.5 -54.5t-213.5 -16.5q-4 -72 33 -124t123 -52q41 0 92 22.5t82 42.5q14 10 28.5 13.5t24.5 -13.5l78 -104q10 -14 9 -30.5 t-15 -31.5q-63 -57 -148.5 -93t-179.5 -36q-90 0 -159.5 34t-117 91.5t-72 133t-24.5 161.5zM328 557q66 0 124 8t101 23.5t68.5 37t25.5 50.5q0 27 -22.5 50.5t-75.5 23.5q-37 0 -72 -17.5t-65.5 -45.5t-53 -62.5t-30.5 -67.5zM481 1249q0 39 15.5 73t40 58.5t58.5 39 t71 14.5q61 0 100 -42t39 -102q0 -37 -15.5 -69.5t-41 -58t-58 -40t-69.5 -14.5q-61 0 -100.5 41t-39.5 100z" />
<glyph unicode="&#x118;" horiz-adv-x="1095" d="M94 39l191 1356q2 16 13 27.5t26 11.5h757q16 0 24.5 -11.5t6.5 -27.5l-25 -168q-2 -16 -13 -27.5t-27 -11.5h-525l-47 -336h434q14 0 23.5 -11.5t7.5 -27.5l-25 -170q-4 -16 -15 -27.5t-26 -11.5h-434l-51 -358h526q16 0 23.5 -11.5t5.5 -27.5l-22 -164q-2 -23 -31 -41 q-35 -20 -76 -49t-75.5 -62.5t-58.5 -74.5t-24 -86q0 -68 70 -68q41 0 80 23.5t53 33.5q16 12 28.5 7t10.5 -21l-12 -106q-2 -18 -10.5 -34t-28.5 -30q-27 -16 -75 -28.5t-97 -12.5q-100 0 -152.5 50t-52.5 132q0 104 65.5 182.5t159.5 141.5h-573q-16 0 -24.5 11.5 t-4.5 27.5z" />
<glyph unicode="&#x119;" horiz-adv-x="948" d="M57 397q0 106 36 209t104.5 182.5t167 129t223.5 49.5q70 0 127 -20.5t99 -56.5t64.5 -83t22.5 -102q0 -90 -53 -151.5t-139 -99.5t-192.5 -54.5t-213.5 -16.5q-4 -72 33 -124t123 -52q41 0 92 22.5t82 42.5q14 10 28.5 13.5t24.5 -13.5l78 -104q10 -14 9 -30.5 t-15 -31.5q-76 -70 -180 -104q-35 -20 -75 -48t-76 -62.5t-59.5 -75.5t-23.5 -86q0 -68 70 -68q41 0 79.5 23.5t53.5 33.5q16 12 28.5 7t10.5 -21l-13 -106q-2 -18 -10 -34t-28 -30q-27 -16 -75 -28.5t-98 -12.5q-100 0 -152 50t-52 132q0 98 57 172t143 136q-74 12 -129 49 t-94 92t-58.5 124.5t-19.5 147.5zM328 557q66 0 124 8t101 23.5t68.5 37t25.5 50.5q0 27 -22.5 50.5t-75.5 23.5q-37 0 -72 -17.5t-65.5 -45.5t-53 -62.5t-30.5 -67.5z" />
<glyph unicode="&#x11a;" horiz-adv-x="1095" d="M94 39l191 1356q2 16 13 27.5t26 11.5h757q16 0 24.5 -11.5t6.5 -27.5l-25 -168q-2 -16 -13 -27.5t-27 -11.5h-525l-47 -336h434q14 0 23.5 -11.5t7.5 -27.5l-25 -170q-4 -16 -15 -27.5t-26 -11.5h-434l-51 -358h526q16 0 23.5 -11.5t5.5 -27.5l-22 -168 q-2 -16 -13.5 -27.5t-27.5 -11.5h-758q-16 0 -24.5 11.5t-4.5 27.5zM482.5 1789q-3.5 11 4.5 21l60 76q18 25 41 6l160 -127l204 127q16 10 24.5 7t16.5 -13l45 -67q10 -16 5 -27.5t-15 -19.5l-274 -207q-23 -16 -43 0l-217 207q-8 6 -11.5 17z" />
<glyph unicode="&#x11b;" horiz-adv-x="948" d="M57 397q0 106 36 209t104.5 182.5t167 129t223.5 49.5q70 0 127 -20.5t99 -56.5t64.5 -83t22.5 -102q0 -90 -53 -151.5t-139 -99.5t-192.5 -54.5t-213.5 -16.5q-4 -72 33 -124t123 -52q41 0 92 22.5t82 42.5q14 10 28.5 13.5t24.5 -13.5l78 -104q10 -14 9 -30.5 t-15 -31.5q-63 -57 -148.5 -93t-179.5 -36q-90 0 -159.5 34t-117 91.5t-72 133t-24.5 161.5zM328 557q66 0 124 8t101 23.5t68.5 37t25.5 50.5q0 27 -22.5 50.5t-75.5 23.5q-37 0 -72 -17.5t-65.5 -45.5t-53 -62.5t-30.5 -67.5zM368 1299.5q-3 11.5 5 21.5l59 76q18 25 41 6 l160 -127l205 127q16 10 24 7t17 -13l45 -68q10 -16 5 -27.5t-16 -19.5l-274 -207q-23 -16 -43 0l-217 207q-8 6 -11 17.5z" />
<glyph unicode="&#x11c;" horiz-adv-x="1349" d="M109 616q0 180 59 334t161.5 265.5t243 175t299.5 63.5q139 0 244 -51t182 -143q10 -12 8.5 -29t-16.5 -29l-108 -106q-39 -29 -68 0q-41 39 -100.5 70.5t-155.5 31.5q-92 0 -175 -44t-146.5 -120t-100.5 -174t-37 -209q0 -82 25 -155.5t66.5 -129t100 -88t126.5 -32.5 q72 0 126 15t83 34l24 180h-131q-16 0 -24.5 10.5t-6.5 26.5l23 160q6 39 41 39h362q14 0 22.5 -11.5t6.5 -27.5l-67 -492q-4 -25 -13.5 -39t-19.5 -24q-8 -6 -42 -28.5t-92.5 -46.5t-139.5 -43t-185 -19q-125 0 -230.5 50t-182 136t-119.5 201.5t-43 248.5zM613 1667.5 q5 11.5 16 20.5l274 206q23 16 43 0l217 -206q8 -6 11.5 -17.5t-5.5 -21.5l-59 -76q-18 -25 -41 -6l-160 127l-204 -127q-16 -10 -24.5 -7t-16.5 13l-46 67q-10 16 -5 27.5z" />
<glyph unicode="&#x11d;" d="M59 406q0 106 33 207.5t96.5 179t153.5 126t207 48.5q68 0 116 -22.5t80 -49.5q37 -31 62 -70l33 76q16 45 47 45h84q16 0 27.5 -13.5t7.5 -31.5l-127 -911q-18 -133 -66.5 -223.5t-116 -143.5t-148.5 -75.5t-163 -22.5q-55 0 -103.5 13t-88 31.5t-68.5 39t-41 33.5 q-10 10 -11 25.5t9 27.5l72 129q8 14 23.5 18t27.5 -6q10 -8 29.5 -20.5t44 -23.5t55.5 -19.5t63 -8.5q49 0 88 10.5t68 36t48.5 69.5t29.5 110l4 26q-33 -12 -87 -25.5t-120 -13.5q-84 0 -152.5 31t-116.5 87.5t-74 135t-26 175.5zM324 422q0 -43 8 -81t26.5 -66.5t49 -46 t77.5 -17.5q41 0 73 8t54 19q27 10 47 26l48 338q-4 20 -14.5 43t-29 42.5t-47 32.5t-69.5 13q-59 0 -102.5 -30.5t-70 -76.5t-38.5 -100.5t-12 -103.5zM339 1178.5q5 11.5 15 19.5l275 207q23 16 43 0l217 -207q8 -6 11 -17.5t-5 -21.5l-59 -76q-18 -25 -41 -6l-160 127 l-205 -127q-16 -10 -24.5 -7t-16.5 13l-45 68q-10 16 -5 27.5z" />
<glyph unicode="&#x11e;" horiz-adv-x="1349" d="M109 616q0 180 59 334t161.5 265.5t243 175t299.5 63.5q139 0 244 -51t182 -143q10 -12 8.5 -29t-16.5 -29l-108 -106q-39 -29 -68 0q-41 39 -100.5 70.5t-155.5 31.5q-92 0 -175 -44t-146.5 -120t-100.5 -174t-37 -209q0 -82 25 -155.5t66.5 -129t100 -88t126.5 -32.5 q72 0 126 15t83 34l24 180h-131q-16 0 -24.5 10.5t-6.5 26.5l23 160q6 39 41 39h362q14 0 22.5 -11.5t6.5 -27.5l-67 -492q-4 -25 -13.5 -39t-19.5 -24q-8 -6 -42 -28.5t-92.5 -46.5t-139.5 -43t-185 -19q-125 0 -230.5 50t-182 136t-119.5 201.5t-43 248.5zM686 1810 q0 16 11.5 29.5t29.5 13.5h76q12 0 16 -9t6 -19q8 -47 33 -78t70 -31q43 0 78.5 33t52.5 76q12 29 35 28h84q16 0 24 -13t4 -30q-29 -104 -106.5 -172.5t-188.5 -68.5q-47 0 -88 18.5t-71.5 51t-48 76.5t-17.5 95z" />
<glyph unicode="&#x11f;" d="M59 406q0 106 33 207.5t96.5 179t153.5 126t207 48.5q68 0 116 -22.5t80 -49.5q37 -31 62 -70l33 76q16 45 47 45h84q16 0 27.5 -13.5t7.5 -31.5l-127 -911q-18 -133 -66.5 -223.5t-116 -143.5t-148.5 -75.5t-163 -22.5q-55 0 -103.5 13t-88 31.5t-68.5 39t-41 33.5 q-10 10 -11 25.5t9 27.5l72 129q8 14 23.5 18t27.5 -6q10 -8 29.5 -20.5t44 -23.5t55.5 -19.5t63 -8.5q49 0 88 10.5t68 36t48.5 69.5t29.5 110l4 26q-33 -12 -87 -25.5t-120 -13.5q-84 0 -152.5 31t-116.5 87.5t-74 135t-26 175.5zM324 422q0 -43 8 -81t26.5 -66.5t49 -46 t77.5 -17.5q41 0 73 8t54 19q27 10 47 26l48 338q-4 20 -14.5 43t-29 42.5t-47 32.5t-69.5 13q-59 0 -102.5 -30.5t-70 -76.5t-38.5 -100.5t-12 -103.5zM414 1323q0 18 12 31.5t29 13.5h73q10 0 17.5 -9t9.5 -20q6 -47 30.5 -77.5t71.5 -30.5q43 0 78 32.5t51 75.5 q10 29 37 29h84q16 0 24.5 -13.5t4.5 -31.5q-31 -104 -108.5 -173t-186.5 -69q-98 0 -162.5 69t-64.5 173z" />
<glyph unicode="&#x120;" horiz-adv-x="1349" d="M109 616q0 180 59 334t161.5 265.5t243 175t299.5 63.5q139 0 244 -51t182 -143q10 -12 8.5 -29t-16.5 -29l-108 -106q-39 -29 -68 0q-41 39 -100.5 70.5t-155.5 31.5q-92 0 -175 -44t-146.5 -120t-100.5 -174t-37 -209q0 -82 25 -155.5t66.5 -129t100 -88t126.5 -32.5 q72 0 126 15t83 34l24 180h-131q-16 0 -24.5 10.5t-6.5 26.5l23 160q6 39 41 39h362q14 0 22.5 -11.5t6.5 -27.5l-67 -492q-4 -25 -13.5 -39t-19.5 -24q-8 -6 -42 -28.5t-92.5 -46.5t-139.5 -43t-185 -19q-125 0 -230.5 50t-182 136t-119.5 201.5t-43 248.5zM756 1722 q0 39 15 73t40 58.5t58.5 39t70.5 14.5q61 0 100 -42t39 -102q0 -37 -15 -69.5t-41 -58t-58.5 -40t-69.5 -14.5q-61 0 -100 41t-39 100z" />
<glyph unicode="&#x121;" d="M59 406q0 106 33 207.5t96.5 179t153.5 126t207 48.5q68 0 116 -22.5t80 -49.5q37 -31 62 -70l33 76q16 45 47 45h84q16 0 27.5 -13.5t7.5 -31.5l-127 -911q-18 -133 -66.5 -223.5t-116 -143.5t-148.5 -75.5t-163 -22.5q-55 0 -103.5 13t-88 31.5t-68.5 39t-41 33.5 q-10 10 -11 25.5t9 27.5l72 129q8 14 23.5 18t27.5 -6q10 -8 29.5 -20.5t44 -23.5t55.5 -19.5t63 -8.5q49 0 88 10.5t68 36t48.5 69.5t29.5 110l4 26q-33 -12 -87 -25.5t-120 -13.5q-84 0 -152.5 31t-116.5 87.5t-74 135t-26 175.5zM324 422q0 -43 8 -81t26.5 -66.5t49 -46 t77.5 -17.5q41 0 73 8t54 19q27 10 47 26l48 338q-4 20 -14.5 43t-29 42.5t-47 32.5t-69.5 13q-59 0 -102.5 -30.5t-70 -76.5t-38.5 -100.5t-12 -103.5zM489 1249q0 39 15.5 73t40 58.5t58.5 39t71 14.5q61 0 100 -42t39 -102q0 -37 -15.5 -69.5t-41 -58t-58 -40 t-69.5 -14.5q-61 0 -100.5 41t-39.5 100z" />
<glyph unicode="&#x122;" horiz-adv-x="1349" d="M109 616q0 180 59 334t161.5 265.5t243 175t299.5 63.5q139 0 244 -51t182 -143q10 -12 8.5 -29t-16.5 -29l-108 -106q-39 -29 -68 0q-41 39 -100.5 70.5t-155.5 31.5q-92 0 -175 -44t-146.5 -120t-100.5 -174t-37 -209q0 -82 25 -155.5t66.5 -129t100 -88t126.5 -32.5 q72 0 126 15t83 34l24 180h-131q-16 0 -24.5 10.5t-6.5 26.5l23 160q6 39 41 39h362q14 0 22.5 -11.5t6.5 -27.5l-67 -492q-4 -25 -13.5 -39t-19.5 -24q-8 -6 -42 -28.5t-92.5 -46.5t-139.5 -43t-185 -19q-125 0 -230.5 50t-182 136t-119.5 201.5t-43 248.5zM432 -295 q0 72 53.5 118t126.5 46q70 0 114 -38t44 -122q0 -92 -44 -172t-108 -151q-10 -10 -20 -12.5t-20 8.5l-46 40q-18 18 3 43q31 35 51 78t24 84q-10 -6 -29.5 -13t-41.5 -7q-49 0 -78 28.5t-29 69.5z" />
<glyph unicode="&#x123;" d="M59 406q0 106 33 207.5t96.5 179t153.5 126t207 48.5q68 0 116 -22.5t80 -49.5q37 -31 62 -70l33 76q16 45 47 45h84q16 0 27.5 -13.5t7.5 -31.5l-127 -911q-18 -133 -66.5 -223.5t-116 -143.5t-148.5 -75.5t-163 -22.5q-55 0 -103.5 13t-88 31.5t-68.5 39t-41 33.5 q-10 10 -11 25.5t9 27.5l72 129q8 14 23.5 18t27.5 -6q10 -8 29.5 -20.5t44 -23.5t55.5 -19.5t63 -8.5q49 0 88 10.5t68 36t48.5 69.5t29.5 110l4 26q-33 -12 -87 -25.5t-120 -13.5q-84 0 -152.5 31t-116.5 87.5t-74 135t-26 175.5zM324 422q0 -43 8 -81t26.5 -66.5t49 -46 t77.5 -17.5q41 0 73 8t54 19q27 10 47 26l48 338q-4 20 -14.5 43t-29 42.5t-47 32.5t-69.5 13q-59 0 -102.5 -30.5t-70 -76.5t-38.5 -100.5t-12 -103.5zM461 1225q0 92 44 172t107 151q23 23 41 4l45 -41q18 -18 -2 -43q-31 -35 -51 -77.5t-24 -83.5q10 6 29.5 13t41.5 7 q49 0 78 -28.5t29 -69.5q0 -72 -53.5 -118t-127.5 -46q-70 0 -113.5 38t-43.5 122z" />
<glyph unicode="&#x124;" horiz-adv-x="1437" d="M94 39l191 1356q2 16 14 27.5t27 11.5h196q16 0 24.5 -11.5t6.5 -27.5l-76 -543h559l76 543q2 16 13.5 27.5t27.5 11.5h197q14 0 23 -11.5t7 -27.5l-190 -1356q-4 -16 -15.5 -27.5t-25.5 -11.5h-199q-16 0 -23 11.5t-5 27.5l79 565h-559l-80 -565q-4 -16 -14 -27.5 t-26 -11.5h-199q-14 0 -23.5 11.5t-5.5 27.5zM575 1667.5q5 11.5 15 20.5l274 206q23 16 43 0l217 -206q8 -6 11.5 -17.5t-5.5 -21.5l-59 -76q-18 -25 -41 -6l-160 127l-204 -127q-16 -10 -24.5 -7t-16.5 13l-45 67q-10 16 -5 27.5z" />
<glyph unicode="&#x125;" horiz-adv-x="1058" d="M53 45l191 1344q2 18 16 31.5t29 13.5h176q16 0 27.5 -13.5t9.5 -31.5l-70 -496q39 29 90 51.5t119 22.5q100 0 162.5 -37t94.5 -100.5t38 -145.5t-6 -170l-66 -469q-2 -18 -16 -31.5t-31 -13.5h-174q-16 0 -26.5 13.5t-8.5 31.5l66 473q14 98 -3.5 154.5t-107.5 56.5 q-47 0 -78.5 -18.5t-52.5 -40.5q-23 -25 -39 -58l-80 -567q-4 -20 -15 -32.5t-38 -12.5h-172q-16 0 -26.5 13.5t-8.5 31.5zM91 1622.5q5 11.5 15 19.5l275 207q23 16 43 0l217 -207q8 -6 11 -17t-5 -21l-59 -76q-18 -25 -41 -6l-160 127l-205 -127q-16 -10 -24 -7t-17 13 l-45 67q-10 16 -5 27.5z" />
<glyph unicode="&#x126;" horiz-adv-x="1437" d="M96 39l148 1053h-49q-14 0 -22.5 11t-6.5 27l4 31q2 16 13.5 25.5t25.5 9.5h49l29 199q2 16 14 27.5t27 11.5h196q16 0 24.5 -11.5t6.5 -27.5l-29 -199h559l29 199q2 16 13.5 27.5t27.5 11.5h197q14 0 23 -11.5t7 -27.5l-28 -199h49q16 0 24.5 -11t6.5 -28l-4 -29 q-2 -16 -13.5 -26t-27.5 -10h-50l-147 -1053q-4 -16 -15.5 -27.5t-25.5 -11.5h-199q-16 0 -23 11.5t-5 27.5l80 565h-560l-79 -565q-4 -16 -14.5 -27.5t-26.5 -11.5h-199q-14 0 -23.5 11.5t-5.5 27.5zM479 852h559l33 240h-559z" />
<glyph unicode="&#x127;" horiz-adv-x="1097" d="M53 45l148 1047h-56q-14 0 -22 11t-4 27l4 31q6 35 37 35h55l29 193q2 18 16 31.5t29 13.5h176q16 0 27.5 -13.5t9.5 -31.5l-29 -193h193q16 0 23 -11t5 -28l-4 -29q-2 -16 -12 -26t-27 -10h-192l-27 -199q39 29 100.5 51.5t129.5 22.5q100 0 165.5 -37t101.5 -100.5 t45 -145.5t-3 -170l-66 -469q-2 -18 -16.5 -31.5t-30.5 -13.5h-174q-16 0 -26.5 13.5t-8.5 31.5l66 473q14 98 -12.5 154.5t-118.5 56.5q-47 0 -82 -18.5t-60 -40.5q-29 -25 -49 -58l-80 -567q-4 -20 -15 -32.5t-38 -12.5h-172q-16 0 -26.5 13.5t-8.5 31.5z" />
<glyph unicode="&#x128;" horiz-adv-x="610" d="M94 39l191 1356q2 16 13 27.5t26 11.5h200q14 0 23.5 -11.5t5.5 -27.5l-191 -1356q-2 -16 -13 -27.5t-25 -11.5h-201q-14 0 -23.5 11.5t-5.5 27.5zM203.5 1634.5q0.5 15.5 9.5 28.5q6 10 20 34.5t35.5 48t53.5 43t71 19.5q33 0 55.5 -16.5t39.5 -33.5t31.5 -28.5 t26.5 -11.5t21.5 12.5t17.5 28.5q10 20 31.5 29.5t42.5 -6.5l37 -29q20 -16 19 -34.5t-11 -39.5q-4 -12 -18.5 -35.5t-36 -45t-51 -38t-66.5 -16.5q-35 0 -59.5 15.5t-43 34t-31.5 30.5t-24 12q-14 0 -25.5 -19.5t-21.5 -35.5q-8 -16 -28.5 -20.5t-34.5 8.5l-45 34 q-16 16 -15.5 31.5z" />
<glyph unicode="&#x129;" horiz-adv-x="516" d="M53 45l121 856q4 20 17.5 32.5t29.5 12.5h176q16 0 28.5 -12t8.5 -33l-123 -856q-2 -18 -16 -31.5t-31 -13.5h-174q-16 0 -27.5 13.5t-9.5 31.5zM83.5 1114.5q0.5 15.5 9.5 28.5q6 10 20 34.5t35.5 48t53.5 43t71 19.5q33 0 55.5 -16.5t39.5 -33.5t31.5 -28.5t26.5 -11.5 t21.5 12.5t17.5 28.5q10 20 31.5 29.5t42.5 -6.5l37 -29q20 -16 19 -34.5t-11 -39.5q-4 -12 -18.5 -35.5t-36 -45t-51 -38t-66.5 -16.5q-35 0 -59.5 15.5t-43 34t-31.5 30.5t-24 12q-14 0 -25.5 -19.5t-21.5 -35.5q-8 -16 -28.5 -20.5t-34.5 8.5l-45 34q-16 16 -15.5 31.5z " />
<glyph unicode="&#x12a;" horiz-adv-x="610" d="M94 39l191 1356q2 16 13 27.5t26 11.5h200q14 0 23.5 -11.5t5.5 -27.5l-191 -1356q-2 -16 -13 -27.5t-25 -11.5h-201q-14 0 -23.5 11.5t-5.5 27.5zM188 1692l11 69q6 39 41 39h473q35 0 28 -39l-10 -69q-2 -16 -13 -26.5t-28 -10.5h-471q-16 0 -24.5 10t-6.5 27z" />
<glyph unicode="&#x12b;" horiz-adv-x="516" d="M53 45l121 856q4 20 17.5 32.5t29.5 12.5h176q16 0 28.5 -12t8.5 -33l-123 -856q-2 -18 -16 -31.5t-31 -13.5h-174q-16 0 -27.5 13.5t-9.5 31.5zM68 1204l8 70q2 16 13 27.5t28 11.5h473q14 0 23.5 -11.5t4.5 -27.5l-10 -70q-2 -16 -12 -26.5t-27 -10.5h-473 q-16 0 -23 10.5t-5 26.5z" />
<glyph unicode="&#x12c;" horiz-adv-x="610" d="M94 39l191 1356q2 16 13 27.5t26 11.5h200q14 0 23.5 -11.5t5.5 -27.5l-191 -1356q-2 -16 -13 -27.5t-25 -11.5h-201q-14 0 -23.5 11.5t-5.5 27.5zM229 1810q0 16 11.5 29.5t29.5 13.5h76q12 0 16.5 -9t6.5 -19q8 -47 32.5 -78t69.5 -31q43 0 79 33t52 76q12 29 35 28h84 q16 0 24.5 -13t4.5 -30q-29 -104 -106.5 -172.5t-188.5 -68.5q-47 0 -88 18.5t-72 51t-48.5 76.5t-17.5 95z" />
<glyph unicode="&#x12d;" horiz-adv-x="516" d="M53 45l121 856q4 20 17.5 32.5t29.5 12.5h176q16 0 28.5 -12t8.5 -33l-123 -856q-2 -18 -16 -31.5t-31 -13.5h-174q-16 0 -27.5 13.5t-9.5 31.5zM96 1323q0 18 12.5 31.5t28.5 13.5h74q10 0 17.5 -9t9.5 -20q6 -47 30.5 -77.5t71.5 -30.5q43 0 78 32.5t51 75.5 q10 29 37 29h84q16 0 24.5 -13.5t3.5 -31.5q-31 -104 -108 -173t-186 -69q-98 0 -163 69t-65 173z" />
<glyph unicode="&#x12e;" horiz-adv-x="610" d="M-106 -324q0 104 65.5 182.5t159.5 141.5q-12 2 -20.5 12.5t-4.5 26.5l191 1356q2 16 13 27.5t26 11.5h200q14 0 23.5 -11.5t5.5 -27.5l-191 -1356q-2 -16 -12 -27.5t-26 -11.5h-15q-35 -20 -74.5 -48t-73.5 -62.5t-57.5 -74.5t-23.5 -85q0 -68 70 -68q41 0 79.5 23.5 t53.5 33.5q16 12 28.5 7t10.5 -21l-13 -106q-2 -18 -10 -34t-29 -30q-27 -16 -75 -28.5t-97 -12.5q-100 0 -152 50t-52 132z" />
<glyph unicode="&#x12f;" horiz-adv-x="516" d="M-150 -324q0 53 18.5 98.5t49.5 85.5t72 74.5t88 67.5q-10 4 -18.5 15.5t-6.5 27.5l121 856q4 20 17.5 32.5t29.5 12.5h176q16 0 28.5 -12t8.5 -33l-123 -848q-4 -25 -17 -36t-28 -17q-35 -20 -74.5 -48t-73.5 -62.5t-57.5 -74.5t-23.5 -85q0 -68 69 -68q41 0 80 23.5 t54 33.5q16 12 28.5 7t10.5 -21l-13 -106q-2 -18 -10 -34t-29 -30q-27 -16 -75 -28.5t-97 -12.5q-100 0 -152.5 50t-52.5 132zM190 1249q0 39 15.5 73t40 58.5t58.5 39t71 14.5q61 0 100 -42t39 -102q0 -37 -15.5 -69.5t-41 -58t-58 -40t-69.5 -14.5q-61 0 -100.5 41 t-39.5 100z" />
<glyph unicode="&#x130;" horiz-adv-x="610" d="M94 39l191 1356q2 16 13 27.5t26 11.5h200q14 0 23.5 -11.5t5.5 -27.5l-191 -1356q-2 -16 -13 -27.5t-25 -11.5h-201q-14 0 -23.5 11.5t-5.5 27.5zM305 1722q0 39 15.5 73t40 58.5t58.5 39t70 14.5q61 0 100.5 -42t39.5 -102q0 -37 -15.5 -69.5t-41 -58t-58.5 -40 t-70 -14.5q-61 0 -100 41t-39 100z" />
<glyph unicode="&#x131;" horiz-adv-x="516" d="M53 45l121 856q4 20 17.5 32.5t29.5 12.5h176q16 0 28.5 -12t8.5 -33l-123 -856q-2 -18 -16 -31.5t-31 -13.5h-174q-16 0 -27.5 13.5t-9.5 31.5z" />
<glyph unicode="&#x132;" horiz-adv-x="1447" d="M94 39l191 1356q2 16 13 27.5t26 11.5h200q14 0 23.5 -11.5t5.5 -27.5l-191 -1356q-2 -16 -13 -27.5t-25 -11.5h-201q-14 0 -23.5 11.5t-5.5 27.5zM546 155.5q5 14.5 15 24.5l94 92q16 16 27.5 13.5t24.5 -15.5q16 -16 45.5 -32.5t74.5 -16.5q61 0 104.5 44t53.5 116 l143 1014q2 16 13.5 27.5t25.5 11.5h203q16 0 24.5 -11.5t6.5 -27.5l-144 -1008q-12 -92 -42.5 -167t-83 -128t-126 -82.5t-171.5 -29.5q-61 0 -109.5 16t-83.5 39.5t-58.5 49.5t-33.5 44q-8 12 -3 26.5z" />
<glyph unicode="&#x133;" horiz-adv-x="991" d="M53 45l121 856q4 20 17.5 32.5t29.5 12.5h176q16 0 28.5 -12t8.5 -33l-123 -856q-4 -18 -17 -31.5t-30 -13.5h-174q-16 0 -27.5 13.5t-9.5 31.5zM190 1249q0 39 15.5 73t40 58.5t58.5 39t71 14.5q61 0 100 -42t39 -102q0 -37 -15.5 -69.5t-41 -58t-58 -40t-69.5 -14.5 q-61 0 -100.5 41t-39.5 100zM293 -360q-6 29 1 48t36 33q27 14 56.5 30t55 39.5t45 56t25.5 79.5l137 975q4 20 19.5 32.5t31.5 12.5h166q16 0 29.5 -12t9.5 -33l-131 -940q-14 -104 -48 -181t-80 -130t-103.5 -90t-118.5 -62q-27 -10 -53.5 -9t-34.5 30zM662 1249 q0 39 15 73t39.5 58.5t58.5 39t71 14.5q61 0 100 -42t39 -102q0 -37 -15.5 -69.5t-41 -58t-58 -40t-69.5 -14.5q-61 0 -100 41t-39 100z" />
<glyph unicode="&#x134;" horiz-adv-x="868" d="M-34 155.5q5 14.5 16 24.5l94 92q16 16 27.5 13.5t23.5 -15.5q16 -16 46 -32.5t75 -16.5q61 0 104 44t54 116l143 1014q2 16 13 27.5t26 11.5h203q16 0 24 -11.5t6 -27.5l-143 -1008q-12 -92 -43 -167t-83 -128t-126 -82.5t-172 -29.5q-61 0 -109.5 16t-83 39.5 t-58.5 49.5t-34 44q-8 12 -3 26.5zM427 1667.5q5 11.5 15 20.5l275 206q23 16 43 0l217 -206q8 -6 11 -17.5t-5 -21.5l-59 -76q-18 -25 -41 -6l-160 127l-205 -127q-16 -10 -24.5 -7t-16.5 13l-45 67q-10 16 -5 27.5z" />
<glyph unicode="&#x135;" horiz-adv-x="516" d="M-182 -360q-6 29 1 48t36 33q27 14 56.5 30t55 39.5t45 56t25.5 79.5l137 975q4 20 19.5 32.5t31.5 12.5h166q16 0 29.5 -12t9.5 -33l-131 -940q-14 -104 -48 -181t-80 -130t-103.5 -90t-118.5 -62q-27 -10 -53.5 -9t-34.5 30zM50 1178.5q5 11.5 16 19.5l274 207 q23 16 43 0l217 -207q8 -6 11 -17.5t-5 -21.5l-59 -76q-18 -25 -41 -6l-160 127l-205 -127q-16 -10 -24 -7t-17 13l-45 68q-10 16 -5 27.5z" />
<glyph unicode="&#x136;" horiz-adv-x="1234" d="M96 49l189 1335q4 20 17 35t34 15h192q18 0 29.5 -14.5t7.5 -35.5l-78 -553l482 566q16 20 33.5 28.5t50.5 8.5h202q27 0 34 -22.5t-13 -45.5l-559 -627l413 -676q10 -20 -2 -41.5t-38 -21.5h-187q-29 0 -44 8t-30 33l-364 633l-88 -625q-2 -20 -17.5 -34.5t-31.5 -14.5 h-193q-20 0 -30.5 14.5t-8.5 34.5zM348 -295q0 72 53.5 118t126.5 46q70 0 114 -38t44 -122q0 -92 -44 -172t-107 -151q-23 -23 -41 -4l-45 40q-18 18 2 43q31 35 51 78t24 84q-10 -6 -29.5 -13t-41.5 -7q-49 0 -78 28.5t-29 69.5z" />
<glyph unicode="&#x137;" horiz-adv-x="1013" d="M53 45l191 1344q2 18 16 31.5t29 13.5h178q16 0 27.5 -13.5t9.5 -31.5l-115 -809l305 338q25 29 58 28h219q29 0 33 -22.5t-17 -42.5l-366 -387l274 -435q12 -20 2 -39.5t-39 -19.5h-194q-23 0 -33 6t-19 21l-239 428l-58 -410q-4 -18 -18 -31.5t-29 -13.5h-180 q-16 0 -27.5 13.5t-7.5 31.5zM236 -295q0 72 53 118t127 46q70 0 113.5 -38t43.5 -122q0 -92 -44 -172t-107 -151q-23 -23 -41 -4l-45 40q-18 18 2 43q31 35 51.5 78t24.5 84q-10 -6 -29.5 -13t-42.5 -7q-49 0 -77.5 28.5t-28.5 69.5z" />
<glyph unicode="&#x138;" horiz-adv-x="1015" d="M53 45l121 856q2 16 18.5 30.5t30.5 14.5h176q16 0 26.5 -14t8.5 -31l-51 -377l313 394q23 29 60 28h215q29 0 32 -24.5t-14 -44.5l-366 -422l272 -387q14 -20 2 -44t-41 -24h-199q-27 0 -43 23l-254 360l-47 -338q-4 -18 -18 -31.5t-29 -13.5h-176q-16 0 -27.5 13.5 t-9.5 31.5z" />
<glyph unicode="&#x139;" horiz-adv-x="962" d="M94 39l191 1356q2 16 13 27.5t28 11.5h198q14 0 22.5 -11.5t6.5 -27.5l-162 -1149h453q16 0 23 -11.5t5 -27.5l-22 -168q-2 -16 -13.5 -27.5t-27.5 -11.5h-684q-16 0 -24.5 11.5t-6.5 27.5zM233 1665q-10 27 17 39l336 199q14 10 27.5 8t21.5 -19l49 -106q10 -18 3 -33.5 t-21 -21.5l-353 -158q-23 -10 -32 -6t-15 18z" />
<glyph unicode="&#x13a;" horiz-adv-x="522" d="M55 45l191 1344q2 18 16 31.5t29 13.5h176q16 0 27.5 -13.5t9.5 -31.5l-191 -1344q-2 -18 -16 -31.5t-31 -13.5h-176q-16 0 -26.5 13.5t-8.5 31.5zM205 1618q-10 27 16 39l336 198q14 10 27.5 8.5t21.5 -18.5l49 -106q10 -18 3 -33.5t-21 -22.5l-352 -157q-23 -10 -32 -6 t-15 18z" />
<glyph unicode="&#x13b;" horiz-adv-x="962" d="M94 39l191 1356q2 16 13 27.5t28 11.5h198q14 0 22.5 -11.5t6.5 -27.5l-162 -1149h453q16 0 23 -11.5t5 -27.5l-22 -168q-2 -16 -13.5 -27.5t-27.5 -11.5h-684q-16 0 -24.5 11.5t-6.5 27.5zM252 -295q0 72 53 118t127 46q70 0 114 -38t44 -122q0 -92 -44 -172t-108 -151 q-23 -23 -41 -4l-45 40q-18 18 2 43q31 35 51.5 78t24.5 84q-10 -6 -29.5 -13t-42.5 -7q-49 0 -77.5 28.5t-28.5 69.5z" />
<glyph unicode="&#x13c;" horiz-adv-x="522" d="M-39 -295q0 72 53.5 118t126.5 46q70 0 114 -38t44 -122q0 -92 -44 -172t-108 -151q-23 -23 -41 -4l-45 40q-18 18 2 43q31 35 51.5 78t24.5 84q-10 -6 -29.5 -13t-41.5 -7q-49 0 -78 28.5t-29 69.5zM55 45l191 1344q2 18 16 31.5t29 13.5h176q16 0 27.5 -13.5t9.5 -31.5 l-191 -1344q-2 -18 -16 -31.5t-31 -13.5h-176q-16 0 -26.5 13.5t-8.5 31.5z" />
<glyph unicode="&#x13d;" horiz-adv-x="989" d="M94 39l191 1356q2 16 13 27.5t28 11.5h198q14 0 22.5 -11.5t6.5 -27.5l-162 -1149h453q16 0 23 -11.5t5 -27.5l-22 -168q-2 -16 -13.5 -27.5t-27.5 -11.5h-684q-16 0 -24.5 11.5t-6.5 27.5zM696 1288q0 72 53.5 118t127.5 46q70 0 113.5 -38t43.5 -122q0 -92 -44 -172 t-107 -151q-10 -10 -20.5 -12.5t-20.5 8.5l-45 41q-18 18 2 43q31 35 51 77.5t24 83.5q-10 -6 -29.5 -13t-41.5 -7q-49 0 -78 28.5t-29 69.5z" />
<glyph unicode="&#x13e;" horiz-adv-x="522" d="M55 45l191 1344q2 18 16 31.5t29 13.5h176q16 0 27.5 -13.5t9.5 -31.5l-191 -1344q-2 -18 -16 -31.5t-31 -13.5h-176q-16 0 -26.5 13.5t-8.5 31.5zM555 1290q0 72 53.5 118t126.5 46q70 0 114 -38t44 -122q0 -92 -44 -172t-108 -151q-10 -10 -20 -12.5t-21 8.5l-45 41 q-18 18 2 43q31 35 51.5 77.5t24.5 83.5q-10 -6 -29.5 -13t-41.5 -7q-49 0 -78 28.5t-29 69.5z" />
<glyph unicode="&#x13f;" horiz-adv-x="1024" d="M94 39l191 1356q2 16 13 27.5t28 11.5h198q14 0 22.5 -11.5t6.5 -27.5l-162 -1149h453q16 0 23 -11.5t5 -27.5l-22 -168q-2 -16 -13.5 -27.5t-27.5 -11.5h-684q-16 0 -24.5 11.5t-6.5 27.5zM700 717q0 39 15.5 72.5t40 58t58.5 39t71 14.5q61 0 100 -42t39 -101 q0 -37 -15.5 -70t-41 -58.5t-58 -40t-69.5 -14.5q-61 0 -100.5 41t-39.5 101z" />
<glyph unicode="&#x140;" horiz-adv-x="819" d="M55 45l191 1344q2 18 16 31.5t29 13.5h176q16 0 27.5 -13.5t9.5 -31.5l-191 -1344q-2 -18 -16 -31.5t-31 -13.5h-176q-16 0 -26.5 13.5t-8.5 31.5zM524 680q0 39 15.5 72.5t40 58.5t58.5 39t71 14q61 0 100 -42t39 -101q0 -37 -15.5 -70t-41 -58.5t-58 -39.5t-69.5 -14 q-61 0 -100.5 41t-39.5 100z" />
<glyph unicode="&#x141;" horiz-adv-x="964" d="M78 641q-4 12 0 27.5t18 23.5l101 56l90 647q4 16 14 27.5t27 11.5h198q14 0 22.5 -11.5t6.5 -27.5l-70 -492l164 105q14 10 26.5 4t18.5 -19l13 -26q6 -12 -0.5 -26.5t-20.5 -25.5l-217 -135l-76 -534h453q16 0 24.5 -11.5t3.5 -27.5l-22 -168q-2 -16 -13.5 -27.5 t-27.5 -11.5h-684q-16 0 -24.5 11.5t-6.5 27.5l84 588l-47 -25q-12 -6 -25.5 -3t-19.5 17z" />
<glyph unicode="&#x142;" horiz-adv-x="569" d="M47 637q-4 12 1 27.5t18 23.5l112 66l90 635q2 18 16.5 31.5t28.5 13.5h176q16 0 27.5 -13.5t9.5 -31.5l-67 -469l106 61q14 10 28.5 5t18.5 -19l11 -27q4 -12 -0.5 -26.5t-18.5 -24.5l-162 -94l-106 -750q-2 -18 -16.5 -31.5t-30.5 -13.5h-176q-16 0 -26.5 13.5 t-8.5 31.5l82 586l-56 -33q-14 -10 -27.5 -5t-19.5 19z" />
<glyph unicode="&#x143;" horiz-adv-x="1443" d="M96 35l193 1382q2 16 13 26.5t26 10.5h22q16 0 26.5 -4t26.5 -29l603 -852h2l110 826q2 16 12.5 27.5t26.5 11.5h199q14 0 23.5 -11.5t6.5 -27.5l-194 -1379q-2 -16 -13.5 -26t-25.5 -10h-20q-23 0 -33 7t-27 29l-598 875h-2l-111 -852q-2 -16 -13 -27.5t-27 -11.5h-197 q-12 0 -21.5 10t-7.5 25zM645 1665q-10 27 17 39l335 199q14 10 27.5 8t22.5 -19l49 -106q10 -18 3 -33.5t-22 -21.5l-352 -158q-23 -10 -32 -6t-15 18z" />
<glyph unicode="&#x144;" horiz-adv-x="1054" d="M53 45l121 856q2 20 15.5 32.5t29.5 12.5h78q29 0 33 -28l20 -89q16 14 42 38t61.5 46.5t83 38t106.5 15.5q98 0 159.5 -37t93.5 -98.5t38 -143.5t-6 -174l-68 -469q-2 -18 -15.5 -31.5t-29.5 -13.5h-180q-16 0 -25.5 13.5t-7.5 31.5l74 483q12 92 -5.5 146.5t-97.5 54.5 q-47 0 -81.5 -20.5t-57.5 -44.5q-27 -29 -47 -66l-82 -553q-4 -27 -15 -36t-34 -9h-168q-16 0 -27.5 13.5t-7.5 31.5zM432 1174q-10 27 17 38l335 199q14 10 27.5 8t22.5 -18l49 -107q10 -18 3 -33.5t-22 -21.5l-352 -158q-23 -10 -32 -6t-15 19z" />
<glyph unicode="&#x145;" horiz-adv-x="1443" d="M96 35l193 1382q2 16 13 26.5t26 10.5h22q16 0 26.5 -4t26.5 -29l603 -852h2l110 826q2 16 12.5 27.5t26.5 11.5h199q14 0 23.5 -11.5t6.5 -27.5l-194 -1379q-2 -16 -13.5 -26t-25.5 -10h-20q-23 0 -33 7t-27 29l-598 875h-2l-111 -852q-2 -16 -13 -27.5t-27 -11.5h-197 q-12 0 -21.5 10t-7.5 25zM469 -295q0 72 53 118t127 46q70 0 114 -38t44 -122q0 -92 -44 -172t-108 -151q-10 -10 -20 -12.5t-21 8.5l-45 40q-18 18 2 43q31 35 51.5 78t24.5 84q-10 -6 -29.5 -13t-42.5 -7q-49 0 -77.5 28.5t-28.5 69.5z" />
<glyph unicode="&#x146;" horiz-adv-x="1054" d="M53 45l121 856q2 20 15.5 32.5t29.5 12.5h78q29 0 33 -28l20 -89q16 14 42 38t61.5 46.5t83 38t106.5 15.5q98 0 159.5 -37t93.5 -98.5t38 -143.5t-6 -174l-68 -469q-2 -18 -15.5 -31.5t-29.5 -13.5h-180q-16 0 -25.5 13.5t-7.5 31.5l74 483q12 92 -5.5 146.5t-97.5 54.5 q-47 0 -81.5 -20.5t-57.5 -44.5q-27 -29 -47 -66l-82 -553q-4 -27 -15 -36t-34 -9h-168q-16 0 -27.5 13.5t-7.5 31.5zM229 -295q0 72 53.5 118t127.5 46q70 0 113.5 -38t43.5 -122q0 -92 -44 -172t-107 -151q-23 -23 -41 -4l-45 40q-18 18 2 43q31 35 51 78t25 84 q-10 -6 -30 -13t-42 -7q-49 0 -78 28.5t-29 69.5z" />
<glyph unicode="&#x147;" horiz-adv-x="1443" d="M96 35l193 1382q2 16 13 26.5t26 10.5h22q16 0 26.5 -4t26.5 -29l603 -852h2l110 826q2 16 12.5 27.5t26.5 11.5h199q14 0 23.5 -11.5t6.5 -27.5l-194 -1379q-2 -16 -13.5 -26t-25.5 -10h-20q-23 0 -33 7t-27 29l-598 875h-2l-111 -852q-2 -16 -13 -27.5t-27 -11.5h-197 q-12 0 -21.5 10t-7.5 25zM599 1789q-3 11 5 21l60 76q18 25 41 6l159 -127l205 127q16 10 24.5 7t16.5 -13l45 -67q10 -16 5 -27.5t-15 -19.5l-275 -207q-23 -16 -43 0l-217 207q-8 6 -11 17z" />
<glyph unicode="&#x148;" horiz-adv-x="1054" d="M53 45l121 856q2 20 15.5 32.5t29.5 12.5h78q29 0 33 -28l20 -89q16 14 42 38t61.5 46.5t83 38t106.5 15.5q98 0 159.5 -37t93.5 -98.5t38 -143.5t-6 -174l-68 -469q-2 -18 -15.5 -31.5t-29.5 -13.5h-180q-16 0 -25.5 13.5t-7.5 31.5l74 483q12 92 -5.5 146.5t-97.5 54.5 q-47 0 -81.5 -20.5t-57.5 -44.5q-27 -29 -47 -66l-82 -553q-4 -27 -15 -36t-34 -9h-168q-16 0 -27.5 13.5t-7.5 31.5zM374 1299.5q-3 11.5 5 21.5l59 76q18 25 41 6l160 -127l205 127q16 10 24.5 7t16.5 -13l45 -68q10 -16 5 -27.5t-15 -19.5l-275 -207q-23 -16 -43 0 l-217 207q-8 6 -11 17.5z" />
<glyph unicode="&#x149;" horiz-adv-x="1054" d="M-100 1290q0 72 53 118t127 46q70 0 114 -38t44 -122q0 -92 -44 -172t-108 -151q-10 -10 -20.5 -12.5t-20.5 8.5l-45 41q-18 18 2 43q31 35 51.5 77.5t24.5 83.5q-10 -6 -29.5 -13t-42.5 -7q-49 0 -77.5 28.5t-28.5 69.5zM53 45l121 856q2 20 15.5 32.5t29.5 12.5h78 q29 0 33 -28l20 -89q16 14 42 38t61.5 46.5t83 38t106.5 15.5q98 0 159.5 -37t93.5 -98.5t38 -143.5t-6 -174l-68 -469q-2 -18 -15.5 -31.5t-29.5 -13.5h-180q-16 0 -25.5 13.5t-7.5 31.5l74 483q12 92 -5.5 146.5t-97.5 54.5q-47 0 -81.5 -20.5t-57.5 -44.5 q-27 -29 -47 -66l-82 -553q-4 -27 -15 -36t-34 -9h-168q-16 0 -27.5 13.5t-7.5 31.5z" />
<glyph unicode="&#x14a;" horiz-adv-x="1443" d="M96 35l193 1382q2 16 13 26.5t26 10.5h32q23 0 33 -16l613 -869h2l110 826q2 16 12.5 27.5t26.5 11.5h199q14 0 23.5 -11.5t6.5 -27.5l-208 -1491q-12 -92 -47 -157.5t-82.5 -113t-103.5 -79t-114 -56.5q-27 -10 -53 -9t-35 30l-43 121q-6 29 1.5 48t35.5 33 q27 14 56.5 30t55 39.5t45 56t26.5 79.5l34 250l-479 715h-2l-111 -852q-2 -16 -13 -27.5t-27 -11.5h-197q-12 0 -21.5 10t-7.5 25z" />
<glyph unicode="&#x14b;" horiz-adv-x="1056" d="M53 45l121 856q2 20 15.5 32.5t29.5 12.5h78q29 0 33 -28l20 -89q16 14 42 38t61.5 46.5t83 38t106.5 15.5q98 0 159.5 -37t93.5 -98.5t38 -143.5t-6 -174l-78 -553q-14 -104 -48 -181t-80 -130t-103.5 -90t-118.5 -62q-27 -10 -53.5 -9t-34.5 30l-43 121q-6 29 1 48 t36 33q27 14 56.5 30t55 39.5t45 56t25.5 79.5l88 602q14 92 -4.5 146.5t-98.5 54.5q-47 0 -81.5 -20.5t-57.5 -44.5q-27 -29 -47 -66l-82 -553q-4 -27 -15 -36t-34 -9h-168q-16 0 -27.5 13.5t-7.5 31.5z" />
<glyph unicode="&#x14c;" horiz-adv-x="1521" d="M109 614q0 174 58 327t160.5 266.5t243 180t303.5 66.5q125 0 230.5 -51t182.5 -139t120 -204t43 -247q0 -172 -59.5 -324.5t-162 -265t-242.5 -178t-302 -65.5q-125 0 -230.5 51t-182 138t-119.5 202.5t-43 242.5zM385 649q0 -84 22.5 -156.5t65.5 -128t103.5 -87 t136.5 -31.5q94 0 177 42t146.5 114.5t100.5 170t37 207.5q0 82 -23 157t-66 130t-104 88t-137 33q-92 0 -175 -43t-146.5 -117t-100.5 -172t-37 -207zM627 1692l10 69q6 39 41 39h473q35 0 29 -39l-11 -69q-2 -16 -13 -26.5t-28 -10.5h-471q-16 0 -24 10t-6 27z" />
<glyph unicode="&#x14d;" horiz-adv-x="1036" d="M57 408q0 115 41 216t111 178t164 121t200 44q82 0 151 -34t119 -92.5t78.5 -136t28.5 -163.5q0 -115 -42 -217.5t-112.5 -179t-163.5 -122t-198 -45.5q-84 0 -152.5 36t-118.5 95.5t-78 137.5t-28 162zM305 434q0 -88 40 -152.5t124 -64.5q47 0 89 23.5t73 64.5t49 95.5 t18 117.5q0 43 -10 81t-29.5 66.5t-49 46t-68.5 17.5q-51 0 -94.5 -23.5t-75 -63.5t-49 -93t-17.5 -115zM342 1204l8 70q2 16 13.5 27.5t27.5 11.5h473q14 0 23.5 -11.5t5.5 -27.5l-10 -70q-2 -16 -12.5 -26.5t-26.5 -10.5h-473q-16 0 -23.5 10.5t-5.5 26.5z" />
<glyph unicode="&#x14e;" horiz-adv-x="1521" d="M109 614q0 174 58 327t160.5 266.5t243 180t303.5 66.5q125 0 230.5 -51t182.5 -139t120 -204t43 -247q0 -172 -59.5 -324.5t-162 -265t-242.5 -178t-302 -65.5q-125 0 -230.5 51t-182 138t-119.5 202.5t-43 242.5zM385 649q0 -84 22.5 -156.5t65.5 -128t103.5 -87 t136.5 -31.5q94 0 177 42t146.5 114.5t100.5 170t37 207.5q0 82 -23 157t-66 130t-104 88t-137 33q-92 0 -175 -43t-146.5 -117t-100.5 -172t-37 -207zM657 1810q0 16 11.5 29.5t29.5 13.5h76q12 0 16.5 -9t6.5 -19q8 -47 32.5 -78t69.5 -31q43 0 79 33t52 76q12 29 35 28 h84q16 0 24.5 -13t4.5 -30q-29 -104 -106.5 -172.5t-188.5 -68.5q-47 0 -88 18.5t-72 51t-48.5 76.5t-17.5 95z" />
<glyph unicode="&#x14f;" horiz-adv-x="1036" d="M57 408q0 115 41 216t111 178t164 121t200 44q82 0 151 -34t119 -92.5t78.5 -136t28.5 -163.5q0 -115 -42 -217.5t-112.5 -179t-163.5 -122t-198 -45.5q-84 0 -152.5 36t-118.5 95.5t-78 137.5t-28 162zM305 434q0 -88 40 -152.5t124 -64.5q47 0 89 23.5t73 64.5t49 95.5 t18 117.5q0 43 -10 81t-29.5 66.5t-49 46t-68.5 17.5q-51 0 -94.5 -23.5t-75 -63.5t-49 -93t-17.5 -115zM381 1323q0 18 12.5 31.5t28.5 13.5h74q10 0 17 -9t9 -20q6 -47 31 -77.5t72 -30.5q43 0 77.5 32.5t51.5 75.5q10 29 37 29h83q16 0 24.5 -13.5t4.5 -31.5 q-31 -104 -108.5 -173t-186.5 -69q-98 0 -162.5 69t-64.5 173z" />
<glyph unicode="&#x150;" horiz-adv-x="1521" d="M109 614q0 174 58 327t160.5 266.5t243 180t303.5 66.5q125 0 230.5 -51t182.5 -139t120 -204t43 -247q0 -172 -59.5 -324.5t-162 -265t-242.5 -178t-302 -65.5q-125 0 -230.5 51t-182 138t-119.5 202.5t-43 242.5zM385 649q0 -84 22.5 -156.5t65.5 -128t103.5 -87 t136.5 -31.5q94 0 177 42t146.5 114.5t100.5 170t37 207.5q0 82 -23 157t-66 130t-104 88t-137 33q-92 0 -175 -43t-146.5 -117t-100.5 -172t-37 -207zM666 1612l100 289q14 39 47 38h154q27 0 33 -15t-9 -36l-182 -284q-8 -12 -18.5 -21.5t-26.5 -9.5h-70q-14 0 -24.5 11 t-3.5 28zM971 1612l100 289q14 39 47 38h154q27 0 33 -15t-9 -36l-182 -284q-8 -12 -18.5 -21.5t-26.5 -9.5h-70q-14 0 -24 11t-4 28z" />
<glyph unicode="&#x151;" horiz-adv-x="1036" d="M57 408q0 115 41 216t111 178t164 121t200 44q82 0 151 -34t119 -92.5t78.5 -136t28.5 -163.5q0 -115 -42 -217.5t-112.5 -179t-163.5 -122t-198 -45.5q-84 0 -152.5 36t-118.5 95.5t-78 137.5t-28 162zM305 434q0 -88 40 -152.5t124 -64.5q47 0 89 23.5t73 64.5t49 95.5 t18 117.5q0 43 -10 81t-29.5 66.5t-49 46t-68.5 17.5q-51 0 -94.5 -23.5t-75 -63.5t-49 -93t-17.5 -115zM385 1106l100 289q14 39 47 39h154q27 0 33 -15.5t-8 -36.5l-183 -284q-8 -12 -18 -21.5t-27 -9.5h-69q-14 0 -24.5 11.5t-4.5 27.5zM690 1106l101 289q14 39 47 39 h153q27 0 33 -15.5t-8 -36.5l-182 -284q-8 -12 -18.5 -21.5t-27.5 -9.5h-69q-14 0 -24.5 11.5t-4.5 27.5z" />
<glyph unicode="&#x152;" horiz-adv-x="1832" d="M106 614q0 174 60.5 327t165 266.5t246 180t303.5 66.5q35 0 68.5 -3t58.5 -7q29 -6 55 -10h758q14 0 22 -11.5t6 -27.5l-24 -168q-2 -16 -12.5 -27.5t-26.5 -11.5h-526l-48 -336h437q14 0 22 -11.5t6 -27.5l-24 -170q-6 -39 -39 -39h-436l-52 -358h527q16 0 23 -11.5 t5 -27.5l-22 -168q-2 -16 -13.5 -27.5t-27.5 -11.5h-758q-29 -6 -61 -10q-29 -4 -61.5 -7t-63.5 -3q-117 0 -219.5 49t-180 135t-123 201.5t-45.5 248.5zM379 649q0 -84 24.5 -157.5t68.5 -129t105.5 -88t133.5 -32.5q39 0 76.5 5t76.5 21l125 895q-70 29 -145 29 q-90 0 -173 -44t-148.5 -119t-104.5 -173t-39 -207z" />
<glyph unicode="&#x153;" horiz-adv-x="1546" d="M57 414q0 109 39 209t107.5 177t163 122t204.5 45q82 0 154 -36t119 -93q61 59 151 94t189 35q72 0 130 -20.5t99 -56.5t63.5 -84t22.5 -104q0 -92 -57.5 -153.5t-145.5 -98t-193.5 -52t-201.5 -15.5q-2 -35 5 -66.5t25.5 -56t49.5 -39t76 -14.5q41 0 92 22.5t80 42.5 q16 10 30.5 13.5t24.5 -13.5l78 -104q10 -14 10 -30.5t-16 -31.5q-61 -57 -147.5 -93t-178.5 -36t-160.5 33t-117.5 92q-59 -51 -139.5 -88t-178.5 -37q-84 0 -153.5 36t-118.5 95.5t-77 139.5t-28 166zM303 434q0 -88 40 -152.5t124 -64.5q47 0 89 23.5t72.5 64.5t49 95.5 t18.5 117.5q0 43 -10 81t-29.5 66.5t-49 46t-68.5 17.5q-51 0 -94.5 -23.5t-75 -63.5t-49 -93t-17.5 -115zM926 557q66 0 124 8t101 23.5t68.5 37t25.5 50.5q0 27 -22.5 50.5t-75.5 23.5q-37 0 -72 -17.5t-65.5 -45.5t-53 -62.5t-30.5 -67.5z" />
<glyph unicode="&#x154;" horiz-adv-x="1265" d="M94 39l191 1356q2 16 13 27.5t26 11.5h540q76 0 139.5 -30t109.5 -82t71.5 -122t25.5 -149q0 -188 -89 -307t-236 -166l168 -525q6 -20 -3.5 -36.5t-31.5 -16.5h-195q-16 0 -28.5 7t-16.5 26l-149 528h-195l-74 -522q-2 -16 -13 -27.5t-25 -11.5h-199q-16 0 -24.5 11.5 t-4.5 27.5zM467 780h256q49 0 88 19.5t67.5 51.5t44 75t15.5 92q0 86 -38 128t-95 42h-281zM530 1665q-10 27 17 39l336 199q14 10 27.5 8t21.5 -19l49 -106q10 -18 3 -33.5t-21 -21.5l-353 -158q-23 -10 -32 -6t-15 18z" />
<glyph unicode="&#x155;" horiz-adv-x="759" d="M53 45l121 856q2 20 15.5 32.5t29.5 12.5h78q16 0 24.5 -9t12.5 -22l18 -92q14 23 40 47.5t58.5 46t72.5 36t85 14.5q53 0 93 -13.5t59 -25.5q10 -10 15 -23.5t-5 -34.5l-74 -143q-16 -35 -49 -18q-16 8 -41.5 14t-58.5 6q-66 0 -100.5 -36t-55.5 -77l-82 -571 q-4 -27 -17 -36t-38 -9h-166q-16 0 -27.5 13.5t-7.5 31.5zM266 1174q-10 27 17 38l335 199q14 10 27.5 8t22.5 -18l49 -107q10 -18 3 -33.5t-22 -21.5l-352 -158q-23 -10 -32 -6t-15 19z" />
<glyph unicode="&#x156;" horiz-adv-x="1265" d="M94 39l191 1356q2 16 13 27.5t26 11.5h540q76 0 139.5 -30t109.5 -82t71.5 -122t25.5 -149q0 -188 -89 -307t-236 -166l168 -525q6 -20 -3.5 -36.5t-31.5 -16.5h-195q-16 0 -28.5 7t-16.5 26l-149 528h-195l-74 -522q-2 -16 -13 -27.5t-25 -11.5h-199q-16 0 -24.5 11.5 t-4.5 27.5zM332 -295q0 72 53 118t127 46q70 0 114 -38t44 -122q0 -92 -44 -172t-108 -151q-23 -23 -41 -4l-45 40q-18 18 2 43q31 35 51.5 78t24.5 84q-10 -6 -29.5 -13t-42.5 -7q-49 0 -77.5 28.5t-28.5 69.5zM467 780h256q49 0 88 19.5t67.5 51.5t44 75t15.5 92 q0 86 -38 128t-95 42h-281z" />
<glyph unicode="&#x157;" horiz-adv-x="759" d="M-35 -295q0 72 53.5 118t126.5 46q70 0 114 -38t44 -122q0 -92 -44 -172t-107 -151q-23 -23 -41 -4l-45 40q-18 18 2 43q31 35 51 78t24 84q-10 -6 -29.5 -13t-41.5 -7q-49 0 -78 28.5t-29 69.5zM53 45l121 856q2 20 15.5 32.5t29.5 12.5h78q16 0 24.5 -9t12.5 -22 l18 -92q14 23 40 47.5t58.5 46t72.5 36t85 14.5q53 0 93 -13.5t59 -25.5q10 -10 15 -23.5t-5 -34.5l-74 -143q-16 -35 -49 -18q-16 8 -41.5 14t-58.5 6q-66 0 -100.5 -36t-55.5 -77l-82 -571q-4 -27 -17 -36t-38 -9h-166q-16 0 -27.5 13.5t-7.5 31.5z" />
<glyph unicode="&#x158;" horiz-adv-x="1265" d="M94 39l191 1356q2 16 13 27.5t26 11.5h540q76 0 139.5 -30t109.5 -82t71.5 -122t25.5 -149q0 -188 -89 -307t-236 -166l168 -525q6 -20 -3.5 -36.5t-31.5 -16.5h-195q-16 0 -28.5 7t-16.5 26l-149 528h-195l-74 -522q-2 -16 -13 -27.5t-25 -11.5h-199q-16 0 -24.5 11.5 t-4.5 27.5zM467 780h256q49 0 88 19.5t67.5 51.5t44 75t15.5 92q0 86 -38 128t-95 42h-281zM482.5 1789q-3.5 11 4.5 21l60 76q18 25 41 6l160 -127l204 127q16 10 24.5 7t16.5 -13l45 -67q10 -16 5 -27.5t-15 -19.5l-274 -207q-23 -16 -43 0l-217 207q-8 6 -11.5 17z" />
<glyph unicode="&#x159;" horiz-adv-x="759" d="M53 45l121 856q2 20 15.5 32.5t29.5 12.5h78q16 0 24.5 -9t12.5 -22l18 -92q14 23 40 47.5t58.5 46t72.5 36t85 14.5q53 0 93 -13.5t59 -25.5q10 -10 15 -23.5t-5 -34.5l-74 -143q-16 -35 -49 -18q-16 8 -41.5 14t-58.5 6q-66 0 -100.5 -36t-55.5 -77l-82 -571 q-4 -27 -17 -36t-38 -9h-166q-16 0 -27.5 13.5t-7.5 31.5zM204 1299.5q-3 11.5 5 21.5l59 76q18 25 41 6l160 -127l205 127q16 10 24.5 7t16.5 -13l45 -68q10 -16 5 -27.5t-15 -19.5l-275 -207q-23 -16 -43 0l-217 207q-8 6 -11 17.5z" />
<glyph unicode="&#x15a;" horiz-adv-x="1046" d="M44 163.5q-3 14.5 13 37.5l80 116q14 23 32.5 21t31.5 -12q39 -33 99 -70t155 -37q35 0 67.5 12.5t58 36t41 55t15.5 70.5q0 68 -45 118t-131 107q-51 33 -103.5 73t-95.5 89t-69.5 109.5t-26.5 138.5q0 76 26.5 152.5t84 137t144.5 98.5t208 38q72 0 132 -16.5 t108.5 -38t80 -44t43.5 -34.5q37 -37 6 -82l-79 -113q-27 -39 -72 -4q-47 39 -100.5 64.5t-131.5 25.5q-39 0 -70.5 -13t-55 -35.5t-36 -51.5t-12.5 -59q0 -61 43 -102.5t136 -102.5q51 -35 106 -74t101 -90t77 -115.5t31 -148.5q0 -90 -34 -170t-97.5 -140.5t-154.5 -95 t-204 -34.5q-72 0 -133 16t-110 40.5t-85 52t-61 50.5q-10 10 -13 24.5zM463 1665q-10 27 16 39l336 199q14 10 27.5 8t21.5 -19l49 -106q10 -18 3 -33.5t-21 -21.5l-352 -158q-23 -10 -32 -6t-15 18z" />
<glyph unicode="&#x15b;" horiz-adv-x="788" d="M15.5 98.5q0.5 14.5 9.5 30.5l57 111q8 14 25.5 18t31.5 -6q35 -20 79 -36.5t97 -16.5q45 0 73 17t28 54q0 35 -33 66t-94 67q-88 53 -141.5 112.5t-53.5 160.5q0 57 22.5 109.5t65.5 92.5t108.5 64.5t151.5 24.5q45 0 86 -7.5t76 -18.5t61.5 -24.5t41.5 -25.5 q14 -10 18 -30.5t-6 -39.5l-55 -106q-18 -29 -56 -13q-35 16 -81 32t-93 16q-55 0 -77.5 -21.5t-22.5 -48.5q0 -29 24.5 -52.5t87.5 -58.5q94 -49 159 -117.5t65 -170.5q0 -61 -23.5 -116.5t-70 -96.5t-112 -66t-151.5 -25q-49 0 -93 10.5t-81 26t-65.5 31.5t-44.5 29 q-14 10 -13.5 24.5zM303 1174q-10 27 16 38l336 199q14 10 27.5 8t22.5 -18l49 -107q10 -18 3 -33.5t-22 -21.5l-352 -158q-23 -10 -32 -6t-15 19z" />
<glyph unicode="&#x15c;" horiz-adv-x="1046" d="M44 163.5q-3 14.5 13 37.5l80 116q14 23 32.5 21t31.5 -12q39 -33 99 -70t155 -37q35 0 67.5 12.5t58 36t41 55t15.5 70.5q0 68 -45 118t-131 107q-51 33 -103.5 73t-95.5 89t-69.5 109.5t-26.5 138.5q0 76 26.5 152.5t84 137t144.5 98.5t208 38q72 0 132 -16.5 t108.5 -38t80 -44t43.5 -34.5q37 -37 6 -82l-79 -113q-27 -39 -72 -4q-47 39 -100.5 64.5t-131.5 25.5q-39 0 -70.5 -13t-55 -35.5t-36 -51.5t-12.5 -59q0 -61 43 -102.5t136 -102.5q51 -35 106 -74t101 -90t77 -115.5t31 -148.5q0 -90 -34 -170t-97.5 -140.5t-154.5 -95 t-204 -34.5q-72 0 -133 16t-110 40.5t-85 52t-61 50.5q-10 10 -13 24.5zM388 1667.5q5 11.5 15 20.5l275 206q23 16 43 0l217 -206q8 -6 11 -17.5t-5 -21.5l-59 -76q-18 -25 -41 -6l-160 127l-205 -127q-16 -10 -24.5 -7t-16.5 13l-45 67q-10 16 -5 27.5z" />
<glyph unicode="&#x15d;" horiz-adv-x="788" d="M15.5 98.5q0.5 14.5 9.5 30.5l57 111q8 14 25.5 18t31.5 -6q35 -20 79 -36.5t97 -16.5q45 0 73 17t28 54q0 35 -33 66t-94 67q-88 53 -141.5 112.5t-53.5 160.5q0 57 22.5 109.5t65.5 92.5t108.5 64.5t151.5 24.5q45 0 86 -7.5t76 -18.5t61.5 -24.5t41.5 -25.5 q14 -10 18 -30.5t-6 -39.5l-55 -106q-18 -29 -56 -13q-35 16 -81 32t-93 16q-55 0 -77.5 -21.5t-22.5 -48.5q0 -29 24.5 -52.5t87.5 -58.5q94 -49 159 -117.5t65 -170.5q0 -61 -23.5 -116.5t-70 -96.5t-112 -66t-151.5 -25q-49 0 -93 10.5t-81 26t-65.5 31.5t-44.5 29 q-14 10 -13.5 24.5zM204 1178.5q5 11.5 15 19.5l275 207q23 16 43 0l217 -207q8 -6 11 -17.5t-5 -21.5l-60 -76q-18 -25 -41 -6l-159 127l-205 -127q-16 -10 -24.5 -7t-16.5 13l-45 68q-10 16 -5 27.5z" />
<glyph unicode="&#x15e;" horiz-adv-x="1046" d="M44 163.5q-3 14.5 13 37.5l80 116q14 23 32.5 21t31.5 -12q10 -10 33.5 -27.5t57.5 -35t75 -31t88 -13.5q35 0 67.5 12.5t58 36t41 55t15.5 70.5q0 68 -45 118t-131 107q-51 33 -103.5 73t-95.5 89t-69.5 109.5t-26.5 138.5q0 76 26.5 152.5t84 137t144.5 98.5t208 38 q72 0 132 -16.5t108.5 -38t80 -44t43.5 -34.5q37 -37 6 -82l-79 -113q-27 -39 -72 -4q-12 10 -34.5 25.5t-53.5 30t-68 24.5t-76 10t-70.5 -13t-55 -35.5t-36 -51.5t-12.5 -59q0 -61 43 -102.5t136 -102.5q51 -35 106 -74t101 -90t77 -115.5t31 -148.5t-29.5 -160t-86 -135 t-136.5 -97t-180 -46l-84 -109q20 6 43 6q63 0 107 -39t44 -110q0 -53 -20.5 -96.5t-55 -74t-81.5 -47t-103 -16.5q-59 0 -108 14.5t-72 36.5q-18 20 6 58l25 41q27 47 59 18q10 -10 31.5 -21.5t50.5 -11.5q16 0 35.5 5.5t36 15.5t27 28.5t10.5 43.5q0 33 -22.5 49t-61.5 16 q-29 0 -47.5 -9t-32.5 -13q-16 -6 -28.5 8t-2.5 28l109 183q-63 8 -115.5 28.5t-92.5 44t-67 46t-37 34.5q-10 10 -13 24.5z" />
<glyph unicode="&#x15f;" horiz-adv-x="788" d="M15.5 98.5q0.5 14.5 9.5 30.5l57 111q8 14 25.5 18t31.5 -6q31 -18 73 -35.5t95 -17.5q51 0 80 17t29 54q0 35 -33 66t-94 67q-88 53 -141.5 112.5t-53.5 160.5q0 57 22.5 109.5t65.5 92.5t108.5 64.5t151.5 24.5q45 0 86 -7.5t76 -18.5t61.5 -24.5t41.5 -25.5 q14 -10 18 -30.5t-6 -39.5l-55 -106q-18 -29 -56 -13q-35 16 -81 32t-93 16q-55 0 -77.5 -21.5t-22.5 -48.5q0 -29 24.5 -52.5t87.5 -58.5q94 -49 159 -117.5t65 -170.5q0 -117 -81 -202t-231 -99l-82 -107q20 6 43 6q63 0 107.5 -39t44.5 -110q0 -53 -20.5 -96.5t-55.5 -74 t-82 -47t-102 -16.5q-59 0 -108.5 14.5t-71.5 36.5q-18 20 6 58l24 41q27 47 60 18q10 -10 31.5 -21.5t50.5 -11.5q16 0 35.5 5.5t36 15.5t26.5 28.5t10 43.5q0 33 -22.5 49t-61.5 16q-29 0 -47 -9t-33 -13q-16 -6 -28.5 8t-1.5 28l110 183q-72 14 -123 40.5t-75 47.5 q-14 10 -13.5 24.5z" />
<glyph unicode="&#x160;" horiz-adv-x="1046" d="M44 163.5q-3 14.5 13 37.5l80 116q14 23 32.5 21t31.5 -12q39 -33 99 -70t155 -37q35 0 67.5 12.5t58 36t41 55t15.5 70.5q0 68 -45 118t-131 107q-51 33 -103.5 73t-95.5 89t-69.5 109.5t-26.5 138.5q0 76 26.5 152.5t84 137t144.5 98.5t208 38q72 0 132 -16.5 t108.5 -38t80 -44t43.5 -34.5q37 -37 6 -82l-79 -113q-27 -39 -72 -4q-47 39 -100.5 64.5t-131.5 25.5q-39 0 -70.5 -13t-55 -35.5t-36 -51.5t-12.5 -59q0 -61 43 -102.5t136 -102.5q51 -35 106 -74t101 -90t77 -115.5t31 -148.5q0 -90 -34 -170t-97.5 -140.5t-154.5 -95 t-204 -34.5q-72 0 -133 16t-110 40.5t-85 52t-61 50.5q-10 10 -13 24.5zM417 1789q-3 11 5 21l59 76q18 25 41 6l160 -127l205 127q16 10 24.5 7t16.5 -13l45 -67q10 -16 5 -27.5t-15 -19.5l-275 -207q-23 -16 -43 0l-217 207q-8 6 -11 17z" />
<glyph unicode="&#x161;" horiz-adv-x="788" d="M15.5 98.5q0.5 14.5 9.5 30.5l57 111q8 14 25.5 18t31.5 -6q35 -20 79 -36.5t97 -16.5q45 0 73 17t28 54q0 35 -33 66t-94 67q-88 53 -141.5 112.5t-53.5 160.5q0 57 22.5 109.5t65.5 92.5t108.5 64.5t151.5 24.5q45 0 86 -7.5t76 -18.5t61.5 -24.5t41.5 -25.5 q14 -10 18 -30.5t-6 -39.5l-55 -106q-18 -29 -56 -13q-35 16 -81 32t-93 16q-55 0 -77.5 -21.5t-22.5 -48.5q0 -29 24.5 -52.5t87.5 -58.5q94 -49 159 -117.5t65 -170.5q0 -61 -23.5 -116.5t-70 -96.5t-112 -66t-151.5 -25q-49 0 -93 10.5t-81 26t-65.5 31.5t-44.5 29 q-14 10 -13.5 24.5zM222 1299.5q-3 11.5 5 21.5l60 76q18 25 41 6l159 -127l205 127q16 10 24.5 7t16.5 -13l45 -68q10 -16 5 -27.5t-15 -19.5l-274 -207q-23 -16 -43 0l-218 207q-8 6 -11 17.5z" />
<glyph unicode="&#x162;" horiz-adv-x="1007" d="M141 -453q-18 20 6 58l25 41q27 47 59 18q10 -10 32 -21.5t50 -11.5q16 0 36 5.5t36 15.5t26.5 28.5t10.5 43.5q0 33 -22.5 49t-61.5 16q-29 0 -47.5 -9t-32.5 -13q-16 -6 -28.5 8t-2.5 28l119 197h-24q-14 0 -23.5 11.5t-7.5 27.5l162 1149h-271q-16 0 -24 11t-6 28 l24 168q2 16 13.5 27.5t25.5 11.5h813q16 0 24.5 -11.5t6.5 -27.5l-25 -168q-2 -16 -13 -27.5t-28 -11.5h-270l-162 -1149q-2 -16 -14 -27.5t-27 -11.5h-37l-96 -127q20 6 43 6q63 0 107.5 -39t44.5 -110q0 -53 -20.5 -96.5t-55.5 -74t-82 -47t-102 -16.5q-59 0 -108.5 14.5 t-72.5 36.5z" />
<glyph unicode="&#x163;" horiz-adv-x="753" d="M82 764l16 137q4 20 16.5 32.5t28.5 12.5h105l35 262q4 18 17 31.5t30 13.5h180q16 0 25.5 -13t5.5 -32l-35 -262h180q39 0 33 -45l-17 -137q-2 -16 -15 -30.5t-32 -14.5h-182l-57 -416q-8 -47 9 -59.5t36 -12.5q31 0 62.5 11.5t47.5 19.5q18 8 30.5 0t16.5 -24l23 -144 q6 -30 -35 -55q-12 -6 -66.5 -27.5t-127.5 -29.5l-82 -109q20 6 43 6q63 0 107 -39t44 -110q0 -53 -20.5 -96.5t-55 -74t-82 -47t-102.5 -16.5q-59 0 -108.5 14.5t-71.5 36.5q-18 20 6 58l25 41q27 47 59 18q10 -10 31.5 -21.5t50.5 -11.5q16 0 35.5 5.5t36 15.5t27 28.5 t10.5 43.5q0 33 -23 49t-61 16q-29 0 -47.5 -9t-32.5 -13q-16 -6 -28.5 8t-2.5 28l113 187q-76 23 -112 98.5t-17 194.5l63 436h-100q-16 0 -26.5 14.5t-8.5 30.5z" />
<glyph unicode="&#x164;" horiz-adv-x="1007" d="M152 1227l24 168q2 16 13.5 27.5t25.5 11.5h813q16 0 24.5 -11.5t6.5 -27.5l-25 -168q-2 -16 -13 -27.5t-28 -11.5h-270l-162 -1149q-2 -16 -14 -27.5t-27 -11.5h-198q-14 0 -23.5 11.5t-7.5 27.5l162 1149h-271q-16 0 -24 11t-6 28zM392 1789q-3 11 5 21l60 76 q18 25 41 6l159 -127l205 127q16 10 24.5 7t16.5 -13l45 -67q10 -16 5 -27.5t-15 -19.5l-274 -207q-23 -16 -43 0l-218 207q-8 6 -11 17z" />
<glyph unicode="&#x165;" horiz-adv-x="749" d="M78 764l16 137q4 20 16.5 32.5t28.5 12.5h105l35 262q4 18 17 31.5t30 13.5h180q16 0 25.5 -13t5.5 -32l-35 -262h180q39 0 33 -45l-17 -137q-2 -16 -15 -30.5t-32 -14.5h-182l-57 -416q-6 -47 10 -59.5t35 -12.5q31 0 62.5 11.5t47.5 19.5q18 8 30.5 0t16.5 -24l23 -144 q6 -31 -35 -55q-6 -4 -28.5 -14.5t-56.5 -20.5t-77 -18.5t-88 -8.5q-111 0 -168 80t-34 226l63 436h-100q-16 0 -26.5 14.5t-8.5 30.5zM684 1290q0 72 53.5 118t126.5 46q70 0 114 -38t44 -122q0 -92 -44 -172t-108 -151q-10 -10 -20 -12.5t-21 8.5l-45 41q-18 18 2 43 q31 35 51.5 77.5t24.5 83.5q-10 -6 -29.5 -13t-41.5 -7q-49 0 -78 28.5t-29 69.5z" />
<glyph unicode="&#x166;" horiz-adv-x="1007" d="M154 1227l24 168q2 16 13.5 27.5t25.5 11.5h813q16 0 24.5 -11.5t6.5 -27.5l-25 -168q-2 -16 -13 -27.5t-28 -11.5h-270l-70 -488h166q16 0 24.5 -11t6.5 -27l-4 -29q-2 -16 -13.5 -26.5t-27.5 -10.5h-166l-78 -557q-2 -16 -14 -27.5t-27 -11.5h-198q-14 0 -23.5 11.5 t-7.5 27.5l78 557h-160q-14 0 -22.5 11t-4.5 28l4 27q4 16 13.5 27t23.5 11h160l70 488h-271q-16 0 -24 11t-6 28z" />
<glyph unicode="&#x167;" horiz-adv-x="749" d="M78 764l16 137q4 20 16.5 32.5t28.5 12.5h105l35 262q4 18 17 31.5t30 13.5h180q16 0 25.5 -12t5.5 -31l-35 -264h180q39 0 33 -45l-17 -137q-2 -16 -15 -30.5t-32 -14.5h-182l-29 -197h152q16 0 24.5 -12t6.5 -29l-5 -30q-2 -16 -13 -27.5t-27 -11.5h-152l-14 -109 q-6 -47 10 -59.5t35 -12.5q31 0 62.5 11.5t47.5 19.5q18 8 30.5 0t16.5 -24l23 -144q6 -31 -35 -55q-6 -4 -28.5 -14.5t-56.5 -20.5t-77 -18.5t-88 -8.5q-111 0 -168 80t-34 226l18 129h-53q-14 0 -22.5 12t-6.5 29l4 32q6 37 39 37h55l29 197h-100q-16 0 -26.5 14.5 t-8.5 30.5z" />
<glyph unicode="&#x168;" horiz-adv-x="1355" d="M141 436q0 39 6 82l125 877q2 16 14.5 27.5t26.5 11.5h203q16 0 24.5 -11.5t6.5 -27.5l-123 -863q-4 -16 -4 -32.5v-32.5q0 -102 52 -159.5t157 -57.5q127 0 197.5 75.5t88.5 204.5l123 865q2 16 13.5 27.5t27.5 11.5h203q14 0 23.5 -11.5t7.5 -27.5l-125 -877 q-16 -117 -63.5 -215t-122 -171t-175 -112.5t-219.5 -39.5q-102 0 -188 33.5t-147.5 94t-96.5 144.5t-35 184zM570.5 1634.5q0.5 15.5 9.5 28.5q6 10 20 34.5t35.5 48t53.5 43t71 19.5q33 0 55.5 -16.5t39.5 -33.5t31.5 -28.5t26.5 -11.5t21.5 12.5t17.5 28.5 q10 20 31.5 29.5t42.5 -6.5l37 -29q20 -16 19 -34.5t-11 -39.5q-4 -12 -18.5 -35.5t-36 -45t-51 -38t-66.5 -16.5q-35 0 -59.5 15.5t-43 34t-31.5 30.5t-24 12q-14 0 -25.5 -19.5t-21.5 -35.5q-8 -16 -28.5 -20.5t-34.5 8.5l-45 34q-16 16 -15.5 31.5z" />
<glyph unicode="&#x169;" horiz-adv-x="1021" d="M85 232.5q-3 76.5 9 166.5l74 502q6 45 45 45h176q16 0 27.5 -12t7.5 -33l-74 -510q-14 -94 8.5 -134t81.5 -40q43 0 74 19.5t51 44.5q23 29 37 65l78 555q4 29 18.5 37t32.5 8h172q16 0 27.5 -12t7.5 -33l-119 -856q-2 -18 -16.5 -31.5t-30.5 -13.5h-78q-16 0 -24 10 t-13 25l-16 80l-40.5 -45t-55.5 -45.5t-77.5 -34t-107.5 -13.5q-96 0 -154.5 32t-88 89.5t-32.5 134zM330.5 1114.5q0.5 15.5 9.5 28.5q6 10 20 34.5t35.5 48t53.5 43t71 19.5q33 0 55.5 -16.5t39.5 -33.5t31.5 -28.5t26.5 -11.5t21.5 12.5t17.5 28.5q10 20 31.5 29.5 t42.5 -6.5l37 -29q20 -16 19 -34.5t-11 -39.5q-4 -12 -18.5 -35.5t-36 -45t-51 -38t-66.5 -16.5q-35 0 -59.5 15.5t-43 34t-31.5 30.5t-24 12q-14 0 -25.5 -19.5t-21.5 -35.5q-8 -16 -28.5 -20.5t-34.5 8.5l-45 34q-16 16 -15.5 31.5z" />
<glyph unicode="&#x16a;" horiz-adv-x="1355" d="M141 436q0 39 6 82l125 877q2 16 14.5 27.5t26.5 11.5h203q16 0 24.5 -11.5t6.5 -27.5l-123 -863q-4 -16 -4 -32.5v-32.5q0 -102 52 -159.5t157 -57.5q127 0 197.5 75.5t88.5 204.5l123 865q2 16 13.5 27.5t27.5 11.5h203q14 0 23.5 -11.5t7.5 -27.5l-125 -877 q-16 -117 -63.5 -215t-122 -171t-175 -112.5t-219.5 -39.5q-102 0 -188 33.5t-147.5 94t-96.5 144.5t-35 184zM555 1692l10 69q6 39 41 39h473q35 0 29 -39l-10 -69q-2 -16 -13.5 -26.5t-27.5 -10.5h-471q-16 0 -24.5 10t-6.5 27z" />
<glyph unicode="&#x16b;" horiz-adv-x="1021" d="M85 232.5q-3 76.5 9 166.5l74 502q6 45 45 45h176q16 0 27.5 -12t7.5 -33l-74 -510q-14 -94 8.5 -134t81.5 -40q43 0 74 19.5t51 44.5q23 29 37 65l78 555q4 29 18.5 37t32.5 8h172q16 0 27.5 -12t7.5 -33l-119 -856q-2 -18 -16.5 -31.5t-30.5 -13.5h-78q-16 0 -24 10 t-13 25l-16 80l-40.5 -45t-55.5 -45.5t-77.5 -34t-107.5 -13.5q-96 0 -154.5 32t-88 89.5t-32.5 134zM319 1204l9 70q2 16 13 27.5t28 11.5h473q14 0 23 -11.5t5 -27.5l-10 -70q-2 -16 -12 -26.5t-27 -10.5h-473q-16 0 -23.5 10.5t-5.5 26.5z" />
<glyph unicode="&#x16c;" horiz-adv-x="1355" d="M141 436q0 39 6 82l125 877q2 16 14.5 27.5t26.5 11.5h203q16 0 24.5 -11.5t6.5 -27.5l-123 -863q-4 -16 -4 -32.5v-32.5q0 -102 52 -159.5t157 -57.5q127 0 197.5 75.5t88.5 204.5l123 865q2 16 13.5 27.5t27.5 11.5h203q14 0 23.5 -11.5t7.5 -27.5l-125 -877 q-16 -117 -63.5 -215t-122 -171t-175 -112.5t-219.5 -39.5q-102 0 -188 33.5t-147.5 94t-96.5 144.5t-35 184zM567 1810q0 16 11.5 29.5t29.5 13.5h76q12 0 16.5 -9t6.5 -19q8 -47 32.5 -78t69.5 -31q43 0 79 33t52 76q12 29 35 28h84q16 0 24.5 -13t3.5 -30 q-29 -104 -106 -172.5t-188 -68.5q-47 0 -88 18.5t-72 51t-48.5 76.5t-17.5 95z" />
<glyph unicode="&#x16d;" horiz-adv-x="1021" d="M85 232.5q-3 76.5 9 166.5l74 502q6 45 45 45h176q16 0 27.5 -12t7.5 -33l-74 -510q-14 -94 8.5 -134t81.5 -40q43 0 74 19.5t51 44.5q23 29 37 65l78 555q4 29 18.5 37t32.5 8h172q16 0 27.5 -12t7.5 -33l-119 -856q-2 -18 -16.5 -31.5t-30.5 -13.5h-78q-16 0 -24 10 t-13 25l-16 80l-40.5 -45t-55.5 -45.5t-77.5 -34t-107.5 -13.5q-96 0 -154.5 32t-88 89.5t-32.5 134zM352 1323q0 18 12.5 31.5t28.5 13.5h74q10 0 17.5 -9t9.5 -20q6 -47 30.5 -77.5t71.5 -30.5q43 0 78 32.5t51 75.5q10 29 37 29h84q16 0 24.5 -13.5t3.5 -31.5 q-31 -104 -108 -173t-186 -69q-98 0 -163 69t-65 173z" />
<glyph unicode="&#x16e;" horiz-adv-x="1355" d="M141 436q0 39 6 82l125 877q2 16 14.5 27.5t26.5 11.5h203q16 0 24.5 -11.5t6.5 -27.5l-123 -863q-4 -16 -4 -32.5v-32.5q0 -102 52 -159.5t157 -57.5q127 0 197.5 75.5t88.5 204.5l123 865q2 16 13.5 27.5t27.5 11.5h203q14 0 23.5 -11.5t7.5 -27.5l-125 -877 q-16 -117 -63.5 -215t-122 -171t-175 -112.5t-219.5 -39.5q-102 0 -188 33.5t-147.5 94t-96.5 144.5t-35 184zM627 1745q0 55 19.5 102t52 83t77.5 56.5t96 20.5q39 0 72 -15.5t57.5 -43t38 -64.5t13.5 -78q0 -55 -19.5 -102t-52.5 -83t-78 -56.5t-94 -20.5q-80 0 -131 58.5 t-51 142.5zM756 1763q0 -35 20 -62.5t49 -27.5q37 0 68 35t31 80q0 35 -19.5 60.5t-50.5 25.5q-37 0 -67.5 -33t-30.5 -78z" />
<glyph unicode="&#x16f;" horiz-adv-x="1021" d="M85 232.5q-3 76.5 9 166.5l74 502q6 45 45 45h176q16 0 27.5 -12t7.5 -33l-74 -510q-14 -94 8.5 -134t81.5 -40q43 0 74 19.5t51 44.5q23 29 37 65l78 555q4 29 18.5 37t32.5 8h172q16 0 27.5 -12t7.5 -33l-119 -856q-2 -18 -16.5 -31.5t-30.5 -13.5h-78q-16 0 -24 10 t-13 25l-16 80l-40.5 -45t-55.5 -45.5t-77.5 -34t-107.5 -13.5q-96 0 -154.5 32t-88 89.5t-32.5 134zM391 1245q0 55 19.5 102.5t52.5 83t78 56t96 20.5q39 0 71.5 -15t57.5 -43t38 -64.5t13 -77.5q0 -55 -19.5 -102.5t-52 -83.5t-78 -56.5t-94.5 -20.5q-80 0 -131 58.5 t-51 142.5zM520 1264q0 -35 20.5 -62.5t49.5 -27.5q37 0 67.5 34.5t30.5 79.5q0 35 -19.5 60.5t-50.5 25.5q-37 0 -67.5 -32.5t-30.5 -77.5z" />
<glyph unicode="&#x170;" horiz-adv-x="1355" d="M141 436q0 39 6 82l125 877q2 16 14.5 27.5t26.5 11.5h203q16 0 24.5 -11.5t6.5 -27.5l-123 -863q-4 -16 -4 -32.5v-32.5q0 -102 52 -159.5t157 -57.5q127 0 197.5 75.5t88.5 204.5l123 865q2 16 13.5 27.5t27.5 11.5h203q14 0 23.5 -11.5t7.5 -27.5l-125 -877 q-16 -117 -63.5 -215t-122 -171t-175 -112.5t-219.5 -39.5q-102 0 -188 33.5t-147.5 94t-96.5 144.5t-35 184zM590 1612l100 289q14 39 47 38h154q27 0 33 -15t-9 -36l-182 -284q-8 -12 -18 -21.5t-27 -9.5h-70q-14 0 -24 11t-4 28zM895 1612l100 289q14 39 47 38h154 q27 0 33 -15t-8 -36l-183 -284q-8 -12 -18 -21.5t-27 -9.5h-69q-14 0 -24.5 11t-4.5 28z" />
<glyph unicode="&#x171;" horiz-adv-x="1021" d="M85 232.5q-3 76.5 9 166.5l74 502q6 45 45 45h176q16 0 27.5 -12t7.5 -33l-74 -510q-14 -94 8.5 -134t81.5 -40q43 0 74 19.5t51 44.5q23 29 37 65l78 555q4 29 18.5 37t32.5 8h172q16 0 27.5 -12t7.5 -33l-119 -856q-2 -18 -16.5 -31.5t-30.5 -13.5h-78q-16 0 -24 10 t-13 25l-16 80l-40.5 -45t-55.5 -45.5t-77.5 -34t-107.5 -13.5q-96 0 -154.5 32t-88 89.5t-32.5 134zM362 1106l101 289q14 39 47 39h154q27 0 32.5 -15.5t-8.5 -36.5l-182 -284q-8 -12 -18.5 -21.5t-26.5 -9.5h-70q-14 0 -24.5 11.5t-4.5 27.5zM668 1106l100 289 q14 39 47 39h154q27 0 33 -15.5t-9 -36.5l-182 -284q-8 -12 -18.5 -21.5t-26.5 -9.5h-70q-14 0 -24 11.5t-4 27.5z" />
<glyph unicode="&#x172;" horiz-adv-x="1355" d="M150 543l120 852q2 16 14.5 27.5t26.5 11.5h203q16 0 24.5 -11.5t6.5 -27.5l-119 -838q-10 -66 0 -122t36.5 -97t68.5 -64.5t96 -23.5q55 0 103 23.5t87 64.5t64.5 96t36.5 121l118 840q2 16 13.5 27.5t27.5 11.5h203q14 0 23.5 -11.5t7.5 -27.5l-121 -852 q-14 -96 -51 -183.5t-94.5 -158t-132 -122.5t-162.5 -77q-35 -20 -75 -48t-76 -62.5t-59.5 -75.5t-23.5 -86q0 -68 70 -68q41 0 80 23.5t53 33.5q16 12 28.5 7t10.5 -21l-13 -106q-2 -18 -10 -34t-28 -30q-27 -16 -75 -28.5t-97 -12.5q-100 0 -152.5 50t-52.5 132 q0 98 57 172t143 136q-94 12 -170.5 59t-129 122t-75 172t-5.5 206z" />
<glyph unicode="&#x173;" horiz-adv-x="1019" d="M89 256q-3 82 9 172l70 473q6 45 45 45h176q16 0 27.5 -12t7.5 -33l-70 -481q-14 -94 6.5 -148.5t79.5 -54.5q43 0 74 19.5t51 44.5q23 29 37 65l78 555q4 29 18.5 37t32.5 8h172q16 0 27.5 -12t7.5 -33l-117 -842q-4 -23 -15 -36t-30 -23q-35 -20 -74.5 -48t-73.5 -62.5 t-57.5 -74.5t-23.5 -85q0 -68 69 -68q41 0 80 23.5t54 33.5q16 12 28.5 7t9.5 -21l-12 -106q-2 -18 -10 -34t-29 -30q-27 -16 -75 -28.5t-97 -12.5q-100 0 -152.5 50t-52.5 132q0 53 28 103.5t72 96.5t96 86t101 73l-16 80l-40.5 -45t-55.5 -45.5t-77.5 -34t-107.5 -13.5 q-96 0 -154.5 37t-86 98.5t-30.5 143.5z" />
<glyph unicode="&#x174;" horiz-adv-x="1669" d="M168 1384q-4 23 8 36.5t31 13.5h178q10 0 18.5 -9.5t10.5 -19.5l69 -776h9l413 803q10 23 35 22h33q25 0 28 -22l166 -803h9l290 776q4 10 15.5 19.5t21.5 9.5h195q20 0 28.5 -13.5t-2.5 -36.5l-540 -1376q-10 -29 -37 -28h-31q-25 0 -29 22l-208 887h-9l-454 -887 q-12 -23 -35 -22h-29q-27 0 -30 28zM691 1667.5q5 11.5 16 20.5l274 206q23 16 43 0l217 -206q8 -6 11 -17.5t-5 -21.5l-59 -76q-18 -25 -41 -6l-160 127l-205 -127q-16 -10 -24 -7t-17 13l-45 67q-10 16 -5 27.5z" />
<glyph unicode="&#x175;" horiz-adv-x="1345" d="M96 897q-6 49 41 49h162q10 0 20.5 -7t12.5 -21l63 -420h2l279 450q8 10 14 16.5t23 6.5h20q18 0 31 -23l147 -450h2l185 420q8 20 22.5 24t30.5 4h156q25 0 30.5 -15.5t-4.5 -37.5l-391 -889q-14 -27 -41 -27h-12q-20 0 -29 23l-190 553h-2l-351 -553q-12 -23 -38 -23 h-9q-29 0 -32 27zM470 1178.5q5 11.5 15 19.5l275 207q23 16 43 0l217 -207q8 -6 11 -17.5t-5 -21.5l-59 -76q-18 -25 -41 -6l-160 127l-205 -127q-16 -10 -24.5 -7t-16.5 13l-45 68q-10 16 -5 27.5z" />
<glyph unicode="&#x176;" horiz-adv-x="1136" d="M125 1384q-10 20 1 35t34 15h192q16 0 24.5 -6.5t14.5 -22.5l213 -467h4l342 477q4 6 12.5 12.5t20.5 6.5h225q23 0 28 -16.5t-9 -37.5l-516 -688l-90 -653q-2 -16 -14.5 -27.5t-26.5 -11.5h-199q-16 0 -23.5 11.5t-5.5 27.5l92 651zM411 1667.5q5 11.5 15 20.5l274 206 q23 16 43 0l218 -206q8 -6 11 -17.5t-5 -21.5l-60 -76q-18 -25 -41 -6l-159 127l-205 -127q-16 -10 -24.5 -7t-16.5 13l-45 67q-10 16 -5 27.5z" />
<glyph unicode="&#x177;" horiz-adv-x="966" d="M-2 -472q-6 15 8 42l264 498l-182 817q-4 23 3 42t34 19h182q10 0 21.5 -7t13.5 -19l92 -578h6l267 578q8 16 20 21t27 5h186q25 0 32 -19.5t-5 -41.5l-705 -1344q-4 -10 -14 -19t-27 -9h-194q-23 0 -29 15zM288 1178.5q5 11.5 15 19.5l275 207q23 16 43 0l217 -207 q8 -6 11 -17.5t-5 -21.5l-60 -76q-18 -25 -41 -6l-159 127l-205 -127q-16 -10 -24.5 -7t-16.5 13l-45 68q-10 16 -5 27.5z" />
<glyph unicode="&#x178;" horiz-adv-x="1136" d="M125 1384q-10 20 1 35t34 15h192q16 0 24.5 -6.5t14.5 -22.5l213 -467h4l342 477q4 6 12.5 12.5t20.5 6.5h225q23 0 28 -16.5t-9 -37.5l-516 -688l-90 -653q-2 -16 -14.5 -27.5t-26.5 -11.5h-199q-16 0 -23.5 11.5t-5.5 27.5l92 651zM350 1718q6 63 51 105.5t99 42.5 q59 0 93 -42t28 -106q-4 -31 -18.5 -58.5t-36 -48t-48 -31.5t-53.5 -11q-57 0 -90 43t-25 106zM805 1718q6 63 52 105.5t99 42.5q57 0 91 -42t28 -106q-8 -63 -54 -106t-99 -43q-59 0 -92 43t-25 106z" />
<glyph unicode="&#x179;" horiz-adv-x="1026" d="M-16 33q0 23 4 36t16 33l664 1078v6h-435q-14 0 -23 11t-7 28l24 170q2 16 14.5 27.5t26.5 11.5h776q31 0 31 -31q0 -10 -3 -24.5t-11 -26.5l-658 -1098v-6h439q16 0 23 -11.5t5 -27.5l-22 -170q-2 -16 -13.5 -27.5t-27.5 -11.5h-795q-29 0 -28 33zM457 1665 q-10 27 16 39l336 199q14 10 27.5 8t21.5 -19l49 -106q10 -18 3 -33.5t-21 -21.5l-352 -158q-23 -10 -32 -6t-16 18z" />
<glyph unicode="&#x17a;" horiz-adv-x="794" d="M-10 37q0 16 4 26.5t14 26.5l389 617v6h-256q-16 0 -24 14t-4 31l20 143q2 20 14.5 32.5t28.5 12.5h569q39 0 39 -37q0 -14 -8 -28l-411 -643v-7h243q18 0 26.5 -13t6.5 -32l-23 -141q-2 -18 -15 -31.5t-32 -13.5h-544q-20 0 -28.5 12.5t-8.5 24.5zM332 1174 q-10 27 16 38l336 199q14 10 27.5 8t21.5 -18l49 -107q10 -18 3 -33.5t-21 -21.5l-352 -158q-23 -10 -32 -6t-15 19z" />
<glyph unicode="&#x17b;" horiz-adv-x="1026" d="M-16 33q0 23 4 36t16 33l664 1078v6h-435q-14 0 -23 11t-7 28l24 170q2 16 14.5 27.5t26.5 11.5h776q31 0 31 -31q0 -10 -3 -24.5t-11 -26.5l-658 -1098v-6h439q16 0 23 -11.5t5 -27.5l-22 -170q-2 -16 -13.5 -27.5t-27.5 -11.5h-795q-29 0 -28 33zM541 1722q0 39 15 73 t40 58.5t58.5 39t70.5 14.5q61 0 100 -42t39 -102q0 -37 -15 -69.5t-41 -58t-58.5 -40t-69.5 -14.5q-61 0 -100 41t-39 100z" />
<glyph unicode="&#x17c;" horiz-adv-x="794" d="M-10 37q0 16 4 26.5t14 26.5l389 617v6h-256q-16 0 -24 14t-4 31l20 143q2 20 14.5 32.5t28.5 12.5h569q39 0 39 -37q0 -14 -8 -28l-411 -643v-7h243q18 0 26.5 -13t6.5 -32l-23 -141q-2 -18 -15 -31.5t-32 -13.5h-544q-20 0 -28.5 12.5t-8.5 24.5zM336 1249 q0 39 15.5 73t40 58.5t58 39t70.5 14.5q61 0 100 -42t39 -102q0 -37 -15 -69.5t-40.5 -58t-58.5 -40t-70 -14.5q-61 0 -100 41t-39 100z" />
<glyph unicode="&#x17d;" horiz-adv-x="1026" d="M-16 33q0 23 4 36t16 33l664 1078v6h-435q-14 0 -23 11t-7 28l24 170q2 16 14.5 27.5t26.5 11.5h776q31 0 31 -31q0 -10 -3 -24.5t-11 -26.5l-658 -1098v-6h439q16 0 23 -11.5t5 -27.5l-22 -170q-2 -16 -13.5 -27.5t-27.5 -11.5h-795q-29 0 -28 33zM425 1789q-3 11 5 21 l59 76q18 25 41 6l160 -127l205 127q16 10 24.5 7t16.5 -13l45 -67q10 -16 5 -27.5t-15 -19.5l-275 -207q-23 -16 -43 0l-217 207q-8 6 -11 17z" />
<glyph unicode="&#x17e;" horiz-adv-x="794" d="M-10 37q0 16 4 26.5t14 26.5l389 617v6h-256q-16 0 -24 14t-4 31l20 143q2 20 14.5 32.5t28.5 12.5h569q39 0 39 -37q0 -14 -8 -28l-411 -643v-7h243q18 0 26.5 -13t6.5 -32l-23 -141q-2 -18 -15 -31.5t-32 -13.5h-544q-20 0 -28.5 12.5t-8.5 24.5zM214 1299.5 q-3 11.5 5 21.5l60 76q18 25 40 6l160 -127l205 127q16 10 24.5 7t16.5 -13l45 -68q10 -16 5 -27.5t-15 -19.5l-275 -207q-23 -16 -43 0l-217 207q-8 6 -11 17.5z" />
<glyph unicode="&#x192;" horiz-adv-x="749" d="M-233 -381l83 123q18 29 44 10q12 -10 37.5 -20.5t58.5 -10.5q47 0 91 42t56 139l94 704h-143q-16 0 -24.5 11.5t-6.5 27.5l21 135q4 39 39 39h145l31 223q29 201 133 306.5t291 105.5q39 0 72.5 -9t60.5 -22.5t44 -27t28 -21.5q10 -10 10 -24.5t-8 -24.5l-88 -119 q-20 -27 -45 -10q-16 10 -38 18.5t-55 8.5q-45 0 -88 -43t-57 -140l-31 -221h176q14 0 23.5 -11t5.5 -28l-18 -135q-4 -16 -14.5 -27.5t-26.5 -11.5h-176l-97 -706q-29 -201 -140.5 -305.5t-281.5 -104.5q-80 0 -133 28.5t-73 51.5q-18 20 0 49z" />
<glyph unicode="&#x1a0;" horiz-adv-x="1521" d="M109 614q0 174 58 327t160.5 266.5t243 180t303.5 66.5q94 0 179 -29q41 4 75 37q41 37 60 88q12 33 43 33h98q20 0 29.5 -15.5t5.5 -37.5q-37 -121 -127 -201l-8 -8q31 -27 59 -57q76 -88 119 -204t43 -247q0 -172 -59.5 -324.5t-162 -265t-242.5 -178t-302 -65.5 q-125 0 -230.5 51t-182 138t-119.5 202.5t-43 242.5zM385 649q0 -84 22.5 -156.5t65.5 -128t103.5 -87t136.5 -31.5q94 0 177 42t146.5 114.5t100.5 170t37 207.5q0 82 -23 157t-66 130t-104 88t-137 33q-92 0 -175 -43t-146.5 -117t-100.5 -172t-37 -207z" />
<glyph unicode="&#x1a1;" horiz-adv-x="1036" d="M57 408q0 115 41 216t111 178t164 121t200 44q74 0 136 -27q39 6 69 37q41 37 60 88q12 33 43 33h98q20 0 29.5 -15.5t5.5 -38.5q-37 -121 -127 -200q-15 -13 -29 -23q39 -51 64 -116q29 -78 28 -164q0 -115 -42 -217.5t-112.5 -179t-163.5 -122t-198 -45.5 q-84 0 -152.5 36t-118.5 95.5t-78 137.5t-28 162zM305 434q0 -88 40 -152.5t124 -64.5q47 0 89 23.5t73 64.5t49 95.5t18 117.5q0 43 -10 81t-29.5 66.5t-49 46t-68.5 17.5q-51 0 -94.5 -23.5t-75 -63.5t-49 -93t-17.5 -115z" />
<glyph unicode="&#x1af;" horiz-adv-x="1355" d="M141 436q0 39 6 82l125 877q2 16 14.5 27.5t26.5 11.5h203q16 0 24.5 -11.5t6.5 -27.5l-123 -863q-4 -16 -4 -32.5v-32.5q0 -102 52 -159.5t157 -57.5q127 0 197.5 75.5t88.5 204.5l123 865q2 16 13.5 27.5t27.5 11.5h158q20 10 41 28q41 37 59 88q12 33 43 33h99 q20 0 29.5 -15.5t4.5 -37.5q-37 -121 -127 -201q-43 -37 -92 -57l-106 -754q-16 -117 -63.5 -215t-122 -171t-175 -112.5t-219.5 -39.5q-102 0 -188 33.5t-147.5 94t-96.5 144.5t-35 184z" />
<glyph unicode="&#x1b0;" horiz-adv-x="1021" d="M85 232.5q-3 76.5 9 166.5l74 502q6 45 45 45h176q16 0 27.5 -12t7.5 -33l-74 -510q-14 -94 8.5 -134t81.5 -40q43 0 74 19.5t51 44.5q23 29 37 65l78 555q4 29 18.5 37t32.5 8h113q25 10 47 31q41 37 59 88q12 33 43 33h99q20 0 29 -15.5t5 -38.5q-37 -121 -127 -200 q-36 -33 -75 -51l-105 -748q-2 -18 -16.5 -31.5t-30.5 -13.5h-78q-16 0 -24 10t-13 25l-16 80l-40.5 -45t-55.5 -45.5t-77 -34t-108 -13.5q-96 0 -154.5 32t-88 89.5t-32.5 134z" />
<glyph unicode="&#x1fa;" horiz-adv-x="1269" d="M-57.5 16.5q-5.5 16.5 4.5 36.5l725 1301q-47 23 -75 72t-28 110q0 55 19.5 102.5t52.5 83t78 56t96 20.5q39 0 72 -15.5t57.5 -43t37.5 -64.5t13 -78q0 -90 -49 -158.5t-125 -92.5l355 -1293q6 -20 -5.5 -36.5t-33.5 -16.5h-179q-45 0 -53 41l-51 227h-510l-119 -227 q-8 -16 -24.5 -28.5t-40.5 -12.5h-189q-23 0 -28.5 16.5zM465 489h323l-96 447h-4zM604 1907q-10 27 17 39l335 198q14 10 27.5 8t22.5 -18l49 -106q10 -18 3 -34t-22 -22l-352 -157q-23 -10 -32 -6.5t-15 18.5zM698 1554q0 -35 20.5 -62.5t49.5 -27.5q37 0 67.5 35t30.5 80 q0 35 -19.5 60.5t-49.5 25.5q-37 0 -68 -33t-31 -78z" />
<glyph unicode="&#x1fb;" d="M59 412q0 115 36 216t100.5 176t152.5 119t193 44q49 0 92 -13.5t77.5 -33t59.5 -41t37 -37.5l43 73q6 12 14 21.5t25 9.5h84q16 0 26.5 -12t6.5 -33l-117 -856q-2 -18 -16.5 -31.5t-30.5 -13.5h-84q-10 0 -21.5 7t-15.5 34l-16 72q-12 -12 -39 -36t-64 -45.5t-83 -38 t-99 -16.5q-82 0 -148.5 34t-113.5 92.5t-73 138.5t-26 170zM315 418q0 -39 9.5 -76t29 -64.5t50 -44t71.5 -16.5q37 0 71 17.5t60.5 42t45 50t24.5 44.5l31 227q-4 18 -15.5 41t-33 43t-51 33.5t-66.5 13.5q-47 0 -88 -22.5t-72 -63.5t-48.5 -98.5t-17.5 -126.5zM424 1245 q0 55 19.5 102.5t52 83t77.5 56t97 20.5q39 0 71.5 -15t57 -43t38 -64.5t13.5 -77.5q0 -55 -19.5 -102.5t-52.5 -83.5t-78 -56.5t-94 -20.5q-80 0 -131 58.5t-51 142.5zM467 1626q-10 27 16 39l336 199q14 10 27.5 8t21.5 -19l50 -106q10 -18 2.5 -33.5t-21.5 -21.5 l-352 -158q-23 -10 -32 -6t-15 18zM553 1264q0 -35 20.5 -62.5t49.5 -27.5q37 0 67.5 34.5t30.5 79.5q0 35 -19.5 60.5t-50.5 25.5q-37 0 -67.5 -32.5t-30.5 -77.5z" />
<glyph unicode="&#x1fc;" horiz-adv-x="1683" d="M-89 16.5q-3 16.5 11 36.5l924 1317q23 31 39 47.5t51 16.5h735q14 0 22.5 -11.5t6.5 -27.5l-25 -168q-2 -16 -12 -27.5t-27 -11.5h-528l-47 -336h436q14 0 23.5 -11.5t7.5 -27.5l-25 -170q-4 -16 -15 -27.5t-26 -11.5h-436l-51 -358h528q16 0 23.5 -11.5t5.5 -27.5 l-23 -168q-2 -16 -13 -27.5t-28 -11.5h-757q-16 0 -24.5 11.5t-6.5 27.5l33 223h-359l-151 -231q-23 -31 -56 -31h-210q-23 0 -26 16.5zM518 489h225l64 455zM1149 1667q-10 27 16 39l336 199q14 10 27.5 8t21.5 -19l49 -106q10 -18 3 -33.5t-21 -21.5l-352 -158 q-23 -10 -32 -6t-15 18z" />
<glyph unicode="&#x1fd;" horiz-adv-x="1445" d="M27 250q0 76 27.5 139.5t77.5 109.5t121 72.5t157 26.5q31 0 57.5 -3t46.5 -7q23 -6 45 -10q10 92 -7 131t-85 39q-25 0 -56.5 -4.5t-62.5 -9.5t-59.5 -11t-48.5 -12q-16 -2 -29.5 9t-13.5 28l-4 126q0 18 13 32t30 18q47 12 98 20q43 8 94 15.5t98 7.5q98 0 154.5 -35 t85.5 -82q25 27 60.5 49.5t78.5 36.5t89 22.5t91 8.5q70 0 127.5 -20.5t99.5 -56.5t64.5 -83t22.5 -102q0 -90 -54.5 -151.5t-140.5 -99.5t-192.5 -54.5t-210.5 -16.5q-6 -72 32.5 -124t124.5 -52q43 0 91.5 22.5t76.5 42.5q16 10 32 13.5t26 -13.5l80 -106q8 -14 7 -30.5 t-16 -31.5q-63 -57 -147 -92t-188 -35q-98 0 -170 41t-121 113h-2q-12 -20 -39 -47t-67 -50.5t-96 -40t-130 -16.5q-117 0 -192.5 73t-75.5 200zM274 287q0 -49 32 -78t73 -29q49 0 79.5 22.5t47 57.5t24 77t9.5 81q-8 2 -45 8t-74 6q-25 0 -50.5 -10t-47 -28.5t-35 -46 t-13.5 -60.5zM733 1174q-10 27 17 38l335 199q14 10 27.5 8t22.5 -18l49 -107q10 -18 3 -33.5t-22 -21.5l-352 -158q-23 -10 -32 -6t-15 19zM825 557q66 0 124.5 8t101.5 23.5t68.5 37t25.5 50.5q0 27 -22.5 50.5t-75.5 23.5q-37 0 -72 -17.5t-65.5 -45.5t-53.5 -62.5 t-31 -67.5z" />
<glyph unicode="&#x1fe;" horiz-adv-x="1521" d="M50 71.5q1 14.5 16 28.5l149 144q-51 78 -78.5 172t-27.5 198q0 174 58 327t160.5 266.5t243 180t303.5 66.5q123 0 228.5 -51t183.5 -137l152 145q10 10 23.5 10t23.5 -10l18 -20q20 -25 -8 -54l-154 -147q51 -80 80 -176t29 -201q0 -172 -59.5 -324.5t-162 -265 t-242.5 -178t-302 -65.5q-125 0 -229.5 50t-182.5 136l-147 -141q-10 -10 -23.5 -9.5t-23.5 11.5l-19 20q-10 10 -9 24.5zM385 649q0 -111 41 -203l653 623q-43 53 -103.5 86t-131.5 33q-88 0 -171 -43t-146.5 -117t-102.5 -172t-39 -207zM477 362q43 -53 103.5 -84.5 t132.5 -31.5q88 0 172 42t147.5 114.5t102.5 170t39 207.5q0 55 -11.5 107.5t-32.5 99.5zM690 1665q-10 27 17 39l335 199q14 10 27.5 8t22.5 -19l49 -106q10 -18 3 -33.5t-22 -21.5l-352 -158q-23 -10 -32 -6t-15 18z" />
<glyph unicode="&#x1ff;" horiz-adv-x="1036" d="M37 85.5q2 18.5 16 33.5l62 59q-58 105 -58 230q0 115 41 216t111 178t164 121t200 44q74 0 138.5 -29t113.5 -80l66 64q31 29 55 0l21 -23q23 -29 -9 -63l-67 -66q29 -49 44 -107.5t15 -121.5q0 -115 -42 -217.5t-112.5 -179t-163.5 -122t-198 -45.5q-78 0 -141.5 30 t-112.5 81l-59 -57q-12 -12 -27.5 -10t-27.5 12l-21 22q-10 12 -8 30.5zM305 434q0 -37 6 -67l332 317q-39 45 -102 45q-51 0 -94.5 -23.5t-75 -63.5t-49 -93.5t-17.5 -114.5zM360 262q41 -45 109 -45q47 0 89 23.5t73 64.5t49 95.5t18 117.5q0 33 -6 62zM412 1174 q-10 27 16 38l336 199q14 10 27.5 8t21.5 -18l49 -107q10 -18 3 -33.5t-21 -21.5l-352 -158q-23 -10 -32 -6t-16 19z" />
<glyph unicode="&#x218;" horiz-adv-x="1046" d="M44 163.5q-3 14.5 13 37.5l80 116q14 23 32.5 21t31.5 -12q39 -33 99 -70t155 -37q35 0 67.5 12.5t58 36t41 55t15.5 70.5q0 68 -45 118t-131 107q-51 33 -103.5 73t-95.5 89t-69.5 109.5t-26.5 138.5q0 76 26.5 152.5t84 137t144.5 98.5t208 38q72 0 132 -16.5 t108.5 -38t80 -44t43.5 -34.5q37 -37 6 -82l-79 -113q-27 -39 -72 -4q-47 39 -100.5 64.5t-131.5 25.5q-39 0 -70.5 -13t-55 -35.5t-36 -51.5t-12.5 -59q0 -61 43 -102.5t136 -102.5q51 -35 106 -74t101 -90t77 -115.5t31 -148.5q0 -90 -34 -170t-97.5 -140.5t-154.5 -95 t-204 -34.5q-72 0 -133 16t-110 40.5t-85 52t-61 50.5q-10 10 -13 24.5zM229 -295q0 72 53.5 118t127.5 46q70 0 113.5 -38t43.5 -122q0 -92 -44 -172t-107 -151q-23 -23 -41 -4l-45 40q-18 18 2 43q31 35 51 78t25 84q-10 -6 -30 -13t-42 -7q-49 0 -78 28.5t-29 69.5z" />
<glyph unicode="&#x219;" horiz-adv-x="788" d="M15.5 98.5q0.5 14.5 9.5 30.5l57 111q8 14 25.5 18t31.5 -6q35 -20 79 -36.5t97 -16.5q45 0 73 17t28 54q0 35 -33 66t-94 67q-88 53 -141.5 112.5t-53.5 160.5q0 57 22.5 109.5t65.5 92.5t108.5 64.5t151.5 24.5q45 0 86 -7.5t76 -18.5t61.5 -24.5t41.5 -25.5 q14 -10 18 -30.5t-6 -39.5l-55 -106q-18 -29 -56 -13q-35 16 -81 32t-93 16q-55 0 -77.5 -21.5t-22.5 -48.5q0 -29 24.5 -52.5t87.5 -58.5q94 -49 159 -117.5t65 -170.5q0 -61 -23.5 -116.5t-70 -96.5t-112 -66t-151.5 -25q-49 0 -93 10.5t-81 26t-65.5 31.5t-44.5 29 q-14 10 -13.5 24.5zM98 -295q0 72 53.5 118t127.5 46q70 0 113.5 -38t43.5 -122q0 -92 -44 -172t-107 -151q-23 -23 -41 -4l-45 40q-18 18 2 43q31 35 51 78t24 84q-10 -6 -29.5 -13t-41.5 -7q-49 0 -78 28.5t-29 69.5z" />
<glyph unicode="&#x21a;" horiz-adv-x="1007" d="M152 1227l24 168q2 16 13.5 27.5t25.5 11.5h813q16 0 24.5 -11.5t6.5 -27.5l-25 -168q-2 -16 -13 -27.5t-28 -11.5h-270l-162 -1149q-2 -16 -14 -27.5t-27 -11.5h-198q-14 0 -23.5 11.5t-7.5 27.5l162 1149h-271q-16 0 -24 11t-6 28zM209 -295q0 72 53 118t127 46 q70 0 114 -38t44 -122q0 -92 -44 -172t-108 -151q-23 -23 -41 -4l-45 40q-18 18 2 43q31 35 51.5 78t24.5 84q-10 -6 -29.5 -13t-42.5 -7q-49 0 -77.5 28.5t-28.5 69.5z" />
<glyph unicode="&#x21b;" horiz-adv-x="749" d="M78 764l16 137q4 20 16.5 32.5t28.5 12.5h105l35 262q4 18 17 31.5t30 13.5h180q16 0 25.5 -13t5.5 -32l-35 -262h180q39 0 33 -45l-17 -137q-2 -16 -15 -30.5t-32 -14.5h-182l-57 -416q-6 -47 10 -59.5t35 -12.5q31 0 62.5 11.5t47.5 19.5q18 8 30.5 0t16.5 -24l23 -144 q6 -31 -35 -55q-6 -4 -28.5 -14.5t-56.5 -20.5t-77 -18.5t-88 -8.5q-111 0 -168 80t-34 226l63 436h-100q-16 0 -26.5 14.5t-8.5 30.5zM133 -295q0 72 53.5 118t126.5 46q70 0 114 -38t44 -122q0 -92 -44 -172t-108 -151q-23 -23 -40 -4l-46 40q-18 18 3 43q31 35 51 78 t24 84q-10 -6 -29.5 -13t-41.5 -7q-49 0 -78 28.5t-29 69.5z" />
<glyph unicode="&#x237;" horiz-adv-x="516" d="M-182 -360q-6 29 1 48t36 33q27 14 56.5 30t55 39.5t45 56t25.5 79.5l137 975q4 20 19.5 32.5t31.5 12.5h166q16 0 29.5 -12t9.5 -33l-131 -940q-14 -104 -48 -181t-80 -130t-103.5 -90t-118.5 -62q-27 -10 -53.5 -9t-34.5 30z" />
<glyph unicode="&#x2c6;" horiz-adv-x="688" d="M144 1132.5q6 14.5 18 24.5l219 166q29 20 55 -2l174 -164q10 -8 14.5 -24.5t-8.5 -30.5l-47 -60q-25 -33 -55 -8l-119 94l-153 -96q-20 -12 -32.5 -7t-23.5 17l-36 56q-12 20 -6 34.5z" />
<glyph unicode="&#x2c7;" horiz-adv-x="688" d="M122 1299.5q-3 11.5 5 21.5l59 76q18 25 41 6l160 -127l205 127q16 10 24.5 7t16.5 -13l45 -68q10 -16 5 -27.5t-15 -19.5l-275 -207q-23 -16 -43 0l-217 207q-8 6 -11 17.5z" />
<glyph unicode="&#x2c9;" horiz-adv-x="763" d="M158 1204l8 70q2 16 13 27.5t28 11.5h473q14 0 23.5 -11.5t5.5 -27.5l-11 -70q-2 -16 -12 -26.5t-27 -10.5h-473q-16 0 -23 10.5t-5 26.5z" />
<glyph unicode="&#x2d8;" horiz-adv-x="636" d="M158 1235q0 23 14 38t35 15h57q16 0 25.5 -12t13.5 -25q4 -33 19.5 -53t46.5 -20q27 0 51 23.5t37 53.5q12 33 45 33h65q23 0 34 -17.5t5 -39.5q-25 -88 -91.5 -146.5t-160.5 -58.5q-84 0 -140 59.5t-56 149.5z" />
<glyph unicode="&#x2d9;" horiz-adv-x="403" d="M90 1223q0 39 15.5 72.5t40 58t58.5 39t70 14.5q61 0 100.5 -42t39.5 -101q0 -37 -15.5 -70t-41 -58.5t-58.5 -40t-70 -14.5q-61 0 -100 41t-39 101z" />
<glyph unicode="&#x2da;" horiz-adv-x="534" d="M102 1192q0 55 19.5 102t52.5 83t78 56.5t96 20.5q39 0 72 -15.5t57.5 -43t37.5 -64.5t13 -78q0 -55 -19.5 -102t-52 -83t-77.5 -56.5t-94 -20.5q-80 0 -131.5 58.5t-51.5 142.5zM231 1210q0 -35 20.5 -62.5t49.5 -27.5q37 0 67.5 35t30.5 80q0 35 -19.5 60.5t-49.5 25.5 q-37 0 -68 -33t-31 -78z" />
<glyph unicode="&#x2db;" horiz-adv-x="565" d="M37 -324q0 55 19.5 101.5t52 87.5t76.5 76.5t94 68.5l186 -4q-35 -20 -77 -49t-79 -63.5t-61.5 -76.5t-24.5 -87q0 -68 70 -68q41 0 80 23.5t53 33.5q16 12 28.5 7t10.5 -21l-12 -106q-2 -18 -10.5 -34t-28.5 -30q-27 -16 -75 -28.5t-97 -12.5q-100 0 -152.5 50 t-52.5 132z" />
<glyph unicode="&#x2dc;" horiz-adv-x="700" d="M140.5 1114.5q0.5 15.5 9.5 28.5q6 10 20 34.5t35.5 48t53.5 43t71 19.5q33 0 55.5 -16.5t39.5 -33.5t31.5 -28.5t26.5 -11.5t21.5 12.5t17.5 28.5q10 20 31.5 29.5t42.5 -6.5l37 -29q20 -16 19 -34.5t-11 -39.5q-4 -12 -18.5 -35.5t-36 -45t-51 -38t-66.5 -16.5 q-35 0 -59.5 15.5t-43 34t-31.5 30.5t-24 12q-14 0 -25.5 -19.5t-21.5 -35.5q-8 -16 -28.5 -20.5t-34.5 8.5l-45 34q-16 16 -15.5 31.5z" />
<glyph unicode="&#x2dd;" horiz-adv-x="722" d="M96 1106l101 289q14 39 47 39h153q27 0 33 -15.5t-8 -36.5l-182 -284q-8 -12 -18.5 -21.5t-26.5 -9.5h-70q-14 0 -24.5 11.5t-4.5 27.5zM401 1106l101 289q14 39 47 39h153q27 0 33 -15.5t-8 -36.5l-182 -284q-8 -12 -18.5 -21.5t-26.5 -9.5h-70q-14 0 -24.5 11.5 t-4.5 27.5z" />
<glyph unicode="&#x300;" horiz-adv-x="0" d="M-695 1183.5q-5 18.5 11 41.5l47 69q16 27 37 27t31 -8l223 -158q12 -6 16.5 -22.5t-6.5 -32.5l-32 -53q-23 -37 -62 -17l-246 127q-14 8 -19 26.5z" />
<glyph unicode="&#x301;" horiz-adv-x="0" d="M-656 1116q-14 37 21 53l266 158q16 10 34.5 8t28.5 -22l39 -86q12 -20 4 -40t-26 -26l-305 -137l-15 5q-14 5 -20 24z" />
<glyph unicode="&#x303;" horiz-adv-x="0" d="M-766.5 1114.5q0.5 15.5 9.5 28.5q6 10 20 34.5t35.5 48t53.5 43t71 19.5q33 0 55.5 -16.5t39.5 -33.5t31.5 -28.5t26.5 -11.5t21.5 12.5t17.5 28.5q10 20 31.5 29.5t42.5 -6.5l37 -29q20 -16 19 -34.5t-11 -39.5q-4 -12 -18.5 -35.5t-36 -45t-51 -38t-66.5 -16.5 q-35 0 -59.5 15.5t-43 34t-31.5 30.5t-24 12q-14 0 -25.5 -19.5t-21.5 -35.5q-8 -16 -28.5 -20.5t-34.5 8.5l-45 34q-16 16 -15.5 31.5z" />
<glyph unicode="&#x309;" horiz-adv-x="927" d="M561 1262q-18 18 6 38q49 39 109 58q41 14 76 14q70 0 112 -43q43 -45 29 -108q-12 -57 -84 -111q-37 -25 -70 -61q-27 -33 -34 -33h-87q-27 0 -20 31q12 57 82 102q18 12 41 31q23 18 10 43q-10 18 -31 18q-25 -2 -53 -18q-37 -27 -49 -11z" />
<glyph unicode="&#x31b;" horiz-adv-x="636" d="M348 1081l19 176q51 0 92 38t59 89q12 33 43 33h98q20 0 29.5 -15.5t5.5 -37.5q-37 -121 -128 -202t-218 -81z" />
<glyph unicode="&#x323;" horiz-adv-x="516" d="M-29 -291q0 39 15.5 73t40 58.5t58.5 39t71 14.5q61 0 100 -42t39 -102q0 -37 -15.5 -69.5t-41 -58t-58 -40t-69.5 -14.5q-61 0 -100.5 41t-39.5 100z" />
<glyph unicode="&#x394;" horiz-adv-x="1335" d="M-6 21.5q-12 21.5 12 66.5l748 1346q10 20 30 20h17q23 0 28 -20l365 -1350q10 -31 -1 -57.5t-46 -26.5h-1106q-35 0 -47 21.5zM367 244h520l-164 676h-2z" />
<glyph unicode="&#x3a9;" horiz-adv-x="1566" d="M45 37l27 180q2 14 12 25.5t25 11.5h167q-33 27 -59.5 70t-45.5 93t-29.5 107.5t-10.5 116.5q0 168 63.5 316.5t169 259t245 174t292.5 63.5q121 0 225.5 -46t181 -127t121 -193.5t44.5 -243.5q0 -80 -19.5 -166t-54.5 -167t-85 -148.5t-112 -108.5h156q14 0 22.5 -11.5 t5.5 -25.5l-26 -180q-2 -16 -12.5 -26.5t-24.5 -10.5h-508q-33 0 -27 37l17 110q6 39 17.5 52.5t35.5 25.5q80 41 143.5 104.5t107.5 139.5t66.5 159t22.5 163q0 82 -23.5 154.5t-66.5 125.5t-105.5 84t-138.5 31q-98 0 -183 -46t-148.5 -124t-100.5 -178.5t-37 -208.5 q0 -125 49.5 -233.5t153.5 -170.5q27 -16 33 -32.5t2 -45.5l-17 -110q-2 -16 -11 -26.5t-25 -10.5h-506q-16 0 -23.5 10t-5.5 27z" />
<glyph unicode="&#x3bc;" horiz-adv-x="1062" d="M18 -442l193 1343q6 45 45 45h176q16 0 27.5 -12t7.5 -33l-74 -516q-10 -78 13.5 -123t76.5 -45q43 0 74 19.5t51 44.5q23 29 37 65l78 555q4 29 18.5 37t32.5 8h172q16 0 27.5 -12t7.5 -33l-119 -856q-2 -18 -16.5 -31.5t-30.5 -13.5h-78q-16 0 -24 10t-13 25l-16 80 l-40.5 -45t-55.5 -45.5t-77 -34t-108 -13.5q-37 0 -67 7l-60 -426q-2 -18 -16 -31.5t-31 -13.5h-176q-16 0 -26.5 13t-8.5 32z" />
<glyph unicode="&#x3c0;" horiz-adv-x="1284" d="M72 772l18 131q2 18 17.5 30.5t31.5 12.5h1116q14 0 24.5 -11t6.5 -30l-20 -133q-2 -16 -14.5 -29.5t-28.5 -13.5h-162l-96 -686q-2 -18 -16.5 -30.5t-30.5 -12.5h-181q-14 0 -23 12.5t-7 30.5l96 686h-289l-96 -686q-2 -18 -16.5 -30.5t-26.5 -12.5h-185q-16 0 -24 12.5 t-6 30.5l96 686h-147q-16 0 -27.5 13.5t-9.5 29.5z" />
<glyph unicode="&#x1e80;" horiz-adv-x="1669" d="M168 1384q-4 23 8 36.5t31 13.5h178q10 0 18.5 -9.5t10.5 -19.5l69 -776h9l413 803q10 23 35 22h33q25 0 28 -22l166 -803h9l290 776q4 10 15.5 19.5t21.5 9.5h195q20 0 28.5 -13.5t-2.5 -36.5l-540 -1376q-10 -29 -37 -28h-31q-25 0 -29 22l-208 887h-9l-454 -887 q-12 -23 -35 -22h-29q-27 0 -30 28zM784.5 1753q-4.5 14 10.5 35l59 88q14 23 30.5 22.5t24.5 -6.5l281 -198q8 -4 11 -15.5t-5 -23.5l-41 -68q-18 -29 -49 -12l-307 158q-10 6 -14.5 20z" />
<glyph unicode="&#x1e81;" horiz-adv-x="1345" d="M96 897q-6 49 41 49h162q10 0 20.5 -7t12.5 -21l63 -420h2l279 450q8 10 14 16.5t23 6.5h20q18 0 31 -23l147 -450h2l185 420q8 20 22.5 24t30.5 4h156q25 0 30.5 -15.5t-4.5 -37.5l-391 -889q-14 -27 -41 -27h-12q-20 0 -29 23l-190 553h-2l-351 -553q-12 -23 -38 -23 h-9q-29 0 -32 27zM530.5 1265.5q-4.5 14.5 10.5 34.5l59 89q14 23 30.5 22.5t24.5 -6.5l281 -199q8 -4 11 -15t-5 -24l-41 -67q-18 -29 -49 -13l-307 158q-10 6 -14.5 20.5z" />
<glyph unicode="&#x1e82;" horiz-adv-x="1669" d="M168 1384q-4 23 8 36.5t31 13.5h178q10 0 18.5 -9.5t10.5 -19.5l69 -776h9l413 803q10 23 35 22h33q25 0 28 -22l166 -803h9l290 776q4 10 15.5 19.5t21.5 9.5h195q20 0 28.5 -13.5t-2.5 -36.5l-540 -1376q-10 -29 -37 -28h-31q-25 0 -29 22l-208 887h-9l-454 -887 q-12 -23 -35 -22h-29q-27 0 -30 28zM764 1665q-10 27 16 39l336 199q14 10 27.5 8t21.5 -19l49 -106q10 -18 3 -33.5t-21 -21.5l-352 -158q-23 -10 -32 -6t-15 18z" />
<glyph unicode="&#x1e83;" horiz-adv-x="1345" d="M96 897q-6 49 41 49h162q10 0 20.5 -7t12.5 -21l63 -420h2l279 450q8 10 14 16.5t23 6.5h20q18 0 31 -23l147 -450h2l185 420q8 20 22.5 24t30.5 4h156q25 0 30.5 -15.5t-4.5 -37.5l-391 -889q-14 -27 -41 -27h-12q-20 0 -29 23l-190 553h-2l-351 -553q-12 -23 -38 -23 h-9q-29 0 -32 27zM553 1174q-10 27 16 38l336 199q14 10 27.5 8t21.5 -18l50 -107q10 -18 2.5 -33.5t-21.5 -21.5l-352 -158q-23 -10 -32 -6t-15 19z" />
<glyph unicode="&#x1e84;" horiz-adv-x="1669" d="M168 1384q-4 23 8 36.5t31 13.5h178q10 0 18.5 -9.5t10.5 -19.5l69 -776h9l413 803q10 23 35 22h33q25 0 28 -22l166 -803h9l290 776q4 10 15.5 19.5t21.5 9.5h195q20 0 28.5 -13.5t-2.5 -36.5l-540 -1376q-10 -29 -37 -28h-31q-25 0 -29 22l-208 887h-9l-454 -887 q-12 -23 -35 -22h-29q-27 0 -30 28zM629 1718q6 63 51 105.5t98 42.5q59 0 93 -42t28 -106q-4 -31 -18.5 -58.5t-36 -48t-48 -31.5t-53.5 -11q-57 0 -89.5 43t-24.5 106zM1083 1718q6 63 52.5 105.5t99.5 42.5q57 0 91 -42t28 -106q-8 -63 -54.5 -106t-99.5 -43 q-59 0 -92 43t-25 106z" />
<glyph unicode="&#x1e85;" horiz-adv-x="1345" d="M96 897q-6 49 41 49h162q10 0 20.5 -7t12.5 -21l63 -420h2l279 450q8 10 14 16.5t23 6.5h20q18 0 31 -23l147 -450h2l185 420q8 20 22.5 24t30.5 4h156q25 0 30.5 -15.5t-4.5 -37.5l-391 -889q-14 -27 -41 -27h-12q-20 0 -29 23l-190 553h-2l-351 -553q-12 -23 -38 -23 h-9q-29 0 -32 27zM428 1260q6 63 52 105t100 42q59 0 93 -42t27 -105q-4 -31 -18 -58.5t-35.5 -48t-48 -32t-53.5 -11.5q-57 0 -91 43t-26 107zM815 1260q6 63 52 105t100 42q57 0 92 -42t28 -105q-8 -63 -55 -106.5t-100 -43.5q-59 0 -92 43t-25 107z" />
<glyph unicode="&#x1ea0;" horiz-adv-x="1267" d="M-57.5 16.5q-5.5 16.5 4.5 36.5l770 1379q12 23 35 22h18q20 0 29 -22l377 -1379q6 -20 -5.5 -36.5t-33.5 -16.5h-179q-45 0 -53 41l-51 227h-510l-119 -227q-8 -16 -24.5 -28.5t-40.5 -12.5h-189q-23 0 -28.5 16.5zM356 -291q0 39 15.5 73t40 58.5t58.5 39t71 14.5 q61 0 100 -42t39 -102q0 -37 -15.5 -69.5t-41 -58t-58 -40t-69.5 -14.5q-61 0 -100.5 41t-39.5 100zM465 489h323l-96 447h-4z" />
<glyph unicode="&#x1ea1;" d="M59 412q0 115 36 216t100.5 176t152.5 119t193 44q49 0 92 -13.5t77.5 -33t59.5 -41t37 -37.5l43 73q6 12 14 21.5t25 9.5h84q16 0 26.5 -12t6.5 -33l-117 -856q-2 -18 -16.5 -31.5t-30.5 -13.5h-84q-10 0 -21.5 7t-15.5 34l-16 72q-12 -12 -39 -36t-64 -45.5t-83 -38 t-99 -16.5q-82 0 -148.5 34t-113.5 92.5t-73 138.5t-26 170zM239 -291q0 39 15.5 73t40 58.5t58.5 39t71 14.5q61 0 100 -42t39 -102q0 -37 -15.5 -69.5t-41 -58t-58 -40t-69.5 -14.5q-61 0 -100.5 41t-39.5 100zM315 418q0 -39 9.5 -76t29 -64.5t50 -44t71.5 -16.5 q37 0 71 17.5t60.5 42t45 50t24.5 44.5l31 227q-4 18 -15.5 41t-33 43t-51 33.5t-66.5 13.5q-47 0 -88 -22.5t-72 -63.5t-48.5 -98.5t-17.5 -126.5z" />
<glyph unicode="&#x1ea2;" horiz-adv-x="1267" d="M-57.5 16.5q-5.5 16.5 4.5 36.5l770 1379q12 23 35 22h18q20 0 29 -22l377 -1379q6 -20 -5.5 -36.5t-33.5 -16.5h-179q-45 0 -53 41l-51 227h-510l-119 -227q-8 -16 -24.5 -28.5t-40.5 -12.5h-189q-23 0 -28.5 16.5zM465 489h323l-96 447h-4zM680 1749q-18 18 6 38 q49 39 109 58q41 14 76 14q70 0 112 -43q43 -45 29 -108q-12 -57 -84 -111q-37 -25 -70 -61q-27 -33 -34 -33h-87q-27 0 -20 31q12 57 82 102q18 12 41 31q23 18 10 43q-10 18 -31 18q-25 -2 -53 -18q-37 -27 -49 -11z" />
<glyph unicode="&#x1ea3;" d="M59 412q0 115 36 216t100.5 176t152.5 119t193 44q49 0 92 -13.5t77.5 -33t59.5 -41t37 -37.5l43 73q6 12 14 21.5t25 9.5h84q16 0 26.5 -12t6.5 -33l-117 -856q-2 -18 -16.5 -31.5t-30.5 -13.5h-84q-10 0 -21.5 7t-15.5 34l-16 72q-12 -12 -39 -36t-64 -45.5t-83 -38 t-99 -16.5q-82 0 -148.5 34t-113.5 92.5t-73 138.5t-26 170zM315 418q0 -39 9.5 -76t29 -64.5t50 -44t71.5 -16.5q37 0 71 17.5t60.5 42t45 50t24.5 44.5l31 227q-4 18 -15.5 41t-33 43t-51 33.5t-66.5 13.5q-47 0 -88 -22.5t-72 -63.5t-48.5 -98.5t-17.5 -126.5zM502 1270 q-18 18 6 38q49 39 109 58q41 14 76 14q70 0 112 -43q43 -45 29 -108q-12 -57 -84 -111q-37 -25 -70 -61q-27 -33 -34 -33h-87q-27 0 -20 31q12 57 82 102q18 12 41 31q23 18 10 43q-10 18 -31 18q-25 -2 -53 -18q-37 -27 -49 -11z" />
<glyph unicode="&#x1ea4;" horiz-adv-x="1267" d="M-57.5 16.5q-5.5 16.5 4.5 36.5l770 1379q12 23 35 22h18q20 0 29 -22l377 -1379q6 -20 -5.5 -36.5t-33.5 -16.5h-179q-45 0 -53 41l-51 227h-510l-119 -227q-8 -16 -24.5 -28.5t-40.5 -12.5h-189q-23 0 -28.5 16.5zM465 489h323l-96 447h-4zM541 1652.5q6 14.5 18 24.5 l219 166q29 20 55 -2l174 -164q10 -8 14.5 -24.5t-8.5 -30.5l-47 -60q-25 -33 -55 -8l-119 94l-153 -96q-20 -12 -32.5 -7t-23.5 17l-36 56q-12 20 -6 34.5zM598 1954q-14 37 21 53l266 158q16 10 34.5 8t28.5 -22l39 -86q12 -20 4 -40t-26 -26l-305 -137l-15 5 q-14 5 -20 24z" />
<glyph unicode="&#x1ea5;" d="M59 412q0 115 36 216t100.5 176t152.5 119t193 44q49 0 92 -13.5t77.5 -33t59.5 -41t37 -37.5l43 73q6 12 14 21.5t25 9.5h84q16 0 26.5 -12t6.5 -33l-117 -856q-2 -18 -16.5 -31.5t-30.5 -13.5h-84q-10 0 -21.5 7t-15.5 34l-16 72q-12 -12 -39 -36t-64 -45.5t-83 -38 t-99 -16.5q-82 0 -148.5 34t-113.5 92.5t-73 138.5t-26 170zM315 418q0 -39 9.5 -76t29 -64.5t50 -44t71.5 -16.5q37 0 71 17.5t60.5 42t45 50t24.5 44.5l31 227q-4 18 -15.5 41t-33 43t-51 33.5t-66.5 13.5q-47 0 -88 -22.5t-72 -63.5t-48.5 -98.5t-17.5 -126.5z M369 1132.5q6 14.5 18 24.5l219 166q29 20 55 -2l174 -164q10 -8 14.5 -24.5t-8.5 -30.5l-47 -60q-25 -33 -55 -8l-119 94l-153 -96q-20 -12 -32.5 -7t-23.5 17l-36 56q-12 20 -6 34.5zM432 1458q-14 37 21 53l266 158q16 10 34.5 8t28.5 -22l39 -86q12 -20 4 -40t-26 -26 l-305 -137l-15 5q-14 5 -20 24z" />
<glyph unicode="&#x1ea6;" horiz-adv-x="1267" d="M-57.5 16.5q-5.5 16.5 4.5 36.5l770 1379q12 23 35 22h18q20 0 29 -22l377 -1379q6 -20 -5.5 -36.5t-33.5 -16.5h-179q-45 0 -53 41l-51 227h-510l-119 -227q-8 -16 -24.5 -28.5t-40.5 -12.5h-189q-23 0 -28.5 16.5zM465 489h323l-96 447h-4zM541 1652.5q6 14.5 18 24.5 l219 166q29 20 55 -2l174 -164q10 -8 14.5 -24.5t-8.5 -30.5l-47 -60q-25 -33 -55 -8l-119 94l-153 -96q-20 -12 -32.5 -7t-23.5 17l-36 56q-12 20 -6 34.5zM656 2014.5q-5 18.5 11 41.5l47 69q16 27 37 27t31 -8l223 -158q12 -6 16.5 -22.5t-6.5 -32.5l-32 -53 q-23 -37 -62 -17l-246 127q-14 8 -19 26.5z" />
<glyph unicode="&#x1ea7;" d="M59 412q0 115 36 216t100.5 176t152.5 119t193 44q49 0 92 -13.5t77.5 -33t59.5 -41t37 -37.5l43 73q6 12 14 21.5t25 9.5h84q16 0 26.5 -12t6.5 -33l-117 -856q-2 -18 -16.5 -31.5t-30.5 -13.5h-84q-10 0 -21.5 7t-15.5 34l-16 72q-12 -12 -39 -36t-64 -45.5t-83 -38 t-99 -16.5q-82 0 -148.5 34t-113.5 92.5t-73 138.5t-26 170zM315 418q0 -39 9.5 -76t29 -64.5t50 -44t71.5 -16.5q37 0 71 17.5t60.5 42t45 50t24.5 44.5l31 227q-4 18 -15.5 41t-33 43t-51 33.5t-66.5 13.5q-47 0 -88 -22.5t-72 -63.5t-48.5 -98.5t-17.5 -126.5z M369 1132.5q6 14.5 18 24.5l219 166q29 20 55 -2l174 -164q10 -8 14.5 -24.5t-8.5 -30.5l-47 -60q-25 -33 -55 -8l-119 94l-153 -96q-20 -12 -32.5 -7t-23.5 17l-36 56q-12 20 -6 34.5zM503 1513.5q-5 18.5 11 41.5l47 69q16 27 37 27t31 -8l223 -158q12 -6 16.5 -22.5 t-6.5 -32.5l-32 -53q-23 -37 -62 -17l-246 127q-14 8 -19 26.5z" />
<glyph unicode="&#x1ea8;" horiz-adv-x="1267" d="M-57.5 16.5q-5.5 16.5 4.5 36.5l770 1379q12 23 35 22h18q20 0 29 -22l377 -1379q6 -20 -5.5 -36.5t-33.5 -16.5h-179q-45 0 -53 41l-51 227h-510l-119 -227q-8 -16 -24.5 -28.5t-40.5 -12.5h-189q-23 0 -28.5 16.5zM465 489h323l-96 447h-4zM543 1652.5q6 14.5 18 24.5 l219 166q29 20 55 -2l174 -164q10 -8 14.5 -24.5t-8.5 -30.5l-47 -60q-25 -33 -55 -8l-119 94l-153 -96q-20 -12 -32.5 -7t-23.5 17l-36 56q-12 20 -6 34.5zM948 1999q-18 18 6 38q49 39 109 58q41 14 76 14q70 0 112 -43q43 -45 29 -108q-12 -57 -84 -111q-37 -25 -70 -61 q-27 -33 -34 -33h-87q-27 0 -20 31q12 57 82 102q18 12 41 31q23 18 10 43q-10 18 -31 18q-25 -2 -53 -18q-37 -27 -49 -11z" />
<glyph unicode="&#x1ea9;" d="M59 412q0 115 36 216t100.5 176t152.5 119t193 44q49 0 92 -13.5t77.5 -33t59.5 -41t37 -37.5l43 73q6 12 14 21.5t25 9.5h84q16 0 26.5 -12t6.5 -33l-117 -856q-2 -18 -16.5 -31.5t-30.5 -13.5h-84q-10 0 -21.5 7t-15.5 34l-16 72q-12 -12 -39 -36t-64 -45.5t-83 -38 t-99 -16.5q-82 0 -148.5 34t-113.5 92.5t-73 138.5t-26 170zM315 418q0 -39 9.5 -76t29 -64.5t50 -44t71.5 -16.5q37 0 71 17.5t60.5 42t45 50t24.5 44.5l31 227q-4 18 -15.5 41t-33 43t-51 33.5t-66.5 13.5q-47 0 -88 -22.5t-72 -63.5t-48.5 -98.5t-17.5 -126.5z M369 1132.5q6 14.5 18 24.5l219 166q29 20 55 -2l174 -164q10 -8 14.5 -24.5t-8.5 -30.5l-47 -60q-25 -33 -55 -8l-119 94l-153 -96q-20 -12 -32.5 -7t-23.5 17l-36 56q-12 20 -6 34.5zM727 1522q-18 18 6 38q49 39 109 58q41 14 76 14q70 0 112 -43q43 -45 29 -108 q-12 -57 -84 -111q-37 -25 -70 -61q-27 -33 -34 -33h-87q-27 0 -20 31q12 57 82 102q18 12 41 31q23 18 10 43q-10 18 -31 18q-25 -2 -53 -18q-37 -27 -49 -11z" />
<glyph unicode="&#x1eaa;" horiz-adv-x="1267" d="M-57.5 16.5q-5.5 16.5 4.5 36.5l770 1379q12 23 35 22h18q20 0 29 -22l377 -1379q6 -20 -5.5 -36.5t-33.5 -16.5h-179q-45 0 -53 41l-51 227h-510l-119 -227q-8 -16 -24.5 -28.5t-40.5 -12.5h-189q-23 0 -28.5 16.5zM465 489h323l-96 447h-4zM541 1654.5q6 14.5 18 24.5 l219 166q29 20 55 -2l174 -164q10 -8 14.5 -24.5t-8.5 -30.5l-47 -60q-25 -33 -55 -8l-119 94l-153 -96q-20 -12 -32.5 -7t-23.5 17l-36 56q-12 20 -6 34.5zM633.5 1943.5q0.5 15.5 9.5 28.5q6 10 20 34.5t35.5 48t53.5 43t71 19.5q33 0 55.5 -16.5t39.5 -33.5t31.5 -28.5 t26.5 -11.5t21.5 12.5t17.5 28.5q10 20 31.5 29.5t42.5 -6.5l37 -29q20 -16 19 -34.5t-11 -39.5q-4 -12 -18.5 -35.5t-36 -45t-51 -38t-66.5 -16.5q-35 0 -59.5 15.5t-43 34t-31.5 30.5t-24 12q-14 0 -25.5 -19.5t-21.5 -35.5q-8 -16 -28.5 -20.5t-34.5 8.5l-45 34 q-16 16 -15.5 31.5z" />
<glyph unicode="&#x1eab;" d="M59 412q0 115 36 216t100.5 176t152.5 119t193 44q49 0 92 -13.5t77.5 -33t59.5 -41t37 -37.5l43 73q6 12 14 21.5t25 9.5h84q16 0 26.5 -12t6.5 -33l-117 -856q-2 -18 -16.5 -31.5t-30.5 -13.5h-84q-10 0 -21.5 7t-15.5 34l-16 72q-12 -12 -39 -36t-64 -45.5t-83 -38 t-99 -16.5q-82 0 -148.5 34t-113.5 92.5t-73 138.5t-26 170zM315 418q0 -39 9.5 -76t29 -64.5t50 -44t71.5 -16.5q37 0 71 17.5t60.5 42t45 50t24.5 44.5l31 227q-4 18 -15.5 41t-33 43t-51 33.5t-66.5 13.5q-47 0 -88 -22.5t-72 -63.5t-48.5 -98.5t-17.5 -126.5z M369 1132.5q6 14.5 18 24.5l219 166q29 20 55 -2l174 -164q10 -8 14.5 -24.5t-8.5 -30.5l-47 -60q-25 -33 -55 -8l-119 94l-153 -96q-20 -12 -32.5 -7t-23.5 17l-36 56q-12 20 -6 34.5zM457.5 1456.5q0.5 15.5 9.5 28.5q6 10 20 34.5t35.5 48t53.5 43t71 19.5 q33 0 55.5 -16.5t39.5 -33.5t31.5 -28.5t26.5 -11.5t21.5 12.5t17.5 28.5q10 20 31.5 29.5t42.5 -6.5l37 -29q20 -16 19 -34.5t-11 -39.5q-4 -12 -18.5 -35.5t-36 -45t-51 -38t-66.5 -16.5q-35 0 -59.5 15.5t-43 34t-31.5 30.5t-24 12q-14 0 -25.5 -19.5t-21.5 -35.5 q-8 -16 -28.5 -20.5t-34.5 8.5l-45 34q-16 16 -15.5 31.5z" />
<glyph unicode="&#x1eac;" horiz-adv-x="1267" d="M-57.5 16.5q-5.5 16.5 4.5 36.5l770 1379q12 23 35 22h18q20 0 29 -22l377 -1379q6 -20 -5.5 -36.5t-33.5 -16.5h-179q-45 0 -53 41l-51 227h-510l-119 -227q-8 -16 -24.5 -28.5t-40.5 -12.5h-189q-23 0 -28.5 16.5zM356 -291q0 39 15.5 73t40 58.5t58.5 39t71 14.5 q61 0 100 -42t39 -102q0 -37 -15.5 -69.5t-41 -58t-58 -40t-69.5 -14.5q-61 0 -100.5 41t-39.5 100zM465 489h323l-96 447h-4zM541 1652.5q6 14.5 18 24.5l219 166q29 20 55 -2l174 -164q10 -8 14.5 -24.5t-8.5 -30.5l-47 -60q-25 -33 -55 -8l-119 94l-153 -96 q-20 -12 -32.5 -7t-23.5 17l-36 56q-12 20 -6 34.5z" />
<glyph unicode="&#x1ead;" d="M59 412q0 115 36 216t100.5 176t152.5 119t193 44q49 0 92 -13.5t77.5 -33t59.5 -41t37 -37.5l43 73q6 12 14 21.5t25 9.5h84q16 0 26.5 -12t6.5 -33l-117 -856q-2 -18 -16.5 -31.5t-30.5 -13.5h-84q-10 0 -21.5 7t-15.5 34l-16 72q-12 -12 -39 -36t-64 -45.5t-83 -38 t-99 -16.5q-82 0 -148.5 34t-113.5 92.5t-73 138.5t-26 170zM239 -291q0 39 15.5 73t40 58.5t58.5 39t71 14.5q61 0 100 -42t39 -102q0 -37 -15.5 -69.5t-41 -58t-58 -40t-69.5 -14.5q-61 0 -100.5 41t-39.5 100zM315 418q0 -39 9.5 -76t29 -64.5t50 -44t71.5 -16.5 q37 0 71 17.5t60.5 42t45 50t24.5 44.5l31 227q-4 18 -15.5 41t-33 43t-51 33.5t-66.5 13.5q-47 0 -88 -22.5t-72 -63.5t-48.5 -98.5t-17.5 -126.5zM369 1132.5q6 14.5 18 24.5l219 166q29 20 55 -2l174 -164q10 -8 14.5 -24.5t-8.5 -30.5l-47 -60q-25 -33 -55 -8l-119 94 l-153 -96q-20 -12 -32.5 -7t-23.5 17l-36 56q-12 20 -6 34.5z" />
<glyph unicode="&#x1eae;" horiz-adv-x="1267" d="M-57.5 16.5q-5.5 16.5 4.5 36.5l770 1379q12 23 35 22h18q20 0 29 -22l377 -1379q6 -20 -5.5 -36.5t-33.5 -16.5h-179q-45 0 -53 41l-51 227h-510l-119 -227q-8 -16 -24.5 -28.5t-40.5 -12.5h-189q-23 0 -28.5 16.5zM465 489h323l-96 447h-4zM582 1751q0 23 14 38t35 15 h57q16 0 25.5 -12t13.5 -25q4 -33 19.5 -53t46.5 -20q27 0 51 23.5t37 53.5q12 33 45 33h65q23 0 34 -17.5t5 -39.5q-25 -88 -91.5 -146.5t-160.5 -58.5q-84 0 -140 59.5t-56 149.5zM690 1941q-14 37 21 53l266 158q16 10 34.5 8t28.5 -22l39 -86q12 -20 4 -40t-26 -26 l-305 -137l-15 5q-14 5 -20 24z" />
<glyph unicode="&#x1eaf;" d="M59 412q0 115 36 216t100.5 176t152.5 119t193 44q49 0 92 -13.5t77.5 -33t59.5 -41t37 -37.5l43 73q6 12 14 21.5t25 9.5h84q16 0 26.5 -12t6.5 -33l-117 -856q-2 -18 -16.5 -31.5t-30.5 -13.5h-84q-10 0 -21.5 7t-15.5 34l-16 72q-12 -12 -39 -36t-64 -45.5t-83 -38 t-99 -16.5q-82 0 -148.5 34t-113.5 92.5t-73 138.5t-26 170zM315 418q0 -39 9.5 -76t29 -64.5t50 -44t71.5 -16.5q37 0 71 17.5t60.5 42t45 50t24.5 44.5l31 227q-4 18 -15.5 41t-33 43t-51 33.5t-66.5 13.5q-47 0 -88 -22.5t-72 -63.5t-48.5 -98.5t-17.5 -126.5zM410 1233 q0 23 14 38t35 15h57q16 0 25.5 -12t13.5 -25q4 -33 19.5 -53t46.5 -20q27 0 51 23.5t37 53.5q12 33 45 33h65q23 0 34 -17.5t5 -39.5q-25 -88 -91.5 -146.5t-160.5 -58.5q-84 0 -140 59.5t-56 149.5zM581 1421q-14 37 21 53l266 158q16 10 34.5 8t28.5 -22l39 -86 q12 -20 4 -40t-26 -26l-305 -137l-15 5q-14 5 -20 24z" />
<glyph unicode="&#x1eb0;" horiz-adv-x="1267" d="M-57.5 16.5q-5.5 16.5 4.5 36.5l770 1379q12 23 35 22h18q20 0 29 -22l377 -1379q6 -20 -5.5 -36.5t-33.5 -16.5h-179q-45 0 -53 41l-51 227h-510l-119 -227q-8 -16 -24.5 -28.5t-40.5 -12.5h-189q-23 0 -28.5 16.5zM465 489h323l-96 447h-4zM584 1753q0 23 14 38t35 15 h57q16 0 25.5 -12t13.5 -25q4 -33 19.5 -53t46.5 -20q27 0 51 23.5t37 53.5q12 33 45 33h65q23 0 34 -17.5t5 -39.5q-25 -88 -91.5 -146.5t-160.5 -58.5q-84 0 -140 59.5t-56 149.5zM597 1992.5q-5 18.5 11 41.5l47 69q16 27 37 27t31 -8l223 -158q12 -6 16.5 -22.5 t-6.5 -32.5l-32 -53q-23 -37 -62 -17l-246 127q-14 8 -19 26.5z" />
<glyph unicode="&#x1eb1;" d="M59 412q0 115 36 216t100.5 176t152.5 119t193 44q49 0 92 -13.5t77.5 -33t59.5 -41t37 -37.5l43 73q6 12 14 21.5t25 9.5h84q16 0 26.5 -12t6.5 -33l-117 -856q-2 -18 -16.5 -31.5t-30.5 -13.5h-84q-10 0 -21.5 7t-15.5 34l-16 72q-12 -12 -39 -36t-64 -45.5t-83 -38 t-99 -16.5q-82 0 -148.5 34t-113.5 92.5t-73 138.5t-26 170zM315 418q0 -39 9.5 -76t29 -64.5t50 -44t71.5 -16.5q37 0 71 17.5t60.5 42t45 50t24.5 44.5l31 227q-4 18 -15.5 41t-33 43t-51 33.5t-66.5 13.5q-47 0 -88 -22.5t-72 -63.5t-48.5 -98.5t-17.5 -126.5z M353 1474.5q-5 18.5 11 41.5l47 69q16 27 37 27t31 -8l223 -158q12 -6 16.5 -22.5t-6.5 -32.5l-32 -53q-23 -37 -62 -17l-246 127q-14 8 -19 26.5zM408 1233q0 23 14 38t35 15h57q16 0 25.5 -12t13.5 -25q4 -33 19.5 -53t46.5 -20q27 0 51 23.5t37 53.5q12 33 45 33h65 q23 0 34 -17.5t5 -39.5q-25 -88 -91.5 -146.5t-160.5 -58.5q-84 0 -140 59.5t-56 149.5z" />
<glyph unicode="&#x1eb2;" horiz-adv-x="1267" d="M-57.5 16.5q-5.5 16.5 4.5 36.5l770 1379q12 23 35 22h18q20 0 29 -22l377 -1379q6 -20 -5.5 -36.5t-33.5 -16.5h-179q-45 0 -53 41l-51 227h-510l-119 -227q-8 -16 -24.5 -28.5t-40.5 -12.5h-189q-23 0 -28.5 16.5zM465 489h323l-96 447h-4zM582 1753q0 23 14 38t35 15 h57q16 0 25.5 -12t13.5 -25q4 -33 19.5 -53t46.5 -20q27 0 51 23.5t37 53.5q12 33 45 33h65q23 0 34 -17.5t5 -39.5q-25 -88 -91.5 -146.5t-160.5 -58.5q-84 0 -140 59.5t-56 149.5zM713 2004q-18 13 6 28q49 29 109 44q41 10 76 10q70 0 112 -32q43 -34 29 -81 q-12 -43 -84 -83q-37 -19 -70 -46q-27 -25 -34 -25h-87q-27 0 -20 23q12 43 82 77q18 9 41 23t10 32q-10 14 -31 14q-25 -2 -53 -14q-37 -20 -49 -8z" />
<glyph unicode="&#x1eb3;" d="M59 412q0 115 36 216t100.5 176t152.5 119t193 44q49 0 92 -13.5t77.5 -33t59.5 -41t37 -37.5l43 73q6 12 14 21.5t25 9.5h84q16 0 26.5 -12t6.5 -33l-117 -856q-2 -18 -16.5 -31.5t-30.5 -13.5h-84q-10 0 -21.5 7t-15.5 34l-16 72q-12 -12 -39 -36t-64 -45.5t-83 -38 t-99 -16.5q-82 0 -148.5 34t-113.5 92.5t-73 138.5t-26 170zM315 418q0 -39 9.5 -76t29 -64.5t50 -44t71.5 -16.5q37 0 71 17.5t60.5 42t45 50t24.5 44.5l31 227q-4 18 -15.5 41t-33 43t-51 33.5t-66.5 13.5q-47 0 -88 -22.5t-72 -63.5t-48.5 -98.5t-17.5 -126.5zM408 1233 q0 23 14 38t35 15h57q16 0 25.5 -12t13.5 -25q4 -33 19.5 -53t46.5 -20q27 0 51 23.5t37 53.5q12 33 45 33h65q23 0 34 -17.5t5 -39.5q-25 -88 -91.5 -146.5t-160.5 -58.5q-84 0 -140 59.5t-56 149.5zM557 1569q-18 18 6 38q49 39 109 58q41 14 76 14q70 0 112 -43 q43 -45 29 -108q-12 -57 -84 -111q-37 -25 -70 -61q-27 -33 -34 -33h-87q-27 0 -20 31q12 57 82 102q18 12 41 31q23 18 10 43q-10 18 -31 18q-25 -2 -53 -18q-37 -27 -49 -11z" />
</font>
</defs>
</svg>
