<?xml version="1.0" standalone="no"?>
<!DOCTYPE svg PUBLIC "-//W3C//DTD SVG 1.1//EN" "http://www.w3.org/Graphics/SVG/1.1/DTD/svg11.dtd" >
<svg xmlns="http://www.w3.org/2000/svg">
<metadata></metadata>
<defs>
<font id="brandon_textlight_italic" horiz-adv-x="1058" >
<font-face units-per-em="2048" ascent="1434" descent="-614" />
<missing-glyph horiz-adv-x="491" />
<glyph unicode="&#xfb01;" horiz-adv-x="1073" d="M82 -457l182 1317h-139q-18 0 -24.5 10.5t-2.5 26.5l4 18q2 12 12.5 21.5t22.5 9.5h137l17 113q31 211 133 303t250 92q55 0 103 -13.5t86 -32.5t64.5 -40.5t41.5 -36.5q14 -18 -2 -37l-25 -28q-14 -20 -39 -2q-16 12 -36.5 29.5t-48 33.5t-63.5 27.5t-81 11.5 q-123 0 -194.5 -71.5t-94.5 -235.5l-16 -113h553q14 0 21 -9t5 -22l-125 -884q-4 -31 -28 -31h-37q-10 0 -18.5 9t-6.5 22l115 829h-492l-182 -1317q-2 -10 -11 -20t-20 -10h-34q-14 0 -21.5 10t-5.5 20z" />
<glyph unicode="&#xfb02;" horiz-adv-x="1142" d="M86 -457l182 1317h-143q-16 0 -22.5 10.5t-4.5 20.5l4 24q2 12 12.5 21.5t22.5 9.5h139l17 107q14 104 53 180t93.5 125t121 72.5t133.5 23.5q57 0 106.5 -15.5t86.5 -37t60.5 -42t29.5 -28.5l20 76q4 12 9.5 19.5t27.5 7.5h15q12 0 18 -9.5t4 -19.5l-197 -1374 q-2 -16 -12 -23.5t-20 -7.5h-31q-12 0 -19.5 9t-5.5 22l168 1198q-6 8 -25.5 30.5t-52 46t-78.5 42t-104 18.5q-53 0 -102 -18.5t-91 -57.5t-72 -97t-42 -140l-16 -107h305q31 0 24 -28l-6 -31q-4 -27 -32 -27h-304l-182 -1317q-2 -10 -11 -20t-20 -10h-34q-14 0 -20.5 10 t-4.5 20z" />
<glyph unicode="ffh" horiz-adv-x="2299" d="M80 -457l182 1317h-135q-16 0 -21.5 10.5t-5.5 20.5l4 24q4 12 14.5 21.5t22.5 9.5h133l9 60q16 117 55 198.5t93 133t120.5 74t140.5 22.5q57 0 104.5 -11.5t85.5 -28t64.5 -35t42.5 -32.5q53 68 129 97.5t154 29.5q57 0 106 -15.5t86 -37t60.5 -42t29.5 -28.5l21 76 q4 12 9 19.5t28 7.5h10q10 0 19.5 -9.5t7.5 -19.5l-84 -582q10 12 35.5 36t65.5 47.5t93 42t119 18.5q154 0 217.5 -104.5t32.5 -317.5l-72 -514q-2 -12 -11 -21.5t-22 -9.5h-30q-14 0 -21.5 9t-5.5 22l72 514q23 176 -20.5 255t-157.5 79q-68 0 -123.5 -25t-96.5 -54.5 t-65.5 -56t-26.5 -30.5l-96 -682q-4 -31 -33 -31h-30q-12 0 -19.5 9t-5.5 22l168 1198q-6 8 -25.5 30.5t-52.5 46t-79 42t-103 18.5q-117 0 -202 -83t-107 -230l-15 -107h305q31 0 25 -28l-6 -31q-4 -27 -33 -27h-303l-182 -1317q-2 -10 -11.5 -20t-19.5 -10h-33 q-12 0 -20 10t-6 20l182 1317h-492l-182 -1317q-2 -14 -13.5 -22t-25.5 -8h-27q-14 0 -21 10t-5 20zM369 946h485l14 105q8 53 25.5 105t40.5 93q-12 12 -36 28.5t-56.5 31t-71.5 24.5t-82 10q-129 0 -207 -77.5t-104 -261.5z" />
<glyph unicode="fk" horiz-adv-x="1564" d="M86 -457l182 1317h-143q-16 0 -22.5 10.5t-4.5 20.5l4 24q2 12 12.5 21.5t22.5 9.5h139l17 107q14 104 53 180t93.5 125t121 72.5t133.5 23.5q57 0 106.5 -15.5t86.5 -37t60.5 -42t29.5 -28.5l20 76q4 12 9.5 19.5t27.5 7.5h15q10 0 17 -9.5t5 -19.5l-121 -840l471 367 q16 14 37 14h64q18 0 20 -13t-14 -26l-500 -391l387 -475q12 -14 4 -27.5t-22 -13.5h-37q-14 0 -23.5 1t-21.5 17l-375 471l-66 -458q-4 -31 -32 -31h-31q-12 0 -19.5 9t-5.5 22l168 1198q-6 8 -25.5 30.5t-52 46t-78.5 42t-104 18.5q-53 0 -102 -18.5t-91 -57.5t-72 -97 t-42 -140l-16 -107h305q31 0 24 -28l-6 -31q-4 -27 -32 -27h-304l-182 -1317q-2 -10 -11 -20t-20 -10h-34q-14 0 -20.5 10t-4.5 20z" />
<glyph unicode="fj" horiz-adv-x="1073" d="M82 -457l182 1317h-139q-18 0 -24.5 10.5t-2.5 26.5l4 18q2 12 12.5 21.5t22.5 9.5h137l17 113q31 211 133 303t250 92q55 0 103 -13.5t86 -32.5t64.5 -40.5t41.5 -36.5q14 -18 -2 -37l-25 -28q-14 -20 -39 -2q-16 12 -36.5 29.5t-48 33.5t-63.5 27.5t-81 11.5 q-123 0 -194.5 -71.5t-94.5 -235.5l-16 -113h553q14 0 21 -9t5 -22l-149 -1060q-12 -88 -36 -147.5t-59.5 -100.5t-83 -66.5t-106.5 -44.5q-37 -12 -45 17l-8 26q-4 12 2 26.5t24 18.5q84 20 143.5 74.5t76.5 177.5l141 1024h-492l-182 -1317q-2 -10 -11 -20t-20 -10h-34 q-14 0 -21.5 10t-5.5 20z" />
<glyph unicode="ffj" horiz-adv-x="1652" d="M80 -457l182 1317h-135q-16 0 -21.5 10.5t-5.5 20.5l4 24q4 12 14.5 21.5t22.5 9.5h131l9 60q16 117 56 198.5t98.5 133t131 74t152.5 22.5q104 0 167.5 -37t92.5 -68q53 68 124 96.5t148 28.5q55 0 104.5 -13.5t87.5 -32.5t65.5 -40.5t41.5 -36.5q14 -18 -2 -37l-24 -28 q-14 -20 -39 -2q-16 12 -37 29.5t-49.5 33.5t-64.5 27.5t-81 11.5q-123 0 -196.5 -76t-95.5 -252l-13 -92h553q14 0 21.5 -9t5.5 -22l-150 -1060q-12 -88 -35.5 -147.5t-59.5 -100.5t-84 -66.5t-107 -44.5q-37 -12 -45 17l-9 26q-4 12 2.5 26.5t24.5 18.5q84 20 144.5 74.5 t76.5 177.5l141 1024h-491l-182 -1317q-2 -10 -11.5 -20t-19.5 -10h-35q-12 0 -20.5 10t-5.5 20l182 1317h-490l-182 -1317q-2 -14 -13.5 -22t-25.5 -8h-27q-14 0 -21 10t-5 20zM367 946h489l14 105q8 53 23.5 106t34.5 94q-23 29 -79 60.5t-142 31.5q-135 0 -220.5 -77.5 t-111.5 -261.5z" />
<glyph unicode="fb" horiz-adv-x="1744" d="M86 -457l182 1317h-143q-16 0 -22.5 10.5t-4.5 20.5l4 24q2 12 12.5 21.5t22.5 9.5h139l17 107q14 104 53 180t93.5 125t121 72.5t133.5 23.5q57 0 106.5 -15.5t86.5 -37t60.5 -42t29.5 -28.5l20 76q4 12 8.5 19.5t24.5 7.5h17q10 0 17 -9.5t5 -19.5l-78 -531 q35 25 80 46q37 16 89 31.5t112 15.5q74 0 137.5 -33t109.5 -90.5t72.5 -136t26.5 -170.5q0 -113 -37 -215.5t-99.5 -179t-147.5 -122t-179 -45.5q-61 0 -109.5 17.5t-82 40t-53 47t-25.5 37.5l-21 -86q-8 -31 -37 -31h-16q-12 0 -19.5 9t-5.5 22l168 1198q-6 8 -25.5 30.5 t-52 46t-78.5 42t-104 18.5q-53 0 -102 -18.5t-91 -57.5t-72 -97t-42 -140l-16 -107h305q31 0 24 -28l-6 -31q-4 -27 -32 -27h-304l-182 -1317q-2 -10 -11 -20t-20 -10h-34q-14 0 -20.5 10t-4.5 20zM903 229q2 -4 17.5 -30.5t46 -56t78 -54.5t114.5 -25q74 0 139.5 39 t116.5 103.5t81 150.5t30 179q0 72 -20.5 134t-57.5 109t-89 74t-116 27q-55 0 -103 -15.5t-83 -34.5q-41 -23 -76 -49z" />
<glyph unicode="ffk" horiz-adv-x="2142" d="M80 -457l182 1317h-135q-16 0 -21.5 10.5t-5.5 20.5l4 24q4 12 14.5 21.5t22.5 9.5h133l9 60q16 117 55 198.5t93 133t120.5 74t140.5 22.5q57 0 104.5 -11.5t85.5 -28t64.5 -35t42.5 -32.5q53 68 129 97.5t154 29.5q57 0 106 -15.5t86 -37t60.5 -42t29.5 -28.5l21 76 q4 12 9 19.5t28 7.5h10q10 0 19.5 -9.5t7.5 -19.5l-121 -840l471 367q16 14 37 14h63q18 0 20.5 -13t-14.5 -26l-499 -391l387 -475q12 -14 4 -27.5t-23 -13.5h-37q-14 0 -23 1t-22 17l-374 471l-66 -458q-4 -31 -33 -31h-30q-12 0 -19.5 9t-5.5 22l168 1198 q-6 8 -25.5 30.5t-52.5 46t-79 42t-103 18.5q-117 0 -202 -83t-107 -230l-15 -107h305q31 0 25 -28l-6 -31q-4 -27 -33 -27h-303l-182 -1317q-2 -10 -11.5 -20t-19.5 -10h-33q-12 0 -20 10t-6 20l182 1317h-492l-182 -1317q-2 -14 -13.5 -22t-25.5 -8h-27q-14 0 -21 10 t-5 20zM369 946h485l14 105q8 53 25.5 105t40.5 93q-12 12 -36 28.5t-56.5 31t-71.5 24.5t-82 10q-129 0 -207 -77.5t-104 -261.5z" />
<glyph unicode="fh" horiz-adv-x="1722" d="M86 -457l182 1317h-143q-16 0 -22.5 10.5t-4.5 20.5l4 24q2 12 12.5 21.5t22.5 9.5h139l17 107q14 104 53 180t93.5 125t121 72.5t133.5 23.5q57 0 106.5 -15.5t86.5 -37t60.5 -42t29.5 -28.5l20 76q4 12 9.5 19.5t27.5 7.5h10q14 0 21.5 -9.5t5.5 -19.5l-84 -582 q10 12 36 36t65.5 47.5t93 42t118.5 18.5q154 0 217.5 -104.5t32.5 -317.5l-71 -514q-2 -12 -11.5 -21.5t-21.5 -9.5h-31q-14 0 -21.5 9t-4.5 22l71 514q23 176 -20 255t-158 79q-68 0 -123 -25t-96 -54.5t-65.5 -56t-26.5 -30.5l-97 -682q-4 -31 -32 -31h-31q-12 0 -19.5 9 t-5.5 22l168 1198q-6 8 -25.5 30.5t-52 46t-78.5 42t-104 18.5q-53 0 -102 -18.5t-91 -57.5t-72 -97t-42 -140l-16 -107h305q31 0 24 -28l-6 -31q-4 -27 -32 -27h-304l-182 -1317q-2 -10 -11 -20t-20 -10h-34q-14 0 -20.5 10t-4.5 20z" />
<glyph unicode="ffb" horiz-adv-x="2324" d="M80 -457l182 1317h-135q-16 0 -21.5 10.5t-5.5 20.5l4 24q4 12 14.5 21.5t22.5 9.5h133l9 60q16 117 55 198.5t93 133t120.5 74t140.5 22.5q57 0 104.5 -11.5t85.5 -28t64.5 -35t42.5 -32.5q53 68 129 97.5t154 29.5q57 0 106 -15.5t86 -37t60.5 -42t29.5 -28.5l21 76 q4 12 9 19.5t28 7.5h10q10 0 18.5 -9.5t6.5 -19.5l-78 -531q35 25 80 46q37 16 89 31.5t111 15.5q74 0 137.5 -33t109.5 -90.5t72.5 -136t26.5 -170.5q0 -113 -36.5 -215.5t-99 -179t-147.5 -122t-179 -45.5q-61 0 -109.5 17.5t-82.5 40t-53.5 47t-25.5 37.5l-20 -86 q-8 -31 -37 -31h-16q-12 0 -19.5 9t-5.5 22l168 1198q-6 8 -25.5 30.5t-52.5 46t-79 42t-103 18.5q-117 0 -202 -83t-107 -230l-15 -107h305q31 0 25 -28l-6 -31q-4 -27 -33 -27h-303l-182 -1317q-2 -10 -11.5 -20t-19.5 -10h-33q-12 0 -20 10t-6 20l182 1317h-492 l-182 -1317q-2 -14 -13.5 -22t-25.5 -8h-27q-14 0 -21 10t-5 20zM369 946h485l14 105q8 53 25.5 105t40.5 93q-12 12 -36 28.5t-56.5 31t-71.5 24.5t-82 10q-129 0 -207 -77.5t-104 -261.5zM1481 229q2 -4 17 -30.5t46 -56t78 -54.5t115 -25q74 0 139.5 39t116.5 103.5 t80.5 150.5t29.5 179q0 72 -20.5 134t-57 109t-89 74t-115.5 27q-55 0 -103.5 -15.5t-83.5 -34.5q-41 -23 -75 -49z" />
<glyph unicode="&#xd;" horiz-adv-x="0" />
<glyph unicode=" "  horiz-adv-x="491" />
<glyph unicode="&#x09;" horiz-adv-x="491" />
<glyph unicode="&#xa0;" horiz-adv-x="491" />
<glyph unicode="!" horiz-adv-x="512" d="M102 51q0 41 29 66.5t64 25.5q31 0 49 -20.5t18 -50.5q0 -39 -26.5 -65.5t-63.5 -26.5q-31 0 -50.5 21t-19.5 50zM221 575l96 832q2 16 12.5 21.5t20.5 5.5h53q27 0 23 -27l-137 -832q-4 -10 -11.5 -17t-17.5 -7h-16q-10 0 -17.5 7t-5.5 17z" />
<glyph unicode="&#x22;" horiz-adv-x="643" d="M209 1049l51 358q4 27 31 27h45q25 0 18 -33l-86 -352q-8 -23 -22 -23h-23q-16 0 -14 23zM485 1049l54 358q4 27 28 27h45q25 0 19 -33l-86 -352q-4 -23 -23 -23h-22q-16 0 -15 23z" />
<glyph unicode="#" horiz-adv-x="1075" d="M96 449l2 14q4 23 27 22h158l108 373h-160q-27 0 -22 27l2 12q4 27 29 27h170l139 487q6 23 29 23h12q12 0 17 -9.5t1 -21.5l-137 -479h297l139 487q6 23 29 23h10q12 0 17.5 -9.5t1.5 -21.5l-136 -479h150q25 0 20 -27l-2 -12q-4 -27 -26 -27h-158l-108 -373h157 q27 0 23 -26l-2 -15q-4 -23 -27 -22h-170l-115 -399q-8 -23 -28 -23h-13q-29 0 -18 31l113 391h-299l-113 -399q-8 -23 -29 -23h-12q-29 0 -18 31l112 391h-151q-23 0 -19 27zM346 485h297l107 373h-295z" />
<glyph unicode="$" horiz-adv-x="1228" d="M165 167.5q-5 12.5 9 25.5l29 26q23 20 43 -6q12 -14 32.5 -36.5t54.5 -45t81 -41t110 -22.5l86 614q-145 55 -231 145.5t-86 229.5q0 59 24.5 126.5t76.5 125t133 97.5t192 46l10 76q2 14 11.5 20t19.5 6h8q27 0 23 -26l-13 -78q61 -4 111.5 -20.5t85.5 -34.5 q41 -23 74 -47q4 -4 8 -12.5t-4 -18.5l-35 -49q-10 -18 -33 0q-16 16 -71.5 50t-147.5 44q-20 -152 -42 -305.5t-44 -304.5q147 -61 233 -145.5t86 -221.5q0 -88 -36.5 -160.5t-96 -125t-137.5 -84t-160 -35.5l-30 -222q-4 -25 -31 -24q-12 0 -21.5 5t-7.5 19l33 222 q-86 8 -146.5 31.5t-100.5 51t-61.5 52t-27.5 32.5t-11 20.5zM389 1065q0 -113 63.5 -178.5t172.5 -110.5l82 588q-84 -4 -144.5 -35t-98.5 -75t-56.5 -94t-18.5 -95zM582 68q61 4 118.5 28.5t101.5 65.5t70.5 96t26.5 119q0 100 -62.5 165.5t-170.5 112.5z" />
<glyph unicode="%" horiz-adv-x="1286" d="M164 8q-4 8 4 21l891 1390q6 10 14 12.5t14 2.5h37q12 0 16.5 -8.5t-3.5 -20.5l-887 -1385q-10 -16 -19.5 -18t-15.5 -2h-35q-12 0 -16 8zM182 1133q0 68 24.5 126t66.5 101t95.5 68.5t110.5 25.5q47 0 87 -19.5t69 -52t45 -76.5t16 -96q0 -68 -24.5 -126t-66.5 -101 t-95.5 -68.5t-110.5 -25.5q-47 0 -87 19.5t-68.5 52t-45 76.5t-16.5 96zM262 1143q0 -74 41 -126t107 -52q41 0 77.5 18t65.5 51t46 75t17 91q0 72 -40.5 124t-106.5 52q-41 0 -79 -18.5t-66.5 -50t-45 -74.5t-16.5 -90zM633 223q0 66 24.5 124.5t65.5 102.5t94 69.5 t113 25.5q47 0 86 -19.5t67.5 -53.5t45 -78t16.5 -95q0 -66 -24.5 -124t-65.5 -102t-94.5 -70t-110.5 -26q-49 0 -89 19.5t-68.5 53.5t-44 78t-15.5 95zM711 231q0 -74 42 -125t107 -51q39 0 77 18.5t66.5 50.5t46 74t17.5 91q0 72 -42 124t-107 52q-41 0 -78 -18.5t-66 -50 t-46 -75t-17 -90.5z" />
<glyph unicode="&#x26;" horiz-adv-x="1249" d="M104 301q0 94 31 167t79 130t107.5 99t116.5 75l-37 47q-45 59 -72.5 122t-27.5 151q0 76 26.5 142t75 115.5t115 77t148.5 27.5q66 0 114.5 -22.5t81.5 -59.5t49.5 -85t16.5 -99q0 -80 -34 -144.5t-87 -119t-118.5 -97.5t-127.5 -77l305 -408q37 41 68 96.5t54.5 116.5 t36.5 124.5t13 121.5q0 18 17 18h45q14 0 17 -6t3 -16q0 -123 -49 -259.5t-149 -263.5l157 -206q10 -10 15.5 -24.5t-9.5 -25.5l-32 -24q-16 -12 -25.5 -8t-15.5 12l-150 203q-59 -61 -129 -111q-59 -41 -141 -75.5t-174 -34.5q-76 0 -134.5 25.5t-98.5 70.5t-60.5 102 t-20.5 123zM195 313q0 -53 17 -99t49 -80t75 -53.5t94 -19.5q78 0 147.5 32t122.5 71q61 45 111 104l-326 443q-51 -31 -103 -68t-93 -85t-67.5 -108.5t-26.5 -136.5zM385 1094q0 -61 23.5 -117.5t60.5 -106.5l45 -57q55 31 111.5 68t102.5 81t76 97t30 117q0 37 -10.5 72.5 t-33 63t-57.5 45t-84 17.5q-55 0 -103 -23.5t-84 -63.5t-56.5 -90t-20.5 -103z" />
<glyph unicode="'" horiz-adv-x="364" d="M207 1049l53 358q4 27 29 27h45q25 0 18 -33l-86 -352q-8 -23 -22 -23h-23q-16 0 -14 23z" />
<glyph unicode="(" horiz-adv-x="669" d="M125 424q0 285 53 479.5t136 315t184.5 175t199.5 60.5q23 0 23 -18l-2 -31q0 -10 -6 -17.5t-13 -7.5q-111 -16 -199.5 -81.5t-152 -184.5t-98.5 -290t-35 -398q0 -244 75 -366.5t204 -143.5q18 -4 12 -25l-8 -34q-2 -16 -25 -17q-68 4 -130 37t-110.5 101.5t-78 178 t-29.5 267.5z" />
<glyph unicode=")" horiz-adv-x="667" d="M-33 -143l2 37q1 20 21 24q223 33 353 264.5t130 683.5q0 242 -73.5 368t-202.5 146q-23 0 -15 27l6 29q2 18 29 18q66 -4 128.5 -37t110.5 -102.5t76.5 -180t28.5 -268.5q0 -285 -52 -479t-134 -314t-183.5 -174.5t-199.5 -58.5q-25 0 -25 17z" />
<glyph unicode="*" horiz-adv-x="798" d="M221 1008.5q2 9.5 12 15.5l181 113l-150 112q-6 4 -8 15.5t6 19.5l14 16q6 8 14.5 11.5t18.5 -2.5l142 -113l28 211q2 10 10.5 18.5t18.5 8.5h16q27 0 23 -27l-33 -211l172 115q10 8 20.5 5t14.5 -13l6 -17q8 -23 -12 -35l-180 -114l149 -115q8 -4 8 -14.5t-4 -18.5 l-12 -18q-6 -10 -17.5 -12.5t-19.5 4.5l-141 114l-27 -211q-4 -27 -31 -26h-14q-27 0 -23 26l31 211l-170 -112q-10 -6 -20.5 -4t-14.5 12l-6 16q-4 10 -2 19.5z" />
<glyph unicode="+" horiz-adv-x="1228" d="M250 694l6 33q4 27 29 27h313l49 352q4 25 29 24h33q27 0 22 -24l-49 -352h311q27 0 23 -27l-6 -33q-4 -27 -29 -26h-311l-49 -351q-4 -27 -29 -26h-35q-10 0 -16 8t-4 18l49 351h-314q-27 0 -22 26z" />
<glyph unicode="," horiz-adv-x="456" d="M39 -311.5q4 6.5 12 14.5q51 51 94 113.5t43 140.5q0 31 -10 51q-23 -23 -53 -22q-29 0 -46.5 18t-17.5 47q0 39 29 66.5t70 27.5q51 0 77.5 -46t26.5 -111q0 -96 -48 -183.5t-124 -152.5q-14 -12 -26 0l-21 20q-10 10 -6 16.5z" />
<glyph unicode="-" horiz-adv-x="770" d="M143 500l2 22q4 27 29 27h410q27 0 22 -27l-2 -22q-4 -27 -31 -27h-409q-25 0 -21 27z" />
<glyph unicode="." horiz-adv-x="442" d="M59 59q0 47 33 77t76 30q35 0 55.5 -23.5t20.5 -60.5q0 -43 -31 -74t-74 -31q-35 0 -57.5 23.5t-22.5 58.5z" />
<glyph unicode="/" horiz-adv-x="727" d="M47 29l594 1388q6 16 27 17h32q33 0 19 -29l-596 -1387q-4 -10 -12.5 -14t-14.5 -4h-30q-12 0 -18.5 7t-0.5 22z" />
<glyph unicode="0" horiz-adv-x="1265" d="M172 530q0 207 41 377t118 292t184.5 188.5t242.5 66.5q92 0 162.5 -39t117.5 -110.5t72 -174t25 -229.5q0 -207 -41 -377t-116 -290.5t-183.5 -187t-243.5 -66.5q-186 0 -282.5 148t-96.5 402zM266 535q0 -219 75 -344t222 -125q111 0 200 59t150.5 168.5t94 262.5 t32.5 339q0 217 -74.5 343t-220.5 126q-113 0 -201.5 -60.5t-150 -169t-94.5 -261t-33 -338.5z" />
<glyph unicode="1" horiz-adv-x="671" d="M154 1120q-12 16 6 33l321 268q12 12 37 13h21q8 0 14 -7.5t4 -17.5l-195 -1382q-4 -27 -32 -27h-41q-10 0 -18.5 8t-6.5 19l185 1249h-3l-235 -195q-18 -12 -31 2z" />
<glyph unicode="2" horiz-adv-x="1060" d="M35 25l2 18q2 20 16 35l561 547q131 125 201 232.5t70 227.5q0 51 -14.5 101.5t-47 88.5t-84 61.5t-125.5 23.5q-59 0 -108 -22.5t-88 -51.5t-65.5 -56.5t-37.5 -39.5q-20 -25 -39 -8l-32 24q-18 14 2 39q31 37 69.5 74t87 66.5t103.5 49t119 19.5q92 0 160.5 -28.5 t112.5 -78t66.5 -113t22.5 -132.5q0 -82 -23.5 -151.5t-65.5 -134t-98.5 -126t-121.5 -125.5l-485 -477v-2h616q10 0 18.5 -8t6.5 -19l-7 -32q-2 -10 -10 -18.5t-18 -8.5h-740q-12 0 -18 7t-6 18z" />
<glyph unicode="3" horiz-adv-x="1099" d="M76 178q-8 18 6 29l37 24q20 14 35 -10q8 -16 27.5 -41.5t53 -52.5t85 -45.5t124.5 -18.5q76 0 144.5 26t119 73t80 111.5t29.5 144.5q0 66 -25.5 116t-67.5 83.5t-93 51t-101 17.5h-178q-18 0 -22 6t-2 17l6 43q2 25 33 24h168q61 0 122.5 23.5t110.5 66.5t81 105.5 t32 140.5q0 113 -66.5 181.5t-171.5 68.5q-66 0 -120 -20.5t-95 -47t-67.5 -53.5t-36.5 -37q-16 -16 -33 0l-29 31q-8 6 -7 16.5t9 18.5q23 25 60.5 57.5t87 60t110 47t129.5 19.5q74 0 135.5 -23.5t104.5 -65.5t67.5 -101.5t24.5 -130.5q0 -74 -22.5 -138.5t-59.5 -115 t-84 -88t-98 -60.5v-4q37 -14 72.5 -42t63.5 -66.5t45.5 -88t17.5 -104.5q0 -92 -36 -173t-99.5 -142.5t-153.5 -96t-197 -34.5q-86 0 -148.5 23.5t-104.5 55t-66.5 65.5t-36.5 54z" />
<glyph unicode="4" horiz-adv-x="1189" d="M43 354l2 23q2 20 16 37l895 1024q14 16 35 16h15q8 0 13 -5t3 -22l-141 -1013h145q27 0 23 -27l-5 -31q-2 -10 -10 -18t-18 -8h-148l-43 -303q-4 -27 -28 -27h-43q-16 0 -19.5 9t-1.5 20l43 301h-702q-35 0 -31 24zM174 414h617l124 854h-4l-737 -850v-4z" />
<glyph unicode="5" horiz-adv-x="1112" d="M98 178q-8 18 6 29l41 24q18 14 33 -10q10 -16 28.5 -41.5t52.5 -52.5t84 -45.5t124 -18.5q86 0 162 38t131 100.5t87 146.5t32 176q0 129 -74 210t-227 81h-310q-20 0 -28.5 13.5t-6.5 29.5l76 549q4 27 33 27h592q10 0 16 -8.5t4 -18.5l-4 -33q-4 -29 -28 -28h-533 l-63 -443h264q193 0 291 -97t98 -280q0 -111 -41 -210t-112.5 -173.5t-167 -118.5t-201.5 -44q-86 0 -148.5 23.5t-105.5 55t-68 65.5t-37 54z" />
<glyph unicode="6" horiz-adv-x="1130" d="M139 459q0 166 42 300t110.5 240.5t152.5 186.5t169 137t160 94t124 58q23 6 31 -23l8 -25q10 -27 -27 -38q-43 -16 -130 -60.5t-182 -119t-182 -182t-132 -251.5h2q14 18 47 44t80 49.5t107.5 41t129.5 17.5q74 0 138.5 -29t112.5 -80t77 -124.5t29 -162.5 q0 -115 -41 -215t-111 -175.5t-159 -118.5t-187 -43q-96 0 -165 37.5t-115 102t-67.5 153t-21.5 186.5zM229 469q0 -78 17.5 -151.5t52.5 -130t90 -90.5t131 -34q74 0 144.5 37t126 98.5t88 143.5t32.5 174q0 70 -21.5 129.5t-58 102.5t-88 67.5t-110.5 24.5 q-82 0 -151.5 -32t-120 -71t-80 -72.5t-31.5 -35.5q-6 -20 -10 -43q-10 -47 -11 -117z" />
<glyph unicode="7" horiz-adv-x="954" d="M157 11.5q1 11.5 5 21.5l721 1308v5h-680q-14 0 -21.5 6t-3.5 26l4 31q2 14 11.5 19.5t21.5 5.5h766q16 0 21.5 -9.5t5.5 -19.5q0 -6 -1 -12.5t-12 -22.5l-733 -1345q-6 -10 -12 -17.5t-21 -7.5h-57q-16 0 -15 11.5z" />
<glyph unicode="8" horiz-adv-x="1169" d="M125 319q0 84 29.5 153t77 121t105.5 87t118 51q0 2 2 4q-41 14 -77 42t-62.5 67t-43 86t-16.5 100q0 84 28.5 161t85 135t139.5 93t189 35q84 0 149.5 -26.5t110 -71.5t68 -105.5t23.5 -128.5q0 -76 -26 -139t-68 -112.5t-94 -83t-107 -52.5v-4q45 -12 87 -39.5 t73.5 -67.5t51 -90.5t19.5 -111.5q0 -205 -127 -323.5t-360 -118.5q-170 0 -272.5 89.5t-102.5 249.5zM217 334q0 -70 22.5 -122t62.5 -86t92 -50.5t114 -16.5q78 0 146.5 22.5t120.5 67t83 109t31 148.5q0 104 -77 184t-214 94q-86 -8 -155.5 -39t-120 -78t-78 -107 t-27.5 -126zM350 1044q0 -115 68.5 -181.5t193.5 -76.5q158 12 250 98.5t92 227.5q0 51 -17 99.5t-50 84t-83 57t-114 21.5q-78 0 -140.5 -28.5t-106.5 -74.5t-68.5 -105.5t-24.5 -121.5z" />
<glyph unicode="9" horiz-adv-x="1130" d="M164 907q0 113 42 213.5t111.5 174t158.5 116.5t186 43q94 0 163.5 -37t115.5 -100.5t67.5 -150.5t21.5 -185q0 -166 -42 -300t-110.5 -240.5t-152.5 -186.5t-169 -138.5t-159.5 -95t-124.5 -57.5q-23 -6 -28 17l-11 30q-6 16 2.5 25.5t24.5 15.5q29 10 78 32.5 t108.5 58.5t125 86.5t126 115t109.5 144t80 176.5h-2q-14 -18 -47 -44t-80 -50.5t-107.5 -42t-130.5 -17.5q-74 0 -138.5 28.5t-112.5 81t-76.5 125t-28.5 162.5zM258 922q0 -70 21.5 -129.5t58.5 -102.5t88.5 -66.5t110.5 -23.5q82 0 151.5 32t119.5 70.5t80 71.5t32 37 q4 18 10 43q4 20 7 50t3 67q0 78 -17.5 150.5t-52 128t-90 88t-131.5 32.5q-74 0 -144.5 -36t-125.5 -96t-88 -142t-33 -174z" />
<glyph unicode=":" horiz-adv-x="493" d="M84 59q0 47 33 77t73 30q35 0 55.5 -23.5t20.5 -60.5q0 -43 -29.5 -74t-72.5 -31q-35 0 -57.5 23.5t-22.5 58.5zM195 864q0 43 33.5 73t74.5 30q35 0 56.5 -22.5t21.5 -55.5q0 -47 -30.5 -79t-71.5 -32q-35 0 -59.5 25.5t-24.5 60.5z" />
<glyph unicode=";" horiz-adv-x="534" d="M72 -311.5q4 6.5 12 14.5q51 51 94 113.5t43 140.5q0 31 -10 51q-23 -23 -53 -22q-29 0 -46.5 18t-17.5 47q0 39 29 66.5t70 27.5q51 0 77.5 -46t26.5 -111q0 -96 -48 -183.5t-124 -152.5q-14 -12 -27 0l-20 20q-10 10 -6 16.5zM209 860q0 47 32.5 77t73.5 30 q35 0 56.5 -22.5t21.5 -55.5q0 -47 -30.5 -79t-71.5 -32q-37 0 -59.5 25.5t-22.5 56.5z" />
<glyph unicode="&#x3c;" horiz-adv-x="1228" d="M225 467v4q0 16 25 33l717 459q12 8 22 3t8 -24l-4 -53q0 -6 -4 -13.5t-18 -17.5l-615 -391l506 -383q10 -8 12.5 -18.5t-0.5 -16.5l-6 -33q-4 -18 -15 -23t-24 3l-587 444q-16 14 -17 27z" />
<glyph unicode="=" horiz-adv-x="1228" d="M266 350l4 35q2 10 7.5 18.5t21.5 8.5h575q27 0 23 -27l-4 -35q-4 -27 -31 -26h-575q-16 0 -19.5 8t-1.5 18zM326 776l4 35q2 10 8 18.5t22 8.5h576q10 0 16 -8.5t4 -18.5l-4 -35q-4 -27 -28 -26h-576q-16 0 -20 8t-2 18z" />
<glyph unicode="&#x3e;" horiz-adv-x="1228" d="M201 16l6 54q4 20 20 30l613 377l-504 393q-16 10 -12 33l6 39q4 18 16 24.5t25 -3.5l583 -459q16 -14 17 -31v-2q0 -16 -25 -31l-713 -444q-12 -8 -23 -3t-9 23z" />
<glyph unicode="?" horiz-adv-x="868" d="M203 1264.5q4 9.5 10 19.5q31 47 82 84q41 33 106.5 59.5t157.5 26.5q61 0 110.5 -20.5t83 -54t51 -78t17.5 -93.5q0 -76 -29.5 -133t-73.5 -102t-92 -80t-85 -64q-84 -66 -92 -124l-17 -117q-4 -29 -29 -29h-34q-27 0 -25 29l16 119q8 59 43 104t89 84q41 31 82.5 61.5 t75.5 65.5t55.5 77t21.5 95q0 31 -11 62.5t-34 57t-55.5 41t-77.5 15.5q-59 0 -106.5 -17.5t-81 -41t-54 -47t-28.5 -35.5q-4 -8 -12.5 -11.5t-22.5 7.5l-29 20q-16 10 -12 19.5zM244 51q0 41 27.5 66.5t62.5 25.5q31 0 51.5 -20.5t20.5 -50.5q0 -39 -29 -65.5t-66 -26.5 q-29 0 -48 21t-19 50z" />
<glyph unicode="@" horiz-adv-x="1873" d="M111 317q0 242 72.5 450t203.5 360.5t315.5 239.5t407.5 87q164 0 289 -52t210 -145.5t128 -221.5t43 -281q0 -74 -10.5 -155t-34 -160t-59.5 -151.5t-89 -127t-123.5 -87t-160.5 -32.5t-131.5 47t-49.5 115q-14 -20 -40.5 -48t-63.5 -53.5t-84 -43t-100 -17.5 q-66 0 -118 26.5t-89 74.5t-57.5 114t-20.5 143q0 115 36 207t96 157.5t137 101.5t159 36q49 0 87 -11t63.5 -26.5t40 -30t18.5 -20.5l12 43q4 12 9 18.5t22 6.5h20q27 0 23 -27l-74 -514q-16 -117 15.5 -170t103.5 -53q88 0 158.5 50t120 136t76 200.5t26.5 241.5 q0 137 -38 254t-112.5 201t-187.5 131t-262 47q-199 0 -366 -78.5t-286.5 -218t-186 -333t-66.5 -420.5q0 -123 28.5 -232.5t81.5 -201t127 -162t164 -117.5q14 -6 15 -12t-7 -21l-18 -33q-12 -20 -31 -12q-98 49 -180 127t-140.5 178.5t-90 220t-31.5 254.5zM641 412 q0 -127 56.5 -206t154.5 -79q57 0 102 23.5t76 55.5t50.5 62.5t25.5 46.5l55 387q0 2 -10 20.5t-32.5 40t-59.5 38t-88 16.5q-63 0 -123 -28.5t-106 -81t-73.5 -128t-27.5 -167.5z" />
<glyph unicode="A" horiz-adv-x="1239" d="M-49 29l758 1411q6 14 26 14h6q8 0 14.5 -2t10.5 -12l373 -1415q2 -4 2 -8q0 -5 -3 -9q-5 -8 -22 -8h-53q-14 0 -19.5 6t-7.5 12l-94 377h-692l-197 -377q-4 -6 -11 -12t-22 -6h-59q-16 0 -16 11q0 7 6 18zM297 475h623l-197 815h-6z" />
<glyph unicode="B" horiz-adv-x="1193" d="M129 27l195 1380q2 10 10 18.5t18 8.5h396q154 0 243.5 -87t89.5 -231q0 -72 -20.5 -133t-54 -110.5t-78.5 -86t-94 -57.5v-2q78 -31 135 -103.5t57 -183.5q0 -100 -36 -182t-97.5 -139.5t-146 -88t-183.5 -30.5h-411q-24 0 -24 20q0 4 1 7zM231 86h349q70 0 132 24.5 t109 68.5t74 107.5t27 143.5q0 117 -77 184.5t-204 67.5h-326zM330 770h319q72 0 132.5 25.5t104.5 70.5t68.5 106.5t24.5 133.5q0 111 -64.5 174t-179.5 63h-325z" />
<glyph unicode="C" horiz-adv-x="1343" d="M133 616q0 176 62.5 330t169 266.5t248 177t296.5 64.5q141 0 243.5 -49t180.5 -141q8 -8 8 -17q0 -10 -10 -20l-35 -31q-18 -14 -34 2q-66 78 -159 121t-204 43q-131 0 -251 -58.5t-211 -159t-145 -234.5t-54 -283q0 -115 34.5 -214.5t98 -173t151.5 -116.5t195 -43 q119 0 218 49t181 123q20 16 33 4l39 -43q14 -16 -4 -35q-111 -100 -232 -149t-243 -49q-125 0 -230.5 50t-182.5 136t-120 201.5t-43 248.5z" />
<glyph unicode="D" horiz-adv-x="1398" d="M129 27l195 1380q4 27 26 27h395q117 0 218.5 -49.5t176 -134.5t117.5 -197.5t43 -241.5q0 -168 -61 -315.5t-165.5 -258t-242 -174t-286.5 -63.5h-395q-10 0 -16 8q-5 6 -5 14v5zM233 88h306q131 0 250.5 55.5t211 151.5t144.5 228t53 284q0 113 -35 212t-98.5 171 t-152.5 114t-197 42h-305z" />
<glyph unicode="E" horiz-adv-x="1101" d="M129 27l195 1380q2 10 10 18.5t18 8.5h738q23 0 23 -19q0 -4 -1 -8l-4 -35q-4 -27 -31 -26h-663l-80 -566h573q27 0 23 -26l-4 -35q-4 -27 -31 -27h-573l-86 -606h665q27 0 23 -27l-6 -32q-4 -27 -29 -27h-737q-24 0 -24 20q0 4 1 7z" />
<glyph unicode="F" horiz-adv-x="1069" d="M129 27l195 1380q2 10 10 18.5t18 8.5h738q23 0 23 -19q0 -4 -1 -8l-4 -35q-4 -27 -31 -26h-663l-88 -623h581q27 0 23 -27l-4 -34q-4 -27 -31 -27h-582l-88 -608q-6 -27 -30 -27h-43q-24 0 -24 20q0 4 1 7z" />
<glyph unicode="G" horiz-adv-x="1402" d="M133 627q0 172 63.5 323.5t170 263t248 176t298.5 64.5q139 0 240.5 -49t179.5 -141q6 -8 6 -18.5t-10 -18.5l-37 -33q-18 -18 -35 0q-63 80 -156 124t-204 44q-129 0 -249 -58.5t-211 -157.5t-145 -232.5t-54 -282.5q0 -115 34.5 -215.5t98 -176t151.5 -118.5t195 -43 q86 0 156.5 20.5t123.5 44.5q61 29 111 66l49 362h-293q-16 0 -20 6.5t-2 20.5l6 41q2 12 7 18.5t22 6.5h366q10 0 17.5 -7.5t5.5 -17.5l-62 -440q-4 -27 -13 -40.5t-22 -23.5q-14 -12 -57 -37.5t-105.5 -52.5t-140.5 -46t-159 -19q-121 0 -226.5 50t-182.5 137t-121 205 t-44 255z" />
<glyph unicode="H" horiz-adv-x="1421" d="M129 27l195 1380q4 27 28 27h45q27 0 23 -27l-90 -629h815l88 629q4 27 29 27h45q23 0 23 -19q0 -4 -1 -8l-194 -1380q-4 -27 -29 -27h-45q-27 0 -23 27l95 665h-814l-94 -665q-4 -27 -30 -27h-43q-24 0 -24 20q0 4 1 7z" />
<glyph unicode="I" horiz-adv-x="516" d="M131 27l193 1380q4 27 30 27h45q24 0 23 -20v-7l-193 -1380q-6 -27 -32 -27h-43q-24 0 -24 20q0 4 1 7z" />
<glyph unicode="J" horiz-adv-x="888" d="M-12 133q-5 9 -5 17q0 11 11 18l29 22q23 18 34 0q12 -16 28.5 -37.5t41.5 -41t58.5 -32.5t76.5 -13q55 0 105.5 17t90.5 56t69.5 101.5t41.5 154.5l144 1012q4 27 30 27h43q24 0 24 -20q0 -4 -1 -7l-143 -1010q-31 -217 -138.5 -317t-273.5 -100q-61 0 -106.5 18t-78 43 t-53 50.5t-28.5 41.5z" />
<glyph unicode="K" horiz-adv-x="1093" d="M129 27l195 1376q4 31 32 31h39q31 0 27 -31l-92 -639l708 655q14 10 20.5 12.5t20.5 2.5h62q17 0 17 -15q0 -11 -9 -20l-731 -676l561 -688q8 -8 2 -21.5t-29 -13.5h-49q-23 0 -41 20l-543 674l-92 -667q-2 -16 -12 -21.5t-22 -5.5h-41q-24 0 -24 20q0 4 1 7z" />
<glyph unicode="L" horiz-adv-x="935" d="M129 27l195 1380q2 10 10 18.5t18 8.5h47q10 0 16.5 -8.5t4.5 -18.5l-187 -1321h580q17 0 21 -8q2 -5 3 -11q0 -4 -1 -8l-7 -36q-4 -23 -28 -23h-649q-24 0 -24 20q0 4 1 7z" />
<glyph unicode="M" horiz-adv-x="1619" d="M31 27l465 1413q4 14 20 14h19q12 0 14 -14l192 -1233h4l564 1233q6 14 18 14h19q16 0 16 -14l68 -1413q0 -27 -27 -27h-49q-20 0 -21 23l-41 1171h-4l-540 -1198q-8 -16 -25 -16h-8q-18 0 -21 16l-190 1198h-4l-375 -1171q-8 -23 -27 -23h-49q-20 0 -20 15q0 5 2 12z " />
<glyph unicode="N" horiz-adv-x="1452" d="M131 27l197 1400q6 27 32 27h11q18 0 30 -18l693 -1254h4l168 1225q4 27 30 27h41q24 0 24 -20q0 -3 -1 -7l-197 -1401q-2 -14 -12 -20t-23 -6h-12q-18 0 -31 18l-688 1257h-2l-172 -1228q-4 -20 -19.5 -23.5t-31.5 -3.5h-18q-24 0 -24 20q0 4 1 7z" />
<glyph unicode="O" horiz-adv-x="1574" d="M133 614q0 174 61.5 327t168 266.5t247 180t299.5 66.5q121 0 225.5 -50t181.5 -137t120 -204t43 -250q0 -174 -61.5 -325.5t-168 -264t-247 -178t-300.5 -65.5q-121 0 -225 49t-181 135t-120 201.5t-43 248.5zM227 627q0 -115 36 -216.5t100.5 -177t153.5 -119.5 t198 -44q131 0 251.5 57t214 156.5t148.5 232.5t55 285q0 117 -35.5 219t-100 179t-154.5 121t-197 44q-131 0 -252 -58.5t-214 -158.5t-148.5 -234t-55.5 -286z" />
<glyph unicode="P" horiz-adv-x="1136" d="M129 27l195 1380q2 10 10 18.5t18 8.5h400q74 0 138 -32t113.5 -86t77 -127t27.5 -155q0 -109 -38 -204t-103.5 -165.5t-153.5 -112.5t-190 -42h-330l-68 -483q-4 -27 -37 -27h-36q-24 0 -24 20q0 4 1 7zM307 604h324q80 0 148.5 34t118.5 90t80 133t30 163 q0 70 -20.5 127t-57.5 98t-87 64.5t-112 23.5h-321z" />
<glyph unicode="Q" horiz-adv-x="1574" d="M133 614q0 174 61.5 327t168 266.5t247 180t299.5 66.5q121 0 225.5 -50t181.5 -137t120 -204t43 -250q0 -135 -38 -258t-106.5 -225.5t-164 -180t-207.5 -122.5l163 -392q4 -8 -1 -19t-17 -11h-68q-4 0 -12 4t-12 16l-150 375q-39 -10 -82 -15t-82 -5q-121 0 -225 49 t-181 135t-120 201.5t-43 248.5zM229 627q0 -115 36 -216.5t99.5 -177t152.5 -119.5t198 -44q131 0 251.5 57t214 156.5t148.5 232.5t55 285q0 117 -35.5 219t-100 179t-154.5 121t-197 44q-131 0 -252 -58.5t-213 -158.5t-147.5 -234t-55.5 -286z" />
<glyph unicode="R" horiz-adv-x="1232" d="M129 27l195 1380q4 27 28 27h461q72 0 136.5 -30t112.5 -81t75.5 -120.5t27.5 -149.5q0 -88 -27.5 -167t-76.5 -143.5t-115.5 -109.5t-142.5 -66l190 -530q4 -12 0 -24.5t-20 -12.5h-51q-16 0 -23.5 5t-11.5 22l-187 528q-18 -2 -37.5 -2h-37.5h-326l-74 -526 q-4 -27 -37 -27h-36q-24 0 -24 20q0 4 1 7zM313 647h383q70 0 136.5 30t117.5 82t82 124.5t31 156.5q0 63 -20.5 117.5t-55.5 94.5t-85 63.5t-107 23.5h-383z" />
<glyph unicode="S" horiz-adv-x="1030" d="M68 162l-2 6q0 9 10 18l22 29q20 27 43 4t52.5 -49.5t69.5 -49t90 -38.5t114 -16q68 0 129 23.5t107.5 64.5t73 98t26.5 123q0 57 -22.5 100t-62.5 80t-97.5 68.5t-124.5 66.5q-68 33 -123.5 68t-96 77t-63.5 94t-23 124t26 143.5t80 128.5t137 93t200 36 q111 0 182.5 -31.5t130.5 -72.5q10 -6 14 -18q1 -3 0 -7q0 -9 -8 -18l-16 -23q-20 -27 -45 -10q-66 45 -127.5 68.5t-138.5 23.5q-86 0 -149.5 -26.5t-105.5 -70.5t-62.5 -98.5t-20.5 -109.5q0 -53 19.5 -95t53 -76t81.5 -61.5t104 -54.5q80 -39 146.5 -77t112.5 -83 t71.5 -100t25.5 -129q0 -90 -35 -165t-95 -128t-140 -82.5t-170 -29.5q-74 0 -135.5 18t-110.5 45t-83 54.5t-52 45.5q-8 7 -12 19z" />
<glyph unicode="T" horiz-adv-x="960" d="M168 1376l4 31q2 12 10 19.5t19 7.5h790q24 0 24 -20q0 -3 -1 -7l-4 -35q-4 -27 -31 -26h-348l-185 -1319q-4 -27 -34 -27h-39q-27 0 -23 27l187 1319h-349q-16 0 -19 8q-2 5 -2 12q0 4 1 10z" />
<glyph unicode="U" horiz-adv-x="1357" d="M176 403q0 43 6 93l129 911q2 10 10.5 18.5t18.5 8.5h45q27 0 23 -27l-127 -901q-6 -49 -7 -92q0 -160 86 -250t246 -90q182 0 301 115.5t148 314.5l129 903q4 27 30 27h43q10 0 16.5 -8.5t4.5 -18.5l-127 -911q-16 -117 -63.5 -212.5t-120 -163t-167.5 -104t-208 -36.5 q-94 0 -171 29.5t-131 85t-84 133t-30 175.5z" />
<glyph unicode="V" horiz-adv-x="1224" d="M137 1407q-1 5 -1 9q0 18 22 18h55q14 0 18 -15l310 -1247h6l672 1247q4 4 8 9.5t16 5.5h57q20 0 20 -13q0 -7 -5 -16l-762 -1407q-10 -18 -27 -18h-8q-18 0 -22 18z" />
<glyph unicode="W" horiz-adv-x="1656" d="M188 1407q-2 27 27 27h49q16 0 21 -23l133 -1169h6l491 1194q8 18 23 18h12q16 0 21 -18l164 -1192h4l460 1167q8 23 27 23h53q23 0 23 -17q0 -5 -2 -10l-565 -1413q-8 -14 -19 -14h-14q-16 0 -19 14l-165 1218h-7l-499 -1218q-6 -14 -19 -14h-14q-18 0 -19 14z" />
<glyph unicode="X" horiz-adv-x="1060" d="M-15 9q-1 2 -1 4q0 8 8 18l500 704l-285 668q-4 12 1 21.5t21 9.5h50q16 0 22 -13l254 -610h2l420 610q8 12 29 13h63q17 0 21 -10q1 -3 1 -5q0 -7 -8 -16l-475 -670l305 -702q6 -12 1 -21.5t-21 -9.5h-53q-20 0 -25 12l-274 639h-2l-443 -639q-10 -12 -26 -12h-66 q-16 0 -19 9z" />
<glyph unicode="Y" horiz-adv-x="1079" d="M129 1407q-4 8 -4 14q0 13 22 13h58q10 0 15 -4.5t7 -8.5l326 -626h4l506 626q12 12 29 13h67q16 0 21 -10q1 -2 1 -6q0 -7 -7 -15l-578 -705l-94 -671q-4 -27 -31 -27h-41q-25 0 -22 27l92 669z" />
<glyph unicode="Z" horiz-adv-x="991" d="M-18 25l2 16q2 20 14 37l897 1259v6h-645q-25 0 -21 27l4 39q4 25 31 25h754q23 0 23 -18q0 -3 -1 -7l-2 -14q-2 -20 -14 -37l-899 -1262v-6h666q27 0 22 -27l-4 -36q-4 -27 -31 -27h-772q-25 0 -25 18q0 3 1 7z" />
<glyph unicode="[" horiz-adv-x="649" d="M31 -461l262 1868q4 27 31 27h356q27 0 22 -27l-4 -31q-4 -27 -30 -26h-295l-246 -1753h295q27 0 22 -27l-4 -31q-4 -27 -30 -26h-357q-27 0 -22 26z" />
<glyph unicode="\" horiz-adv-x="724" d="M240 1413q-2 10 1 15.5t17 5.5h37q18 0 22 -17l205 -1397q4 -20 -18 -20h-35q-20 0 -23 18z" />
<glyph unicode="]" horiz-adv-x="649" d="M-84 -461l4 31q4 27 31 27h293l245 1753h-292q-27 0 -23 26l4 31q4 27 31 27h354q27 0 23 -27l-262 -1868q-4 -27 -31 -26h-354q-27 0 -23 26z" />
<glyph unicode="^" horiz-adv-x="966" d="M102.5 828.5q-0.5 9.5 10.5 23.5l469 596q10 14 22 14h2q10 0 19 -14l309 -596q8 -12 4 -22.5t-20 -10.5h-44q-23 0 -30 17l-250 491h-2l-387 -491q-12 -16 -33 -17h-53q-16 0 -16.5 9.5z" />
<glyph unicode="_" horiz-adv-x="1071" d="M115 -68l2 21q4 27 30 27h576q27 0 22 -27l-4 -21q-4 -25 -28 -24h-576q-27 0 -22 24z" />
<glyph unicode="`" horiz-adv-x="557" d="M217 1231l21 31q6 12 20 13t25 -7l217 -146q20 -16 10 -39l-10 -18q-8 -8 -17.5 -11t-23.5 3l-236 129q-23 16 -6 45z" />
<glyph unicode="a" d="M98 412q0 113 38 214t102.5 177t151.5 120t185 44q57 0 103.5 -14.5t79.5 -33t52 -37t26 -26.5l20 64q8 27 29 26h20q11 0 19 -9q6 -6 5 -14q0 -4 -1 -8l-121 -884q-2 -12 -12.5 -21.5t-20.5 -9.5h-18q-29 0 -27 33l4 82q-10 -12 -36.5 -35t-66.5 -46.5t-91.5 -40 t-112.5 -16.5q-74 0 -134.5 33t-103.5 91.5t-66.5 138t-23.5 172.5zM188 412q0 -68 18.5 -131.5t51.5 -111.5t80 -77t104 -29q66 0 121 26t95 56.5t62.5 58t24.5 32.5l70 520q-2 4 -17.5 23.5t-45 42t-73.5 40t-106 17.5q-82 0 -151.5 -38t-121.5 -102.5t-82 -148.5 t-30 -178z" />
<glyph unicode="b" horiz-adv-x="1062" d="M98 31l193 1374q2 10 11 19.5t22 9.5h34q10 0 19.5 -9.5t7.5 -19.5l-78 -531q35 25 80 46q37 16 89 31.5t112 15.5q74 0 137 -33t109.5 -90.5t73 -136t26.5 -170.5q0 -113 -37 -215.5t-99.5 -179t-147.5 -122t-179 -45.5q-61 0 -109.5 17.5t-82 40t-53 47t-25.5 37.5 l-21 -86q-8 -31 -37 -31h-18q-13 0 -21 9q-6 7 -6 17v5zM219 229q2 -4 17.5 -30.5t46 -56t78 -54.5t114.5 -25q74 0 139.5 39t116.5 103.5t81 150.5t30 179q0 72 -20.5 134t-57.5 109t-89 74t-116 27q-55 0 -103 -15.5t-83 -34.5q-41 -23 -76 -49z" />
<glyph unicode="c" horiz-adv-x="980" d="M96 403q0 129 42 233.5t113 178.5t163 113t194 39q57 0 104.5 -14.5t84.5 -36t62.5 -47t41.5 -46.5q4 -5 4 -11q0 -13 -16 -32l-15 -16q-12 -14 -24 -9t-23 15q-12 14 -31.5 32.5t-47 35t-64.5 29t-84 12.5q-78 0 -151.5 -32t-132 -93.5t-94.5 -149.5t-36 -201 q0 -68 22.5 -129t62.5 -108t94.5 -75t115.5 -28q57 0 103.5 18.5t82 43.5t59.5 50.5t36 37.5q12 16 20.5 15t20.5 -11l24 -20q18 -16 2 -37q-16 -23 -48.5 -53.5t-79 -59.5t-104.5 -49.5t-126 -20.5q-80 0 -148.5 33t-118.5 90.5t-79 135t-29 167.5z" />
<glyph unicode="d" d="M96 397q0 119 37 223.5t101.5 181.5t153.5 121t194 44q59 0 105 -15.5t79 -31.5q37 -20 65 -46l76 531q6 29 31 29h35q12 0 20 -10q5 -6 5 -12q0 -3 -1 -7l-190 -1374q-2 -12 -12.5 -21.5t-20.5 -9.5h-20q-29 0 -27 33l4 82q-10 -12 -37.5 -35t-68.5 -46.5t-93.5 -40 t-111.5 -16.5q-74 0 -133.5 33t-102.5 89.5t-65.5 133t-22.5 164.5zM186 403q0 -68 18.5 -130t51.5 -108t79 -74t103 -28q66 0 121 26t95 56.5t62.5 58t24.5 32.5l76 538q-27 29 -63 51q-31 20 -75 37t-101 17q-84 0 -156 -38t-124 -102.5t-82 -150.5t-30 -185z" />
<glyph unicode="e" horiz-adv-x="970" d="M96 395q0 117 36 220.5t100.5 181t153.5 124t198 46.5q125 0 207.5 -64.5t82.5 -175.5q0 -106 -65.5 -166.5t-166.5 -89.5t-222 -32q-33 -1 -65 -1q-86 0 -167 6q-3 -28 -3 -54q1 -52 11 -98q16 -70 50.5 -120.5t87.5 -79.5t123 -29q51 0 92 10.5t73.5 25t57.5 30.5 t41 29q29 20 45 -8l14 -23q4 -8 4 -17.5t-10 -19.5q-23 -16 -53.5 -35.5t-71.5 -37t-91 -29t-112 -11.5q-84 0 -148.5 33t-109.5 89.5t-68.5 133t-23.5 162.5zM201 526q87 -6 171 -7q21 0 42 1q104 2 187 23.5t133 63.5t50 114q0 74 -59 116t-152 42q-68 0 -130 -28 t-112 -76t-85 -111.5t-45 -137.5z" />
<glyph unicode="f" horiz-adv-x="706" d="M78 -457l186 1317h-135q-16 0 -22.5 10.5t-4.5 20.5l4 24q4 12 13.5 21.5t19.5 9.5h135l25 156q25 160 100.5 256t221.5 96q82 0 139 -30.5t86 -65.5q8 -8 8 -16q0 -2 -1 -4q-3 -11 -9 -19l-23 -25q-25 -20 -41 0q-29 31 -67.5 51.5t-91.5 20.5q-104 0 -157.5 -70.5 t-74.5 -203.5l-22 -146h307q33 0 26 -28l-6 -31q-4 -27 -32 -27h-306l-186 -1317q-2 -10 -12.5 -20t-22.5 -10h-33q-12 0 -20 10q-5 7 -5 13q0 4 1 7z" />
<glyph unicode="g" d="M80 -293q-11 11 -11 22q0 13 13 25l18 19q10 10 23.5 11t30.5 -17q12 -14 33.5 -36t52 -42.5t69.5 -34.5t86 -14q45 0 94.5 14t93.5 56t78.5 116t53.5 192l6 50q-8 -10 -30.5 -24.5t-57.5 -29t-81 -24.5t-99 -10q-84 0 -150.5 32.5t-113 89t-71 132t-24.5 163.5 q0 119 38 222.5t103.5 180.5t152.5 122t185 45q57 0 103.5 -14.5t80.5 -33t53 -37t26 -26.5l20 64q6 27 31 26h16q10 0 19 -9q5 -6 5 -14q0 -4 -1 -8l-121 -890q-18 -135 -59 -226.5t-97.5 -145.5t-123 -78t-136.5 -24q-61 0 -112.5 19.5t-91.5 46.5t-67.5 52.5t-37.5 37.5z M188 408q0 -70 19.5 -132.5t54.5 -109.5t86 -75t115 -28q57 0 105 15.5t84 35t56.5 38t24.5 22.5l82 578q-2 4 -17.5 24.5t-46 43t-74.5 41t-106 18.5q-82 0 -151.5 -38t-120.5 -102.5t-81 -150.5t-30 -180z" />
<glyph unicode="h" horiz-adv-x="1036" d="M98 31l193 1374q2 10 7 19.5t19 9.5h41q10 0 19.5 -9.5t7.5 -19.5l-84 -582q10 12 35.5 36t65.5 47.5t93.5 42t118.5 18.5q154 -1 218 -105q43 -70 42 -189q0 -58 -10 -128l-71 -514q-2 -12 -11.5 -21.5t-21.5 -9.5h-31q-14 0 -21.5 9t-5.5 22l72 514q8 61 8 111 q0 93 -28 144q-43 79 -158 79q-68 0 -123 -25t-96 -54.5t-65.5 -56t-26.5 -30.5l-97 -682q-4 -31 -32 -31h-35q-13 0 -19 9q-4 7 -5 15q0 4 1 7z" />
<glyph unicode="i" horiz-adv-x="442" d="M98 31l125 884q2 12 12.5 21.5t24.5 9.5h29q12 0 19 -9t5 -22l-125 -884q-4 -31 -30 -31h-37q-13 0 -19 9q-4 7 -5 15q0 4 1 7zM236 1276q0 37 28.5 63.5t65.5 26.5q31 0 49 -19.5t18 -48.5q0 -37 -26.5 -63.5t-63.5 -26.5q-31 0 -51 19.5t-20 48.5z" />
<glyph unicode="j" horiz-adv-x="442" d="M-174 -461q-2 5 -2 10q0 8 4 17q6 14 25 18q84 20 143 74.5t76 177.5l151 1079q2 12 12.5 21.5t24.5 9.5h29q10 0 19 -9t5 -22l-147 -1060q-12 -88 -36 -147.5t-59.5 -100.5t-83.5 -66.5t-108 -44.5q-11 -4 -19 -4q-20 0 -26 21zM236 1278q0 37 28.5 63.5t65.5 26.5 q31 0 49 -19.5t18 -48.5q0 -37 -26.5 -63.5t-63.5 -26.5q-31 0 -51 19.5t-20 48.5z" />
<glyph unicode="k" horiz-adv-x="876" d="M98 31l193 1374q2 10 11 19.5t22 9.5h32q10 0 19.5 -9.5t7.5 -19.5l-121 -840l471 367q16 14 37 14h64q20 0 20 -16q0 -12 -14 -23l-500 -391l387 -475q12 -14 4 -27.5t-22 -13.5h-37q-14 0 -23.5 1t-21.5 17l-375 471l-66 -458q-4 -31 -32 -31h-33q-13 0 -19 9 q-4 7 -5 15q0 4 1 7z" />
<glyph unicode="l" horiz-adv-x="468" d="M111 31l192 1374q2 10 10.5 19.5t18.5 9.5h39q10 0 19 -9.5t7 -19.5l-196 -1374q-4 -31 -33 -31h-35q-14 0 -19 9q-4 6 -4 15q0 3 1 7z" />
<glyph unicode="m" horiz-adv-x="1558" d="M98 31l123 884q2 12 9.5 21.5t21.5 9.5h20q23 0 23 -24l-4 -95q12 12 36.5 36t62.5 46.5t87 40t111 17.5q98 0 148 -44t79 -114q20 18 50 46t70 52.5t91 42t117 17.5q82 0 136 -31t83 -86t34 -133q1 -20 1 -40q0 -62 -11 -132l-69 -514q-2 -12 -12.5 -21.5t-22.5 -9.5 h-35q-27 0 -22 31l71 514q9 64 9 115q0 83 -23 135q-37 84 -156 84q-61 0 -109 -18.5t-84 -44t-60.5 -53.5l-38.5 -44q4 -28 5 -60q0 -11 -1 -22q-2 -45 -9 -92l-69 -514q-2 -12 -13.5 -21.5t-21.5 -9.5h-33q-29 0 -24 31l71 514q9 62 9 112q0 85 -25 138q-39 84 -152 84 q-68 0 -120 -24t-87.5 -52.5t-55 -55t-23.5 -34.5l-97 -682q-6 -31 -32 -31h-35q-13 0 -19 9q-4 7 -5 15q0 4 1 7z" />
<glyph unicode="n" horiz-adv-x="1034" d="M98 31l125 884q2 12 8.5 21.5t20.5 9.5h20q27 0 27 -24l-6 -95q14 14 41.5 38t67.5 46.5t91.5 39t116.5 16.5q86 0 141.5 -30t85 -85t35.5 -133q2 -24 2 -49q0 -58 -10 -125l-73 -514q-2 -12 -11.5 -21.5t-21.5 -9.5h-31q-14 0 -21.5 9t-5.5 22l74 514q8 61 8 110 q0 86 -25 140q-40 84 -165 84q-66 0 -118 -21.5t-91 -48.5t-63.5 -53.5t-32.5 -34.5l-99 -690q-4 -31 -34 -31h-33q-13 0 -19 9q-4 7 -5 15q0 4 1 7z" />
<glyph unicode="o" horiz-adv-x="1087" d="M94 403q0 117 40 219.5t108.5 179.5t161 121t196.5 44q76 0 142.5 -34t114.5 -91.5t76 -134t28 -164.5q0 -117 -40 -220.5t-109 -180t-160 -121t-193 -44.5q-78 0 -144.5 34t-115.5 91.5t-77 135t-28 165.5zM184 414q0 -74 20.5 -137.5t58.5 -111.5t90.5 -75t115.5 -27 q78 0 150.5 37t128 100.5t89 149.5t33.5 185q0 72 -21.5 135t-59 109t-90 73t-113.5 27q-82 0 -155 -37t-128 -99.5t-87 -147.5t-32 -181z" />
<glyph unicode="p" d="M31 -457l192 1372q2 16 12.5 23.5t24.5 7.5h12q27 0 27 -24l-2 -64q8 8 33.5 26.5t63.5 37t88 32t110 13.5q76 0 139.5 -33t107.5 -90.5t68.5 -135t24.5 -167.5q0 -117 -39 -219.5t-106.5 -179t-158.5 -121t-194 -44.5q-51 0 -91 10.5t-68.5 25t-49 30.5t-30.5 29 l-74 -529q-2 -10 -12.5 -20t-24.5 -10h-27q-12 0 -20 10t-6 20zM211 170q8 -12 28.5 -30.5t49 -36t65.5 -29t82 -11.5q84 0 158 38t129 103.5t87 152.5t32 186q0 68 -18.5 129t-53.5 107t-85 73t-114 27q-61 0 -111 -18.5t-87 -42t-59.5 -45t-24.5 -25.5z" />
<glyph unicode="q" horiz-adv-x="1054" d="M96 406q0 115 36 217t100.5 179t150.5 121t188 44q57 0 104.5 -14.5t80 -33t53 -37t27.5 -26.5l20 64q8 27 31 26h14q10 0 17 -9q6 -7 6 -17v-5l-189 -1372q-2 -10 -12 -20t-21 -10h-30q-12 0 -20.5 10t-6.5 20l74 525q-8 -10 -30.5 -24.5t-57.5 -30t-81 -26t-99 -10.5 q-80 0 -144.5 33t-112 90.5t-73 136.5t-25.5 169zM186 403q0 -70 20.5 -132t58.5 -108t91.5 -73t118.5 -27q53 0 98 15.5t79 35t54.5 38t24.5 22.5l82 580q-2 4 -17.5 23.5t-46 42t-74.5 41t-106 18.5q-82 0 -151.5 -37t-120.5 -101.5t-81 -152t-30 -185.5z" />
<glyph unicode="r" horiz-adv-x="735" d="M98 31l125 884q2 12 10.5 21.5t18.5 9.5h22q10 0 18.5 -6t6.5 -20l-6 -91q10 14 33.5 38t60.5 45.5t86 38t109 16.5q49 0 80.5 -9.5t46.5 -15.5q24 -11 23 -29q0 -7 -3 -14l-18 -37q-12 -29 -41 -10q-10 4 -40 15.5t-77 11.5q-49 0 -92 -17.5t-77 -44t-58.5 -55.5 t-38.5 -49l-99 -682q-4 -31 -30 -31h-37q-13 0 -19 9q-4 7 -5 15q0 4 1 7z" />
<glyph unicode="s" horiz-adv-x="804" d="M50 96q-1 3 -1 6q0 7 6 15l23 33q6 10 18.5 12t22.5 -8q12 -10 31.5 -25.5t46 -30t61.5 -25t80 -10.5q102 0 166.5 55.5t64.5 135.5q0 35 -16 61.5t-46 49t-69 43t-84 43.5q-47 23 -86 46t-68.5 53t-46 66.5t-16.5 83.5t18.5 94.5t56.5 86.5t96.5 62.5t135.5 23.5 q86 0 144.5 -24.5t87.5 -47.5q13 -9 13 -22q0 -9 -7 -21l-16 -25q-18 -25 -43 -8q-6 4 -23.5 14.5t-42.5 20.5t-55.5 17.5t-63.5 7.5q-104 0 -157.5 -52.5t-53.5 -119.5q0 -59 51.5 -102.5t129.5 -80.5q51 -23 97 -48t79.5 -56t54 -69t20.5 -87q0 -63 -24.5 -115.5 t-68.5 -90.5t-104 -59.5t-130 -21.5q-94 0 -166 36t-107 69q-6 4 -9 14z" />
<glyph unicode="t" horiz-adv-x="696" d="M121 868q-2 4 -2 10t2 13l6 31q6 25 29 24h108l35 258q2 14 12.5 22.5t22.5 8.5l26 2q14 0 22.5 -9t4.5 -22l-35 -260h293q15 0 21 -9q5 -7 4 -16v-6l-4 -24q-4 -31 -33 -31h-293l-88 -616q-6 -42 -5 -75q0 -37 7 -61q14 -44 80 -45q31 0 61.5 8.5t56 20.5t46 24.5 t32.5 18.5q16 10 22.5 6t12.5 -14l17 -25q14 -23 -11 -39q-14 -10 -38.5 -24t-57.5 -27.5t-73 -24t-85 -10.5q-57 0 -92 20.5t-51 56.5t-18 84v20q0 40 6 86l90 616h-111q-16 0 -20 8z" />
<glyph unicode="u" horiz-adv-x="1011" d="M129 202q-2 24 -2 50q0 53 8 117l78 546q2 12 11 21.5t20 9.5h32q12 0 20.5 -9t6.5 -22l-80 -546q-8 -57 -8 -103q1 -87 29 -133q44 -70 166 -70q66 0 117 25t87.5 55.5t57 57t24.5 30.5l97 684q2 31 32 31h33q10 0 18 -9q6 -6 6 -14q0 -4 -1 -8l-121 -884 q-2 -12 -9.5 -21.5t-19.5 -9.5h-24q-12 0 -17.5 9t-5.5 20l4 86q-10 -12 -33.5 -36t-61.5 -46.5t-89.5 -39t-114.5 -16.5q-84 0 -139 26t-85 76.5t-36 122.5z" />
<glyph unicode="v" horiz-adv-x="927" d="M109 911q-2 7 -2 13t2 12q4 10 20 10h43q8 0 15.5 -4t11.5 -18l192 -774h2l420 774q10 22 31 22h2h47q17 0 21 -10q1 -3 1 -6q0 -8 -8 -19l-495 -911q-12 -23 -31 -23h-12q-10 0 -16.5 7.5t-8.5 15.5z" />
<glyph unicode="w" horiz-adv-x="1329" d="M135 907q-1 7 -1 12q0 27 24 27h41q10 0 17 -4t9 -18l97 -727h4l352 747q10 23 29 23h10q16 0 22 -23l148 -747h2l297 727q6 14 15 18t20 4h47q16 0 19 -11q1 -3 1 -6q0 -9 -6 -22l-387 -907q-10 -23 -27 -23h-8q-16 0 -20 23l-150 778h-2l-366 -778q-10 -23 -29 -23h-10 q-12 0 -17 23z" />
<glyph unicode="x" horiz-adv-x="888" d="M-5 10q-1 3 -1 6q0 8 8 17l373 456l-232 424q-8 12 -2 22.5t23 10.5h45q18 0 31 -22l192 -365h4l299 365q13 22 37 22h2h51q15 0 21 -10q2 -3 2 -7q0 -8 -8 -16l-355 -432l246 -448q10 -12 3 -22.5t-21 -10.5h-54q-12 0 -24 20l-209 394h-4l-316 -394q-20 -20 -38 -20 h-56q-12 0 -17 10z" />
<glyph unicode="y" horiz-adv-x="954" d="M104 -455l244 461l-235 901q-4 16 1 27.5t21 11.5h43q20 0 27 -22l201 -809h4l428 809q10 22 28 22h2h50q14 0 19 -11q2 -4 2 -8q0 -9 -7 -20l-735 -1374q-10 -20 -33 -20h-43q-22 0 -22 15q0 7 5 17z" />
<glyph unicode="z" horiz-adv-x="802" d="M2 27q0 16 5 23t11 18l609 790v2h-445q-10 0 -18 9.5t-4 19.5l6 26q8 31 29 31h548q29 0 29 -22q0 -10 -8 -23l-623 -811v-4h449q12 0 20 -8t4 -23l-4 -24q-2 -12 -11 -21.5t-24 -9.5h-550q-16 0 -19.5 7t-3.5 20z" />
<glyph unicode="{" horiz-adv-x="710" d="M63 459l5 33q2 10 5 12t13 6q14 6 39 16.5t49.5 31t45 53t26.5 81.5l39 287q20 145 68 237.5t113.5 145.5t140.5 72.5t147 19.5q10 0 16 -7t4 -17l-2 -25q-2 -20 -22 -25q-74 -6 -138.5 -30.5t-115 -71.5t-84 -122t-47.5 -179l-39 -285q-8 -53 -31 -93t-49.5 -66.5 t-48 -41t-27.5 -16.5v-2q2 -2 20.5 -15.5t37 -39t31.5 -65.5t5 -95l-39 -293q-14 -104 -0.5 -178t48 -122t91 -71.5t130.5 -29.5q18 -2 14 -25l-2 -24q-2 -10 -10.5 -17.5t-18.5 -7.5q-72 0 -139.5 25.5t-116.5 82t-72.5 146.5t-5.5 219l41 295q6 49 -4 82t-28.5 53.5 t-40 30.5t-35.5 16q-8 4 -11.5 6.5t-1.5 12.5z" />
<glyph unicode="|" horiz-adv-x="415" d="M31 -463l278 1991q6 27 31 26h12q10 0 16.5 -7t2.5 -19l-279 -1991q-4 -25 -29 -24h-10q-27 0 -22 24z" />
<glyph unicode="}" horiz-adv-x="710" d="M-94 -485l2 24q2 20 22 25q74 6 137.5 29.5t113.5 70.5t84 121t48 178l41 295q8 55 32 95t50.5 65.5t48 39t25.5 15.5v2q-6 2 -23.5 16.5t-36 41t-30.5 66.5t-4 93l39 285q14 104 0.5 179t-49 122t-92 71.5t-130.5 30.5q-18 2 -14 25l4 31q2 10 9 14t18 4 q72 0 139.5 -26.5t116.5 -84t71.5 -147.5t6.5 -217l-39 -287q-6 -49 4 -81.5t28.5 -53t39 -31t34.5 -16.5q10 -4 13 -7t1 -18l-4 -26q-2 -10 -6 -12.5t-14 -6.5q-16 -6 -40 -16t-47.5 -30.5t-44 -53.5t-26.5 -82l-41 -295q-20 -141 -67 -231t-110.5 -143.5t-138.5 -75 t-151 -23.5q-10 0 -16 7t-4 18z" />
<glyph unicode="~" horiz-adv-x="1085" d="M123 510q-12 12 0 33q31 53 72 96q35 37 84 67.5t112 30.5q33 0 60.5 -11t50 -27.5t41 -36t32.5 -35.5q23 -27 55 -58.5t77 -31.5q41 0 74.5 21.5t59 49t42 52t20.5 32.5q12 20 35 6l31 -18q12 -10 0 -33q-33 -55 -72 -98q-35 -37 -84 -66.5t-113 -29.5q-33 0 -59.5 11 t-49 27.5t-39.5 35t-32 34.5q-25 29 -56.5 60.5t-78.5 31.5q-41 0 -76 -21.5t-60.5 -49t-43 -53t-21.5 -33.5q-6 -10 -17 -12.5t-22 5.5z" />
<glyph unicode="&#xa1;" horiz-adv-x="466" d="M35 -461l137 832q4 10 11 17t18 7h16q10 0 17.5 -7t5.5 -17l-97 -832q-2 -16 -12 -21t-20 -5h-54q-27 0 -22 26zM199 874q0 39 26.5 66t63.5 27q31 0 50 -21.5t19 -50.5q0 -41 -28.5 -66.5t-63.5 -25.5q-31 0 -49 20.5t-18 50.5z" />
<glyph unicode="&#xa2;" horiz-adv-x="1073" d="M137 401q0 123 42 226.5t112.5 178.5t165 118t200.5 43h34t32 -4l37 96q10 23 31 20l18 -6q27 -8 14 -37l-35 -90q66 -23 107 -62.5t57 -62.5q10 -20 -12 -43l-27 -22q-16 -16 -25 -10t-20 16q-8 10 -38.5 39.5t-81.5 48.5l-285 -768q31 -6 67 -6q57 0 103.5 17.5 t81.5 41t58.5 46t35.5 32.5q23 25 45 4l20 -18q23 -18 7 -39q-18 -23 -52 -53.5t-81.5 -59.5t-105.5 -49.5t-122 -20.5q-53 0 -98 15l-80 -217q-8 -23 -35 -19l-16 2q-12 2 -16.5 13.5t-0.5 21.5l82 217q-49 25 -89 64t-69.5 90t-45 111.5t-15.5 125.5zM246 418 q0 -104 40 -187.5t109 -119.5l285 755q-16 4 -35 4q-78 0 -149.5 -34.5t-127 -95t-89 -143.5t-33.5 -179z" />
<glyph unicode="&#xa3;" horiz-adv-x="1228" d="M215.5 16.5q-0.5 16.5 1.5 30.5q29 55 54.5 112.5t44 111t30.5 100.5t16 82q6 53 7.5 92t1.5 73h-80q-25 0 -21 29l2 15q4 20 29 20h64q-2 47 -9.5 116.5t-7.5 139.5q0 125 35 222t94.5 161.5t140 98.5t173.5 34q61 0 112 -16.5t89 -40t63.5 -49t34.5 -43.5 q4 -10 4 -20.5t-17 -24.5l-18 -19q-8 -8 -20.5 -9t-22.5 13q-4 6 -21.5 25.5t-48.5 41t-74 39t-98 17.5q-66 0 -126 -28.5t-106 -83t-75 -133.5t-29 -181q0 -72 7.5 -142.5t9.5 -117.5h360q14 0 19.5 -9t3.5 -20l-2 -14q-2 -20 -29 -21h-346q2 -37 -2 -80.5t-10 -84.5 q-14 -92 -41 -181.5t-76 -187.5h534q16 0 20.5 -7t2.5 -22l-4 -30q-2 -10 -9.5 -17.5t-17.5 -7.5h-622q-20 0 -20.5 16.5z" />
<glyph unicode="&#xa4;" horiz-adv-x="956" d="M146 373.5q4 11.5 8 15.5l112 109q-39 72 -25.5 162t70.5 159l-82 107q-4 6 -3 16t12 21l22 22q23 20 35 4l80 -108q74 55 152.5 53t136.5 -55l112 108q4 4 15.5 4t19.5 -10l14 -18q8 -10 6 -21.5t-10 -17.5l-110 -105q39 -72 26.5 -161t-69.5 -158l77 -105 q12 -18 -8 -39l-24 -22q-20 -18 -33 -2l-80 104q-72 -53 -152.5 -53t-136.5 53l-104 -104q-8 -8 -19.5 -8t-19.5 8l-18 20q-8 10 -4 21.5zM319.5 657q-6.5 -39 0.5 -74.5t30 -64.5q43 -55 110.5 -56t127.5 56q29 29 47 64.5t24.5 74.5t-1 75t-27.5 65q-43 59 -110.5 58 t-127.5 -58q-31 -29 -49 -65t-24.5 -75z" />
<glyph unicode="&#xa5;" horiz-adv-x="1228" d="M205 1424.5q6 9.5 22 9.5h58q18 0 24 -13l318 -633l503 633q8 12 27 13h78q16 0 19 -9.5t-7 -21.5l-577 -705l-15 -106h271q25 0 20 -27l-2 -14q-4 -23 -29 -23h-268l-26 -180h270q25 0 20 -26l-2 -13q-4 -25 -26 -24h-271l-37 -258q-2 -10 -10 -18.5t-18 -8.5h-47 q-25 0 -21 27l37 258h-270q-25 0 -21 24l2 17q4 23 27 22h270l27 180h-270q-25 0 -21 25l2 16q4 23 27 23h270l14 104l-366 707q-8 12 -2 21.5z" />
<glyph unicode="&#xa6;" horiz-adv-x="430" d="M37 -463l100 709q4 27 29 26h12q25 0 21 -26l-101 -709q-4 -25 -28 -24h-11q-27 0 -22 24zM217 821l98 707q6 27 31 26h12q10 0 16.5 -7t2.5 -19l-98 -707q-4 -27 -31 -26h-8q-27 0 -23 26z" />
<glyph unicode="&#xa7;" horiz-adv-x="1097" d="M44 -292q-5 9 11 26l31 33q10 10 19.5 11t19.5 -9q4 -6 27.5 -32t62.5 -52.5t93 -48t120 -21.5q57 0 115.5 19.5t105.5 56.5t77 90t30 119q0 109 -79 177t-220 124q-66 27 -121 58.5t-95 73.5t-61.5 94t-21.5 118q0 61 20.5 109t48 85t55 61.5t40.5 37.5 q-6 10 -21.5 29.5t-31 49t-27 66.5t-11.5 84q0 61 25 129t79 125t139 95t206 38q66 0 121 -16.5t96 -36.5q47 -23 84 -51q6 -4 11 -14.5t-9 -26.5l-25 -31q-8 -10 -17 -14t-23 6q-4 2 -25 17.5t-54.5 33.5t-77.5 32.5t-93 14.5q-92 0 -157 -28.5t-105.5 -71.5t-60 -96.5 t-19.5 -102.5q0 -100 68.5 -165.5t183.5 -108.5q80 -31 145 -65t112.5 -75t73 -93t25.5 -120q0 -59 -23.5 -108t-53.5 -87t-58.5 -63.5t-40.5 -38.5q8 -10 24.5 -30.5t32.5 -51t28.5 -69.5t12.5 -88q0 -82 -36 -151.5t-97 -120t-141 -78t-168 -27.5q-78 0 -140.5 21.5 t-108.5 50t-74 54.5t-36 36q-6 8 -11 17zM254 559q0 -102 67.5 -161.5t178.5 -104.5q104 -41 190 -100q8 10 31.5 29.5t47.5 48t42 66.5t18 87q0 51 -20.5 92t-59 74t-95 61.5t-126.5 57.5q-41 16 -83 36.5t-68 40.5q-12 -10 -32.5 -28.5t-40 -46t-35 -65.5t-15.5 -87z" />
<glyph unicode="&#xa8;" horiz-adv-x="763" d="M213 1280q0 39 27.5 65.5t62.5 26.5q33 0 51.5 -21.5t18.5 -52.5q0 -37 -25.5 -63.5t-62.5 -26.5q-31 0 -51.5 21.5t-20.5 50.5zM567 1280q0 39 27 65.5t61 26.5q33 0 53.5 -21.5t20.5 -52.5q0 -37 -27.5 -63.5t-64.5 -26.5q-31 0 -50.5 21.5t-19.5 50.5z" />
<glyph unicode="&#xa9;" horiz-adv-x="1628" d="M160 618q0 172 63.5 324t170 265.5t247.5 180t295 66.5q119 0 223.5 -51t181 -138t120.5 -204t44 -248q0 -172 -63.5 -323.5t-171 -265t-247.5 -179t-294 -65.5q-121 0 -224.5 50t-180 137t-120.5 202.5t-44 248.5zM240 629q0 -117 36.5 -221.5t103 -181t159 -122 t200.5 -45.5q133 0 256 58.5t218.5 160t152.5 237.5t57 290q0 117 -36.5 220t-103 180t-159 122t-200.5 45q-133 0 -256 -58.5t-218.5 -159.5t-152.5 -236t-57 -289zM494 662q0 92 32.5 171.5t88 139t130 94.5t158.5 35q55 0 108.5 -18.5t94.5 -59.5q18 -18 -2 -39l-23 -22 q-10 -10 -18 -9.5t-16 7.5q-31 33 -72 46t-82 13q-61 0 -116.5 -27.5t-98.5 -75t-67.5 -111t-24.5 -134.5q0 -53 15 -101.5t45 -83t71 -55t92 -20.5q86 0 168 63q27 16 37 -4l16 -25q10 -20 -8 -34q-53 -47 -110.5 -67.5t-118.5 -20.5t-115.5 26.5t-95.5 72.5t-64.5 107.5 t-23.5 131.5z" />
<glyph unicode="&#xaa;" horiz-adv-x="675" d="M170 993q0 102 68.5 167t185.5 65q41 0 77 -9.5t44 -13.5q14 96 2 141.5t-82 45.5q-66 0 -109 -18.5t-55 -22.5q-18 -6 -23.5 9t-5.5 25t6.5 16.5t12.5 10.5q8 4 56 24.5t132 20.5q59 0 90 -21.5t43.5 -58.5t9 -88t-11.5 -110l-45 -316q-4 -20 -22 -20h-23q-16 0 -16 16 v47q-29 -25 -77.5 -51.5t-109.5 -26.5q-66 0 -106.5 45t-40.5 123zM236 1006q0 -53 25.5 -85t70.5 -32q57 0 107 29.5t73 58.5l23 170q-14 6 -46 14t-77 8q-76 0 -126 -46t-50 -117z" />
<glyph unicode="&#xab;" horiz-adv-x="815" d="M98 469q-8 18 6 35l238 315q10 12 17.5 15.5t17.5 3.5h33q12 0 14 -10.5t-8 -26.5l-211 -314l121 -321q6 -16 1 -26.5t-16 -10.5h-35q-8 0 -15 3t-13 15zM393 469q-8 18 6 35l238 315q10 12 17.5 15.5t17.5 3.5h33q12 0 14 -10.5t-8 -26.5l-211 -314l121 -321 q6 -16 0.5 -26.5t-15.5 -10.5h-35q-8 0 -15 3t-13 15z" />
<glyph unicode="&#xac;" horiz-adv-x="1132" d="M195 696l4 33q4 27 28 27h709q23 0 18 -27l-57 -412q-4 -25 -29 -24h-28q-10 0 -16.5 7t-4.5 17l49 353h-653q-25 0 -20 26z" />
<glyph unicode="&#xad;" horiz-adv-x="770" d="M143 500l2 22q4 27 29 27h410q27 0 22 -27l-2 -22q-4 -27 -31 -27h-409q-25 0 -21 27z" />
<glyph unicode="&#xae;" horiz-adv-x="1628" d="M160 618q0 172 63.5 324t170 265.5t247.5 180t295 66.5q119 0 223.5 -51t181 -138t120.5 -204t44 -248q0 -172 -63.5 -323.5t-171 -265t-247.5 -179t-294 -65.5q-121 0 -224.5 50t-180 137t-120.5 202.5t-44 248.5zM240 629q0 -117 36.5 -221.5t103 -181t159 -122 t200.5 -45.5q133 0 256 58.5t218.5 160t152.5 237.5t57 290q0 117 -36.5 220t-103 180t-159 122t-200.5 45q-133 0 -256 -58.5t-218.5 -159.5t-152.5 -236t-57 -289zM547 369l98 702q4 27 29 27h268q37 0 73 -12.5t65.5 -37t47 -61.5t17.5 -86q0 -66 -19.5 -112t-50.5 -77.5 t-66.5 -50t-68.5 -24.5l88 -262q4 -10 -1 -20.5t-19 -10.5h-43q-18 0 -25 21l-82 266h-192l-37 -262q-4 -27 -29 -27h-33q-25 0 -20 27zM676 707h211q33 0 64.5 12t56 35.5t39 58.5t14.5 80q0 72 -45 101.5t-111 29.5h-184z" />
<glyph unicode="&#xaf;" horiz-adv-x="763" d="M80 1243l4 27q4 27 29 26h495q27 0 23 -26l-4 -27q-4 -25 -29 -24h-496q-27 0 -22 24z" />
<glyph unicode="&#xb0;" horiz-adv-x="727" d="M188 1135q0 68 25 126t64.5 101t93 67.5t112.5 24.5q47 0 87 -18.5t69 -51t45 -77.5t16 -97q0 -66 -24.5 -124t-66.5 -101t-95 -68.5t-108 -25.5q-98 0 -158 70.5t-60 173.5zM258 1147q0 -76 45 -130t113 -54q39 0 76.5 19t67.5 51t48.5 75t18.5 92q0 74 -44 127t-110 53 q-41 0 -79 -18.5t-68.5 -50t-49 -74.5t-18.5 -90z" />
<glyph unicode="&#xb1;" horiz-adv-x="1228" d="M184 178l4 31q2 10 10.5 18.5t18.5 8.5h711q20 0 16 -27l-4 -31q-4 -27 -25 -26h-710q-10 0 -16.5 8t-4.5 18zM272 809l7 31q4 27 26 26h311l50 344q4 25 28 25h39q10 0 16.5 -7t4.5 -18l-49 -344h311q23 0 18 -26l-6 -31q-4 -27 -22 -27h-312l-37 -258q-2 -10 -10 -18 t-18 -8h-39q-25 0 -21 26l37 258h-311q-10 0 -17.5 8.5t-5.5 18.5z" />
<glyph unicode="&#xb2;" horiz-adv-x="546" d="M139 1049l2 18l289 266q31 29 58.5 68t27.5 86q0 41 -26.5 72.5t-86.5 31.5q-51 0 -83.5 -28.5t-45.5 -40.5q-12 -12 -20 0l-25 24q-8 8 2 21q23 25 52 45q25 16 58.5 31.5t76.5 15.5q82 0 126 -46t44 -112q0 -57 -31 -110.5t-78 -96.5l-219 -198h256q14 0 12 -17l-4 -30 q0 -16 -16 -17h-354q-14 0 -15 17z" />
<glyph unicode="&#xb3;" horiz-adv-x="567" d="M150 1096q-10 10 4 22l22 23q14 14 23 0q6 -6 15 -16.5t24.5 -21.5t40 -19.5t59.5 -8.5q27 0 55.5 9.5t50 26.5t36 42t14.5 55q0 41 -31 71t-98 30h-84q-16 0 -13 20l4 25q0 16 17 16h84q27 0 53.5 11.5t47 30t32.5 42t12 45.5q0 43 -28.5 68.5t-77.5 25.5 q-31 0 -54.5 -8t-41 -18.5t-29 -20.5t-15.5 -14t-9 -5t-9 3l-21 22q-8 12 3 23q23 23 51 41q25 16 59.5 29.5t79.5 13.5q66 0 117 -39t51 -107q0 -53 -34 -98t-85 -72q25 -10 45 -28q16 -16 31.5 -41t15.5 -62q0 -45 -20.5 -81.5t-53 -63.5t-75.5 -41t-88 -14q-43 0 -75 10 t-53.5 23.5t-33.5 27.5t-18 23z" />
<glyph unicode="&#xb4;" horiz-adv-x="557" d="M223 1085q-10 25 19 39l223 129q10 4 23.5 4t21.5 -14l12 -31q8 -27 -14 -41l-258 -122v2q-10 -6 -21 20z" />
<glyph unicode="&#xb5;" horiz-adv-x="1024" d="M53 -457l193 1372q2 12 11 21.5t19 9.5h33q12 0 20.5 -9t6.5 -22l-76 -520q-25 -166 17 -249t165 -83q66 0 117 25t88 55.5t57.5 57t24.5 30.5l96 684q2 31 33 31h33q10 0 18.5 -9t3.5 -22l-120 -884q-2 -12 -9.5 -21.5t-19.5 -9.5h-25q-12 0 -17 9t-5 20l4 86 q-10 -12 -33.5 -36t-61.5 -46.5t-89.5 -39t-114.5 -16.5q-78 0 -129 25t-82 70l-76 -529q-4 -31 -33 -30h-26q-14 0 -19.5 9t-3.5 21z" />
<glyph unicode="&#xb6;" horiz-adv-x="1347" d="M135 934q0 82 30 170t86 161.5t135 121t177 47.5h789q25 0 20 -27l-4 -25q-4 -27 -29 -26h-186l-254 -1817q-4 -27 -29 -26h-30q-20 0 -19 26l254 1817h-313l-254 -1817q-4 -27 -27 -26h-30q-23 0 -21 26l145 1041h-133q-74 0 -131 28.5t-96 76.5t-59.5 112.5 t-20.5 136.5z" />
<glyph unicode="&#xb7;" horiz-adv-x="464" d="M143 524q0 41 30 66.5t65 25.5q31 0 49 -20.5t18 -50.5q0 -39 -26.5 -65.5t-63.5 -26.5q-31 0 -51.5 21.5t-20.5 49.5z" />
<glyph unicode="&#xb8;" horiz-adv-x="505" d="M51 -404.5q2 7.5 6 11.5l25 39q12 18 29 2q20 -20 43.5 -35.5t64.5 -15.5q20 0 46 6t47.5 19t35.5 33.5t14 51.5q0 41 -30.5 59.5t-77.5 18.5q-29 0 -56.5 -5t-47.5 -13q-10 -4 -20.5 8t-4.5 22l147 207l88 -4h-4l-104 -141q20 4 31 4q31 0 60.5 -8.5t54 -25.5t40 -47 t15.5 -73q0 -41 -18.5 -75.5t-50.5 -61.5t-74 -41t-91 -14q-57 0 -99 19.5t-65 43.5q-6 8 -4 15.5z" />
<glyph unicode="&#xb9;" horiz-adv-x="352" d="M186 1516q-4 12 9 22l155 100h23q6 0 12 -3t4 -13l-80 -573q-4 -16 -16 -17h-43q-16 0 -12 17l69 489l-96 -53q-12 -6 -16 4z" />
<glyph unicode="&#xba;" horiz-adv-x="692" d="M188 1047q0 94 21.5 168.5t59.5 128t89.5 82t108.5 28.5q92 0 139 -62.5t47 -174.5q0 -94 -21.5 -170t-58 -129.5t-88 -82t-110.5 -28.5q-92 0 -139.5 62.5t-47.5 177.5zM262 1047q0 -82 31 -127.5t92 -45.5q86 0 140.5 90.5t54.5 247.5q0 84 -31 130.5t-92 46.5 q-84 0 -139.5 -92.5t-55.5 -249.5z" />
<glyph unicode="&#xbb;" horiz-adv-x="815" d="M74 166l211 321l-123 314q-6 16 -1 26.5t17 10.5h33q10 0 16 -3.5t13 -15.5l149 -315q8 -14 -4 -35l-240 -322q-10 -12 -17 -15t-17 -3h-33q-27 0 -4 37zM369 166l211 321l-123 314q-6 16 -1 26.5t17 10.5h33q10 0 16 -3.5t13 -15.5l149 -315q8 -14 -4 -35l-240 -322 q-10 -12 -17 -15t-17 -3h-33q-27 0 -4 37z" />
<glyph unicode="&#xbc;" horiz-adv-x="1251" d="M86 8q-4 8 4 21l891 1390q6 10 14.5 12.5t14.5 2.5h37q12 0 16 -8.5t-4 -20.5l-887 -1385q-10 -16 -19.5 -18t-15.5 -2h-35q-12 0 -16 8zM215 1311q-4 12 8 22l156 101h22q6 0 12.5 -3.5t4.5 -13.5l-80 -573q-4 -16 -16 -17h-43q-16 0 -13 17l70 489l-96 -53 q-12 -6 -17 4zM612 160l2 18l408 428h27q6 0 12 -5t4 -13l-53 -379h71q6 0 11.5 -4t3.5 -12l-4 -33q-4 -16 -19 -17h-71l-19 -125q-4 -18 -20 -18h-39q-6 0 -12.5 5t-4.5 13l17 123h-301q-16 0 -13 19zM733 211h203l37 258z" />
<glyph unicode="&#xbd;" horiz-adv-x="1257" d="M86 8q-4 8 4 21l891 1390q6 10 14.5 12.5t14.5 2.5h37q12 0 16 -8.5t-4 -20.5l-887 -1385q-10 -16 -19.5 -18t-15.5 -2h-35q-12 0 -16 8zM215 1311q-4 12 8 22l156 101h22q6 0 12.5 -3.5t4.5 -13.5l-80 -573q-4 -16 -16 -17h-43q-16 0 -13 17l70 489l-96 -53 q-12 -6 -17 4zM678 16l2 19l289 266q31 29 58.5 68t27.5 86q0 41 -27 72.5t-86 31.5q-51 0 -84 -28.5t-45 -41.5q-12 -12 -20 0l-25 25q-8 8 2 21q23 25 51 45q25 16 58.5 31.5t76.5 15.5q82 0 126 -46t44 -112q0 -57 -30.5 -110.5t-77.5 -96.5l-219 -199h256q14 0 12 -16 l-4 -31q0 -16 -16 -16h-355q-14 0 -14 16z" />
<glyph unicode="&#xbe;" horiz-adv-x="1398" d="M158 891q-10 10 4 22l22 23q14 14 23 0q6 -6 15 -16.5t24.5 -21.5t40 -19.5t59.5 -8.5q27 0 55.5 9.5t50 27t36 42t14.5 55.5q0 41 -31 70.5t-98 29.5h-84q-16 0 -13 20l5 25q0 16 16 16h84q27 0 53.5 11.5t47 30t32.5 42t12 45.5q0 43 -28.5 69t-77.5 26 q-31 0 -54.5 -8.5t-41 -18.5t-28.5 -20.5t-15 -14.5t-9.5 -5t-9.5 3l-20 23q-8 12 2 22q23 23 51 41q25 16 59.5 29.5t79.5 13.5q66 0 117 -39t51 -106q0 -53 -33.5 -98.5t-85.5 -71.5q25 -10 45 -29q16 -16 31.5 -41t15.5 -61q0 -45 -20 -82t-53 -63.5t-76 -41t-88 -14.5 q-43 0 -75 10t-53.5 23.5t-33.5 28t-18 22.5zM233.5 8q-4.5 8 4.5 21l890 1390q6 10 14.5 12.5t14.5 2.5h37q12 0 16 -8.5t-4 -20.5l-887 -1385q-10 -16 -19 -18t-15 -2h-35q-12 0 -16.5 8zM760 160l2 18l407 428h27q6 0 12 -5t4 -13l-53 -379h72q6 0 11 -4t3 -12l-4 -33 q-4 -16 -18 -17h-72l-18 -125q-4 -18 -21 -18h-39q-6 0 -12 5t-4 13l16 123h-301q-16 0 -12 19zM881 211h202l37 258z" />
<glyph unicode="&#xbf;" horiz-adv-x="804" d="M-37 -262q0 76 30 133t74 102t92 80t85 64q84 66 92 125l16 116q4 29 29 29h35q27 0 24 -29l-16 -118q-8 -59 -43 -104.5t-88 -84.5q-41 -31 -83 -61.5t-76 -65.5t-55.5 -77t-21.5 -95q0 -31 11.5 -62.5t34 -57t55 -41t78.5 -15.5q59 0 106 17.5t81 41t54.5 47t28.5 35.5 q4 8 12 11.5t23 -7.5l28 -20q16 -10 12.5 -19.5t-10.5 -19.5q-33 -49 -82 -86q-43 -33 -107.5 -58.5t-156.5 -25.5q-61 0 -110 19.5t-83 53.5t-51.5 79t-17.5 94zM379 874q0 39 28.5 66t65.5 27q29 0 48.5 -21.5t19.5 -50.5q0 -41 -27.5 -66.5t-62.5 -25.5q-31 0 -51.5 20.5 t-20.5 50.5z" />
<glyph unicode="&#xc0;" horiz-adv-x="1239" d="M-49 29l758 1411q6 14 26 14h6q8 0 14.5 -2t10.5 -12l373 -1415q4 -10 -1 -17.5t-22 -7.5h-53q-14 0 -19.5 6t-7.5 12l-94 377h-692l-197 -377q-4 -6 -11 -12t-22 -6h-59q-25 0 -10 29zM297 475h623l-197 815h-6zM577 1718l21 31q6 12 20 13t25 -7l217 -146 q20 -16 10 -39l-10 -18q-8 -8 -17.5 -11t-23.5 3l-236 129q-23 16 -6 45z" />
<glyph unicode="&#xc1;" horiz-adv-x="1239" d="M-49 29l758 1411q6 14 26 14h6q8 0 14.5 -2t10.5 -12l373 -1415q4 -10 -1 -17.5t-22 -7.5h-53q-14 0 -19.5 6t-7.5 12l-94 377h-692l-197 -377q-4 -6 -11 -12t-22 -6h-59q-25 0 -10 29zM297 475h623l-197 815h-6zM672 1572q-10 25 19 39l223 129q10 4 23.5 4t21.5 -14 l12 -31q8 -27 -14 -41l-258 -122v2q-10 -6 -21 20z" />
<glyph unicode="&#xc2;" horiz-adv-x="1239" d="M-49 29l758 1411q6 14 26 14h6q8 0 14.5 -2t10.5 -12l373 -1415q4 -10 -1 -17.5t-22 -7.5h-53q-14 0 -19.5 6t-7.5 12l-94 377h-692l-197 -377q-4 -6 -11 -12t-22 -6h-59q-25 0 -10 29zM297 475h623l-197 815h-6zM561 1574q-10 18 10 37l201 160q12 10 27 10q10 0 22 -10 l158 -162q6 -6 10 -15t-8 -22l-10 -12q-6 -6 -16.5 -12t-22.5 8l-142 127l-178 -133q-16 -12 -25.5 -6t-13.5 12z" />
<glyph unicode="&#xc3;" horiz-adv-x="1239" d="M-49 29l758 1411q6 14 26 14h6q8 0 14.5 -2t10.5 -12l373 -1415q4 -10 -1 -17.5t-22 -7.5h-53q-14 0 -19.5 6t-7.5 12l-94 377h-692l-197 -377q-4 -6 -11 -12t-22 -6h-59q-25 0 -10 29zM297 475h623l-197 815h-6zM545 1628q4 10 15 33.5t30.5 48t47.5 44t69 19.5 q43 0 63.5 -24.5t33.5 -54t23.5 -49t28.5 -19.5q16 0 29.5 9t24 23.5t17.5 30t11 27.5q12 29 39 16l20 -6q6 -6 11.5 -12t-0.5 -23q0 -4 -9.5 -27.5t-30 -50t-50 -48t-72.5 -21.5q-41 0 -62.5 26.5t-35 54t-23.5 49t-27 21.5q-18 0 -31.5 -11t-25.5 -26.5t-19.5 -32 t-11.5 -28.5q-10 -29 -36 -14l-19 8q-25 8 -10 37z" />
<glyph unicode="&#xc4;" horiz-adv-x="1239" d="M-49 29l758 1411q6 14 26 14h6q8 0 14.5 -2t10.5 -12l373 -1415q4 -10 -1 -17.5t-22 -7.5h-53q-14 0 -19.5 6t-7.5 12l-94 377h-692l-197 -377q-4 -6 -11 -12t-22 -6h-59q-25 0 -10 29zM297 475h623l-197 815h-6zM510 1700q0 39 27.5 65.5t62.5 26.5q31 0 51.5 -21.5 t20.5 -52.5q0 -37 -27.5 -63.5t-64.5 -26.5q-31 0 -50.5 21.5t-19.5 50.5zM895 1700q0 39 27.5 65.5t62.5 26.5q31 0 51.5 -21.5t20.5 -52.5q0 -37 -27.5 -63.5t-64.5 -26.5q-29 0 -49.5 21.5t-20.5 50.5z" />
<glyph unicode="&#xc5;" horiz-adv-x="1239" d="M-49 29l758 1411q6 14 26 14h6q8 0 14.5 -2t10.5 -12l373 -1415q4 -10 -1 -17.5t-22 -7.5h-53q-14 0 -19.5 6t-7.5 12l-94 377h-692l-197 -377q-4 -6 -11 -12t-22 -6h-59q-25 0 -10 29zM297 475h623l-197 815h-6zM594 1731q0 51 17.5 97t49 80t73.5 53t91 19 q74 0 121 -55t47 -133q0 -53 -17.5 -98t-48 -78t-72.5 -52.5t-91 -19.5q-76 0 -123 54.5t-47 132.5zM662 1743q0 -53 31.5 -93t80.5 -40q66 0 108 51t42 121q0 53 -30 92t-77 39q-66 0 -110.5 -50.5t-44.5 -119.5z" />
<glyph unicode="&#xc6;" horiz-adv-x="1687" d="M-83 10q1 10 11 25l967 1364q10 14 22.5 24.5t34.5 10.5h721q27 0 23 -27l-4 -33q-4 -27 -31 -26h-672l-80 -568h578q16 0 25.5 -7t5.5 -23l-5 -27q-2 -12 -9 -21.5t-23 -9.5h-584l-84 -606h672q29 0 22 -31l-6 -28q-4 -27 -28 -27h-736q-27 0 -22 27l51 368h-481 l-260 -377q-16 -18 -35 -18h-60q-14 0 -13 10zM342 475h436l109 782z" />
<glyph unicode="&#xc7;" horiz-adv-x="1343" d="M133 616q0 176 62.5 330t169 266.5t248 177t296.5 64.5q141 0 243.5 -49t180.5 -141q16 -18 -2 -37l-35 -31q-18 -14 -34 2q-66 78 -159 121t-204 43q-131 0 -251 -58.5t-211 -159t-145 -234.5t-54 -283q0 -115 34.5 -214.5t98 -173t151.5 -116.5t195 -43q119 0 218 49 t181 123q20 16 33 4l39 -43q14 -16 -4 -35q-104 -94 -216 -142t-227 -54l-90 -123q20 4 31 4q31 0 60.5 -8.5t54 -25.5t40 -47t15.5 -73q0 -41 -18.5 -75.5t-50 -61.5t-73.5 -41t-92 -14q-57 0 -99 19.5t-64 43.5q-6 8 -4 15.5t6 11.5l24 39q12 18 29 2q20 -20 44 -35.5 t64 -15.5q20 0 46 6t47.5 19t36 33.5t14.5 51.5q0 41 -31 59.5t-78 18.5q-29 0 -56.5 -5t-47.5 -13q-10 -4 -20.5 8t-4.5 22l131 185q-115 10 -211 63t-164.5 138t-107.5 195.5t-39 237.5z" />
<glyph unicode="&#xc8;" horiz-adv-x="1101" d="M129 27l195 1380q2 10 10 18.5t18 8.5h738q27 0 22 -27l-4 -35q-4 -27 -31 -26h-663l-80 -566h573q27 0 23 -26l-4 -35q-4 -27 -31 -27h-573l-86 -606h665q27 0 23 -27l-6 -32q-4 -27 -29 -27h-737q-27 0 -23 27zM530 1725l21 31q6 12 20 13t25 -7l217 -146 q20 -16 10 -39l-10 -18q-8 -8 -17.5 -11t-23.5 3l-236 129q-23 16 -6 45z" />
<glyph unicode="&#xc9;" horiz-adv-x="1101" d="M129 27l195 1380q2 10 10 18.5t18 8.5h738q27 0 22 -27l-4 -35q-4 -27 -31 -26h-663l-80 -566h573q27 0 23 -26l-4 -35q-4 -27 -31 -27h-573l-86 -606h665q27 0 23 -27l-6 -32q-4 -27 -29 -27h-737q-27 0 -23 27zM596 1579q-10 25 19 39l223 129q10 4 23.5 4t21.5 -14 l12 -31q8 -27 -14 -41l-258 -122v2q-10 -6 -21 20z" />
<glyph unicode="&#xca;" horiz-adv-x="1101" d="M129 27l195 1380q2 10 10 18.5t18 8.5h738q27 0 22 -27l-4 -35q-4 -27 -31 -26h-663l-80 -566h573q27 0 23 -26l-4 -35q-4 -27 -31 -27h-573l-86 -606h665q27 0 23 -27l-6 -32q-4 -27 -29 -27h-737q-27 0 -23 27zM541 1574q-10 18 10 37l201 160q12 10 27 10q10 0 22 -10 l158 -162q6 -6 10 -15t-8 -22l-10 -12q-6 -6 -16.5 -12t-22.5 8l-142 127l-178 -133q-16 -12 -25.5 -6t-13.5 12z" />
<glyph unicode="&#xcb;" horiz-adv-x="1101" d="M129 27l195 1380q2 10 10 18.5t18 8.5h738q27 0 22 -27l-4 -35q-4 -27 -31 -26h-663l-80 -566h573q27 0 23 -26l-4 -35q-4 -27 -31 -27h-573l-86 -606h665q27 0 23 -27l-6 -32q-4 -27 -29 -27h-737q-27 0 -23 27zM471 1700q0 39 27.5 65.5t62.5 26.5q31 0 51.5 -21.5 t20.5 -52.5q0 -37 -27.5 -63.5t-64.5 -26.5q-31 0 -50.5 21.5t-19.5 50.5zM856 1700q0 39 27.5 65.5t62.5 26.5q31 0 51.5 -21.5t20.5 -52.5q0 -37 -27.5 -63.5t-64.5 -26.5q-29 0 -49.5 21.5t-20.5 50.5z" />
<glyph unicode="&#xcc;" horiz-adv-x="516" d="M131 27l193 1380q4 27 30 27h45q27 0 23 -27l-193 -1380q-6 -27 -32 -27h-43q-27 0 -23 27zM211 1718l21 31q6 12 20 13t25 -7l217 -146q20 -16 10 -39l-10 -18q-8 -8 -17.5 -11t-23.5 3l-236 129q-23 16 -6 45z" />
<glyph unicode="&#xcd;" horiz-adv-x="516" d="M131 27l193 1380q4 27 30 27h45q27 0 23 -27l-193 -1380q-6 -27 -32 -27h-43q-27 0 -23 27zM307 1572q-10 25 19 39l223 129q10 4 23.5 4t21.5 -14l12 -31q8 -27 -14 -41l-258 -122v2q-10 -6 -21 20z" />
<glyph unicode="&#xce;" horiz-adv-x="516" d="M131 27l193 1380q4 27 30 27h45q27 0 23 -27l-193 -1380q-6 -27 -32 -27h-43q-27 0 -23 27zM139 1599q-8 14 8 29l252 201q12 10 25 10q8 0 18 -10l197 -201q6 -6 9 -13t-5 -16l-14 -16q-6 -6 -13.5 -10t-17.5 6l-182 166l-232 -172q-14 -10 -20 -6t-10 10z" />
<glyph unicode="&#xcf;" horiz-adv-x="516" d="M131 27l193 1380q4 27 30 27h45q27 0 23 -27l-193 -1380q-6 -27 -32 -27h-43q-27 0 -23 27zM139 1700q0 39 28 65.5t62 26.5q31 0 51.5 -21.5t20.5 -52.5q0 -37 -27.5 -63.5t-64.5 -26.5q-31 0 -50.5 21.5t-19.5 50.5zM524 1700q0 39 28 65.5t62 26.5q31 0 51.5 -21.5 t20.5 -52.5q0 -37 -27.5 -63.5t-64.5 -26.5q-29 0 -49.5 21.5t-20.5 50.5z" />
<glyph unicode="&#xd0;" horiz-adv-x="1415" d="M131 27l92 653h-63q-25 0 -21 27l2 14q4 23 29 22h61l95 664q4 27 26 27h410q121 0 223 -49.5t176 -134.5t116 -197.5t42 -241.5q0 -168 -63.5 -315.5t-169 -258t-241.5 -174t-284 -63.5h-409q-25 0 -21 27zM236 88h321q131 0 250 55.5t209 151.5t143 228t53 284 q0 113 -34.5 212t-98 171t-151.5 114t-195 42h-321l-84 -603h448q27 0 23 -22l-2 -16q-2 -10 -10.5 -17.5t-18.5 -7.5h-449z" />
<glyph unicode="&#xd1;" horiz-adv-x="1452" d="M131 27l197 1400q6 27 32 27h11q18 0 30 -18l693 -1254h4l168 1225q4 27 30 27h41q27 0 23 -27l-197 -1401q-2 -14 -12 -20t-23 -6h-12q-18 0 -31 18l-688 1257h-2l-172 -1228q-4 -20 -19.5 -23.5t-31.5 -3.5h-18q-27 0 -23 27zM612 1675q6 14 20.5 43t37 58.5t55.5 52 t80 22.5t70.5 -28.5t39 -64.5t31 -64.5t45.5 -28.5q25 0 44.5 13.5t32.5 33t22.5 40t15.5 34.5q10 25 31 14l24 -8q4 -4 8.5 -9t-0.5 -18q-2 -6 -13 -34.5t-34.5 -59.5t-58.5 -56.5t-84 -25.5q-47 0 -70.5 30t-40 64.5t-32 64.5t-43.5 30q-27 0 -46.5 -15.5t-35 -36 t-24.5 -42t-15 -35.5q-8 -23 -29 -13l-22 11q-18 6 -9 28z" />
<glyph unicode="&#xd2;" horiz-adv-x="1574" d="M133 614q0 174 61.5 327t168 266.5t247 180t299.5 66.5q121 0 225.5 -50t181.5 -137t120 -204t43 -250q0 -174 -61.5 -325.5t-168 -264t-247 -178t-300.5 -65.5q-121 0 -225 49t-181 135t-120 201.5t-43 248.5zM227 627q0 -115 36 -216.5t100.5 -177t153.5 -119.5 t198 -44q131 0 251.5 57t214 156.5t148.5 232.5t55 285q0 117 -35.5 219t-100 179t-154.5 121t-197 44q-131 0 -252 -58.5t-214 -158.5t-148.5 -234t-55.5 -286zM741 1718l21 31q6 12 20 13t25 -7l217 -146q20 -16 10 -39l-10 -18q-8 -8 -17.5 -11t-23.5 3l-236 129 q-23 16 -6 45z" />
<glyph unicode="&#xd3;" horiz-adv-x="1574" d="M133 614q0 174 61.5 327t168 266.5t247 180t299.5 66.5q121 0 225.5 -50t181.5 -137t120 -204t43 -250q0 -174 -61.5 -325.5t-168 -264t-247 -178t-300.5 -65.5q-121 0 -225 49t-181 135t-120 201.5t-43 248.5zM227 627q0 -115 36 -216.5t100.5 -177t153.5 -119.5 t198 -44q131 0 251.5 57t214 156.5t148.5 232.5t55 285q0 117 -35.5 219t-100 179t-154.5 121t-197 44q-131 0 -252 -58.5t-214 -158.5t-148.5 -234t-55.5 -286zM837 1572q-10 25 19 39l223 129q10 4 23.5 4t21.5 -14l12 -31q8 -27 -14 -41l-258 -122v2q-10 -6 -21 20z" />
<glyph unicode="&#xd4;" horiz-adv-x="1574" d="M133 614q0 174 61.5 327t168 266.5t247 180t299.5 66.5q121 0 225.5 -50t181.5 -137t120 -204t43 -250q0 -174 -61.5 -325.5t-168 -264t-247 -178t-300.5 -65.5q-121 0 -225 49t-181 135t-120 201.5t-43 248.5zM227 627q0 -115 36 -216.5t100.5 -177t153.5 -119.5 t198 -44q131 0 251.5 57t214 156.5t148.5 232.5t55 285q0 117 -35.5 219t-100 179t-154.5 121t-197 44q-131 0 -252 -58.5t-214 -158.5t-148.5 -234t-55.5 -286zM727 1574q-10 18 10 37l201 160q12 10 27 10q10 0 22 -10l158 -162q6 -6 10 -15t-8 -22l-10 -12 q-6 -6 -16.5 -12t-22.5 8l-142 127l-178 -133q-16 -12 -25.5 -6t-13.5 12z" />
<glyph unicode="&#xd5;" horiz-adv-x="1574" d="M133 614q0 174 61.5 327t168 266.5t247 180t299.5 66.5q121 0 225.5 -50t181.5 -137t120 -204t43 -250q0 -174 -61.5 -325.5t-168 -264t-247 -178t-300.5 -65.5q-121 0 -225 49t-181 135t-120 201.5t-43 248.5zM227 627q0 -115 36 -216.5t100.5 -177t153.5 -119.5 t198 -44q131 0 251.5 57t214 156.5t148.5 232.5t55 285q0 117 -35.5 219t-100 179t-154.5 121t-197 44q-131 0 -252 -58.5t-214 -158.5t-148.5 -234t-55.5 -286zM709 1628q4 10 15 33.5t30.5 48t47.5 44t69 19.5q43 0 63.5 -24.5t33.5 -54t23.5 -49t28.5 -19.5q16 0 29.5 9 t24 23.5t17.5 30t11 27.5q12 29 39 16l20 -6q6 -6 11.5 -12t-0.5 -23q0 -4 -9.5 -27.5t-30 -50t-50 -48t-72.5 -21.5q-41 0 -62.5 26.5t-35 54t-23.5 49t-27 21.5q-18 0 -31.5 -11t-25.5 -26.5t-19.5 -32t-11.5 -28.5q-10 -29 -36 -14l-19 8q-25 8 -10 37z" />
<glyph unicode="&#xd6;" horiz-adv-x="1574" d="M133 614q0 174 61.5 327t168 266.5t247 180t299.5 66.5q121 0 225.5 -50t181.5 -137t120 -204t43 -250q0 -174 -61.5 -325.5t-168 -264t-247 -178t-300.5 -65.5q-121 0 -225 49t-181 135t-120 201.5t-43 248.5zM227 627q0 -115 36 -216.5t100.5 -177t153.5 -119.5 t198 -44q131 0 251.5 57t214 156.5t148.5 232.5t55 285q0 117 -35.5 219t-100 179t-154.5 121t-197 44q-131 0 -252 -58.5t-214 -158.5t-148.5 -234t-55.5 -286zM690 1700q0 39 27.5 65.5t62.5 26.5q31 0 51.5 -21.5t20.5 -52.5q0 -37 -27.5 -63.5t-64.5 -26.5 q-31 0 -50.5 21.5t-19.5 50.5zM1075 1700q0 39 27.5 65.5t62.5 26.5q31 0 51.5 -21.5t20.5 -52.5q0 -37 -27.5 -63.5t-64.5 -26.5q-29 0 -49.5 21.5t-20.5 50.5z" />
<glyph unicode="&#xd7;" horiz-adv-x="1228" d="M299 446.5q2 10.5 12 18.5l256 250l-182 246q-6 8 -5 20t9 18l23 19q8 8 19 8t18 -8l184 -246l256 252q8 8 18.5 7t18.5 -9l24 -27q6 -6 5 -17t-9 -20l-258 -251l184 -246q6 -8 4 -19.5t-10 -17.5l-24 -18q-8 -6 -17.5 -8.5t-15.5 5.5l-186 248l-258 -250q-18 -14 -33 0 l-27 27q-8 8 -6 18.5z" />
<glyph unicode="&#xd8;" horiz-adv-x="1572" d="M100 57q-12 20 4 37l134 127q-51 78 -78 183.5t-27 209.5q0 174 63.5 327t171 266.5t248 180t293.5 66.5q131 0 239.5 -53t184.5 -148l140 131q8 8 18 9.5t16 -9.5l6 -8q14 -18 -6 -37l-137 -131q51 -78 80 -185.5t29 -211.5q0 -172 -64.5 -323.5t-172 -264t-249 -178 t-293.5 -65.5q-133 0 -241.5 51t-184.5 145l-135 -127q-6 -8 -16 -8t-17 8zM223 625q0 -92 22.5 -182.5t65.5 -155.5l951 903q-66 82 -160 128t-207 46q-131 0 -252 -58.5t-214 -158.5t-149.5 -234.5t-56.5 -287.5zM348 242q66 -82 159 -127t208 -45q131 0 251.5 57 t215 156.5t151 233.5t56.5 286q0 90 -24 182t-69 160z" />
<glyph unicode="&#xd9;" horiz-adv-x="1357" d="M176 403q0 43 6 93l129 911q2 10 10.5 18.5t18.5 8.5h45q27 0 23 -27l-127 -901q-6 -49 -7 -92q0 -160 86 -250t246 -90q182 0 301 115.5t148 314.5l129 903q4 27 30 27h43q10 0 16.5 -8.5t4.5 -18.5l-127 -911q-16 -117 -63.5 -212.5t-120 -163t-167.5 -104t-208 -36.5 q-94 0 -171 29.5t-131 85t-84 133t-30 175.5zM633 1718l21 31q6 12 20 13t25 -7l217 -146q20 -16 10 -39l-10 -18q-8 -8 -17.5 -11t-23.5 3l-236 129q-23 16 -6 45z" />
<glyph unicode="&#xda;" horiz-adv-x="1357" d="M176 403q0 43 6 93l129 911q2 10 10.5 18.5t18.5 8.5h45q27 0 23 -27l-127 -901q-6 -49 -7 -92q0 -160 86 -250t246 -90q182 0 301 115.5t148 314.5l129 903q4 27 30 27h43q10 0 16.5 -8.5t4.5 -18.5l-127 -911q-16 -117 -63.5 -212.5t-120 -163t-167.5 -104t-208 -36.5 q-94 0 -171 29.5t-131 85t-84 133t-30 175.5zM729 1572q-10 25 19 39l223 129q10 4 23.5 4t21.5 -14l12 -31q8 -27 -14 -41l-258 -122v2q-10 -6 -21 20z" />
<glyph unicode="&#xdb;" horiz-adv-x="1357" d="M176 403q0 43 6 93l129 911q2 10 10.5 18.5t18.5 8.5h45q27 0 23 -27l-127 -901q-6 -49 -7 -92q0 -160 86 -250t246 -90q182 0 301 115.5t148 314.5l129 903q4 27 30 27h43q10 0 16.5 -8.5t4.5 -18.5l-127 -911q-16 -117 -63.5 -212.5t-120 -163t-167.5 -104t-208 -36.5 q-94 0 -171 29.5t-131 85t-84 133t-30 175.5zM553 1599q-8 14 8 29l252 201q12 10 25 10q8 0 18 -10l197 -201q16 -16 4 -29l-15 -16q-6 -6 -13 -10t-17 6l-183 166l-231 -172q-14 -10 -20.5 -6t-10.5 10z" />
<glyph unicode="&#xdc;" horiz-adv-x="1357" d="M176 403q0 43 6 93l129 911q2 10 10.5 18.5t18.5 8.5h45q27 0 23 -27l-127 -901q-6 -49 -7 -92q0 -160 86 -250t246 -90q182 0 301 115.5t148 314.5l129 903q4 27 30 27h43q10 0 16.5 -8.5t4.5 -18.5l-127 -911q-16 -117 -63.5 -212.5t-120 -163t-167.5 -104t-208 -36.5 q-94 0 -171 29.5t-131 85t-84 133t-30 175.5zM553 1700q0 39 27.5 65.5t62.5 26.5q31 0 51.5 -21.5t20.5 -52.5q0 -37 -27.5 -63.5t-64.5 -26.5q-31 0 -50.5 21.5t-19.5 50.5zM938 1700q0 39 27.5 65.5t62.5 26.5q31 0 51.5 -21.5t20.5 -52.5q0 -37 -27.5 -63.5t-64.5 -26.5 q-29 0 -49.5 21.5t-20.5 50.5z" />
<glyph unicode="&#xdd;" horiz-adv-x="1079" d="M129 1407q-14 27 18 27h58q10 0 15 -4.5t7 -8.5l326 -626h4l506 626q12 12 29 13h67q16 0 20.5 -9.5t-5.5 -21.5l-578 -705l-94 -671q-4 -27 -31 -27h-41q-25 0 -22 27l92 669zM585 1572q-10 25 19 39l223 129q10 4 23.5 4t21.5 -14l12 -31q8 -27 -14 -41l-258 -122v2 q-10 -6 -21 20z" />
<glyph unicode="&#xde;" horiz-adv-x="1134" d="M129 27l195 1380q2 10 10 18.5t18 8.5h45q27 0 23 -27l-33 -227h330q74 0 138.5 -32t112.5 -86t76.5 -126t28.5 -154q0 -109 -40 -204t-106.5 -166.5t-154.5 -112.5t-184 -41h-330l-33 -231q-4 -27 -37 -27h-36q-27 0 -23 27zM270 350h324q72 0 140.5 34t121.5 91t86 134 t33 163q0 66 -21.5 122t-58.5 98t-88 66.5t-111 24.5h-321z" />
<glyph unicode="&#xdf;" horiz-adv-x="1138" d="M31 -457l200 1428q35 233 148 358t307 125q76 0 136.5 -24.5t102.5 -67.5t64.5 -102.5t22.5 -129.5q0 -86 -40 -153.5t-89 -118.5t-89 -89t-40 -64q0 -27 37.5 -65t83 -88t83 -112.5t37.5 -136.5q0 -80 -28.5 -140.5t-79.5 -101.5t-120 -62.5t-149 -21.5q-61 0 -113 14.5 t-85 31.5q-12 6 -19.5 17t0.5 28l11 24q4 10 15 17.5t26 -0.5q31 -16 74.5 -31t105.5 -15q113 0 189.5 62.5t76.5 173.5q0 63 -39 119.5t-85 105.5t-84 91t-38 79q0 43 41 89t91.5 98.5t91.5 113t41 133.5q0 109 -61.5 173.5t-172.5 64.5q-82 0 -143.5 -28.5t-105.5 -80 t-70.5 -125t-38.5 -161.5l-203 -1428q-4 -16 -10.5 -23t-22.5 -7h-39q-10 0 -16 10t-4 20z" />
<glyph unicode="&#xe0;" d="M98 412q0 113 38 214t102.5 177t151.5 120t185 44q57 0 103.5 -14.5t79.5 -33t52 -37t26 -26.5l20 64q8 27 29 26h20q10 0 18.5 -9t4.5 -22l-121 -884q-2 -12 -12.5 -21.5t-20.5 -9.5h-18q-29 0 -27 33l4 82q-10 -12 -36.5 -35t-66.5 -46.5t-91.5 -40t-112.5 -16.5 q-74 0 -134.5 33t-103.5 91.5t-66.5 138t-23.5 172.5zM188 412q0 -68 18.5 -131.5t51.5 -111.5t80 -77t104 -29q66 0 121 26t95 56.5t62.5 58t24.5 32.5l70 520q-2 4 -17.5 23.5t-45 42t-73.5 40t-106 17.5q-82 0 -151.5 -38t-121.5 -102.5t-82 -148.5t-30 -178zM387 1231 l21 31q6 12 20 13t25 -7l217 -146q20 -16 10 -39l-10 -18q-8 -8 -17.5 -11t-23.5 3l-236 129q-23 16 -6 45z" />
<glyph unicode="&#xe1;" d="M98 412q0 113 38 214t102.5 177t151.5 120t185 44q57 0 103.5 -14.5t79.5 -33t52 -37t26 -26.5l20 64q8 27 29 26h20q10 0 18.5 -9t4.5 -22l-121 -884q-2 -12 -12.5 -21.5t-20.5 -9.5h-18q-29 0 -27 33l4 82q-10 -12 -36.5 -35t-66.5 -46.5t-91.5 -40t-112.5 -16.5 q-74 0 -134.5 33t-103.5 91.5t-66.5 138t-23.5 172.5zM188 412q0 -68 18.5 -131.5t51.5 -111.5t80 -77t104 -29q66 0 121 26t95 56.5t62.5 58t24.5 32.5l70 520q-2 4 -17.5 23.5t-45 42t-73.5 40t-106 17.5q-82 0 -151.5 -38t-121.5 -102.5t-82 -148.5t-30 -178zM481 1085 q-10 25 19 39l223 129q10 4 23.5 4t21.5 -14l12 -31q8 -27 -14 -41l-258 -122v2q-10 -6 -21 20z" />
<glyph unicode="&#xe2;" d="M98 412q0 113 38 214t102.5 177t151.5 120t185 44q57 0 103.5 -14.5t79.5 -33t52 -37t26 -26.5l20 64q8 27 29 26h20q10 0 18.5 -9t4.5 -22l-121 -884q-2 -12 -12.5 -21.5t-20.5 -9.5h-18q-29 0 -27 33l4 82q-10 -12 -36.5 -35t-66.5 -46.5t-91.5 -40t-112.5 -16.5 q-74 0 -134.5 33t-103.5 91.5t-66.5 138t-23.5 172.5zM188 412q0 -68 18.5 -131.5t51.5 -111.5t80 -77t104 -29q66 0 121 26t95 56.5t62.5 58t24.5 32.5l70 520q-2 4 -17.5 23.5t-45 42t-73.5 40t-106 17.5q-82 0 -151.5 -38t-121.5 -102.5t-82 -148.5t-30 -178zM389 1085 q-10 18 10 37l201 160q12 10 27 10q10 0 22 -10l158 -162q6 -6 10 -15t-8 -22l-10 -12q-6 -6 -16.5 -12t-22.5 8l-142 127l-178 -133q-16 -12 -25.5 -6t-13.5 12z" />
<glyph unicode="&#xe3;" d="M98 412q0 113 38 214t102.5 177t151.5 120t185 44q57 0 103.5 -14.5t79.5 -33t52 -37t26 -26.5l20 64q8 27 29 26h20q10 0 18.5 -9t4.5 -22l-121 -884q-2 -12 -12.5 -21.5t-20.5 -9.5h-18q-29 0 -27 33l4 82q-10 -12 -36.5 -35t-66.5 -46.5t-91.5 -40t-112.5 -16.5 q-74 0 -134.5 33t-103.5 91.5t-66.5 138t-23.5 172.5zM188 412q0 -68 18.5 -131.5t51.5 -111.5t80 -77t104 -29q66 0 121 26t95 56.5t62.5 58t24.5 32.5l70 520q-2 4 -17.5 23.5t-45 42t-73.5 40t-106 17.5q-82 0 -151.5 -38t-121.5 -102.5t-82 -148.5t-30 -178zM391 1139 q4 10 15 33.5t30.5 48t47.5 44t69 19.5q43 0 63.5 -24.5t33.5 -54t23.5 -49t28.5 -19.5q16 0 29.5 9t24 23.5t17.5 30t11 27.5q12 29 39 16l20 -6q6 -6 11.5 -12t-0.5 -23q0 -4 -9.5 -27.5t-30 -50t-50 -48t-72.5 -21.5q-41 0 -62.5 26.5t-35 54t-23.5 49t-27 21.5 q-18 0 -31.5 -11t-25.5 -26.5t-19.5 -32t-11.5 -28.5q-10 -29 -36 -14l-19 8q-25 8 -10 37z" />
<glyph unicode="&#xe4;" d="M98 412q0 113 38 214t102.5 177t151.5 120t185 44q57 0 103.5 -14.5t79.5 -33t52 -37t26 -26.5l20 64q8 27 29 26h20q10 0 18.5 -9t4.5 -22l-121 -884q-2 -12 -12.5 -21.5t-20.5 -9.5h-18q-29 0 -27 33l4 82q-10 -12 -36.5 -35t-66.5 -46.5t-91.5 -40t-112.5 -16.5 q-74 0 -134.5 33t-103.5 91.5t-66.5 138t-23.5 172.5zM188 412q0 -68 18.5 -131.5t51.5 -111.5t80 -77t104 -29q66 0 121 26t95 56.5t62.5 58t24.5 32.5l70 520q-2 4 -17.5 23.5t-45 42t-73.5 40t-106 17.5q-82 0 -151.5 -38t-121.5 -102.5t-82 -148.5t-30 -178zM399 1280 q0 39 28 65.5t62 26.5q33 0 51.5 -21.5t18.5 -52.5q0 -37 -25.5 -63.5t-62.5 -26.5q-31 0 -51.5 21.5t-20.5 50.5zM754 1280q0 39 26.5 65.5t61.5 26.5q33 0 53 -21.5t20 -52.5q0 -37 -27.5 -63.5t-64.5 -26.5q-31 0 -50 21.5t-19 50.5z" />
<glyph unicode="&#xe5;" horiz-adv-x="1056" d="M96 412q0 113 38 214t102.5 177t151.5 120t185 44q57 0 103.5 -14.5t79 -33t52 -37t26.5 -26.5l20 64q8 27 29 26h20q10 0 18.5 -9t4.5 -22l-121 -884q-2 -12 -12.5 -21.5t-20.5 -9.5h-18q-29 0 -27 33l4 82q-10 -12 -36.5 -35t-66.5 -46.5t-91.5 -40t-112.5 -16.5 q-74 0 -134.5 33t-103.5 91.5t-66.5 138t-23.5 172.5zM186 412q0 -68 18.5 -131.5t51.5 -111.5t80 -77t104 -29q66 0 121 26t95 56.5t62.5 58t24.5 32.5l70 520q-2 4 -17.5 23.5t-45 42t-73.5 40t-106 17.5q-82 0 -151.5 -38t-121.5 -102.5t-82 -148.5t-30 -178zM446 1231 q0 51 17.5 97t49.5 80t74 53.5t91 19.5q74 0 121 -55.5t47 -133.5q0 -53 -17.5 -98t-48 -78t-73 -52.5t-91.5 -19.5q-76 0 -123 54.5t-47 132.5zM514 1243q0 -53 32 -93t81 -40q66 0 107.5 51t41.5 121q0 53 -29.5 92t-76.5 39q-66 0 -111 -50t-45 -120z" />
<glyph unicode="&#xe6;" horiz-adv-x="1501" d="M53 238q0 78 30 145.5t83 117.5t124.5 78.5t155.5 28.5t138.5 -11t72.5 -22q12 80 16.5 137.5t-7 94.5t-43 54.5t-93.5 17.5q-55 0 -102 -9.5t-83 -19.5t-59.5 -21.5t-29.5 -13.5q-25 -6 -29 19l-6 36q-2 10 5 18.5t18 12.5q39 18 86 33q41 12 95 22.5t120 10.5 q98 0 146 -47.5t57 -128.5q57 76 153 126t213 50q61 0 113.5 -17.5t92.5 -49.5t62.5 -76t22.5 -99q0 -86 -45 -141.5t-113.5 -86t-151.5 -44t-158 -15.5t-133.5 1t-78.5 5l-25 -208q37 -82 108 -127.5t169 -45.5q55 0 97 9.5t75 24t57.5 30.5t44.5 31q10 8 21.5 9t19.5 -11 l19 -31q12 -20 -8 -39q-41 -35 -126 -72t-219 -37q-104 0 -177.5 48.5t-118.5 113.5q-27 -29 -66 -57.5t-87 -52t-101.5 -38t-108.5 -14.5q-104 0 -175 69t-71 192zM143 244q0 -90 51.5 -135.5t129.5 -45.5q45 0 89 13.5t80.5 34t66.5 46t48 48.5l39 289q-10 4 -63.5 19 t-141.5 15q-59 0 -112.5 -20.5t-95 -58t-66.5 -90t-25 -115.5zM737 526q109 -10 212.5 -8t185.5 23.5t131 64.5t49 115q0 74 -59.5 116t-151.5 42q-47 0 -97.5 -14.5t-96.5 -41t-85 -61.5t-65 -78z" />
<glyph unicode="&#xe7;" horiz-adv-x="980" d="M96 403q0 129 42 233.5t113 178.5t163 113t194 39q57 0 104.5 -14.5t84.5 -36t62.5 -47t41.5 -46.5q12 -14 -12 -43l-15 -16q-12 -14 -24 -9t-23 15q-12 14 -31.5 32.5t-47 35t-64.5 29t-84 12.5q-78 0 -151.5 -32t-132 -93.5t-94.5 -149.5t-36 -201q0 -68 22.5 -129 t62.5 -108t94.5 -75t115.5 -28q57 0 103.5 18.5t82 43.5t59.5 50.5t36 37.5q12 16 20.5 15t20.5 -11l24 -20q18 -16 2 -37q-16 -20 -43.5 -48t-66.5 -54.5t-88 -48t-107 -27.5l-90 -123q20 4 31 4q31 0 60.5 -8.5t54 -25.5t40 -47t15.5 -73q0 -41 -18.5 -75.5t-50 -61.5 t-73.5 -41t-92 -14q-57 0 -99 19.5t-64 43.5q-6 8 -4 15.5t6 11.5l24 39q12 18 29 2q20 -20 43.5 -35.5t64.5 -15.5q20 0 46 6t47.5 19t36 33.5t14.5 51.5q0 41 -31 59.5t-78 18.5q-29 0 -56.5 -5t-47.5 -13q-10 -4 -20.5 8t-4.5 22l129 183q-74 6 -136 40.5t-107.5 91 t-71 131t-25.5 160.5z" />
<glyph unicode="&#xe8;" horiz-adv-x="970" d="M96 395q0 117 36 220.5t100.5 181t153.5 124t198 46.5q125 0 207.5 -64.5t82.5 -175.5q0 -106 -65.5 -166.5t-166.5 -89.5t-222 -32t-232 5q-8 -82 7.5 -151.5t50.5 -120.5t88 -80t123 -29q51 0 92 10.5t73.5 25t57.5 30.5t41 29q29 20 45 -8l14 -23q4 -8 4 -17.5 t-10 -19.5q-23 -16 -53.5 -35.5t-71.5 -37t-91 -29t-112 -11.5q-84 0 -148.5 33t-109.5 89.5t-68.5 133t-23.5 162.5zM201 526q109 -8 213 -6t187 23.5t133 63.5t50 114q0 74 -59 116t-152 42q-68 0 -130 -28t-112 -76t-85 -111.5t-45 -137.5zM373 1231l21 31q6 12 20 13 t25 -7l217 -146q20 -16 10 -39l-10 -18q-8 -8 -17.5 -11t-23.5 3l-236 129q-23 16 -6 45z" />
<glyph unicode="&#xe9;" horiz-adv-x="970" d="M96 395q0 117 36 220.5t100.5 181t153.5 124t198 46.5q125 0 207.5 -64.5t82.5 -175.5q0 -106 -65.5 -166.5t-166.5 -89.5t-222 -32t-232 5q-8 -82 7.5 -151.5t50.5 -120.5t88 -80t123 -29q51 0 92 10.5t73.5 25t57.5 30.5t41 29q29 20 45 -8l14 -23q4 -8 4 -17.5 t-10 -19.5q-23 -16 -53.5 -35.5t-71.5 -37t-91 -29t-112 -11.5q-84 0 -148.5 33t-109.5 89.5t-68.5 133t-23.5 162.5zM201 526q109 -8 213 -6t187 23.5t133 63.5t50 114q0 74 -59 116t-152 42q-68 0 -130 -28t-112 -76t-85 -111.5t-45 -137.5zM467 1085q-10 25 19 39 l223 129q10 4 23.5 4t21.5 -14l12 -31q8 -27 -14 -41l-258 -122v2q-10 -6 -21 20z" />
<glyph unicode="&#xea;" horiz-adv-x="970" d="M96 395q0 117 36 220.5t100.5 181t153.5 124t198 46.5q125 0 207.5 -64.5t82.5 -175.5q0 -106 -65.5 -166.5t-166.5 -89.5t-222 -32t-232 5q-8 -82 7.5 -151.5t50.5 -120.5t88 -80t123 -29q51 0 92 10.5t73.5 25t57.5 30.5t41 29q29 20 45 -8l14 -23q4 -8 4 -17.5 t-10 -19.5q-23 -16 -53.5 -35.5t-71.5 -37t-91 -29t-112 -11.5q-84 0 -148.5 33t-109.5 89.5t-68.5 133t-23.5 162.5zM201 526q109 -8 213 -6t187 23.5t133 63.5t50 114q0 74 -59 116t-152 42q-68 0 -130 -28t-112 -76t-85 -111.5t-45 -137.5zM358 1087q-10 18 10 37 l201 160q12 10 27 10q10 0 22 -10l158 -162q6 -6 10 -15t-8 -22l-10 -12q-6 -6 -16.5 -12t-22.5 8l-142 127l-178 -133q-16 -12 -25.5 -6t-13.5 12z" />
<glyph unicode="&#xeb;" horiz-adv-x="970" d="M96 395q0 117 36 220.5t100.5 181t153.5 124t198 46.5q125 0 207.5 -64.5t82.5 -175.5q0 -106 -65.5 -166.5t-166.5 -89.5t-222 -32t-232 5q-8 -82 7.5 -151.5t50.5 -120.5t88 -80t123 -29q51 0 92 10.5t73.5 25t57.5 30.5t41 29q29 20 45 -8l14 -23q4 -8 4 -17.5 t-10 -19.5q-23 -16 -53.5 -35.5t-71.5 -37t-91 -29t-112 -11.5q-84 0 -148.5 33t-109.5 89.5t-68.5 133t-23.5 162.5zM201 526q109 -8 213 -6t187 23.5t133 63.5t50 114q0 74 -59 116t-152 42q-68 0 -130 -28t-112 -76t-85 -111.5t-45 -137.5zM391 1280q0 39 27.5 65.5 t62.5 26.5q33 0 51.5 -21.5t18.5 -52.5q0 -37 -25.5 -63.5t-62.5 -26.5q-31 0 -51.5 21.5t-20.5 50.5zM745 1280q0 39 27 65.5t62 26.5q33 0 53 -21.5t20 -52.5q0 -37 -27.5 -63.5t-64.5 -26.5q-31 0 -50.5 21.5t-19.5 50.5z" />
<glyph unicode="&#xec;" horiz-adv-x="442" d="M98 31l125 884q2 12 12.5 21.5t24.5 9.5h29q12 0 19 -9t5 -22l-125 -884q-4 -31 -30 -31h-37q-14 0 -19.5 9t-3.5 22zM108 1231l21 31q6 12 20 13t25 -7l217 -146q20 -16 10 -39l-10 -18q-8 -8 -17.5 -11t-23.5 3l-236 129q-23 16 -6 45z" />
<glyph unicode="&#xed;" horiz-adv-x="442" d="M98 31l125 884q2 12 12.5 21.5t24.5 9.5h29q12 0 19 -9t5 -22l-125 -884q-4 -31 -30 -31h-37q-14 0 -19.5 9t-3.5 22zM203 1085q-10 25 19 39l223 129q10 4 23.5 4t21.5 -14l12 -31q8 -27 -14 -41l-258 -122v2q-10 -6 -21 20z" />
<glyph unicode="&#xee;" horiz-adv-x="440" d="M37 1153q-8 14 8 29l252 200q12 10 25 11q8 0 18 -11l197 -200q6 -6 9 -13.5t-5 -15.5l-15 -16q-6 -6 -13 -10.5t-17 6.5l-183 165l-231 -172q-14 -10 -20.5 -6t-10.5 10zM96 31l125 884q2 12 12.5 21.5t24.5 9.5h29q12 0 19 -9t5 -22l-125 -884q-4 -31 -30 -31h-37 q-14 0 -19.5 9t-3.5 22z" />
<glyph unicode="&#xef;" horiz-adv-x="440" d="M59 1280q0 39 28 65.5t63 26.5q33 0 51 -21.5t18 -52.5q0 -37 -25.5 -63.5t-62.5 -26.5q-31 0 -51.5 21.5t-20.5 50.5zM96 31l125 884q2 12 12.5 21.5t24.5 9.5h29q12 0 19 -9t5 -22l-125 -884q-4 -31 -30 -31h-37q-14 0 -19.5 9t-3.5 22zM414 1280q0 39 26.5 65.5 t61.5 26.5q33 0 53 -21.5t20 -52.5q0 -37 -27.5 -63.5t-64.5 -26.5q-31 0 -50 21.5t-19 50.5z" />
<glyph unicode="&#xf0;" horiz-adv-x="1128" d="M92 377q0 121 44 222t113.5 174t157 114t173.5 41q68 0 124 -18.5t97 -45t66.5 -53.5t35.5 -45h2q-2 74 -19.5 139.5t-45 121.5t-63.5 104.5t-75 89.5l-237 -140q-10 -4 -19.5 -1t-13.5 14l-4 10q-4 10 -1 20.5t13 14.5l215 127q-61 53 -116.5 85.5t-83.5 47.5 q-14 4 -19.5 17.5t4.5 27.5l19 29q4 6 11 11t19 1q45 -23 114 -63t140 -105l138 82q25 12 37 -10l4 -11q6 -25 -15 -37l-116 -69q43 -45 80.5 -99.5t66.5 -121t46 -143.5t17 -165q0 -135 -34.5 -271t-104 -245.5t-171 -178t-236.5 -68.5q-78 0 -144.5 29.5t-115 82.5 t-76 126t-27.5 159zM184 391q0 -70 21.5 -130t59.5 -104t89.5 -69t112.5 -25q92 0 171 53.5t136 136.5t89 183.5t30 192.5q0 2 -19.5 35.5t-58.5 72.5t-99.5 71t-142.5 32q-72 0 -141.5 -35t-124.5 -96.5t-89 -143.5t-34 -174z" />
<glyph unicode="&#xf1;" horiz-adv-x="1034" d="M98 31l125 884q2 12 8.5 21.5t20.5 9.5h20q27 0 27 -24l-6 -95q14 14 41.5 38t67.5 46.5t91.5 39t116.5 16.5q86 0 141.5 -30t85 -85t36 -133t-8.5 -174l-73 -514q-2 -12 -11.5 -21.5t-21.5 -9.5h-31q-14 0 -21.5 9t-5.5 22l74 514q23 166 -17 250t-165 84 q-66 0 -118 -21.5t-91 -48.5t-63.5 -53.5t-32.5 -34.5l-99 -690q-4 -31 -34 -31h-33q-14 0 -19.5 9t-3.5 22zM371 1225q6 14 20.5 42.5t37 58.5t55 52.5t79.5 22.5t70.5 -29t39 -64.5t31 -64.5t46.5 -29q25 0 44 13.5t32.5 33t22.5 40t15 34.5q10 25 31 15l25 -9q4 -4 8 -9 t0 -17q-2 -6 -13.5 -35t-35 -59.5t-58.5 -56t-84 -25.5q-47 0 -70.5 29.5t-40 64.5t-31.5 64.5t-44 29.5q-27 0 -46.5 -15.5t-34.5 -36t-24.5 -42t-15.5 -35.5q-8 -23 -29 -12l-22 10q-18 6 -8 29z" />
<glyph unicode="&#xf2;" horiz-adv-x="1087" d="M94 403q0 117 40 219.5t108.5 179.5t161 121t196.5 44q76 0 142.5 -34t114.5 -91.5t76 -134t28 -164.5q0 -117 -40 -220.5t-109 -180t-160 -121t-193 -44.5q-78 0 -144.5 34t-115.5 91.5t-77 135t-28 165.5zM184 414q0 -74 20.5 -137.5t58.5 -111.5t90.5 -75t115.5 -27 q78 0 150.5 37t128 100.5t89 149.5t33.5 185q0 72 -21.5 135t-59 109t-90 73t-113.5 27q-82 0 -155 -37t-128 -99.5t-87 -147.5t-32 -181zM430 1231l21 31q6 12 20 13t25 -7l217 -146q20 -16 10 -39l-10 -18q-8 -8 -17.5 -11t-23.5 3l-236 129q-23 16 -6 45z" />
<glyph unicode="&#xf3;" horiz-adv-x="1087" d="M94 403q0 117 40 219.5t108.5 179.5t161 121t196.5 44q76 0 142.5 -34t114.5 -91.5t76 -134t28 -164.5q0 -117 -40 -220.5t-109 -180t-160 -121t-193 -44.5q-78 0 -144.5 34t-115.5 91.5t-77 135t-28 165.5zM184 414q0 -74 20.5 -137.5t58.5 -111.5t90.5 -75t115.5 -27 q78 0 150.5 37t128 100.5t89 149.5t33.5 185q0 72 -21.5 135t-59 109t-90 73t-113.5 27q-82 0 -155 -37t-128 -99.5t-87 -147.5t-32 -181zM524 1085q-10 25 19 39l223 129q10 4 23.5 4t21.5 -14l12 -31q8 -27 -14 -41l-258 -122v2q-10 -6 -21 20z" />
<glyph unicode="&#xf4;" horiz-adv-x="1087" d="M94 403q0 117 40 219.5t108.5 179.5t161 121t196.5 44q76 0 142.5 -34t114.5 -91.5t76 -134t28 -164.5q0 -117 -40 -220.5t-109 -180t-160 -121t-193 -44.5q-78 0 -144.5 34t-115.5 91.5t-77 135t-28 165.5zM184 414q0 -74 20.5 -137.5t58.5 -111.5t90.5 -75t115.5 -27 q78 0 150.5 37t128 100.5t89 149.5t33.5 185q0 72 -21.5 135t-59 109t-90 73t-113.5 27q-82 0 -155 -37t-128 -99.5t-87 -147.5t-32 -181zM414 1087q-10 18 10 37l201 160q12 10 27 10q10 0 22 -10l158 -162q6 -6 10 -15t-8 -22l-10 -12q-6 -6 -16.5 -12t-22.5 8l-142 127 l-178 -133q-16 -12 -25.5 -6t-13.5 12z" />
<glyph unicode="&#xf5;" horiz-adv-x="1087" d="M94 403q0 117 40 219.5t108.5 179.5t161 121t196.5 44q76 0 142.5 -34t114.5 -91.5t76 -134t28 -164.5q0 -117 -40 -220.5t-109 -180t-160 -121t-193 -44.5q-78 0 -144.5 34t-115.5 91.5t-77 135t-28 165.5zM184 414q0 -74 20.5 -137.5t58.5 -111.5t90.5 -75t115.5 -27 q78 0 150.5 37t128 100.5t89 149.5t33.5 185q0 72 -21.5 135t-59 109t-90 73t-113.5 27q-82 0 -155 -37t-128 -99.5t-87 -147.5t-32 -181zM395 1141q4 10 15 33.5t30.5 48t47.5 44t69 19.5q43 0 63.5 -24.5t33.5 -54t23.5 -49t28.5 -19.5q16 0 29.5 9t24 23.5t17.5 30 t11 27.5q12 29 39 16l20 -6q6 -6 11.5 -12t-0.5 -23q0 -4 -9.5 -27.5t-30 -50t-50 -48t-72.5 -21.5q-41 0 -62.5 26.5t-35 54t-23.5 49t-27 21.5q-18 0 -31.5 -11t-25.5 -26.5t-19.5 -32t-11.5 -28.5q-10 -29 -36 -14l-19 8q-25 8 -10 37z" />
<glyph unicode="&#xf6;" horiz-adv-x="1087" d="M94 403q0 117 40 219.5t108.5 179.5t161 121t196.5 44q76 0 142.5 -34t114.5 -91.5t76 -134t28 -164.5q0 -117 -40 -220.5t-109 -180t-160 -121t-193 -44.5q-78 0 -144.5 34t-115.5 91.5t-77 135t-28 165.5zM184 414q0 -74 20.5 -137.5t58.5 -111.5t90.5 -75t115.5 -27 q78 0 150.5 37t128 100.5t89 149.5t33.5 185q0 72 -21.5 135t-59 109t-90 73t-113.5 27q-82 0 -155 -37t-128 -99.5t-87 -147.5t-32 -181zM397 1280q0 39 28 65.5t62 26.5q33 0 51.5 -21.5t18.5 -52.5q0 -37 -25.5 -63.5t-62.5 -26.5q-31 0 -51.5 21.5t-20.5 50.5zM752 1280 q0 39 26.5 65.5t61.5 26.5q33 0 53 -21.5t20 -52.5q0 -37 -27.5 -63.5t-64.5 -26.5q-31 0 -50 21.5t-19 50.5z" />
<glyph unicode="&#xf7;" horiz-adv-x="1228" d="M250 696l4 33q2 10 10 18.5t19 8.5h708q25 0 21 -27l-4 -33q-4 -27 -29 -26h-707q-27 0 -22 26zM498 379q0 39 29.5 65.5t64.5 26.5q31 0 49 -21.5t18 -50.5q0 -37 -26.5 -65.5t-65.5 -28.5q-29 0 -49 22.5t-20 51.5zM588 1022q0 39 29.5 65.5t64.5 26.5q31 0 49.5 -21.5 t18.5 -50.5q0 -37 -27 -65.5t-66 -28.5q-29 0 -49 22.5t-20 51.5z" />
<glyph unicode="&#xf8;" horiz-adv-x="1087" d="M91 107.5q3 11.5 13 19.5l50 45q-58 102 -58 231q0 117 40 219.5t108.5 179.5t161 121t196.5 44q80 0 148.5 -37t117.5 -101l60 56q20 20 39 0l10 -11q23 -18 -6 -43l-66 -59q57 -104 58 -229q0 -117 -40 -220.5t-109 -180t-160 -121t-193 -44.5q-82 0 -150.5 36 t-120.5 102l-43 -41q-20 -20 -38 2l-11 10q-10 10 -7 21.5zM186 414q0 -98 35 -178l580 532q-39 51 -93.5 81t-119.5 30q-82 0 -155 -37t-128 -99.5t-87 -147.5t-32 -181zM256 174q39 -53 93 -82t122 -29q78 0 150.5 37t128 100.5t89 150t33.5 184.5t-36 172z" />
<glyph unicode="&#xf9;" horiz-adv-x="1011" d="M129 201.5q-6 72.5 6 167.5l78 546q2 12 11 21.5t20 9.5h32q12 0 20.5 -9t6.5 -22l-80 -546q-23 -166 20.5 -236t166.5 -70q66 0 117 25t87.5 55.5t57 57t24.5 30.5l97 684q2 31 32 31h33q10 0 18.5 -9t4.5 -22l-121 -884q-2 -12 -9.5 -21.5t-19.5 -9.5h-24 q-12 0 -17.5 9t-5.5 20l4 86q-10 -12 -33.5 -36t-61.5 -46.5t-89.5 -39t-114.5 -16.5q-84 0 -139 26t-85 76t-36 122.5zM387 1231l21 31q6 12 20 13t25 -7l217 -146q20 -16 10 -39l-10 -18q-8 -8 -17.5 -11t-23.5 3l-236 129q-23 16 -6 45z" />
<glyph unicode="&#xfa;" horiz-adv-x="1011" d="M129 201.5q-6 72.5 6 167.5l78 546q2 12 11 21.5t20 9.5h32q12 0 20.5 -9t6.5 -22l-80 -546q-23 -166 20.5 -236t166.5 -70q66 0 117 25t87.5 55.5t57 57t24.5 30.5l97 684q2 31 32 31h33q10 0 18.5 -9t4.5 -22l-121 -884q-2 -12 -9.5 -21.5t-19.5 -9.5h-24 q-12 0 -17.5 9t-5.5 20l4 86q-10 -12 -33.5 -36t-61.5 -46.5t-89.5 -39t-114.5 -16.5q-84 0 -139 26t-85 76t-36 122.5zM481 1085q-10 25 19 39l223 129q10 4 23.5 4t21.5 -14l12 -31q8 -27 -14 -41l-258 -122v2q-10 -6 -21 20z" />
<glyph unicode="&#xfb;" horiz-adv-x="1011" d="M129 201.5q-6 72.5 6 167.5l78 546q2 12 11 21.5t20 9.5h32q12 0 20.5 -9t6.5 -22l-80 -546q-23 -166 20.5 -236t166.5 -70q66 0 117 25t87.5 55.5t57 57t24.5 30.5l97 684q2 31 32 31h33q10 0 18.5 -9t4.5 -22l-121 -884q-2 -12 -9.5 -21.5t-19.5 -9.5h-24 q-12 0 -17.5 9t-5.5 20l4 86q-10 -12 -33.5 -36t-61.5 -46.5t-89.5 -39t-114.5 -16.5q-84 0 -139 26t-85 76t-36 122.5zM307 1153q-8 14 8 29l252 200q12 10 25 11q8 0 18 -11l197 -200q6 -6 9 -13.5t-5 -15.5l-14 -16q-6 -6 -13.5 -10.5t-17.5 6.5l-182 165l-232 -172 q-14 -10 -20 -6t-10 10z" />
<glyph unicode="&#xfc;" horiz-adv-x="1011" d="M129 201.5q-6 72.5 6 167.5l78 546q2 12 11 21.5t20 9.5h32q12 0 20.5 -9t6.5 -22l-80 -546q-23 -166 20.5 -236t166.5 -70q66 0 117 25t87.5 55.5t57 57t24.5 30.5l97 684q2 31 32 31h33q10 0 18.5 -9t4.5 -22l-121 -884q-2 -12 -9.5 -21.5t-19.5 -9.5h-24 q-12 0 -17.5 9t-5.5 20l4 86q-10 -12 -33.5 -36t-61.5 -46.5t-89.5 -39t-114.5 -16.5q-84 0 -139 26t-85 76t-36 122.5zM328 1280q0 39 27.5 65.5t62.5 26.5q33 0 51 -21.5t18 -52.5q0 -37 -25.5 -63.5t-62.5 -26.5q-31 0 -51 21.5t-20 50.5zM682 1280q0 39 26.5 65.5 t61.5 26.5q33 0 53.5 -21.5t20.5 -52.5q0 -37 -27.5 -63.5t-64.5 -26.5q-31 0 -50.5 21.5t-19.5 50.5z" />
<glyph unicode="&#xfd;" horiz-adv-x="954" d="M104 -455l244 461l-235 901q-4 16 1 27.5t21 11.5h43q20 0 27 -22l201 -809h4l428 809q10 23 30 22h50q14 0 19 -11t-5 -28l-735 -1374q-10 -20 -33 -20h-43q-33 0 -17 32zM456 1085q-10 25 19 39l223 129q10 4 23.5 4t21.5 -14l12 -31q8 -27 -14 -41l-258 -122v2 q-10 -6 -21 20z" />
<glyph unicode="&#xfe;" horiz-adv-x="1056" d="M31 -457l258 1862q2 14 13 21.5t24 7.5h26q10 0 19.5 -9.5t7.5 -19.5l-80 -547q10 8 34.5 26.5t61.5 37t85 32t108 13.5q80 0 142.5 -33t106.5 -91.5t67.5 -137t23.5 -168.5q0 -117 -37 -219.5t-103.5 -177t-157.5 -119t-200 -44.5q-53 0 -94 12.5t-72 28t-49 32 t-25 26.5l-73 -533q-2 -10 -12.5 -20t-20.5 -10h-31q-12 0 -19 10t-3 20zM209 176q10 -14 30.5 -33.5t48 -37t64.5 -30t80 -12.5q84 0 158 35t128 97.5t86 149.5t32 192q0 68 -18.5 130t-53.5 109t-84 75t-113 28q-55 0 -102 -16.5t-83 -39t-60.5 -46t-36.5 -38.5z" />
<glyph unicode="&#xff;" horiz-adv-x="954" d="M104 -455l244 461l-235 901q-4 16 1 27.5t21 11.5h43q20 0 27 -22l201 -809h4l428 809q10 23 30 22h50q14 0 19 -11t-5 -28l-735 -1374q-10 -20 -33 -20h-43q-33 0 -17 32zM311 1280q0 39 28 65.5t62 26.5q33 0 51.5 -21.5t18.5 -52.5q0 -37 -25.5 -63.5t-62.5 -26.5 q-31 0 -51.5 21.5t-20.5 50.5zM666 1280q0 39 26.5 65.5t61.5 26.5q33 0 53 -21.5t20 -52.5q0 -37 -27.5 -63.5t-64.5 -26.5q-31 0 -50 21.5t-19 50.5z" />
<glyph unicode="&#x100;" horiz-adv-x="1239" d="M-49 29l758 1411q6 14 26 14h6q8 0 14.5 -2t10.5 -12l373 -1415q4 -10 -1 -17.5t-22 -7.5h-53q-14 0 -19.5 6t-7.5 12l-94 377h-692l-197 -377q-4 -6 -11 -12t-22 -6h-59q-25 0 -10 29zM297 475h623l-197 815h-6zM512 1729l4 24q4 27 29 27h497q10 0 17.5 -7.5t3.5 -19.5 l-2 -24q-4 -27 -31 -27h-495q-27 0 -23 27z" />
<glyph unicode="&#x101;" horiz-adv-x="1056" d="M96 412q0 113 38 214t102.5 177t151.5 120t185 44q57 0 103.5 -14.5t79 -33t52 -37t26.5 -26.5l20 64q8 27 29 26h20q10 0 18.5 -9t4.5 -22l-121 -884q-2 -12 -12.5 -21.5t-20.5 -9.5h-18q-29 0 -27 33l4 82q-10 -12 -36.5 -35t-66.5 -46.5t-91.5 -40t-112.5 -16.5 q-74 0 -134.5 33t-103.5 91.5t-66.5 138t-23.5 172.5zM186 412q0 -68 18.5 -131.5t51.5 -111.5t80 -77t104 -29q66 0 121 26t95 56.5t62.5 58t24.5 32.5l70 520q-2 4 -17.5 23.5t-45 42t-73.5 40t-106 17.5q-82 0 -151.5 -38t-121.5 -102.5t-82 -148.5t-30 -178zM367 1243 l4 27q4 27 28 26h496q27 0 23 -26l-5 -27q-4 -25 -28 -24h-496q-27 0 -22 24z" />
<glyph unicode="&#x102;" horiz-adv-x="1239" d="M-49 29l758 1411q6 14 26 14h6q8 0 14.5 -2t10.5 -12l373 -1415q4 -10 -1 -17.5t-22 -7.5h-53q-14 0 -19.5 6t-7.5 12l-94 377h-692l-197 -377q-4 -6 -11 -12t-22 -6h-59q-25 0 -10 29zM297 475h623l-197 815h-6zM567 1732q0 33 29 33h18q23 0 27 -27q4 -53 32.5 -87 t77.5 -34q45 0 86 35t58 88q12 25 33 25h26q29 0 21 -35q-23 -80 -83.5 -134t-146.5 -54q-37 0 -68.5 14t-56 41t-38 61.5t-15.5 73.5z" />
<glyph unicode="&#x103;" d="M98 412q0 113 38 214t102.5 177t151.5 120t185 44q57 0 103.5 -14.5t79.5 -33t52 -37t26 -26.5l20 64q8 27 29 26h20q10 0 18.5 -9t4.5 -22l-121 -884q-2 -12 -12.5 -21.5t-20.5 -9.5h-18q-29 0 -27 33l4 82q-10 -12 -36.5 -35t-66.5 -46.5t-91.5 -40t-112.5 -16.5 q-74 0 -134.5 33t-103.5 91.5t-66.5 138t-23.5 172.5zM188 412q0 -68 18.5 -131.5t51.5 -111.5t80 -77t104 -29q66 0 121 26t95 56.5t62.5 58t24.5 32.5l70 520q-2 4 -17.5 23.5t-45 42t-73.5 40t-106 17.5q-82 0 -151.5 -38t-121.5 -102.5t-82 -148.5t-30 -178zM434 1245 q0 33 29 33h18q23 0 27 -27q4 -53 32.5 -87t77.5 -34q45 0 86 35t58 88q12 25 33 25h26q29 0 21 -35q-23 -80 -83.5 -134t-146.5 -54q-37 0 -68.5 14t-56 41t-38 61.5t-15.5 73.5z" />
<glyph unicode="&#x104;" horiz-adv-x="1239" d="M-49 29l760 1411q6 14 26 14h6q8 0 14.5 -2t10.5 -12l371 -1415q4 -16 -15 -25q-41 -20 -88 -51t-88 -71t-68.5 -89t-27.5 -106q0 -45 27.5 -72t78.5 -27q47 0 87 21.5t59 32.5q4 4 12 3t8 -12l-2 -39q0 -10 -4 -19t-20 -17q-23 -12 -65 -31t-93 -19q-84 0 -131 49.5 t-47 120.5q0 59 22.5 109.5t59.5 92.5t86 79t104 68l-92 372h-692l-197 -377q-4 -6 -11 -12t-22 -6h-59q-25 0 -10 29zM297 475h623l-195 815h-6z" />
<glyph unicode="&#x105;" horiz-adv-x="1056" d="M98 412q0 113 38 214t102.5 177t151.5 120t185 44q57 0 103.5 -14.5t79.5 -33t52 -37t26 -26.5l20 64q8 27 29 26h20q10 0 18.5 -9t4.5 -22l-121 -880q-4 -20 -16.5 -28.5t-22.5 -12.5q-41 -23 -87 -52.5t-85 -67.5t-64.5 -86t-25.5 -105q0 -45 27.5 -72t78.5 -27 q47 0 87 21.5t59 32.5q4 4 12 3t8 -12l-2 -39q0 -10 -4 -19t-20 -17q-23 -12 -65 -31t-93 -19q-84 0 -131 49.5t-47 120.5q0 123 87 208t226 151l4 82q-10 -12 -36.5 -35t-66.5 -46.5t-91.5 -40t-112.5 -16.5q-74 0 -134.5 33t-103.5 91.5t-66.5 138t-23.5 172.5zM188 412 q0 -68 18.5 -131.5t51.5 -111.5t80 -77t104 -29q66 0 121 26t95 56.5t62.5 58t24.5 32.5l70 520q-2 4 -17.5 23.5t-45 42t-73.5 40t-106 17.5q-82 0 -151.5 -38t-121.5 -102.5t-82 -148.5t-30 -178z" />
<glyph unicode="&#x106;" horiz-adv-x="1343" d="M133 616q0 176 62.5 330t169 266.5t248 177t296.5 64.5q141 0 243.5 -49t180.5 -141q16 -18 -2 -37l-35 -31q-18 -14 -34 2q-66 78 -159 121t-204 43q-131 0 -251 -58.5t-211 -159t-145 -234.5t-54 -283q0 -115 34.5 -214.5t98 -173t151.5 -116.5t195 -43q119 0 218 49 t181 123q20 16 33 4l39 -43q14 -16 -4 -35q-111 -100 -232 -149t-243 -49q-125 0 -230.5 50t-182.5 136t-120 201.5t-43 248.5zM760 1628q-6 16 16 29l322 184q6 4 17 4t15 -10l19 -43q6 -20 -12 -31l-338 -162q-25 -10 -31 7z" />
<glyph unicode="&#x107;" horiz-adv-x="980" d="M96 403q0 129 42 233.5t113 178.5t163 113t194 39q57 0 104.5 -14.5t84.5 -36t62.5 -47t41.5 -46.5q12 -14 -12 -43l-15 -16q-12 -14 -24 -9t-23 15q-12 14 -31.5 32.5t-47 35t-64.5 29t-84 12.5q-78 0 -151.5 -32t-132 -93.5t-94.5 -149.5t-36 -201q0 -68 22.5 -129 t62.5 -108t94.5 -75t115.5 -28q57 0 103.5 18.5t82 43.5t59.5 50.5t36 37.5q12 16 20.5 15t20.5 -11l24 -20q18 -16 2 -37q-16 -23 -48.5 -53.5t-79 -59.5t-104.5 -49.5t-126 -20.5q-80 0 -148.5 33t-118.5 90.5t-79 135t-29 167.5zM514 1174q-6 16 16 28l322 184 q6 4 17.5 4.5t15.5 -10.5l18 -43q6 -20 -12 -30l-338 -162q-25 -10 -31 6z" />
<glyph unicode="&#x108;" horiz-adv-x="1343" d="M133 616q0 176 62.5 330t169 266.5t248 177t296.5 64.5q141 0 243.5 -49t180.5 -141q16 -18 -2 -37l-35 -31q-18 -14 -34 2q-66 78 -159 121t-204 43q-131 0 -251 -58.5t-211 -159t-145 -234.5t-54 -283q0 -115 34.5 -214.5t98 -173t151.5 -116.5t195 -43q119 0 218 49 t181 123q20 16 33 4l39 -43q14 -16 -4 -35q-111 -100 -232 -149t-243 -49q-125 0 -230.5 50t-182.5 136t-120 201.5t-43 248.5zM684 1599q-8 14 8 29l252 201q12 10 25 10q8 0 18 -10l197 -201q16 -16 4 -29l-14 -16q-6 -6 -13.5 -10t-17.5 6l-182 166l-232 -172 q-14 -10 -20.5 -6t-10.5 10z" />
<glyph unicode="&#x109;" horiz-adv-x="980" d="M96 403q0 129 42 233.5t113 178.5t163 113t194 39q57 0 104.5 -14.5t84.5 -36t62.5 -47t41.5 -46.5q12 -14 -12 -43l-15 -16q-12 -14 -24 -9t-23 15q-12 14 -31.5 32.5t-47 35t-64.5 29t-84 12.5q-78 0 -151.5 -32t-132 -93.5t-94.5 -149.5t-36 -201q0 -68 22.5 -129 t62.5 -108t94.5 -75t115.5 -28q57 0 103.5 18.5t82 43.5t59.5 50.5t36 37.5q12 16 20.5 15t20.5 -11l24 -20q18 -16 2 -37q-16 -23 -48.5 -53.5t-79 -59.5t-104.5 -49.5t-126 -20.5q-80 0 -148.5 33t-118.5 90.5t-79 135t-29 167.5zM399 1153q-8 14 9 29l251 200 q12 10 25 11q8 0 18 -11l197 -200q6 -6 9 -13.5t-5 -15.5l-14 -16q-6 -6 -13.5 -10.5t-17.5 6.5l-182 165l-232 -172q-14 -10 -20 -6t-10 10z" />
<glyph unicode="&#x10a;" horiz-adv-x="1343" d="M133 616q0 176 62.5 330t169 266.5t248 177t296.5 64.5q141 0 243.5 -49t180.5 -141q16 -18 -2 -37l-35 -31q-18 -14 -34 2q-66 78 -159 121t-204 43q-131 0 -251 -58.5t-211 -159t-145 -234.5t-54 -283q0 -115 34.5 -214.5t98 -173t151.5 -116.5t195 -43q119 0 218 49 t181 123q20 16 33 4l39 -43q14 -16 -4 -35q-111 -100 -232 -149t-243 -49q-125 0 -230.5 50t-182.5 136t-120 201.5t-43 248.5zM879 1724q0 37 28.5 64t65.5 27q31 0 49 -19.5t18 -48.5q0 -37 -26.5 -63.5t-63.5 -26.5q-31 0 -51 19.5t-20 47.5z" />
<glyph unicode="&#x10b;" horiz-adv-x="980" d="M96 403q0 129 42 233.5t113 178.5t163 113t194 39q57 0 104.5 -14.5t84.5 -36t62.5 -47t41.5 -46.5q12 -14 -12 -43l-15 -16q-12 -14 -24 -9t-23 15q-12 14 -31.5 32.5t-47 35t-64.5 29t-84 12.5q-78 0 -151.5 -32t-132 -93.5t-94.5 -149.5t-36 -201q0 -68 22.5 -129 t62.5 -108t94.5 -75t115.5 -28q57 0 103.5 18.5t82 43.5t59.5 50.5t36 37.5q12 16 20.5 15t20.5 -11l24 -20q18 -16 2 -37q-16 -23 -48.5 -53.5t-79 -59.5t-104.5 -49.5t-126 -20.5q-80 0 -148.5 33t-118.5 90.5t-79 135t-29 167.5zM580 1276q0 37 28.5 63.5t65.5 26.5 q31 0 49 -19.5t18 -48.5q0 -37 -26.5 -63.5t-63.5 -26.5q-31 0 -51 19.5t-20 48.5z" />
<glyph unicode="&#x10c;" horiz-adv-x="1343" d="M133 616q0 176 62.5 330t169 266.5t248 177t296.5 64.5q141 0 243.5 -49t180.5 -141q16 -18 -2 -37l-35 -31q-18 -14 -34 2q-66 78 -159 121t-204 43q-131 0 -251 -58.5t-211 -159t-145 -234.5t-54 -283q0 -115 34.5 -214.5t98 -173t151.5 -116.5t195 -43q119 0 218 49 t181 123q20 16 33 4l39 -43q14 -16 -4 -35q-111 -100 -232 -149t-243 -49q-125 0 -230.5 50t-182.5 136t-120 201.5t-43 248.5zM713 1800l14 17q6 6 13.5 10t17.5 -6l182 -166l231 172q14 10 20.5 6t10.5 -10l15 -23q8 -14 -9 -28l-252 -201q-12 -10 -24 -10q-8 0 -19 10 l-196 201q-16 16 -4 28z" />
<glyph unicode="&#x10d;" horiz-adv-x="980" d="M96 403q0 129 42 233.5t113 178.5t163 113t194 39q57 0 104.5 -14.5t84.5 -36t62.5 -47t41.5 -46.5q12 -14 -12 -43l-15 -16q-12 -14 -24 -9t-23 15q-12 14 -31.5 32.5t-47 35t-64.5 29t-84 12.5q-78 0 -151.5 -32t-132 -93.5t-94.5 -149.5t-36 -201q0 -68 22.5 -129 t62.5 -108t94.5 -75t115.5 -28q57 0 103.5 18.5t82 43.5t59.5 50.5t36 37.5q12 16 20.5 15t20.5 -11l24 -20q18 -16 2 -37q-16 -23 -48.5 -53.5t-79 -59.5t-104.5 -49.5t-126 -20.5q-80 0 -148.5 33t-118.5 90.5t-79 135t-29 167.5zM432 1354l14 16q6 6 13.5 10t17.5 -6 l182 -166l232 172q14 10 20.5 6t10.5 -10l14 -22q8 -14 -8 -29l-252 -201q-13 -10 -25 -10q-8 0 -18 10l-197 201q-16 16 -4 29z" />
<glyph unicode="&#x10e;" horiz-adv-x="1398" d="M129 27l195 1380q4 27 26 27h395q117 0 218.5 -49.5t176 -134.5t117.5 -197.5t43 -241.5q0 -168 -61 -315.5t-165.5 -258t-242 -174t-286.5 -63.5h-395q-10 0 -16.5 8t-4.5 19zM233 88h306q131 0 250.5 55.5t211 151.5t144.5 228t53 284q0 113 -35 212t-98.5 171 t-152.5 114t-197 42h-305zM510 1800l14 17q6 6 13.5 10t17.5 -6l182 -166l232 172q14 10 20 6t10 -10l15 -23q8 -14 -8 -28l-252 -201q-13 -10 -25 -10q-8 0 -18 10l-197 201q-16 16 -4 28z" />
<glyph unicode="&#x10f;" horiz-adv-x="1073" d="M96 397q0 119 37 223.5t101.5 181.5t153.5 121t194 44q59 0 105 -15.5t79 -31.5q37 -20 65 -46l76 531q6 29 31 29h35q12 0 20 -9.5t4 -19.5l-190 -1374q-2 -12 -12.5 -21.5t-20.5 -9.5h-20q-29 0 -27 33l4 82q-10 -12 -37.5 -35t-68.5 -46.5t-93.5 -40t-111.5 -16.5 q-74 0 -133.5 33t-102.5 89.5t-65.5 133t-22.5 164.5zM186 403q0 -68 18.5 -130t51.5 -108t79 -74t103 -28q66 0 121 26t95 56.5t62.5 58t24.5 32.5l76 538q-27 29 -63 51q-31 20 -75 37t-101 17q-84 0 -156 -38t-124 -102.5t-82 -150.5t-30 -185zM1124 1366q0 37 28 62.5 t69 25.5q47 0 72.5 -30.5t25.5 -86.5q0 -66 -29.5 -133t-87.5 -112q-14 -14 -24 -2l-21 20q-10 10 -6 16.5t12 12.5q33 29 55.5 71.5t22.5 83.5q0 16 -6 29q-14 -14 -47 -14q-29 0 -46.5 16t-17.5 41z" />
<glyph unicode="&#x110;" horiz-adv-x="1415" d="M131 27l92 653h-63q-25 0 -21 27l2 14q4 23 29 22h61l95 664q4 27 26 27h410q121 0 223 -49.5t176 -134.5t116 -197.5t42 -241.5q0 -168 -63.5 -315.5t-169 -258t-241.5 -174t-284 -63.5h-409q-25 0 -21 27zM236 88h321q131 0 250 55.5t209 151.5t143 228t53 284 q0 113 -34.5 212t-98 171t-151.5 114t-195 42h-321l-84 -603h448q27 0 23 -22l-2 -16q-2 -10 -10.5 -17.5t-18.5 -7.5h-449z" />
<glyph unicode="&#x111;" horiz-adv-x="1054" d="M96 397q0 119 37 223.5t101.5 181.5t153.5 121t194 44q59 0 105 -15.5t79 -31.5q37 -20 65 -46l33 236h-338q-27 0 -22 27l2 12q4 25 29 25h339l33 231q6 29 31 29h31q12 0 20 -9.5t4 -19.5l-32 -231h73q23 0 21 -25l-2 -12q-4 -27 -29 -27h-72l-149 -1079 q-2 -12 -12.5 -21.5t-20.5 -9.5h-16q-29 0 -27 33l4 82q-10 -12 -37.5 -35t-68.5 -46.5t-93.5 -40t-111.5 -16.5q-74 0 -133.5 33t-102.5 89.5t-65.5 133t-22.5 164.5zM186 403q0 -68 18.5 -130t51.5 -108t79 -74t103 -28q66 0 121 26t95 56.5t62.5 58t24.5 32.5l76 538 q-27 29 -63 51q-31 20 -75 37t-101 17q-84 0 -156 -38t-124 -102.5t-82 -150.5t-30 -185z" />
<glyph unicode="&#x112;" horiz-adv-x="1101" d="M129 27l195 1380q2 10 10 18.5t18 8.5h738q27 0 22 -27l-4 -35q-4 -27 -31 -26h-663l-80 -566h573q27 0 23 -26l-4 -35q-4 -27 -31 -27h-573l-86 -606h665q27 0 23 -27l-6 -32q-4 -27 -29 -27h-737q-27 0 -23 27zM481 1729l4 24q4 27 29 27h498q10 0 17 -7.5t3 -19.5 l-2 -24q-4 -27 -31 -27h-495q-27 0 -23 27z" />
<glyph unicode="&#x113;" horiz-adv-x="970" d="M96 395q0 117 36 220.5t100.5 181t153.5 124t198 46.5q125 0 207.5 -64.5t82.5 -175.5q0 -106 -65.5 -166.5t-166.5 -89.5t-222 -32t-232 5q-8 -82 7.5 -151.5t50.5 -120.5t88 -80t123 -29q51 0 92 10.5t73.5 25t57.5 30.5t41 29q29 20 45 -8l14 -23q4 -8 4 -17.5 t-10 -19.5q-23 -16 -53.5 -35.5t-71.5 -37t-91 -29t-112 -11.5q-84 0 -148.5 33t-109.5 89.5t-68.5 133t-23.5 162.5zM201 526q109 -8 213 -6t187 23.5t133 63.5t50 114q0 74 -59 116t-152 42q-68 0 -130 -28t-112 -76t-85 -111.5t-45 -137.5zM360 1243l5 27q4 27 28 26h496 q27 0 22 -26l-4 -27q-4 -25 -28 -24h-496q-27 0 -23 24z" />
<glyph unicode="&#x114;" horiz-adv-x="1101" d="M129 27l195 1380q2 10 10 18.5t18 8.5h738q27 0 22 -27l-4 -35q-4 -27 -31 -26h-663l-80 -566h573q27 0 23 -26l-4 -35q-4 -27 -31 -27h-573l-86 -606h665q27 0 23 -27l-6 -32q-4 -27 -29 -27h-737q-27 0 -23 27zM532 1815q0 10 5.5 19t17.5 9h23q10 0 14 -7t6 -17 q10 -68 48 -114t104 -46q59 0 113.5 46t78.5 114q10 25 27 24h32q10 0 15.5 -9t1.5 -19q-29 -98 -102 -163t-173 -65q-45 0 -83.5 17.5t-67.5 48t-44.5 72.5t-15.5 90z" />
<glyph unicode="&#x115;" horiz-adv-x="970" d="M96 395q0 117 36 220.5t100.5 181t153.5 124t198 46.5q125 0 207.5 -64.5t82.5 -175.5q0 -106 -65.5 -166.5t-166.5 -89.5t-222 -32t-232 5q-8 -82 7.5 -151.5t50.5 -120.5t88 -80t123 -29q51 0 92 10.5t73.5 25t57.5 30.5t41 29q29 20 45 -8l14 -23q4 -8 4 -17.5 t-10 -19.5q-23 -16 -53.5 -35.5t-71.5 -37t-91 -29t-112 -11.5q-84 0 -148.5 33t-109.5 89.5t-68.5 133t-23.5 162.5zM201 526q109 -8 213 -6t187 23.5t133 63.5t50 114q0 74 -59 116t-152 42q-68 0 -130 -28t-112 -76t-85 -111.5t-45 -137.5zM397 1327q0 29 25 29h22 q16 0 21 -23q6 -70 45 -116t104 -46q61 0 115.5 46.5t77.5 115.5q10 23 29 23h32q20 0 15 -29q-27 -96 -100 -160.5t-175 -64.5q-43 0 -81 17.5t-66.5 48t-45 71.5t-18.5 88z" />
<glyph unicode="&#x116;" horiz-adv-x="1101" d="M129 27l195 1380q2 10 10 18.5t18 8.5h738q27 0 22 -27l-4 -35q-4 -27 -31 -26h-663l-80 -566h573q27 0 23 -26l-4 -35q-4 -27 -31 -27h-573l-86 -606h665q27 0 23 -27l-6 -32q-4 -27 -29 -27h-737q-27 0 -23 27zM670 1724q0 37 28.5 64t65.5 27q31 0 49 -19.5t18 -48.5 q0 -37 -26.5 -63.5t-63.5 -26.5q-31 0 -51 19.5t-20 47.5z" />
<glyph unicode="&#x117;" horiz-adv-x="970" d="M96 395q0 117 36 220.5t100.5 181t153.5 124t198 46.5q125 0 207.5 -64.5t82.5 -175.5q0 -106 -65.5 -166.5t-166.5 -89.5t-222 -32t-232 5q-8 -82 7.5 -151.5t50.5 -120.5t88 -80t123 -29q51 0 92 10.5t73.5 25t57.5 30.5t41 29q29 20 45 -8l14 -23q4 -8 4 -17.5 t-10 -19.5q-23 -16 -53.5 -35.5t-71.5 -37t-91 -29t-112 -11.5q-84 0 -148.5 33t-109.5 89.5t-68.5 133t-23.5 162.5zM201 526q109 -8 213 -6t187 23.5t133 63.5t50 114q0 74 -59 116t-152 42q-68 0 -130 -28t-112 -76t-85 -111.5t-45 -137.5zM551 1276q0 37 28.5 63.5 t65.5 26.5q31 0 49.5 -19.5t18.5 -48.5q0 -37 -26.5 -63.5t-63.5 -26.5q-31 0 -51.5 19.5t-20.5 48.5z" />
<glyph unicode="&#x118;" horiz-adv-x="1101" d="M129 27l195 1380q2 10 10 18.5t18 8.5h738q27 0 22 -27l-4 -35q-4 -27 -31 -26h-663l-80 -566h573q27 0 23 -26l-4 -35q-4 -27 -31 -27h-573l-86 -606h665q27 0 23 -27l-6 -32q-2 -10 -9.5 -15.5t-17.5 -11.5q-47 -27 -94 -57.5t-87 -69.5t-64.5 -86t-24.5 -104 q0 -45 27.5 -72t78.5 -27q47 0 87 21.5t58 32.5q4 4 12.5 3t8.5 -12l-2 -39q0 -10 -4 -19t-21 -17q-23 -12 -64.5 -31t-92.5 -19q-84 0 -131.5 49.5t-47.5 120.5q0 55 18.5 101.5t50.5 86.5t74 73.5t91 64.5h-612q-27 0 -23 27z" />
<glyph unicode="&#x119;" horiz-adv-x="970" d="M96 395q0 117 36 220.5t100.5 181t153.5 124t198 46.5q125 0 207.5 -64.5t82.5 -175.5q0 -106 -65.5 -166.5t-166.5 -89.5t-222 -32t-232 5q-8 -82 7.5 -151.5t50.5 -120.5t88 -80t123 -29q51 0 92 10.5t73.5 25t57.5 30.5t41 29q29 20 45 -8l14 -25q4 -8 4 -17.5 t-10 -19.5q-16 -16 -65.5 -43t-118.5 -47q-43 -23 -91 -53.5t-87 -69.5t-64.5 -87t-25.5 -105q0 -45 27.5 -72t78.5 -27q47 0 87 21.5t58 32.5q4 4 12.5 3t8.5 -12l-2 -39q0 -10 -4 -19t-21 -17q-23 -12 -64.5 -31t-92.5 -19q-84 0 -131.5 49.5t-47.5 120.5q0 98 57.5 171 t143.5 132q-80 2 -142.5 36t-105.5 90.5t-65.5 131t-22.5 160.5zM201 526q109 -8 213 -6t187 23.5t133 63.5t50 114q0 74 -59 116t-152 42q-68 0 -130 -28t-112 -76t-85 -111.5t-45 -137.5z" />
<glyph unicode="&#x11a;" horiz-adv-x="1101" d="M129 27l195 1380q2 10 10 18.5t18 8.5h738q27 0 22 -27l-4 -35q-4 -27 -31 -26h-663l-80 -566h573q27 0 23 -26l-4 -35q-4 -27 -31 -27h-573l-86 -606h665q27 0 23 -27l-6 -32q-4 -27 -29 -27h-737q-27 0 -23 27zM510 1800l14 17q6 6 13.5 10t17.5 -6l182 -166l232 172 q14 10 20 6t10 -10l15 -23q8 -14 -8 -28l-252 -201q-13 -10 -25 -10q-8 0 -18 10l-197 201q-16 16 -4 28z" />
<glyph unicode="&#x11b;" horiz-adv-x="970" d="M96 395q0 117 36 220.5t100.5 181t153.5 124t198 46.5q125 0 207.5 -64.5t82.5 -175.5q0 -106 -65.5 -166.5t-166.5 -89.5t-222 -32t-232 5q-8 -82 7.5 -151.5t50.5 -120.5t88 -80t123 -29q51 0 92 10.5t73.5 25t57.5 30.5t41 29q29 20 45 -8l14 -23q4 -8 4 -17.5 t-10 -19.5q-23 -16 -53.5 -35.5t-71.5 -37t-91 -29t-112 -11.5q-84 0 -148.5 33t-109.5 89.5t-68.5 133t-23.5 162.5zM201 526q109 -8 213 -6t187 23.5t133 63.5t50 114q0 74 -59 116t-152 42q-68 0 -130 -28t-112 -76t-85 -111.5t-45 -137.5zM391 1354l15 16q6 6 13 10 t17 -6l182 -166l232 172q14 10 20.5 6t10.5 -10l14 -22q8 -14 -8 -29l-252 -201q-13 -10 -25 -10q-8 0 -18 10l-197 201q-16 16 -4 29z" />
<glyph unicode="&#x11c;" horiz-adv-x="1402" d="M133 627q0 172 63.5 323.5t170 263t248 176t298.5 64.5q139 0 240.5 -49t179.5 -141q6 -8 6 -18.5t-10 -18.5l-37 -33q-18 -18 -35 0q-63 80 -156 124t-204 44q-129 0 -249 -58.5t-211 -157.5t-145 -232.5t-54 -282.5q0 -115 34.5 -215.5t98 -176t151.5 -118.5t195 -43 q86 0 156.5 20.5t123.5 44.5q61 29 111 66l49 362h-293q-16 0 -20 6.5t-2 20.5l6 41q2 12 7 18.5t22 6.5h366q10 0 17.5 -7.5t5.5 -17.5l-62 -440q-4 -27 -13 -40.5t-22 -23.5q-14 -12 -57 -37.5t-105.5 -52.5t-140.5 -46t-159 -19q-121 0 -226.5 50t-182.5 137t-121 205 t-44 255zM682 1599q-8 14 8 29l252 201q12 10 25 10q8 0 18 -10l197 -201q16 -16 4 -29l-15 -16q-6 -6 -13 -10t-17 6l-183 166l-231 -172q-14 -10 -20.5 -6t-10.5 10z" />
<glyph unicode="&#x11d;" d="M80 -293q-23 23 2 47l18 19q10 10 23.5 11t30.5 -17q12 -14 33.5 -36t52 -42.5t69.5 -34.5t86 -14q45 0 94.5 14t93.5 56t78.5 116t53.5 192l6 50q-8 -10 -30.5 -24.5t-57.5 -29t-81 -24.5t-99 -10q-84 0 -150.5 32.5t-113 89t-71 132t-24.5 163.5q0 119 38 222.5 t103.5 180.5t152.5 122t185 45q57 0 103.5 -14.5t80.5 -33t53 -37t26 -26.5l20 64q6 27 31 26h16q10 0 18.5 -9t4.5 -22l-121 -890q-18 -135 -59 -226.5t-97.5 -145.5t-123 -78t-136.5 -24q-61 0 -112.5 19.5t-91.5 46.5t-67.5 52.5t-37.5 37.5zM188 408q0 -70 19.5 -132.5 t54.5 -109.5t86 -75t115 -28q57 0 105 15.5t84 35t56.5 38t24.5 22.5l82 578q-2 4 -17.5 24.5t-46 43t-74.5 41t-106 18.5q-82 0 -151.5 -38t-120.5 -102.5t-81 -150.5t-30 -180zM365 1153q-8 14 8 29l252 200q12 10 24 11q8 0 19 -11l196 -200q6 -6 9.5 -13.5t-5.5 -15.5 l-14 -16q-6 -6 -13 -10.5t-18 6.5l-182 165l-231 -172q-14 -10 -20.5 -6t-10.5 10z" />
<glyph unicode="&#x11e;" horiz-adv-x="1402" d="M133 627q0 172 63.5 323.5t170 263t248 176t298.5 64.5q139 0 240.5 -49t179.5 -141q6 -8 6 -18.5t-10 -18.5l-37 -33q-18 -18 -35 0q-63 80 -156 124t-204 44q-129 0 -249 -58.5t-211 -157.5t-145 -232.5t-54 -282.5q0 -115 34.5 -215.5t98 -176t151.5 -118.5t195 -43 q86 0 156.5 20.5t123.5 44.5q61 29 111 66l49 362h-293q-16 0 -20 6.5t-2 20.5l6 41q2 12 7 18.5t22 6.5h366q10 0 17.5 -7.5t5.5 -17.5l-62 -440q-4 -27 -13 -40.5t-22 -23.5q-14 -12 -57 -37.5t-105.5 -52.5t-140.5 -46t-159 -19q-121 0 -226.5 50t-182.5 137t-121 205 t-44 255zM737 1815q0 10 5.5 19t17.5 9h22q10 0 14.5 -7t6.5 -17q10 -68 48 -114t103 -46q59 0 113.5 46t79.5 114q10 25 27 24h32q10 0 15.5 -9t1.5 -19q-29 -98 -102 -163t-173 -65q-45 0 -84 17.5t-67.5 48t-44 72.5t-15.5 90z" />
<glyph unicode="&#x11f;" d="M80 -293q-23 23 2 47l18 19q10 10 23.5 11t30.5 -17q12 -14 33.5 -36t52 -42.5t69.5 -34.5t86 -14q45 0 94.5 14t93.5 56t78.5 116t53.5 192l6 50q-8 -10 -30.5 -24.5t-57.5 -29t-81 -24.5t-99 -10q-84 0 -150.5 32.5t-113 89t-71 132t-24.5 163.5q0 119 38 222.5 t103.5 180.5t152.5 122t185 45q57 0 103.5 -14.5t80.5 -33t53 -37t26 -26.5l20 64q6 27 31 26h16q10 0 18.5 -9t4.5 -22l-121 -890q-18 -135 -59 -226.5t-97.5 -145.5t-123 -78t-136.5 -24q-61 0 -112.5 19.5t-91.5 46.5t-67.5 52.5t-37.5 37.5zM188 408q0 -70 19.5 -132.5 t54.5 -109.5t86 -75t115 -28q57 0 105 15.5t84 35t56.5 38t24.5 22.5l82 578q-2 4 -17.5 24.5t-46 43t-74.5 41t-106 18.5q-82 0 -151.5 -38t-120.5 -102.5t-81 -150.5t-30 -180zM393 1327q0 29 25 29h22q16 0 21 -23q6 -70 45 -116t104 -46q61 0 115.5 46.5t77.5 115.5 q10 23 28 23h33q20 0 15 -29q-27 -96 -100 -160.5t-175 -64.5q-43 0 -81 17.5t-66.5 48t-45 71.5t-18.5 88z" />
<glyph unicode="&#x120;" horiz-adv-x="1402" d="M133 627q0 172 63.5 323.5t170 263t248 176t298.5 64.5q139 0 240.5 -49t179.5 -141q6 -8 6 -18.5t-10 -18.5l-37 -33q-18 -18 -35 0q-63 80 -156 124t-204 44q-129 0 -249 -58.5t-211 -157.5t-145 -232.5t-54 -282.5q0 -115 34.5 -215.5t98 -176t151.5 -118.5t195 -43 q86 0 156.5 20.5t123.5 44.5q61 29 111 66l49 362h-293q-16 0 -20 6.5t-2 20.5l6 41q2 12 7 18.5t22 6.5h366q10 0 17.5 -7.5t5.5 -17.5l-62 -440q-4 -27 -13 -40.5t-22 -23.5q-14 -12 -57 -37.5t-105.5 -52.5t-140.5 -46t-159 -19q-121 0 -226.5 50t-182.5 137t-121 205 t-44 255zM874 1724q0 37 29 64t66 27q31 0 49 -19.5t18 -48.5q0 -37 -26.5 -63.5t-63.5 -26.5q-31 0 -51.5 19.5t-20.5 47.5z" />
<glyph unicode="&#x121;" d="M80 -293q-23 23 2 47l18 19q10 10 23.5 11t30.5 -17q12 -14 33.5 -36t52 -42.5t69.5 -34.5t86 -14q45 0 94.5 14t93.5 56t78.5 116t53.5 192l6 50q-8 -10 -30.5 -24.5t-57.5 -29t-81 -24.5t-99 -10q-84 0 -150.5 32.5t-113 89t-71 132t-24.5 163.5q0 119 38 222.5 t103.5 180.5t152.5 122t185 45q57 0 103.5 -14.5t80.5 -33t53 -37t26 -26.5l20 64q6 27 31 26h16q10 0 18.5 -9t4.5 -22l-121 -890q-18 -135 -59 -226.5t-97.5 -145.5t-123 -78t-136.5 -24q-61 0 -112.5 19.5t-91.5 46.5t-67.5 52.5t-37.5 37.5zM188 408q0 -70 19.5 -132.5 t54.5 -109.5t86 -75t115 -28q57 0 105 15.5t84 35t56.5 38t24.5 22.5l82 578q-2 4 -17.5 24.5t-46 43t-74.5 41t-106 18.5q-82 0 -151.5 -38t-120.5 -102.5t-81 -150.5t-30 -180zM551 1276q0 37 28.5 63.5t65.5 26.5q31 0 49.5 -19.5t18.5 -48.5q0 -37 -26.5 -63.5 t-63.5 -26.5q-31 0 -51.5 19.5t-20.5 48.5z" />
<glyph unicode="&#x122;" horiz-adv-x="1402" d="M133 627q0 172 63.5 323.5t170 263t248 176t298.5 64.5q139 0 240.5 -49t179.5 -141q6 -8 6 -18.5t-10 -18.5l-37 -33q-18 -18 -35 0q-63 80 -156 124t-204 44q-129 0 -249 -58.5t-211 -157.5t-145 -232.5t-54 -282.5q0 -115 34.5 -215.5t98 -176t151.5 -118.5t195 -43 q86 0 156.5 20.5t123.5 44.5q61 29 111 66l49 362h-293q-16 0 -20 6.5t-2 20.5l6 41q2 12 7 18.5t22 6.5h366q10 0 17.5 -7.5t5.5 -17.5l-62 -440q-4 -27 -13 -40.5t-22 -23.5q-14 -12 -57 -37.5t-105.5 -52.5t-140.5 -46t-159 -19q-121 0 -226.5 50t-182.5 137t-121 205 t-44 255zM575 -244q0 37 28 62.5t69 25.5q47 0 72.5 -30.5t25.5 -85.5q0 -66 -29.5 -133.5t-87.5 -112.5q-14 -14 -24 -2l-21 20q-10 10 -6 16.5t12 12.5q33 29 55.5 72t22.5 84q0 16 -6 28q-14 -14 -47 -14q-29 0 -46.5 16t-17.5 41z" />
<glyph unicode="&#x123;" d="M80 -293q-23 23 2 47l18 19q10 10 23.5 11t30.5 -17q12 -14 33.5 -36t52 -42.5t69.5 -34.5t86 -14q45 0 94.5 14t93.5 56t78.5 116t53.5 192l6 50q-8 -10 -30.5 -24.5t-57.5 -29t-81 -24.5t-99 -10q-84 0 -150.5 32.5t-113 89t-71 132t-24.5 163.5q0 119 38 222.5 t103.5 180.5t152.5 122t185 45q57 0 103.5 -14.5t80.5 -33t53 -37t26 -26.5l20 64q6 27 31 26h16q10 0 18.5 -9t4.5 -22l-121 -890q-18 -135 -59 -226.5t-97.5 -145.5t-123 -78t-136.5 -24q-61 0 -112.5 19.5t-91.5 46.5t-67.5 52.5t-37.5 37.5zM188 408q0 -70 19.5 -132.5 t54.5 -109.5t86 -75t115 -28q57 0 105 15.5t84 35t56.5 38t24.5 22.5l82 578q-2 4 -17.5 24.5t-46 43t-74.5 41t-106 18.5q-82 0 -151.5 -38t-120.5 -102.5t-81 -150.5t-30 -180zM524 1270q0 66 30 133t87 113q12 12 25 2l20 -21q10 -10 6 -16t-12 -13q-33 -29 -55.5 -71.5 t-22.5 -83.5q0 -16 6 -29q14 14 47 14q29 0 46.5 -16t17.5 -41q0 -37 -27.5 -62.5t-68.5 -25.5q-47 0 -73 30.5t-26 86.5z" />
<glyph unicode="&#x124;" horiz-adv-x="1421" d="M129 27l195 1380q4 27 28 27h45q27 0 23 -27l-90 -629h815l88 629q4 27 29 27h45q27 0 22 -27l-194 -1380q-4 -27 -29 -27h-45q-27 0 -23 27l95 665h-814l-94 -665q-4 -27 -30 -27h-43q-27 0 -23 27zM602 1599q-8 14 8 29l252 201q12 10 25 10q8 0 18 -10l197 -201 q16 -16 4 -29l-14 -16q-6 -6 -13.5 -10t-17.5 6l-182 166l-232 -172q-14 -10 -20 -6t-11 10z" />
<glyph unicode="&#x125;" horiz-adv-x="1036" d="M88 1597q-8 14 8 29l252 201q12 10 25 10q8 0 18 -10l197 -201q6 -6 9 -13t-5 -16l-14 -16q-6 -6 -13.5 -10t-17.5 6l-182 166l-232 -172q-14 -10 -20.5 -6t-10.5 10zM98 31l193 1374q2 10 7 19.5t19 9.5h41q10 0 19.5 -9.5t7.5 -19.5l-84 -582q10 12 35.5 36t65.5 47.5 t93.5 42t118.5 18.5q154 0 217.5 -104.5t32.5 -317.5l-71 -514q-2 -12 -11.5 -21.5t-21.5 -9.5h-31q-14 0 -21.5 9t-5.5 22l72 514q23 176 -20 255t-158 79q-68 0 -123 -25t-96 -54.5t-65.5 -56t-26.5 -30.5l-97 -682q-4 -31 -32 -31h-35q-14 0 -19.5 9t-3.5 22z" />
<glyph unicode="&#x126;" horiz-adv-x="1425" d="M131 27l152 1083h-47q-23 0 -19 29l2 12q4 23 27 23h47l33 233q2 10 10 18.5t18 8.5h45q27 0 23 -27l-33 -233h813l33 233q4 23 14.5 25t20.5 2h41q27 0 22 -27l-33 -233h46q25 0 22 -25l-2 -14q-4 -25 -29 -25h-45l-153 -1083q-2 -10 -10.5 -18.5t-18.5 -8.5h-43 q-18 0 -23.5 10t-3.5 27l95 655h-813l-95 -665q-4 -16 -12 -21.5t-25 -5.5h-36q-27 0 -23 27zM334 780h813l47 330h-815z" />
<glyph unicode="&#x127;" horiz-adv-x="1073" d="M98 31l152 1079h-70q-10 0 -15 9t-3 20l2 12q4 23 26 23h68l33 231q2 10 7 19.5t19 9.5h39q10 0 19.5 -9.5t7.5 -19.5l-35 -231h340q25 0 23 -25l-2 -14q-2 -10 -10.5 -17.5t-18.5 -7.5h-340l-41 -287q10 12 39 36t73 47.5t100 42t122 18.5q154 0 227.5 -104.5 t42.5 -317.5l-72 -514q-2 -12 -11 -21.5t-21 -9.5h-31q-14 0 -21.5 9t-5.5 22l72 514q23 176 -30.5 255t-168.5 79q-68 0 -126 -25t-103 -54.5t-72.5 -56t-29.5 -30.5l-97 -682q-4 -31 -32 -31h-33q-14 0 -19.5 9t-3.5 22z" />
<glyph unicode="&#x128;" horiz-adv-x="516" d="M131 27l193 1380q4 27 30 27h45q27 0 23 -27l-193 -1380q-6 -27 -32 -27h-43q-27 0 -23 27zM178 1628q4 10 15 33.5t30.5 48t47.5 44t69 19.5q43 0 63.5 -24.5t33.5 -54t23.5 -49t28.5 -19.5q16 0 29.5 9t24 23.5t17.5 30t11 27.5q12 29 39 16l20 -6q6 -6 11.5 -12 t-0.5 -23q0 -4 -9.5 -27.5t-30 -50t-50 -48t-72.5 -21.5q-41 0 -62.5 26.5t-35 54t-23.5 49t-27 21.5q-18 0 -31.5 -11t-25.5 -26.5t-19.5 -32t-11.5 -28.5q-10 -29 -36 -14l-19 8q-25 8 -10 37z" />
<glyph unicode="&#x129;" horiz-adv-x="442" d="M74 1141q4 10 15 33.5t30.5 48t47.5 44t69 19.5q43 0 63.5 -24.5t33.5 -54t23.5 -49t28.5 -19.5q16 0 29.5 9t24 23.5t17.5 30t11 27.5q12 29 39 16l20 -6q6 -6 11.5 -12t-0.5 -23q0 -4 -9.5 -27.5t-30 -50t-50 -48t-72.5 -21.5q-41 0 -62.5 26.5t-35 54t-23.5 49 t-27 21.5q-18 0 -31.5 -11t-25.5 -26.5t-19.5 -32t-11.5 -28.5q-10 -29 -36 -14l-19 8q-25 8 -10 37zM98 31l125 884q2 12 12.5 21.5t24.5 9.5h29q12 0 19 -9t5 -22l-125 -884q-4 -31 -30 -31h-37q-14 0 -19.5 9t-3.5 22z" />
<glyph unicode="&#x12a;" horiz-adv-x="516" d="M131 27l193 1380q4 27 30 27h45q27 0 23 -27l-193 -1380q-6 -27 -32 -27h-43q-27 0 -23 27zM139 1729l4 24q4 27 29 27h498q10 0 17 -7.5t3 -19.5l-2 -24q-4 -27 -31 -27h-495q-27 0 -23 27z" />
<glyph unicode="&#x12b;" horiz-adv-x="442" d="M41 1243l4 27q4 27 29 26h495q27 0 23 -26l-4 -27q-4 -25 -29 -24h-496q-27 0 -22 24zM98 31l125 884q2 12 12.5 21.5t24.5 9.5h29q12 0 19 -9t5 -22l-125 -884q-4 -31 -30 -31h-37q-14 0 -19.5 9t-3.5 22z" />
<glyph unicode="&#x12c;" horiz-adv-x="516" d="M131 27l193 1380q4 27 30 27h45q27 0 23 -27l-193 -1380q-6 -27 -32 -27h-43q-27 0 -23 27zM190 1815q0 10 5.5 19t17.5 9h23q10 0 14 -7t6 -17q10 -68 48 -114t104 -46q59 0 113 46t79 114q10 25 27 24h32q10 0 15.5 -9t1.5 -19q-29 -98 -102 -163t-173 -65 q-45 0 -83.5 17.5t-67.5 48t-44.5 72.5t-15.5 90z" />
<glyph unicode="&#x12d;" horiz-adv-x="442" d="M86 1327q0 29 25 29h22q16 0 21 -23q6 -70 45 -116t104 -46q61 0 115.5 46.5t77.5 115.5q10 23 28 23h33q20 0 14 -29q-27 -96 -99.5 -160.5t-174.5 -64.5q-43 0 -81 17.5t-66.5 48t-45 71.5t-18.5 88zM98 31l125 884q2 12 12.5 21.5t24.5 9.5h29q12 0 19 -9t5 -22 l-125 -884q-4 -31 -30 -31h-37q-14 0 -19.5 9t-3.5 22z" />
<glyph unicode="&#x12e;" horiz-adv-x="516" d="M-158 -326q0 61 23.5 112.5t63.5 95.5t93.5 81t110.5 70l193 1374q4 27 30 27h45q27 0 23 -27l-193 -1376q-2 -14 -9 -20.5t-17 -10.5q-45 -25 -93.5 -55.5t-88 -69.5t-65.5 -87t-26 -105q0 -45 28 -72t79 -27q47 0 87 21.5t58 32.5q4 4 12.5 3t8.5 -12l-2 -39 q0 -10 -4 -19t-21 -17q-23 -12 -64.5 -31t-93.5 -19q-84 0 -131 49.5t-47 120.5z" />
<glyph unicode="&#x12f;" horiz-adv-x="442" d="M-195 -326q0 61 25 113.5t66 96.5t94 81t110 70l125 880q2 12 12.5 21.5t24.5 9.5h29q12 0 19 -9t5 -22l-125 -876q-4 -29 -22 -39q-41 -20 -88 -51t-88 -71t-68.5 -89t-27.5 -106q0 -45 27.5 -72t78.5 -27q47 0 87 21.5t58 32.5q4 4 12.5 3t8.5 -12l-2 -39q0 -10 -4 -19 t-21 -17q-23 -12 -64.5 -31t-92.5 -19q-84 0 -131.5 49.5t-47.5 120.5zM238 1276q0 37 28.5 63.5t65.5 26.5q31 0 49 -19.5t18 -48.5q0 -37 -26.5 -63.5t-63.5 -26.5q-31 0 -51 19.5t-20 48.5z" />
<glyph unicode="&#x130;" horiz-adv-x="516" d="M131 27l193 1380q4 27 30 27h45q27 0 23 -27l-193 -1380q-6 -27 -32 -27h-43q-27 0 -23 27zM336 1724q0 37 28.5 64t65.5 27q31 0 49.5 -19.5t18.5 -48.5q0 -37 -26.5 -63.5t-63.5 -26.5q-31 0 -51.5 19.5t-20.5 47.5z" />
<glyph unicode="&#x131;" horiz-adv-x="442" d="M98 31l125 884q2 12 12.5 21.5t24.5 9.5h29q12 0 19 -9t5 -22l-125 -884q-4 -31 -30 -31h-37q-14 0 -19.5 9t-3.5 22z" />
<glyph unicode="&#x132;" horiz-adv-x="1312" d="M131 27l193 1380q4 27 30 27h45q27 0 23 -27l-193 -1380q-6 -27 -32 -27h-43q-27 0 -23 27zM412 133q-12 23 6 35l28 22q23 18 35 0q12 -16 28.5 -37.5t41 -41t58.5 -32.5t77 -13q55 0 105.5 17t90.5 56t69.5 101.5t41.5 154.5l144 1012q4 27 30 27h43q27 0 23 -27 l-143 -1010q-31 -217 -138.5 -317t-273.5 -100q-61 0 -106.5 18t-78 43t-53 50.5t-28.5 41.5z" />
<glyph unicode="&#x133;" horiz-adv-x="849" d="M96 31l125 884q2 12 12.5 21.5t24.5 9.5h29q12 0 19 -9t5 -22l-125 -884q-4 -31 -30 -31h-37q-14 0 -19.5 9t-3.5 22zM233 -461q-4 12 2.5 26.5t24.5 18.5q84 20 143.5 74.5t75.5 177.5l152 1079q2 12 12 21.5t25 9.5h28q10 0 19.5 -9t5.5 -22l-148 -1060 q-12 -88 -35.5 -147.5t-59.5 -100.5t-84 -66.5t-107 -44.5q-37 -12 -45 17zM233 1276q0 37 29 63.5t66 26.5q31 0 49 -19.5t18 -48.5q0 -37 -26.5 -63.5t-63.5 -26.5q-31 0 -51.5 19.5t-20.5 48.5zM643 1278q0 37 28.5 63.5t65.5 26.5q31 0 49.5 -19.5t18.5 -48.5 q0 -37 -26.5 -63.5t-63.5 -26.5q-31 0 -51.5 19.5t-20.5 48.5z" />
<glyph unicode="&#x134;" horiz-adv-x="888" d="M-12 133q-12 23 6 35l29 22q23 18 34 0q12 -16 28.5 -37.5t41.5 -41t58.5 -32.5t76.5 -13q55 0 105.5 17t90.5 56t69.5 101.5t41.5 154.5l144 1012q4 27 30 27h43q27 0 23 -27l-143 -1010q-31 -217 -138.5 -317t-273.5 -100q-61 0 -106.5 18t-78 43t-53 50.5t-28.5 41.5z M535 1599q-8 14 8 29l252 201q12 10 24 10q8 0 19 -10l196 -201q6 -6 9.5 -13t-5.5 -16l-14 -16q-6 -6 -13 -10t-18 6l-182 166l-231 -172q-14 -10 -20.5 -6t-10.5 10z" />
<glyph unicode="&#x135;" horiz-adv-x="442" d="M-174 -461q-4 12 2 26.5t25 18.5q84 20 143 74.5t76 177.5l151 1079q2 12 12.5 21.5t24.5 9.5h29q10 0 19 -9t5 -22l-147 -1060q-12 -88 -36 -147.5t-59.5 -100.5t-83.5 -66.5t-108 -44.5q-37 -12 -45 17zM45 1153q-8 14 8 29l252 200q12 10 25 11q8 0 18 -11l197 -200 q6 -6 9 -13.5t-5 -15.5l-14 -16q-6 -6 -13.5 -10.5t-17.5 6.5l-182 165l-232 -172q-14 -10 -20.5 -6t-10.5 10z" />
<glyph unicode="&#x136;" horiz-adv-x="1093" d="M129 27l195 1376q4 31 32 31h39q31 0 27 -31l-92 -639l708 655q14 10 20.5 12.5t20.5 2.5h62q16 0 17 -12.5t-9 -22.5l-731 -676l561 -688q8 -8 2 -21.5t-29 -13.5h-49q-23 0 -41 20l-543 674l-92 -667q-2 -16 -12 -21.5t-22 -5.5h-41q-27 0 -23 27zM360 -244 q0 37 28 62.5t69 25.5q47 0 72.5 -30.5t25.5 -85.5q0 -66 -29.5 -133.5t-87.5 -112.5q-14 -14 -24 -2l-21 20q-10 10 -6 16.5t12 12.5q33 29 55.5 72t22.5 84q0 16 -6 28q-14 -14 -47 -14q-29 0 -46.5 16t-17.5 41z" />
<glyph unicode="&#x137;" horiz-adv-x="876" d="M98 31l193 1374q2 10 11 19.5t22 9.5h32q10 0 19.5 -9.5t7.5 -19.5l-121 -840l471 367q16 14 37 14h64q18 0 20 -13t-14 -26l-500 -391l387 -475q12 -14 4 -27.5t-22 -13.5h-37q-14 0 -23.5 1t-21.5 17l-375 471l-66 -458q-4 -31 -32 -31h-33q-14 0 -19.5 9t-3.5 22z M270 -244q0 37 28 62.5t69 25.5q47 0 72.5 -30.5t25.5 -85.5q0 -66 -29.5 -133.5t-87.5 -112.5q-14 -14 -24 -2l-21 20q-10 10 -6 16.5t12 12.5q33 29 55.5 72t22.5 84q0 16 -6 28q-14 -14 -47 -14q-29 0 -46.5 16t-17.5 41z" />
<glyph unicode="&#x138;" horiz-adv-x="935" d="M96 31l125 884q2 12 11.5 21.5t21.5 9.5h45q10 0 17.5 -9t5.5 -22l-56 -401l508 418q16 14 39 14h74q16 0 15 -16.5t-17 -26.5l-527 -430l439 -432q12 -10 4 -25.5t-21 -15.5h-59q-10 0 -17.5 3t-21.5 15l-428 420l-57 -407q-4 -31 -31 -31h-37q-14 0 -24.5 9t-8.5 22z " />
<glyph unicode="&#x139;" horiz-adv-x="935" d="M129 27l195 1380q2 10 10 18.5t18 8.5h47q10 0 16.5 -8.5t4.5 -18.5l-187 -1321h580q18 0 21.5 -8t1.5 -19l-7 -36q-4 -23 -28 -23h-649q-27 0 -23 27zM223 1628q-6 16 17 29l321 184q6 4 17.5 4t15.5 -10l18 -43q6 -20 -12 -31l-338 -162q-25 -10 -31 7z" />
<glyph unicode="&#x13a;" horiz-adv-x="468" d="M111 31l192 1374q2 10 10.5 19.5t18.5 9.5h39q10 0 19 -9.5t7 -19.5l-196 -1374q-4 -31 -33 -31h-35q-14 0 -19 9t-3 22zM229 1618q-6 16 17 29l321 184q6 4 17.5 4t15.5 -10l18 -43q6 -20 -12 -31l-338 -162q-25 -10 -30 6z" />
<glyph unicode="&#x13b;" horiz-adv-x="935" d="M129 27l195 1380q2 10 10 18.5t18 8.5h47q10 0 16.5 -8.5t4.5 -18.5l-187 -1321h580q18 0 21.5 -8t1.5 -19l-7 -36q-4 -23 -28 -23h-649q-27 0 -23 27zM340 -244q0 37 27.5 62.5t68.5 25.5q47 0 73 -30.5t26 -85.5q0 -66 -30 -133.5t-87 -112.5q-14 -14 -25 -2l-20 20 q-10 10 -6 16.5t12 12.5q33 29 55.5 72t22.5 84q0 16 -6 28q-14 -14 -48 -14q-29 0 -46 16t-17 41z" />
<glyph unicode="&#x13c;" horiz-adv-x="468" d="M20 -244q0 37 28 62.5t69 25.5q47 0 72.5 -30.5t25.5 -85.5q0 -66 -29.5 -133.5t-87.5 -112.5q-14 -14 -24 -2l-21 20q-10 10 -6 16.5t12 12.5q33 29 55.5 72t22.5 84q0 16 -6 28q-14 -14 -47 -14q-29 0 -46.5 16t-17.5 41zM111 31l192 1374q2 10 10.5 19.5t18.5 9.5h39 q10 0 19 -9.5t7 -19.5l-196 -1374q-4 -31 -33 -31h-35q-14 0 -19 9t-3 22z" />
<glyph unicode="&#x13d;" horiz-adv-x="940" d="M129 27l195 1380q2 10 10 18.5t18 8.5h47q10 0 16.5 -8.5t4.5 -18.5l-187 -1321h580q18 0 21.5 -8t1.5 -19l-7 -36q-4 -23 -28 -23h-649q-27 0 -23 27zM682 1368q0 37 27.5 62.5t68.5 25.5q47 0 73 -30.5t26 -86.5q0 -66 -30 -133t-87 -112q-14 -14 -25 -2l-20 20 q-10 10 -6 16.5t12 12.5q33 29 55.5 71.5t22.5 83.5q0 16 -6 29q-14 -14 -48 -14q-29 0 -46 16t-17 41z" />
<glyph unicode="&#x13e;" horiz-adv-x="468" d="M111 31l192 1374q2 10 10.5 19.5t18.5 9.5h39q10 0 19 -9.5t7 -19.5l-196 -1374q-4 -31 -33 -31h-35q-14 0 -19 9t-3 22zM524 1366q0 37 28 62.5t69 25.5q47 0 72.5 -30.5t25.5 -86.5q0 -66 -30 -133t-87 -112q-14 -14 -24 -2l-21 20q-10 10 -6 16.5t12 12.5 q33 29 55.5 71.5t22.5 83.5q0 16 -6 29q-14 -14 -47 -14q-29 0 -46.5 16t-17.5 41z" />
<glyph unicode="&#x13f;" horiz-adv-x="972" d="M129 27l195 1380q2 10 10 18.5t18 8.5h47q10 0 16.5 -8.5t4.5 -18.5l-187 -1321h580q18 0 21.5 -8t1.5 -19l-7 -36q-4 -23 -28 -23h-649q-27 0 -23 27zM772 719q0 41 29.5 66.5t64.5 25.5q31 0 49.5 -20.5t18.5 -51.5q0 -39 -26.5 -65.5t-63.5 -26.5q-31 0 -51.5 21.5 t-20.5 50.5z" />
<glyph unicode="&#x140;" horiz-adv-x="602" d="M111 31l192 1374q2 10 10.5 19.5t18.5 9.5h39q10 0 19 -9.5t7 -19.5l-196 -1374q-4 -31 -33 -31h-35q-14 0 -19 9t-3 22zM471 692q0 41 29.5 66.5t64.5 25.5q31 0 49.5 -20.5t18.5 -50.5q0 -39 -26.5 -65.5t-63.5 -26.5q-31 0 -51.5 21.5t-20.5 49.5z" />
<glyph unicode="&#x141;" horiz-adv-x="940" d="M123 647q-4 23 12 31l94 49l97 680q4 27 30 27h43q27 0 23 -27l-88 -625l280 152q23 16 31 -10l4 -13q8 -23 -14 -32l-311 -170l-88 -623h593q18 0 21.5 -8t1.5 -23l-4 -28q-4 -27 -31 -27h-663q-27 0 -23 27l88 628l-61 -32q-23 -14 -31 8z" />
<glyph unicode="&#x142;" horiz-adv-x="563" d="M49 656.5q2 9.5 14 15.5l162 86l90 647q2 10 10.5 19.5t18.5 9.5h39q10 0 19.5 -9.5t7.5 -19.5l-86 -594l217 117q23 12 30 -10l4 -13q8 -20 -14 -33l-248 -133l-100 -708q-4 -31 -33 -31h-35q-14 0 -19 9t-3 22l92 655l-129 -70q-10 -4 -18.5 -3t-12.5 12l-4 12 q-4 10 -2 19.5z" />
<glyph unicode="&#x143;" horiz-adv-x="1452" d="M131 27l197 1400q6 27 32 27h11q18 0 30 -18l693 -1254h4l168 1225q4 27 30 27h41q27 0 23 -27l-197 -1401q-2 -14 -12 -20t-23 -6h-12q-18 0 -31 18l-688 1257h-2l-172 -1228q-4 -20 -19.5 -23.5t-31.5 -3.5h-18q-27 0 -23 27zM702 1628q-6 16 17 29l321 184q6 4 17.5 4 t15.5 -10l19 -43q6 -20 -13 -31l-338 -162q-25 -10 -30 7z" />
<glyph unicode="&#x144;" horiz-adv-x="1034" d="M98 31l125 884q2 12 8.5 21.5t20.5 9.5h20q27 0 27 -24l-6 -95q14 14 41.5 38t67.5 46.5t91.5 39t116.5 16.5q86 0 141.5 -30t85 -85t36 -133t-8.5 -174l-73 -514q-2 -12 -11.5 -21.5t-21.5 -9.5h-31q-14 0 -21.5 9t-5.5 22l74 514q23 166 -17 250t-165 84 q-66 0 -118 -21.5t-91 -48.5t-63.5 -53.5t-32.5 -34.5l-99 -690q-4 -31 -34 -31h-33q-14 0 -19.5 9t-3.5 22zM498 1174q-6 16 16 28l322 184q6 4 17 4.5t15 -10.5l19 -43q6 -20 -13 -30l-337 -162q-25 -10 -31 6z" />
<glyph unicode="&#x145;" horiz-adv-x="1452" d="M131 27l197 1400q6 27 32 27h11q18 0 30 -18l693 -1254h4l168 1225q4 27 30 27h41q27 0 23 -27l-197 -1401q-2 -14 -12 -20t-23 -6h-12q-18 0 -31 18l-688 1257h-2l-172 -1228q-4 -20 -19.5 -23.5t-31.5 -3.5h-18q-27 0 -23 27zM522 -244q0 37 28 62.5t68 25.5 q47 0 73 -30.5t26 -85.5q0 -66 -30 -133.5t-87 -112.5q-14 -14 -25 -2l-20 20q-10 10 -6 16.5t12 12.5q33 29 55.5 72t22.5 84q0 16 -6 28q-14 -14 -47 -14q-29 0 -46.5 16t-17.5 41z" />
<glyph unicode="&#x146;" horiz-adv-x="1034" d="M98 31l125 884q2 12 8.5 21.5t20.5 9.5h20q27 0 27 -24l-6 -95q14 14 41.5 38t67.5 46.5t91.5 39t116.5 16.5q86 0 141.5 -30t85 -85t36 -133t-8.5 -174l-73 -514q-2 -12 -11.5 -21.5t-21.5 -9.5h-31q-14 0 -21.5 9t-5.5 22l74 514q23 166 -17 250t-165 84 q-66 0 -118 -21.5t-91 -48.5t-63.5 -53.5t-32.5 -34.5l-99 -690q-4 -31 -34 -31h-33q-14 0 -19.5 9t-3.5 22zM336 -244q0 37 27.5 62.5t68.5 25.5q47 0 72.5 -30.5t25.5 -85.5q0 -66 -29.5 -133.5t-86.5 -112.5q-14 -14 -25 -2l-20 20q-10 10 -6 16.5t12 12.5q33 29 55.5 72 t22.5 84q0 16 -7 28q-14 -14 -47 -14q-29 0 -46 16t-17 41z" />
<glyph unicode="&#x147;" horiz-adv-x="1452" d="M131 27l197 1400q6 27 32 27h11q18 0 30 -18l693 -1254h4l168 1225q4 27 30 27h41q27 0 23 -27l-197 -1401q-2 -14 -12 -20t-23 -6h-12q-18 0 -31 18l-688 1257h-2l-172 -1228q-4 -20 -19.5 -23.5t-31.5 -3.5h-18q-27 0 -23 27zM657 1800l15 17q6 6 13 10t17 -6l183 -166 l231 172q14 10 20.5 6t10.5 -10l14 -23q8 -14 -8 -28l-252 -201q-12 -10 -24 -10q-8 0 -19 10l-196 201q-16 16 -5 28z" />
<glyph unicode="&#x148;" horiz-adv-x="1034" d="M98 31l125 884q2 12 8.5 21.5t20.5 9.5h20q27 0 27 -24l-6 -95q14 14 41.5 38t67.5 46.5t91.5 39t116.5 16.5q86 0 141.5 -30t85 -85t36 -133t-8.5 -174l-73 -514q-2 -12 -11.5 -21.5t-21.5 -9.5h-31q-14 0 -21.5 9t-5.5 22l74 514q23 166 -17 250t-165 84 q-66 0 -118 -21.5t-91 -48.5t-63.5 -53.5t-32.5 -34.5l-99 -690q-4 -31 -34 -31h-33q-14 0 -19.5 9t-3.5 22zM389 1354l14 16q6 6 13.5 10t17.5 -6l182 -166l232 172q14 10 20 6t11 -10l14 -22q8 -14 -8 -29l-252 -201q-13 -10 -25 -10q-8 0 -18 10l-197 201q-16 16 -4 29z " />
<glyph unicode="&#x149;" horiz-adv-x="1034" d="M98 31l125 884q2 12 8.5 21.5t20.5 9.5h20q27 0 27 -24l-6 -95q14 14 41.5 38t67.5 46.5t91.5 39t116.5 16.5q86 0 141.5 -30t85 -85t36 -133t-8.5 -174l-73 -514q-2 -12 -11.5 -21.5t-21.5 -9.5h-31q-14 0 -21.5 9t-5.5 22l74 514q23 166 -17 250t-165 84 q-66 0 -118 -21.5t-91 -48.5t-63.5 -53.5t-32.5 -34.5l-99 -690q-4 -31 -34 -31h-33q-14 0 -19.5 9t-3.5 22zM98 1368q0 37 28 62.5t69 25.5q47 0 72.5 -30.5t25.5 -86.5q0 -66 -30 -133t-87 -112q-14 -14 -24 -2l-21 20q-10 10 -6 16.5t12 12.5q33 29 55.5 71.5t22.5 83.5 q0 16 -6 29q-14 -14 -47 -14q-29 0 -46.5 16t-17.5 41z" />
<glyph unicode="&#x14a;" horiz-adv-x="1454" d="M131 27l197 1400q6 27 32 27h11q18 0 30 -18l693 -1254h2l170 1225q4 27 30 27h41q27 0 23 -27l-217 -1552q-12 -88 -36 -147.5t-59.5 -100.5t-84 -66.5t-107.5 -44.5q-37 -12 -45 17l-8 26q-4 12 2 26.5t24 18.5q84 20 143.5 74.5t76.5 177.5l24 184l-676 1235h-2 l-172 -1228q-4 -20 -19.5 -23.5t-31.5 -3.5h-18q-27 0 -23 27z" />
<glyph unicode="&#x14b;" horiz-adv-x="1036" d="M98 31l125 884q2 12 8.5 21.5t20.5 9.5h20q27 0 27 -24l-6 -95q14 14 41.5 38t67.5 46.5t91.5 39t116.5 16.5q86 0 141.5 -30t85 -85t36 -133t-8.5 -174l-96 -690q-12 -88 -35.5 -147.5t-59.5 -100.5t-84 -66.5t-108 -44.5q-37 -12 -45 17l-8 26q-4 12 2 26.5t25 18.5 q84 20 143 74.5t76 177.5l100 709q23 166 -17 250t-165 84q-66 0 -118 -21.5t-91 -48.5t-63.5 -53.5t-32.5 -34.5l-99 -690q-4 -31 -34 -31h-33q-14 0 -19.5 9t-3.5 22z" />
<glyph unicode="&#x14c;" horiz-adv-x="1574" d="M133 614q0 174 61.5 327t168 266.5t247 180t299.5 66.5q121 0 225.5 -50t181.5 -137t120 -204t43 -250q0 -174 -61.5 -325.5t-168 -264t-247 -178t-300.5 -65.5q-121 0 -225 49t-181 135t-120 201.5t-43 248.5zM227 627q0 -115 36 -216.5t100.5 -177t153.5 -119.5 t198 -44q131 0 251.5 57t214 156.5t148.5 232.5t55 285q0 117 -35.5 219t-100 179t-154.5 121t-197 44q-131 0 -252 -58.5t-214 -158.5t-148.5 -234t-55.5 -286zM690 1729l4 24q4 27 29 27h498q10 0 17 -7.5t3 -19.5l-2 -24q-4 -27 -31 -27h-495q-27 0 -23 27z" />
<glyph unicode="&#x14d;" horiz-adv-x="1087" d="M94 403q0 117 40 219.5t108.5 179.5t161 121t196.5 44q76 0 142.5 -34t114.5 -91.5t76 -134t28 -164.5q0 -117 -40 -220.5t-109 -180t-160 -121t-193 -44.5q-78 0 -144.5 34t-115.5 91.5t-77 135t-28 165.5zM184 414q0 -74 20.5 -137.5t58.5 -111.5t90.5 -75t115.5 -27 q78 0 150.5 37t128 100.5t89 149.5t33.5 185q0 72 -21.5 135t-59 109t-90 73t-113.5 27q-82 0 -155 -37t-128 -99.5t-87 -147.5t-32 -181zM362 1243l5 27q4 27 28 26h496q27 0 22 -26l-4 -27q-4 -25 -28 -24h-496q-27 0 -23 24z" />
<glyph unicode="&#x14e;" horiz-adv-x="1574" d="M133 614q0 174 61.5 327t168 266.5t247 180t299.5 66.5q121 0 225.5 -50t181.5 -137t120 -204t43 -250q0 -174 -61.5 -325.5t-168 -264t-247 -178t-300.5 -65.5q-121 0 -225 49t-181 135t-120 201.5t-43 248.5zM227 627q0 -115 36 -216.5t100.5 -177t153.5 -119.5 t198 -44q131 0 251.5 57t214 156.5t148.5 232.5t55 285q0 117 -35.5 219t-100 179t-154.5 121t-197 44q-131 0 -252 -58.5t-214 -158.5t-148.5 -234t-55.5 -286zM737 1815q0 10 5.5 19t17.5 9h22q10 0 14.5 -7t6.5 -17q10 -68 48 -114t103 -46q59 0 113.5 46t79.5 114 q10 25 27 24h32q10 0 15.5 -9t1.5 -19q-29 -98 -102 -163t-173 -65q-45 0 -84 17.5t-67.5 48t-44 72.5t-15.5 90z" />
<glyph unicode="&#x14f;" horiz-adv-x="1087" d="M94 403q0 117 40 219.5t108.5 179.5t161 121t196.5 44q76 0 142.5 -34t114.5 -91.5t76 -134t28 -164.5q0 -117 -40 -220.5t-109 -180t-160 -121t-193 -44.5q-78 0 -144.5 34t-115.5 91.5t-77 135t-28 165.5zM184 414q0 -74 20.5 -137.5t58.5 -111.5t90.5 -75t115.5 -27 q78 0 150.5 37t128 100.5t89 149.5t33.5 185q0 72 -21.5 135t-59 109t-90 73t-113.5 27q-82 0 -155 -37t-128 -99.5t-87 -147.5t-32 -181zM401 1327q0 29 25 29h23q16 0 20 -23q6 -70 45 -116t104 -46q61 0 115.5 46.5t77.5 115.5q10 23 29 23h32q20 0 15 -29 q-27 -96 -100 -160.5t-175 -64.5q-43 0 -80.5 17.5t-66.5 48t-45.5 71.5t-18.5 88z" />
<glyph unicode="&#x150;" horiz-adv-x="1574" d="M133 614q0 174 61.5 327t168 266.5t247 180t299.5 66.5q121 0 225.5 -50t181.5 -137t120 -204t43 -250q0 -174 -61.5 -325.5t-168 -264t-247 -178t-300.5 -65.5q-121 0 -225 49t-181 135t-120 201.5t-43 248.5zM227 627q0 -115 36 -216.5t100.5 -177t153.5 -119.5 t198 -44q131 0 251.5 57t214 156.5t148.5 232.5t55 285q0 117 -35.5 219t-100 179t-154.5 121t-197 44q-131 0 -252 -58.5t-214 -158.5t-148.5 -234t-55.5 -286zM750 1593l182 326q12 23 31 23h47q16 0 21 -10.5t-5 -24.5l-213 -322q-4 -10 -12 -13t-15 -3h-24q-23 0 -12 24 zM1057 1593l182 326q10 23 31 23h45q16 0 21 -10.5t-5 -24.5l-211 -322q-10 -16 -28 -16h-25q-25 0 -10 24z" />
<glyph unicode="&#x151;" horiz-adv-x="1087" d="M94 403q0 117 40 219.5t108.5 179.5t161 121t196.5 44q76 0 142.5 -34t114.5 -91.5t76 -134t28 -164.5q0 -117 -40 -220.5t-109 -180t-160 -121t-193 -44.5q-78 0 -144.5 34t-115.5 91.5t-77 135t-28 165.5zM184 414q0 -74 20.5 -137.5t58.5 -111.5t90.5 -75t115.5 -27 q78 0 150.5 37t128 100.5t89 149.5t33.5 185q0 72 -21.5 135t-59 109t-90 73t-113.5 27q-82 0 -155 -37t-128 -99.5t-87 -147.5t-32 -181zM410 1085l182 326q12 23 31 23h47q16 0 20 -10.5t-6 -24.5l-211 -322q-10 -16 -27 -16h-24q-23 0 -12 24zM717 1085l182 326 q10 23 29 23h47q16 0 21 -10.5t-5 -24.5l-213 -322q-8 -16 -26 -16h-25q-25 0 -10 24z" />
<glyph unicode="&#x152;" horiz-adv-x="1804" d="M133 614q0 174 61.5 327t167 266.5t246 180t297.5 66.5q53 0 96 -8t60 -12h733q25 0 21 -27l-5 -35q-4 -27 -28 -26h-666l-78 -566h574q27 0 22 -26l-4 -35q-4 -27 -31 -27h-573l-86 -606h666q10 0 16 -8t4 -19l-6 -32q-4 -27 -27 -27h-733q-16 -4 -62 -12t-100 -8 q-121 0 -224 49t-179 135t-119 201.5t-43 248.5zM221 627q0 -115 37 -216.5t101.5 -177t154.5 -119.5t199 -44q70 0 129 14l178 1262q-31 8 -61.5 12t-65.5 4q-131 0 -252 -58.5t-214 -157.5t-149.5 -233t-56.5 -286z" />
<glyph unicode="&#x153;" horiz-adv-x="1697" d="M96 416q0 111 40 211t107.5 176t158 120t190.5 44q106 0 185 -53.5t126 -143.5q37 45 85 81t100.5 61.5t105.5 40t102 14.5q61 0 117.5 -15.5t99.5 -45t68 -75t25 -104.5q0 -72 -30 -120t-79 -79.5t-111.5 -49t-128.5 -23.5q-154 -16 -346 12l-18 -219q16 -39 46 -73 t69 -58.5t84 -39t92 -14.5q51 0 91 10.5t72.5 25t56 30.5t40.5 29q29 20 45 -8l14 -25q4 -8 4 -17.5t-10 -19.5q-12 -10 -43 -28.5t-75 -37t-98.5 -32t-115.5 -13.5q-51 0 -103 17.5t-96 45.5t-79 63.5t-51 72.5q-72 -92 -166.5 -145.5t-214.5 -53.5q-76 0 -141.5 34 t-113.5 92.5t-76 139.5t-28 173zM186 416q0 -72 20.5 -135.5t57.5 -111.5t89.5 -77t115.5 -29t118.5 20.5t99.5 53.5t75 72t47 74l41 401q-10 31 -32.5 64.5t-56.5 62.5t-79 48.5t-100 19.5q-78 0 -150 -37t-126 -99.5t-87 -147.5t-33 -179zM922 549q106 -16 211.5 -18.5 t190.5 16t138.5 60.5t53.5 114q0 74 -59.5 116t-158.5 42q-61 0 -116.5 -17.5t-101.5 -45.5t-82.5 -62.5t-61.5 -67.5z" />
<glyph unicode="&#x154;" horiz-adv-x="1232" d="M129 27l195 1380q4 27 28 27h461q72 0 136.5 -30t112.5 -81t75.5 -120.5t27.5 -149.5q0 -88 -27.5 -167t-76.5 -143.5t-115.5 -109.5t-142.5 -66l190 -530q4 -12 0 -24.5t-20 -12.5h-51q-16 0 -23.5 5t-11.5 22l-187 528q-18 -2 -37.5 -2h-37.5h-326l-74 -526 q-4 -27 -37 -27h-36q-27 0 -23 27zM313 647h383q70 0 136.5 30t117.5 82t82 124.5t31 156.5q0 63 -20.5 117.5t-55.5 94.5t-85 63.5t-107 23.5h-383zM524 1628q-6 16 17 29l321 184q6 4 17.5 4t15.5 -10l18 -43q6 -20 -12 -31l-338 -162q-25 -10 -31 7z" />
<glyph unicode="&#x155;" horiz-adv-x="733" d="M96 31l125 884q2 12 10.5 21.5t18.5 9.5h22q10 0 18.5 -6t6.5 -20l-6 -91q10 14 33.5 38t60.5 45.5t86 38t109 16.5q49 0 80.5 -9.5t46.5 -15.5q33 -16 20 -43l-18 -37q-12 -29 -41 -10q-10 4 -40 15.5t-77 11.5q-49 0 -92 -17.5t-77 -44t-58.5 -55.5t-38.5 -49l-99 -682 q-4 -31 -30 -31h-37q-14 0 -19.5 9t-3.5 22zM283 1174q-6 16 16 28l322 184q6 4 17 4.5t15 -10.5l19 -43q6 -20 -13 -30l-337 -162q-25 -10 -31 6z" />
<glyph unicode="&#x156;" horiz-adv-x="1232" d="M129 27l195 1380q4 27 28 27h461q72 0 136.5 -30t112.5 -81t75.5 -120.5t27.5 -149.5q0 -88 -27.5 -167t-76.5 -143.5t-115.5 -109.5t-142.5 -66l190 -530q4 -12 0 -24.5t-20 -12.5h-51q-16 0 -23.5 5t-11.5 22l-187 528q-18 -2 -37.5 -2h-37.5h-326l-74 -526 q-4 -27 -37 -27h-36q-27 0 -23 27zM313 647h383q70 0 136.5 30t117.5 82t82 124.5t31 156.5q0 63 -20.5 117.5t-55.5 94.5t-85 63.5t-107 23.5h-383zM403 -244q0 37 28 62.5t69 25.5q47 0 72.5 -30.5t25.5 -85.5q0 -66 -29.5 -133.5t-87.5 -112.5q-14 -14 -24 -2l-21 20 q-10 10 -6 16.5t12 12.5q33 29 55.5 72t22.5 84q0 16 -6 28q-14 -14 -47 -14q-29 0 -46.5 16t-17.5 41z" />
<glyph unicode="&#x157;" horiz-adv-x="733" d="M14 -244q0 37 28 62.5t69 25.5q47 0 72.5 -30.5t25.5 -85.5q0 -66 -29.5 -133.5t-87.5 -112.5q-14 -14 -24 -2l-21 20q-10 10 -6 16.5t12 12.5q33 29 55.5 72t22.5 84q0 16 -6 28q-14 -14 -47 -14q-29 0 -46.5 16t-17.5 41zM96 31l125 884q2 12 10.5 21.5t18.5 9.5h22 q10 0 18.5 -6t6.5 -20l-6 -91q10 14 33.5 38t60.5 45.5t86 38t109 16.5q49 0 80.5 -9.5t46.5 -15.5q33 -16 20 -43l-18 -37q-12 -29 -41 -10q-10 4 -40 15.5t-77 11.5q-49 0 -92 -17.5t-77 -44t-58.5 -55.5t-38.5 -49l-99 -682q-4 -31 -30 -31h-37q-14 0 -19.5 9t-3.5 22z " />
<glyph unicode="&#x158;" horiz-adv-x="1232" d="M129 27l195 1380q4 27 28 27h461q72 0 136.5 -30t112.5 -81t75.5 -120.5t27.5 -149.5q0 -88 -27.5 -167t-76.5 -143.5t-115.5 -109.5t-142.5 -66l190 -530q4 -12 0 -24.5t-20 -12.5h-51q-16 0 -23.5 5t-11.5 22l-187 528q-18 -2 -37.5 -2h-37.5h-326l-74 -526 q-4 -27 -37 -27h-36q-27 0 -23 27zM313 647h383q70 0 136.5 30t117.5 82t82 124.5t31 156.5q0 63 -20.5 117.5t-55.5 94.5t-85 63.5t-107 23.5h-383zM479 1800l15 17q6 6 13 10t17 -6l183 -166l231 172q14 10 20.5 6t10.5 -10l14 -23q8 -14 -8 -28l-252 -201 q-13 -10 -25 -10q-8 0 -18 10l-197 201q-16 16 -4 28z" />
<glyph unicode="&#x159;" horiz-adv-x="733" d="M96 31l125 884q2 12 10.5 21.5t18.5 9.5h22q10 0 18.5 -6t6.5 -20l-6 -91q10 14 33.5 38t60.5 45.5t86 38t109 16.5q49 0 80.5 -9.5t46.5 -15.5q33 -16 20 -43l-18 -37q-12 -29 -41 -10q-10 4 -40 15.5t-77 11.5q-49 0 -92 -17.5t-77 -44t-58.5 -55.5t-38.5 -49l-99 -682 q-4 -31 -30 -31h-37q-14 0 -19.5 9t-3.5 22zM270 1354l15 16q6 6 13 10t17 -6l183 -166l231 172q14 10 20.5 6t10.5 -10l14 -22q8 -14 -8 -29l-252 -201q-13 -10 -25 -10q-8 0 -18 10l-197 201q-16 16 -4 29z" />
<glyph unicode="&#x15a;" horiz-adv-x="1030" d="M67.5 162.5q-4.5 11.5 8.5 23.5l22 29q20 27 43 4t52.5 -49.5t69.5 -49t90 -38.5t114 -16q68 0 129 23.5t107.5 64.5t73 98t26.5 123q0 57 -22.5 100t-62.5 80t-97.5 68.5t-124.5 66.5q-68 33 -123.5 68t-96 77t-63.5 94t-23 124t26 143.5t80 128.5t137 93t200 36 q111 0 182.5 -31.5t130.5 -72.5q10 -6 13.5 -18.5t-7.5 -24.5l-16 -23q-20 -27 -45 -10q-66 45 -127.5 68.5t-138.5 23.5q-86 0 -149.5 -26.5t-105.5 -70.5t-62.5 -98.5t-20.5 -109.5q0 -53 19.5 -95t53 -76t81.5 -61.5t104 -54.5q80 -39 146.5 -77t112.5 -83t71.5 -100 t25.5 -129q0 -90 -35 -165t-95 -128t-140 -82.5t-170 -29.5q-74 0 -135.5 18t-110.5 45t-83 54.5t-52 45.5q-8 8 -12.5 19.5zM479 1612q-6 16 17 28l321 185q6 4 17.5 4t15.5 -10l18 -43q6 -20 -12 -31l-338 -162q-25 -10 -31 6z" />
<glyph unicode="&#x15b;" horiz-adv-x="804" d="M50 96q-3 10 5 21l23 33q6 10 18.5 12t22.5 -8q12 -10 31.5 -25.5t46 -30t61.5 -25t80 -10.5q102 0 166.5 55.5t64.5 135.5q0 35 -16 61.5t-46 49t-69 43t-84 43.5q-47 23 -86 46t-68.5 53t-46 66.5t-16.5 83.5t18.5 94.5t56.5 86.5t96.5 62.5t135.5 23.5 q86 0 144.5 -24.5t87.5 -47.5q23 -16 6 -43l-16 -25q-18 -25 -43 -8q-6 4 -23.5 14.5t-42.5 20.5t-55.5 17.5t-63.5 7.5q-104 0 -157.5 -52.5t-53.5 -119.5q0 -59 51.5 -102.5t129.5 -80.5q51 -23 97 -48t79.5 -56t54 -69t20.5 -87q0 -63 -24.5 -115.5t-68.5 -90.5 t-104 -59.5t-130 -21.5q-94 0 -166 36t-107 69q-6 4 -9 14zM338 1176q-6 16 16 28l322 185q6 4 17.5 4t15.5 -11l18 -43q6 -20 -12 -30l-338 -162q-25 -10 -31 6z" />
<glyph unicode="&#x15c;" horiz-adv-x="1030" d="M67.5 162.5q-4.5 11.5 8.5 23.5l22 29q20 27 43 4t52.5 -49.5t69.5 -49t90 -38.5t114 -16q68 0 129 23.5t107.5 64.5t73 98t26.5 123q0 57 -22.5 100t-62.5 80t-97.5 68.5t-124.5 66.5q-68 33 -123.5 68t-96 77t-63.5 94t-23 124t26 143.5t80 128.5t137 93t200 36 q111 0 182.5 -31.5t130.5 -72.5q10 -6 13.5 -18.5t-7.5 -24.5l-16 -23q-20 -27 -45 -10q-66 45 -127.5 68.5t-138.5 23.5q-86 0 -149.5 -26.5t-105.5 -70.5t-62.5 -98.5t-20.5 -109.5q0 -53 19.5 -95t53 -76t81.5 -61.5t104 -54.5q80 -39 146.5 -77t112.5 -83t71.5 -100 t25.5 -129q0 -90 -35 -165t-95 -128t-140 -82.5t-170 -29.5q-74 0 -135.5 18t-110.5 45t-83 54.5t-52 45.5q-8 8 -12.5 19.5zM395 1583q-8 14 8 29l252 200q12 10 25 11q8 0 18 -11l197 -200q6 -6 9 -13.5t-5 -15.5l-14 -16q-6 -6 -13.5 -10.5t-17.5 6.5l-182 166l-232 -173 q-14 -10 -20 -6t-10 11z" />
<glyph unicode="&#x15d;" horiz-adv-x="804" d="M50 96q-3 10 5 21l23 33q6 10 18.5 12t22.5 -8q12 -10 31.5 -25.5t46 -30t61.5 -25t80 -10.5q102 0 166.5 55.5t64.5 135.5q0 35 -16 61.5t-46 49t-69 43t-84 43.5q-47 23 -86 46t-68.5 53t-46 66.5t-16.5 83.5t18.5 94.5t56.5 86.5t96.5 62.5t135.5 23.5 q86 0 144.5 -24.5t87.5 -47.5q23 -16 6 -43l-16 -25q-18 -25 -43 -8q-6 4 -23.5 14.5t-42.5 20.5t-55.5 17.5t-63.5 7.5q-104 0 -157.5 -52.5t-53.5 -119.5q0 -59 51.5 -102.5t129.5 -80.5q51 -23 97 -48t79.5 -56t54 -69t20.5 -87q0 -63 -24.5 -115.5t-68.5 -90.5 t-104 -59.5t-130 -21.5q-94 0 -166 36t-107 69q-6 4 -9 14zM221 1155q-8 14 8 29l252 200q12 10 25 11q8 0 18 -11l197 -200q6 -6 9 -13.5t-5 -15.5l-14 -16q-6 -6 -13.5 -10.5t-17.5 6.5l-182 165l-232 -172q-14 -10 -20 -6t-10 11z" />
<glyph unicode="&#x15e;" horiz-adv-x="1030" d="M67.5 162.5q-4.5 11.5 8.5 23.5l22 29q20 27 43 4t52.5 -49.5t69.5 -49t90 -38.5t114 -16q68 0 129 23.5t107.5 64.5t73 98t26.5 123q0 57 -22.5 100t-62.5 80t-97.5 68.5t-124.5 66.5q-68 33 -123.5 68t-96 77t-63.5 94t-23 124t26 143.5t80 128.5t137 93t200 36 q111 0 182.5 -31.5t130.5 -72.5q10 -6 13.5 -18.5t-7.5 -24.5l-16 -23q-20 -27 -45 -10q-66 45 -127.5 68.5t-138.5 23.5q-86 0 -149.5 -26.5t-105.5 -70.5t-62.5 -98.5t-20.5 -109.5q0 -53 19.5 -95t53 -76t81.5 -61.5t104 -54.5q80 -39 146.5 -77t112.5 -83t71.5 -100 t25.5 -129q0 -84 -30.5 -154.5t-83 -123t-123 -84t-152.5 -39.5l-90 -125q20 4 31 4q31 0 60.5 -8.5t54 -25.5t40 -47t15.5 -73q0 -41 -18.5 -75.5t-50.5 -61.5t-74 -41t-91 -14q-57 0 -99 19.5t-65 43.5q-6 8 -4 15.5t6 11.5l25 39q12 18 29 2q20 -20 43.5 -35.5 t64.5 -15.5q20 0 46 6t47.5 19t35.5 33.5t14 51.5q0 41 -30.5 59.5t-77.5 18.5q-29 0 -56.5 -5t-48.5 -13q-10 -4 -20 8t-4 22l131 185q-66 4 -122 23.5t-101 44t-76 50t-47 43.5q-8 8 -12.5 19.5z" />
<glyph unicode="&#x15f;" horiz-adv-x="804" d="M50 96q-3 10 5 21l23 33q6 10 18.5 12t22.5 -8q12 -10 31.5 -25.5t46 -30t61.5 -25t80 -10.5q102 0 166.5 55.5t64.5 135.5q0 35 -16 61.5t-46 49t-69 43t-84 43.5q-47 23 -86 46t-68.5 53t-46 66.5t-16.5 83.5t18.5 94.5t56.5 86.5t96.5 62.5t135.5 23.5 q86 0 144.5 -24.5t87.5 -47.5q23 -16 6 -43l-16 -25q-18 -25 -43 -8q-6 4 -23.5 14.5t-42.5 20.5t-55.5 17.5t-63.5 7.5q-104 0 -157.5 -52.5t-53.5 -119.5q0 -59 51.5 -102.5t129.5 -80.5q51 -23 97 -48t79.5 -56t54 -69t20.5 -87q0 -117 -77.5 -192.5t-200.5 -89.5 l-90 -123q20 4 31 4q31 0 60.5 -8.5t54 -25.5t40 -47t15.5 -73q0 -41 -18.5 -75.5t-50.5 -61.5t-74 -41t-91 -14q-57 0 -99 19.5t-65 43.5q-6 8 -4 15.5t6 11.5l25 39q12 18 29 2q20 -20 43.5 -35.5t64.5 -15.5q20 0 46 6t47.5 19t35.5 33.5t14 51.5q0 41 -30.5 59.5 t-77.5 18.5q-29 0 -56.5 -5t-48.5 -13q-10 -4 -20 8t-4 22l129 183q-80 8 -141.5 40.5t-92.5 61.5q-6 4 -9 14z" />
<glyph unicode="&#x160;" horiz-adv-x="1030" d="M67.5 162.5q-4.5 11.5 8.5 23.5l22 29q20 27 43 4t52.5 -49.5t69.5 -49t90 -38.5t114 -16q68 0 129 23.5t107.5 64.5t73 98t26.5 123q0 57 -22.5 100t-62.5 80t-97.5 68.5t-124.5 66.5q-68 33 -123.5 68t-96 77t-63.5 94t-23 124t26 143.5t80 128.5t137 93t200 36 q111 0 182.5 -31.5t130.5 -72.5q10 -6 13.5 -18.5t-7.5 -24.5l-16 -23q-20 -27 -45 -10q-66 45 -127.5 68.5t-138.5 23.5q-86 0 -149.5 -26.5t-105.5 -70.5t-62.5 -98.5t-20.5 -109.5q0 -53 19.5 -95t53 -76t81.5 -61.5t104 -54.5q80 -39 146.5 -77t112.5 -83t71.5 -100 t25.5 -129q0 -90 -35 -165t-95 -128t-140 -82.5t-170 -29.5q-74 0 -135.5 18t-110.5 45t-83 54.5t-52 45.5q-8 8 -12.5 19.5zM430 1784l14 16q6 6 13.5 10.5t17.5 -6.5l182 -166l232 172q14 10 20 6t11 -10l14 -22q8 -14 -8 -29l-252 -201q-13 -10 -25 -10q-8 0 -18 10 l-197 201q-16 16 -4 29z" />
<glyph unicode="&#x161;" horiz-adv-x="804" d="M50 96q-3 10 5 21l23 33q6 10 18.5 12t22.5 -8q12 -10 31.5 -25.5t46 -30t61.5 -25t80 -10.5q102 0 166.5 55.5t64.5 135.5q0 35 -16 61.5t-46 49t-69 43t-84 43.5q-47 23 -86 46t-68.5 53t-46 66.5t-16.5 83.5t18.5 94.5t56.5 86.5t96.5 62.5t135.5 23.5 q86 0 144.5 -24.5t87.5 -47.5q23 -16 6 -43l-16 -25q-18 -25 -43 -8q-6 4 -23.5 14.5t-42.5 20.5t-55.5 17.5t-63.5 7.5q-104 0 -157.5 -52.5t-53.5 -119.5q0 -59 51.5 -102.5t129.5 -80.5q51 -23 97 -48t79.5 -56t54 -69t20.5 -87q0 -63 -24.5 -115.5t-68.5 -90.5 t-104 -59.5t-130 -21.5q-94 0 -166 36t-107 69q-6 4 -9 14zM252 1356l14 16q6 6 13.5 10t17.5 -6l182 -166l232 172q14 10 20 6t10 -10l15 -22q8 -14 -8 -29l-252 -201q-13 -10 -25 -10q-8 0 -18 10l-197 201q-16 16 -4 29z" />
<glyph unicode="&#x162;" horiz-adv-x="960" d="M125 -420q-10 14 2 27l23 28q12 16 26 3q37 -47 113 -48q55 0 100 34t45 95q0 45 -29.5 66.5t-76.5 21.5q-29 0 -53.5 -5t-45.5 -13q-10 -4 -16 5t0 20l139 196q-2 4 -2 17l187 1319h-349q-16 0 -19 8t-1 22l4 31q2 12 10 19.5t19 7.5h790q27 0 23 -27l-4 -35 q-4 -27 -31 -26h-348l-185 -1319q-4 -14 -14 -21l-117 -151q23 8 56 8q59 0 101 -34t42 -110q0 -92 -63.5 -147t-159.5 -55q-57 0 -100.5 19.5t-65.5 43.5z" />
<glyph unicode="&#x163;" horiz-adv-x="698" d="M82 -420q-10 14 2 27l22 28q12 16 27 3q37 -47 113 -48q55 0 100 34t45 95q0 45 -29.5 66.5t-76.5 21.5q-29 0 -53.5 -5t-45.5 -13q-10 -4 -16 5t0 20l119 166q-92 12 -115.5 84.5t-7.5 179.5l90 616h-111q-16 0 -20 8.5t0 22.5l6 31q6 25 29 24h108l35 258 q2 14 12.5 22.5t22.5 8.5l27 2q14 0 22 -9t4 -22l-35 -260h293q14 0 20.5 -9t4.5 -22l-4 -24q-4 -31 -33 -31h-293l-88 -616q-12 -92 2 -136.5t80 -44.5q31 0 61.5 8.5t56 20.5t46 24.5t33.5 18.5q16 10 22 6t12 -14l17 -25q14 -23 -11 -39t-78 -43.5t-124 -37.5l-101 -127 q23 8 56 8q59 0 101 -34t42 -110q0 -92 -63.5 -147t-159.5 -55q-57 0 -100.5 19.5t-65.5 43.5z" />
<glyph unicode="&#x164;" horiz-adv-x="960" d="M168 1376l4 31q2 12 10 19.5t19 7.5h790q27 0 23 -27l-4 -35q-4 -27 -31 -26h-348l-185 -1319q-4 -27 -34 -27h-39q-27 0 -23 27l187 1319h-349q-16 0 -19 8t-1 22zM395 1800l15 17q6 6 13 10t17 -6l183 -166l231 172q14 10 20.5 6t10.5 -10l14 -23q8 -14 -8 -28 l-252 -201q-13 -10 -25 -10q-8 0 -18 10l-197 201q-16 16 -4 28z" />
<glyph unicode="&#x165;" horiz-adv-x="696" d="M121 868.5q-4 8.5 0 22.5l6 31q6 25 29 24h108l35 258q2 14 12.5 22.5t22.5 8.5l26 2q14 0 22.5 -9t4.5 -22l-35 -260h293q14 0 20.5 -9t4.5 -22l-4 -24q-4 -31 -33 -31h-293l-88 -616q-12 -92 2 -136.5t80 -44.5q31 0 61.5 8.5t56 20.5t46 24.5t32.5 18.5q16 10 22.5 6 t12.5 -14l17 -25q14 -23 -11 -39q-14 -10 -38.5 -24t-57.5 -27.5t-73 -24t-85 -10.5q-57 0 -92 20.5t-51 56.5t-18 84t6 106l90 616h-111q-16 0 -20 8.5zM666 1366q0 37 27.5 62.5t68.5 25.5q47 0 72.5 -30.5t25.5 -86.5q0 -66 -29.5 -133t-87.5 -112q-14 -14 -24 -2l-21 20 q-10 10 -6 16.5t13 12.5q33 29 55 71.5t22 83.5q0 16 -6 29q-14 -14 -47 -14q-29 0 -46 16t-17 41z" />
<glyph unicode="&#x166;" horiz-adv-x="962" d="M170 1376l4 31q2 12 10.5 19.5t18.5 7.5h790q27 0 23 -27l-4 -35q-4 -27 -31 -26h-348l-92 -662h223q10 0 17 -7t5 -18l-2 -12q-2 -10 -10 -18t-18 -8h-226l-81 -594q-4 -27 -35 -27h-39q-27 0 -23 27l84 594h-229q-12 0 -18.5 9t-2.5 21v8q2 10 10.5 17.5t18.5 7.5h229 l95 662h-349q-16 0 -19 8t-1 22z" />
<glyph unicode="&#x167;" horiz-adv-x="696" d="M102 477l2 12q4 25 29 25h70l51 346h-111q-16 0 -20 8.5t0 22.5l6 31q6 25 29 24h108l35 258q2 14 12.5 22.5t22.5 8.5l26 2q14 0 22.5 -9t4.5 -22l-35 -260h293q14 0 20.5 -9t4.5 -22l-4 -24q-4 -31 -33 -31h-293l-49 -346h205q27 0 22 -27l-2 -12q-4 -25 -29 -24h-206 l-29 -207q-12 -92 2 -136.5t80 -44.5q31 0 61.5 8.5t56 20.5t46 24.5t32.5 18.5q16 10 22.5 6t12.5 -14l17 -25q14 -23 -11 -39q-14 -10 -38.5 -24t-57.5 -27.5t-73 -24t-85 -10.5q-57 0 -91.5 20.5t-51 56.5t-18.5 84t6 106l31 207h-70q-27 0 -23 26z" />
<glyph unicode="&#x168;" horiz-adv-x="1357" d="M176 403q0 43 6 93l129 911q2 10 10.5 18.5t18.5 8.5h45q27 0 23 -27l-127 -901q-6 -49 -7 -92q0 -160 86 -250t246 -90q182 0 301 115.5t148 314.5l129 903q4 27 30 27h43q10 0 16.5 -8.5t4.5 -18.5l-127 -911q-16 -117 -63.5 -212.5t-120 -163t-167.5 -104t-208 -36.5 q-94 0 -171 29.5t-131 85t-84 133t-30 175.5zM600 1628q4 10 15 33.5t30.5 48t47.5 44t69 19.5q43 0 63.5 -24.5t33.5 -54t23.5 -49t28.5 -19.5q16 0 29.5 9t24 23.5t17.5 30t11 27.5q12 29 39 16l20 -6q6 -6 11.5 -12t-0.5 -23q0 -4 -9.5 -27.5t-30 -50t-50 -48 t-72.5 -21.5q-41 0 -62.5 26.5t-35 54t-23.5 49t-27 21.5q-18 0 -31.5 -11t-25.5 -26.5t-19.5 -32t-11.5 -28.5q-10 -29 -36 -14l-19 8q-25 8 -10 37z" />
<glyph unicode="&#x169;" horiz-adv-x="1011" d="M129 201.5q-6 72.5 6 167.5l78 546q2 12 11 21.5t20 9.5h32q12 0 20.5 -9t6.5 -22l-80 -546q-23 -166 20.5 -236t166.5 -70q66 0 117 25t87.5 55.5t57 57t24.5 30.5l97 684q2 31 32 31h33q10 0 18.5 -9t4.5 -22l-121 -884q-2 -12 -9.5 -21.5t-19.5 -9.5h-24 q-12 0 -17.5 9t-5.5 20l4 86q-10 -12 -33.5 -36t-61.5 -46.5t-89.5 -39t-114.5 -16.5q-84 0 -139 26t-85 76t-36 122.5zM352 1141q4 10 15 33.5t30.5 48t47.5 44t69 19.5q43 0 63.5 -24.5t33.5 -54t23.5 -49t28.5 -19.5q16 0 29.5 9t24 23.5t17.5 30t11 27.5q12 29 39 16 l20 -6q6 -6 11.5 -12t-0.5 -23q0 -4 -9.5 -27.5t-30 -50t-50 -48t-72.5 -21.5q-41 0 -62.5 26.5t-35 54t-23.5 49t-27 21.5q-18 0 -31.5 -11t-25.5 -26.5t-19.5 -32t-11.5 -28.5q-10 -29 -36 -14l-19 8q-25 8 -10 37z" />
<glyph unicode="&#x16a;" horiz-adv-x="1357" d="M176 403q0 43 6 93l129 911q2 10 10.5 18.5t18.5 8.5h45q27 0 23 -27l-127 -901q-6 -49 -7 -92q0 -160 86 -250t246 -90q182 0 301 115.5t148 314.5l129 903q4 27 30 27h43q10 0 16.5 -8.5t4.5 -18.5l-127 -911q-16 -117 -63.5 -212.5t-120 -163t-167.5 -104t-208 -36.5 q-94 0 -171 29.5t-131 85t-84 133t-30 175.5zM551 1729l4 24q4 27 29 27h497q10 0 17.5 -7.5t3.5 -19.5l-2 -24q-4 -27 -31 -27h-496q-27 0 -22 27z" />
<glyph unicode="&#x16b;" horiz-adv-x="1011" d="M129 201.5q-6 72.5 6 167.5l78 546q2 12 11 21.5t20 9.5h32q12 0 20.5 -9t6.5 -22l-80 -546q-23 -166 20.5 -236t166.5 -70q66 0 117 25t87.5 55.5t57 57t24.5 30.5l97 684q2 31 32 31h33q10 0 18.5 -9t4.5 -22l-121 -884q-2 -12 -9.5 -21.5t-19.5 -9.5h-24 q-12 0 -17.5 9t-5.5 20l4 86q-10 -12 -33.5 -36t-61.5 -46.5t-89.5 -39t-114.5 -16.5q-84 0 -139 26t-85 76t-36 122.5zM305 1243l4 27q4 27 29 26h496q27 0 22 -26l-4 -27q-4 -25 -29 -24h-495q-27 0 -23 24z" />
<glyph unicode="&#x16c;" horiz-adv-x="1357" d="M176 403q0 43 6 93l129 911q2 10 10.5 18.5t18.5 8.5h45q27 0 23 -27l-127 -901q-6 -49 -7 -92q0 -160 86 -250t246 -90q182 0 301 115.5t148 314.5l129 903q4 27 30 27h43q10 0 16.5 -8.5t4.5 -18.5l-127 -911q-16 -117 -63.5 -212.5t-120 -163t-167.5 -104t-208 -36.5 q-94 0 -171 29.5t-131 85t-84 133t-30 175.5zM600 1815q0 10 5 19t18 9h22q10 0 14.5 -7t6.5 -17q10 -68 48 -114t103 -46q59 0 113.5 46t79.5 114q10 25 26 24h33q10 0 15.5 -9t0.5 -19q-29 -98 -101.5 -163t-172.5 -65q-45 0 -84 17.5t-67.5 48t-44 72.5t-15.5 90z" />
<glyph unicode="&#x16d;" horiz-adv-x="1011" d="M129 201.5q-6 72.5 6 167.5l78 546q2 12 11 21.5t20 9.5h32q12 0 20.5 -9t6.5 -22l-80 -546q-23 -166 20.5 -236t166.5 -70q66 0 117 25t87.5 55.5t57 57t24.5 30.5l97 684q2 31 32 31h33q10 0 18.5 -9t4.5 -22l-121 -884q-2 -12 -9.5 -21.5t-19.5 -9.5h-24 q-12 0 -17.5 9t-5.5 20l4 86q-10 -12 -33.5 -36t-61.5 -46.5t-89.5 -39t-114.5 -16.5q-84 0 -139 26t-85 76t-36 122.5zM346 1327q0 29 25 29h22q16 0 21 -23q6 -70 45 -116t104 -46q61 0 115.5 46.5t77.5 115.5q10 23 28 23h33q20 0 14 -29q-27 -96 -99.5 -160.5 t-174.5 -64.5q-43 0 -81 17.5t-66.5 48t-45 71.5t-18.5 88z" />
<glyph unicode="&#x16e;" horiz-adv-x="1357" d="M176 403q0 43 6 93l129 911q2 10 10.5 18.5t18.5 8.5h45q27 0 23 -27l-127 -901q-6 -49 -7 -92q0 -160 86 -250t246 -90q182 0 301 115.5t148 314.5l129 903q4 27 30 27h43q10 0 16.5 -8.5t4.5 -18.5l-127 -911q-16 -117 -63.5 -212.5t-120 -163t-167.5 -104t-208 -36.5 q-94 0 -171 29.5t-131 85t-84 133t-30 175.5zM633 1731q0 51 17.5 97t49 80t73.5 53t91 19q74 0 121 -55t47 -133q0 -53 -17.5 -98t-48 -78t-72.5 -52.5t-91 -19.5q-76 0 -123 54.5t-47 132.5zM700 1743q0 -53 32 -93t81 -40q66 0 108 51t42 121q0 53 -30 92t-77 39 q-66 0 -111 -50.5t-45 -119.5z" />
<glyph unicode="&#x16f;" horiz-adv-x="1011" d="M129 201.5q-6 72.5 6 167.5l78 546q2 12 11 21.5t20 9.5h32q12 0 20.5 -9t6.5 -22l-80 -546q-23 -166 20.5 -236t166.5 -70q66 0 117 25t87.5 55.5t57 57t24.5 30.5l97 684q2 31 32 31h33q10 0 18.5 -9t4.5 -22l-121 -884q-2 -12 -9.5 -21.5t-19.5 -9.5h-24 q-12 0 -17.5 9t-5.5 20l4 86q-10 -12 -33.5 -36t-61.5 -46.5t-89.5 -39t-114.5 -16.5q-84 0 -139 26t-85 76t-36 122.5zM383 1204q0 51 17.5 97.5t49 80t73.5 53t91 19.5q74 0 121 -55.5t47 -132.5q0 -53 -17 -98.5t-48 -78t-73 -52t-91 -19.5q-76 0 -123 54t-47 132z M451 1217q0 -53 31.5 -93.5t80.5 -40.5q66 0 108 51.5t42 120.5q0 53 -30 92t-77 39q-66 0 -110.5 -50t-44.5 -119z" />
<glyph unicode="&#x170;" horiz-adv-x="1357" d="M176 403q0 43 6 93l129 911q2 10 10.5 18.5t18.5 8.5h45q27 0 23 -27l-127 -901q-6 -49 -7 -92q0 -160 86 -250t246 -90q182 0 301 115.5t148 314.5l129 903q4 27 30 27h43q10 0 16.5 -8.5t4.5 -18.5l-127 -911q-16 -117 -63.5 -212.5t-120 -163t-167.5 -104t-208 -36.5 q-94 0 -171 29.5t-131 85t-84 133t-30 175.5zM610 1593l183 326q12 23 30 23h47q16 0 21.5 -10.5t-4.5 -24.5l-213 -322q-4 -10 -12.5 -13t-14.5 -3h-24q-23 0 -13 24zM918 1593l182 326q10 23 30 23h46q16 0 21 -10.5t-5 -24.5l-211 -322q-10 -16 -29 -16h-24q-25 0 -10 24 z" />
<glyph unicode="&#x171;" horiz-adv-x="1011" d="M129 201.5q-6 72.5 6 167.5l78 546q2 12 11 21.5t20 9.5h32q12 0 20.5 -9t6.5 -22l-80 -546q-23 -166 20.5 -236t166.5 -70q66 0 117 25t87.5 55.5t57 57t24.5 30.5l97 684q2 31 32 31h33q10 0 18.5 -9t4.5 -22l-121 -884q-2 -12 -9.5 -21.5t-19.5 -9.5h-24 q-12 0 -17.5 9t-5.5 20l4 86q-10 -12 -33.5 -36t-61.5 -46.5t-89.5 -39t-114.5 -16.5q-84 0 -139 26t-85 76t-36 122.5zM397 1085l183 326q12 23 30 23h47q16 0 20.5 -10.5t-5.5 -24.5l-211 -322q-10 -16 -27 -16h-24q-23 0 -13 24zM705 1085l182 326q10 23 28 23h48 q16 0 21 -10.5t-5 -24.5l-213 -322q-8 -16 -27 -16h-24q-25 0 -10 24z" />
<glyph unicode="&#x172;" horiz-adv-x="1357" d="M186 522l125 885q2 10 10.5 18.5t18.5 8.5h45q27 0 23 -27l-123 -875q-14 -98 0 -182t55 -145.5t108.5 -96t157.5 -34.5t167 33.5t136.5 95t97 145.5t52.5 182l125 877q4 27 30 27h43q10 0 16.5 -8.5t4.5 -18.5l-123 -885q-16 -104 -55 -194t-99.5 -160t-138.5 -116 t-172 -62q-43 -23 -87 -53.5t-80 -68.5t-59.5 -84t-23.5 -101q0 -45 28 -72t79 -27q47 0 87 21.5t58 32.5q4 4 12.5 3t8.5 -12l-2 -39q0 -10 -4.5 -19t-20.5 -17q-23 -12 -64.5 -31t-93.5 -19q-84 0 -131 49.5t-47 120.5q0 100 59.5 174t145.5 134q-96 6 -172 49t-125 114.5 t-68.5 168t-3.5 208.5z" />
<glyph unicode="&#x173;" horiz-adv-x="1011" d="M132 224q-5 77 7 171l74 520q2 12 11 21.5t20 9.5h32q12 0 20.5 -9t6.5 -22l-76 -520q-23 -166 18.5 -249t164.5 -83q66 0 117 25t87.5 55.5t57 57t24.5 30.5l97 684q2 31 32 31h33q10 0 18.5 -9t4.5 -22l-121 -884q-4 -27 -25 -39q-43 -23 -90 -52.5t-88 -67.5 t-67.5 -85t-26.5 -104q0 -45 27.5 -72t78.5 -27q47 0 87 21.5t59 32.5q4 4 12 3t8 -12l-2 -39q0 -10 -4 -19t-20 -17q-23 -12 -65 -31t-93 -19q-84 0 -131 49.5t-47 120.5q0 61 25.5 112.5t68.5 95.5t99.5 80t117.5 67l4 86q-10 -12 -33.5 -36t-61.5 -46.5t-89.5 -39 t-114.5 -16.5q-84 0 -138 30t-84 85t-35 132z" />
<glyph unicode="&#x174;" horiz-adv-x="1656" d="M188 1407q-2 27 27 27h49q16 0 21 -23l133 -1169h6l491 1194q8 18 23 18h12q16 0 21 -18l164 -1192h4l460 1167q8 23 27 23h53q29 0 21 -27l-565 -1413q-8 -14 -19 -14h-14q-16 0 -19 14l-165 1218h-7l-499 -1218q-6 -14 -19 -14h-14q-18 0 -19 14zM715 1599q-8 14 8 29 l252 201q12 10 24 10q8 0 19 -10l196 -201q16 -16 5 -29l-15 -16q-6 -6 -13 -10t-17 6l-183 166l-231 -172q-14 -10 -20.5 -6t-10.5 10z" />
<glyph unicode="&#x175;" horiz-adv-x="1329" d="M135 907q-6 39 23 39h41q10 0 17 -4t9 -18l97 -727h4l352 747q10 23 29 23h10q16 0 22 -23l148 -747h2l297 727q6 14 15 18t20 4h47q16 0 19 -11t-5 -28l-387 -907q-10 -23 -27 -23h-8q-16 0 -20 23l-150 778h-2l-366 -778q-10 -23 -29 -23h-10q-12 0 -17 23zM485 1153 q-8 14 9 29l251 200q12 10 25 11q8 0 18 -11l197 -200q6 -6 9 -13.5t-5 -15.5l-14 -16q-6 -6 -13.5 -10.5t-17.5 6.5l-182 165l-232 -172q-14 -10 -20 -6t-10 10z" />
<glyph unicode="&#x176;" horiz-adv-x="1079" d="M129 1407q-14 27 18 27h58q10 0 15 -4.5t7 -8.5l326 -626h4l506 626q12 12 29 13h67q16 0 20.5 -9.5t-5.5 -21.5l-578 -705l-94 -671q-4 -27 -31 -27h-41q-25 0 -22 27l92 669zM412 1599q-8 14 8 29l252 201q12 10 24 10q8 0 19 -10l196 -201q6 -6 9.5 -13t-5.5 -16 l-14 -16q-6 -6 -13 -10t-18 6l-182 166l-231 -172q-14 -10 -20.5 -6t-10.5 10z" />
<glyph unicode="&#x177;" horiz-adv-x="954" d="M104 -455l244 461l-235 901q-4 16 1 27.5t21 11.5h43q20 0 27 -22l201 -809h4l428 809q10 23 30 22h50q14 0 19 -11t-5 -28l-735 -1374q-10 -20 -33 -20h-43q-33 0 -17 32zM297 1153q-8 14 8 29l252 200q12 10 25 11q8 0 18 -11l197 -200q6 -6 9 -13.5t-5 -15.5l-15 -16 q-6 -6 -13 -10.5t-17 6.5l-183 165l-231 -172q-14 -10 -20.5 -6t-10.5 10z" />
<glyph unicode="&#x178;" horiz-adv-x="1079" d="M129 1407q-14 27 18 27h58q10 0 15 -4.5t7 -8.5l326 -626h4l506 626q12 12 29 13h67q16 0 20.5 -9.5t-5.5 -21.5l-578 -705l-94 -671q-4 -27 -31 -27h-41q-25 0 -22 27l92 669zM412 1700q0 39 27.5 65.5t62.5 26.5q31 0 51 -21.5t20 -52.5q0 -37 -27.5 -63.5t-64.5 -26.5 q-31 0 -50 21.5t-19 50.5zM797 1700q0 39 27.5 65.5t62.5 26.5q31 0 51 -21.5t20 -52.5q0 -37 -27.5 -63.5t-64.5 -26.5q-29 0 -49 21.5t-20 50.5z" />
<glyph unicode="&#x179;" horiz-adv-x="991" d="M-18 25l2 16q2 20 14 37l897 1259v6h-645q-25 0 -21 27l4 39q4 25 31 25h754q27 0 22 -25l-2 -14q-2 -20 -14 -37l-899 -1262v-6h666q27 0 22 -27l-4 -36q-4 -27 -31 -27h-772q-29 0 -24 25zM492 1628q-6 16 16 29l321 184q6 4 17.5 4t15.5 -10l19 -43q6 -20 -13 -31 l-338 -162q-25 -10 -30 7z" />
<glyph unicode="&#x17a;" horiz-adv-x="802" d="M2 27q0 16 5 23t11 18l609 790v2h-445q-10 0 -18 9.5t-4 19.5l6 26q8 31 29 31h548q29 0 29 -22q0 -10 -8 -23l-623 -811v-4h449q12 0 20 -8t4 -23l-4 -24q-2 -12 -11 -21.5t-24 -9.5h-550q-16 0 -19.5 7t-3.5 20zM350 1174q-6 16 17 28l321 184q6 4 17.5 4.5t15.5 -10.5 l18 -43q6 -20 -12 -30l-338 -162q-25 -10 -31 6z" />
<glyph unicode="&#x17b;" horiz-adv-x="991" d="M-18 25l2 16q2 20 14 37l897 1259v6h-645q-25 0 -21 27l4 39q4 25 31 25h754q27 0 22 -25l-2 -14q-2 -20 -14 -37l-899 -1262v-6h666q27 0 22 -27l-4 -36q-4 -27 -31 -27h-772q-29 0 -24 25zM602 1724q0 37 28.5 64t65.5 27q31 0 49.5 -19.5t18.5 -48.5 q0 -37 -26.5 -63.5t-63.5 -26.5q-31 0 -51.5 19.5t-20.5 47.5z" />
<glyph unicode="&#x17c;" horiz-adv-x="802" d="M2 27q0 16 5 23t11 18l609 790v2h-445q-10 0 -18 9.5t-4 19.5l6 26q8 31 29 31h548q29 0 29 -22q0 -10 -8 -23l-623 -811v-4h449q12 0 20 -8t4 -23l-4 -24q-2 -12 -11 -21.5t-24 -9.5h-550q-16 0 -19.5 7t-3.5 20zM428 1276q0 37 28.5 63.5t65.5 26.5q31 0 49.5 -19.5 t18.5 -48.5q0 -37 -26.5 -63.5t-63.5 -26.5q-31 0 -51.5 19.5t-20.5 48.5z" />
<glyph unicode="&#x17d;" horiz-adv-x="991" d="M-18 25l2 16q2 20 14 37l897 1259v6h-645q-25 0 -21 27l4 39q4 25 31 25h754q27 0 22 -25l-2 -14q-2 -20 -14 -37l-899 -1262v-6h666q27 0 22 -27l-4 -36q-4 -27 -31 -27h-772q-29 0 -24 25zM436 1800l15 17q6 6 13 10t17 -6l183 -166l231 172q14 10 20.5 6t10.5 -10 l14 -23q8 -14 -8 -28l-252 -201q-13 -10 -25 -10q-8 0 -18 10l-197 201q-16 16 -4 28z" />
<glyph unicode="&#x17e;" horiz-adv-x="802" d="M2 27q0 16 5 23t11 18l609 790v2h-445q-10 0 -18 9.5t-4 19.5l6 26q8 31 29 31h548q29 0 29 -22q0 -10 -8 -23l-623 -811v-4h449q12 0 20 -8t4 -23l-4 -24q-2 -12 -11 -21.5t-24 -9.5h-550q-16 0 -19.5 7t-3.5 20zM266 1354l15 16q6 6 13 10t17 -6l183 -166l231 172 q14 10 20.5 6t10.5 -10l14 -22q8 -14 -8 -29l-252 -201q-13 -10 -25 -10q-8 0 -18 10l-197 201q-16 16 -4 29z" />
<glyph unicode="&#x192;" horiz-adv-x="686" d="M-293 -420q-12 18 2 33l25 29q14 23 33 2q16 -23 57 -46.5t88 -23.5q86 0 147.5 67.5t81.5 208.5l123 889h-151q-14 0 -19.5 8.5t-3.5 18.5l4 27q4 27 29 26h153l39 281q27 182 114 268t216 86q70 0 123 -29.5t70 -58.5q12 -16 0 -33l-25 -28q-18 -23 -35 -2 q-16 23 -57 46t-88 23q-84 0 -145.5 -65.5t-81.5 -206.5l-39 -281h262q27 0 22 -24l-6 -31q-4 -25 -29 -25h-262l-125 -889q-25 -182 -111.5 -270t-215.5 -88q-70 0 -124 29.5t-71 58.5z" />
<glyph unicode="&#x1a0;" horiz-adv-x="1574" d="M133 614q0 174 61.5 327t168 266.5t247 180t299.5 66.5q82 0 156 -22q49 6 94 45q53 45 76 114q10 23 29 23h32q20 0 15 -29q-27 -96 -99 -160q-24 -22 -51 -34q88 -49 156 -123q76 -88 119 -205t43 -250q0 -174 -61.5 -325.5t-168 -264t-247 -178t-300.5 -65.5 q-121 0 -225 49t-181 135t-120 201.5t-43 248.5zM227 627q0 -115 36 -216.5t100.5 -177t153.5 -119.5t198 -44q131 0 251.5 57t214 156.5t148.5 232.5t55 285q0 117 -35.5 219t-100 179t-154.5 121t-197 44q-131 0 -252 -58.5t-214 -158.5t-148.5 -234t-55.5 -286z" />
<glyph unicode="&#x1a1;" horiz-adv-x="1087" d="M94 403q0 117 40 219.5t108.5 179.5t161 121t196.5 44q76 0 141 -33q47 6 93 45q53 45 75 115q10 23 29 22h33q20 0 14 -29q-27 -96 -98 -159q-33 -29 -70 -45q20 -18 41 -41q47 -57 75 -134t28 -165q0 -117 -40 -220.5t-109 -180t-160 -121t-193 -44.5q-78 0 -144.5 34 t-115.5 91.5t-77 135t-28 165.5zM184 414q0 -74 20.5 -137.5t58.5 -111.5t90.5 -75t115.5 -27q78 0 150.5 37t128 100.5t89 149.5t33.5 185q0 72 -21.5 135t-59 109t-90 73t-113.5 27q-82 0 -155 -37t-128 -99.5t-87 -147.5t-32 -181z" />
<glyph unicode="&#x1af;" horiz-adv-x="1357" d="M176 403q0 43 6 93l129 911q2 10 10.5 18.5t18.5 8.5h45q27 0 23 -27l-127 -901q-6 -49 -7 -92q0 -160 86 -250t246 -90q182 0 301 115.5t148 314.5l129 903q4 27 30 27h27q41 10 80 43q53 45 76 114q10 23 28 23h33q20 0 15 -29q-27 -96 -99 -160q-45 -41 -102 -55 l-121 -874q-16 -117 -63.5 -212.5t-120 -163t-167.5 -104t-208 -36.5q-94 0 -171 29.5t-131 85t-84 133t-30 175.5z" />
<glyph unicode="&#x1b0;" horiz-adv-x="1011" d="M129 201.5q-6 72.5 6 167.5l78 546q2 12 11 21.5t20 9.5h32q12 0 20.5 -9t6.5 -22l-80 -546q-23 -166 20.5 -236t166.5 -70q66 0 117 25t87.5 55.5t57 57t24.5 30.5l97 684q2 31 32 31h33q6 0 10 -2q29 10 58 35q53 45 75 115q10 23 29 22h33q20 0 14 -29 q-27 -96 -98 -159q-48 -42 -105 -58l-114 -839q-2 -12 -9.5 -21.5t-19.5 -9.5h-24q-12 0 -17.5 9t-5.5 20l4 86q-10 -12 -33.5 -36t-61.5 -46.5t-89 -39t-115 -16.5q-84 0 -139 26t-85 76t-36 122.5z" />
<glyph unicode="&#x1fa;" horiz-adv-x="1243" d="M-47 29l747 1384q-53 16 -85.5 65.5t-32.5 114.5q0 51 17 97.5t49 80t74 53t91 19.5q74 0 121 -55t47 -133q0 -96 -54.5 -164t-138.5 -82l353 -1384q4 -10 -1 -17.5t-22 -7.5h-53q-14 0 -19.5 6t-7.5 12l-94 377h-692l-197 -377q-4 -6 -11 -12t-21 -6h-60q-25 0 -10 29z M299 475h623l-191 825h-6zM635 1884q-6 16 16 29l322 184q6 4 17 4t16 -10l18 -43q6 -20 -12 -31l-338 -162q-25 -10 -31 7zM649 1606q0 -53 32 -93t81 -40q66 0 107.5 51t41.5 121q0 53 -29.5 92t-76.5 39q-66 0 -111 -50.5t-45 -119.5z" />
<glyph unicode="&#x1fb;" d="M98 412q0 113 38 214t102.5 177t151.5 120t185 44q57 0 103.5 -14.5t79.5 -33t52 -37t26 -26.5l20 64q8 27 29 26h20q10 0 18.5 -9t4.5 -22l-121 -884q-2 -12 -12.5 -21.5t-20.5 -9.5h-18q-29 0 -27 33l4 82q-10 -12 -36.5 -35t-66.5 -46.5t-91.5 -40t-112.5 -16.5 q-74 0 -134.5 33t-103.5 91.5t-66.5 138t-23.5 172.5zM188 412q0 -68 18.5 -131.5t51.5 -111.5t80 -77t104 -29q66 0 121 26t95 56.5t62.5 58t24.5 32.5l70 520q-2 4 -17.5 23.5t-45 42t-73.5 40t-106 17.5q-82 0 -151.5 -38t-121.5 -102.5t-82 -148.5t-30 -178zM449 1231 q0 51 17 97t49 80t74 53.5t91 19.5q74 0 121 -55.5t47 -133.5q0 -53 -17.5 -98t-48 -78t-73 -52.5t-91.5 -19.5q-76 0 -122.5 54.5t-46.5 132.5zM500 1526q-6 16 16 28l322 185q6 4 17 4t15 -10l19 -43q6 -20 -12 -31l-338 -162q-25 -10 -31 6zM516 1243q0 -53 32 -93 t81 -40q66 0 107.5 51t41.5 121q0 53 -29.5 92t-76.5 39q-66 0 -111 -50t-45 -120z" />
<glyph unicode="&#x1fc;" horiz-adv-x="1687" d="M-83 10q1 10 11 25l967 1364q10 14 22.5 24.5t34.5 10.5h721q27 0 23 -27l-4 -33q-4 -27 -31 -26h-672l-80 -568h578q16 0 25.5 -7t5.5 -23l-5 -27q-2 -12 -9 -21.5t-23 -9.5h-584l-84 -606h672q29 0 22 -31l-6 -28q-4 -27 -28 -27h-736q-27 0 -22 27l51 368h-481 l-260 -377q-16 -18 -35 -18h-60q-14 0 -13 10zM342 475h436l109 782zM1157 1630q-6 16 17 29l321 184q6 4 17.5 4t15.5 -10l18 -43q6 -20 -12 -31l-338 -161q-25 -10 -31 6z" />
<glyph unicode="&#x1fd;" horiz-adv-x="1501" d="M53 238q0 78 30 145.5t83 117.5t124.5 78.5t155.5 28.5t138.5 -11t72.5 -22q12 80 16.5 137.5t-7 94.5t-43 54.5t-93.5 17.5q-55 0 -102 -9.5t-83 -19.5t-59.5 -21.5t-29.5 -13.5q-25 -6 -29 19l-6 36q-2 10 5 18.5t18 12.5q39 18 86 33q41 12 95 22.5t120 10.5 q98 0 146 -47.5t57 -128.5q57 76 153 126t213 50q61 0 113.5 -17.5t92.5 -49.5t62.5 -76t22.5 -99q0 -86 -45 -141.5t-113.5 -86t-151.5 -44t-158 -15.5t-133.5 1t-78.5 5l-25 -208q37 -82 108 -127.5t169 -45.5q55 0 97 9.5t75 24t57.5 30.5t44.5 31q10 8 21.5 9t19.5 -11 l19 -31q12 -20 -8 -39q-41 -35 -126 -72t-219 -37q-104 0 -177.5 48.5t-118.5 113.5q-27 -29 -66 -57.5t-87 -52t-101.5 -38t-108.5 -14.5q-104 0 -175 69t-71 192zM143 244q0 -90 51.5 -135.5t129.5 -45.5q45 0 89 13.5t80.5 34t66.5 46t48 48.5l39 289q-10 4 -63.5 19 t-141.5 15q-59 0 -112.5 -20.5t-95 -58t-66.5 -90t-25 -115.5zM737 526q109 -10 212.5 -8t185.5 23.5t131 64.5t49 115q0 74 -59.5 116t-151.5 42q-47 0 -97.5 -14.5t-96.5 -41t-85 -61.5t-65 -78zM745 1174q-6 16 17 28l321 184q6 4 17.5 4.5t15.5 -10.5l19 -43 q6 -20 -13 -30l-338 -162q-25 -10 -30 6z" />
<glyph unicode="&#x1fe;" horiz-adv-x="1572" d="M100 57q-12 20 4 37l134 127q-51 78 -78 183.5t-27 209.5q0 174 63.5 327t171 266.5t248 180t293.5 66.5q131 0 239.5 -53t184.5 -148l140 131q8 8 18 9.5t16 -9.5l6 -8q14 -18 -6 -37l-137 -131q51 -78 80 -185.5t29 -211.5q0 -172 -64.5 -323.5t-172 -264t-249 -178 t-293.5 -65.5q-133 0 -241.5 51t-184.5 145l-135 -127q-6 -8 -16 -8t-17 8zM223 625q0 -92 22.5 -182.5t65.5 -155.5l951 903q-66 82 -160 128t-207 46q-131 0 -252 -58.5t-214 -158.5t-149.5 -234.5t-56.5 -287.5zM348 242q66 -82 159 -127t208 -45q131 0 251.5 57 t215 156.5t151 233.5t56.5 286q0 90 -24 182t-69 160zM778 1628q-6 16 17 29l321 184q6 4 17.5 4t15.5 -10l18 -43q6 -20 -12 -31l-338 -162q-25 -10 -31 7z" />
<glyph unicode="&#x1ff;" horiz-adv-x="1087" d="M89 107.5q3 11.5 13 19.5l50 45q-58 102 -58 231q0 117 40 219.5t108.5 179.5t161 121t196.5 44q80 0 148.5 -37t117.5 -101l60 56q20 20 39 0l10 -11q23 -18 -6 -43l-66 -59q57 -104 58 -229q0 -117 -40 -220.5t-109 -180t-160 -121t-193 -44.5q-82 0 -150.5 36 t-120.5 102l-43 -41q-20 -20 -39 2l-10 10q-10 10 -7 21.5zM184 414q0 -98 35 -178l580 532q-39 51 -93.5 81t-119.5 30q-82 0 -155 -37t-128 -99.5t-87 -147.5t-32 -181zM254 174q39 -53 93 -82t122 -29q78 0 150.5 37t128 100.5t89 150t33.5 184.5t-36 172zM487 1174 q-6 16 17 28l321 184q6 4 17.5 4.5t15.5 -10.5l19 -43q6 -20 -13 -30l-338 -162q-25 -10 -30 6z" />
<glyph unicode="&#x218;" horiz-adv-x="1030" d="M67.5 162.5q-4.5 11.5 8.5 23.5l22 29q20 27 43 4t52.5 -49.5t69.5 -49t90 -38.5t114 -16q68 0 129 23.5t107.5 64.5t73 98t26.5 123q0 57 -22.5 100t-62.5 80t-97.5 68.5t-124.5 66.5q-68 33 -123.5 68t-96 77t-63.5 94t-23 124t26 143.5t80 128.5t137 93t200 36 q111 0 182.5 -31.5t130.5 -72.5q10 -6 13.5 -18.5t-7.5 -24.5l-16 -23q-20 -27 -45 -10q-66 45 -127.5 68.5t-138.5 23.5q-86 0 -149.5 -26.5t-105.5 -70.5t-62.5 -98.5t-20.5 -109.5q0 -53 19.5 -95t53 -76t81.5 -61.5t104 -54.5q80 -39 146.5 -77t112.5 -83t71.5 -100 t25.5 -129q0 -90 -35 -165t-95 -128t-140 -82.5t-170 -29.5q-74 0 -135.5 18t-110.5 45t-83 54.5t-52 45.5q-8 8 -12.5 19.5zM324 -260q0 37 27.5 62.5t68.5 25.5q47 0 72.5 -30.5t25.5 -86.5q0 -66 -29.5 -133t-87.5 -113q-14 -14 -24 -2l-21 21q-10 10 -6 16t12 13 q33 29 55.5 71.5t22.5 83.5q0 16 -6 29q-14 -14 -47 -14q-29 0 -46 16t-17 41z" />
<glyph unicode="&#x219;" horiz-adv-x="804" d="M50 96q-3 10 5 21l23 33q6 10 18.5 12t22.5 -8q12 -10 31.5 -25.5t46 -30t61.5 -25t80 -10.5q102 0 166.5 55.5t64.5 135.5q0 35 -16 61.5t-46 49t-69 43t-84 43.5q-47 23 -86 46t-68.5 53t-46 66.5t-16.5 83.5t18.5 94.5t56.5 86.5t96.5 62.5t135.5 23.5 q86 0 144.5 -24.5t87.5 -47.5q23 -16 6 -43l-16 -25q-18 -25 -43 -8q-6 4 -23.5 14.5t-42.5 20.5t-55.5 17.5t-63.5 7.5q-104 0 -157.5 -52.5t-53.5 -119.5q0 -59 51.5 -102.5t129.5 -80.5q51 -23 97 -48t79.5 -56t54 -69t20.5 -87q0 -63 -24.5 -115.5t-68.5 -90.5 t-104 -59.5t-130 -21.5q-94 0 -166 36t-107 69q-6 4 -9 14zM186 -242q0 37 28 62.5t69 25.5q47 0 72.5 -30.5t25.5 -85.5q0 -66 -29.5 -133.5t-87.5 -112.5q-14 -14 -24 -2l-21 20q-10 10 -6 16.5t12 12.5q33 29 55.5 72t22.5 84q0 16 -6 28q-14 -14 -47 -14q-29 0 -46.5 16 t-17.5 41z" />
<glyph unicode="&#x21a;" horiz-adv-x="960" d="M168 1376l4 31q2 12 10 19.5t19 7.5h790q27 0 23 -27l-4 -35q-4 -27 -31 -26h-348l-185 -1319q-4 -27 -34 -27h-39q-27 0 -23 27l187 1319h-349q-16 0 -19 8t-1 22zM233 -244q0 37 28 62.5t69 25.5q47 0 72.5 -30.5t25.5 -85.5q0 -66 -29.5 -133.5t-87.5 -112.5 q-14 -14 -24 -2l-21 20q-10 10 -6 16.5t12 12.5q33 29 55.5 72t22.5 84q0 16 -6 28q-14 -14 -47 -14q-29 0 -46.5 16t-17.5 41z" />
<glyph unicode="&#x21b;" horiz-adv-x="696" d="M121 868.5q-4 8.5 0 22.5l6 31q6 25 29 24h108l35 258q2 14 12.5 22.5t22.5 8.5l26 2q14 0 22.5 -9t4.5 -22l-35 -260h293q14 0 20.5 -9t4.5 -22l-4 -24q-4 -31 -33 -31h-293l-88 -616q-12 -92 2 -136.5t80 -44.5q31 0 61.5 8.5t56 20.5t46 24.5t32.5 18.5q16 10 22.5 6 t12.5 -14l17 -25q14 -23 -11 -39q-14 -10 -38.5 -24t-57.5 -27.5t-73 -24t-85 -10.5q-57 0 -92 20.5t-51 56.5t-18 84t6 106l90 616h-111q-16 0 -20 8.5zM195 -244q0 37 27.5 62.5t68.5 25.5q47 0 72.5 -30.5t25.5 -85.5q0 -66 -29.5 -133.5t-87.5 -112.5q-14 -14 -24 -2 l-21 20q-10 10 -6 16.5t12 12.5q33 29 55.5 72t22.5 84q0 16 -6 28q-14 -14 -47 -14q-29 0 -46 16t-17 41z" />
<glyph unicode="&#x237;" horiz-adv-x="442" d="M-174 -461q-4 12 2 26.5t25 18.5q84 20 143 74.5t76 177.5l151 1079q2 12 12.5 21.5t24.5 9.5h29q10 0 19 -9t5 -22l-147 -1060q-12 -88 -36 -147.5t-59.5 -100.5t-83.5 -66.5t-108 -44.5q-37 -12 -45 17z" />
<glyph unicode="&#x2c6;" horiz-adv-x="688" d="M168 1087q-10 18 10 37l201 160q12 10 27 10q10 0 22 -10l158 -162q6 -6 10 -15t-8 -22l-10 -12q-6 -6 -16.5 -12t-22.5 8l-142 127l-178 -133q-16 -12 -25.5 -6t-13.5 12z" />
<glyph unicode="&#x2c7;" horiz-adv-x="688" d="M131 1354l14 16q6 6 13.5 10t17.5 -6l182 -166l232 172q14 10 20 6t11 -10l14 -22q8 -14 -8 -29l-252 -201q-13 -10 -25 -10q-8 0 -18 10l-197 201q-16 16 -4 29z" />
<glyph unicode="&#x2c9;" horiz-adv-x="763" d="M160 1243l4 27q4 27 29 26h495q27 0 23 -26l-4 -27q-4 -25 -29 -24h-496q-27 0 -22 24z" />
<glyph unicode="&#x2d8;" horiz-adv-x="636" d="M178 1245q0 33 29 33h18q23 0 27 -27q4 -53 32.5 -87t77.5 -34q45 0 86 35t58 88q12 25 33 25h26q29 0 21 -35q-23 -80 -83.5 -134t-146.5 -54q-37 0 -68.5 14t-56 41t-38 61.5t-15.5 73.5z" />
<glyph unicode="&#x2d9;" horiz-adv-x="403" d="M174 1257q0 37 28.5 64t65.5 27q31 0 49.5 -19.5t18.5 -48.5q0 -37 -26.5 -63.5t-63.5 -26.5q-31 0 -51.5 19.5t-20.5 47.5z" />
<glyph unicode="&#x2da;" horiz-adv-x="534" d="M117 1204q0 51 17.5 97.5t49 80t73.5 53t91 19.5q74 0 121 -55.5t47 -132.5q0 -53 -17.5 -98.5t-48 -78t-72.5 -52t-91 -19.5q-76 0 -123 54t-47 132zM184 1217q0 -53 32 -93.5t81 -40.5q66 0 107.5 51.5t41.5 120.5q0 53 -29.5 92t-76.5 39q-66 0 -111 -50t-45 -119z " />
<glyph unicode="&#x2db;" horiz-adv-x="565" d="M49 -326q0 61 23.5 112.5t63.5 95.5t92.5 81t109.5 70l86 -27q-43 -23 -93 -53.5t-93 -70.5t-71 -90t-28 -109q0 -45 28 -72t79 -27q47 0 87 21.5t58 32.5q4 4 12.5 3t8.5 -12l-2 -39q0 -10 -4.5 -19t-20.5 -17q-23 -12 -64.5 -31t-93.5 -19q-84 0 -131 49.5t-47 120.5z " />
<glyph unicode="&#x2dc;" horiz-adv-x="700" d="M164 1141q4 10 15 33.5t30.5 48t47.5 44t69 19.5q43 0 63.5 -24.5t33.5 -54t23.5 -49t28.5 -19.5q16 0 29.5 9t24 23.5t17.5 30t11 27.5q12 29 39 16l20 -6q6 -6 11.5 -12t-0.5 -23q0 -4 -9.5 -27.5t-30 -50t-50 -48t-72.5 -21.5q-41 0 -62.5 26.5t-35 54t-23.5 49 t-27 21.5q-18 0 -31.5 -11t-25.5 -26.5t-19.5 -32t-11.5 -28.5q-10 -29 -36 -14l-19 8q-25 8 -10 37z" />
<glyph unicode="&#x2dd;" horiz-adv-x="722" d="M135 1085l182 326q12 23 31 23h47q16 0 20.5 -10.5t-5.5 -24.5l-211 -322q-10 -16 -27 -16h-25q-23 0 -12 24zM442 1085l183 326q10 23 28 23h47q16 0 21.5 -10.5t-4.5 -24.5l-213 -322q-8 -16 -27 -16h-24q-25 0 -11 24z" />
<glyph unicode="&#x300;" horiz-adv-x="0" d="M-686 1231l21 31q6 12 20 13t25 -7l217 -146q20 -16 10 -39l-10 -18q-8 -8 -17.5 -11t-23.5 3l-236 129q-23 16 -6 45z" />
<glyph unicode="&#x301;" horiz-adv-x="0" d="M-666 1085q-10 25 19 39l223 129q10 4 23.5 4t21.5 -14l12 -31q8 -27 -14 -41l-258 -122v2q-10 -6 -21 20z" />
<glyph unicode="&#x303;" horiz-adv-x="0" d="M-745 1141q4 10 15 33.5t30.5 48t47.5 44t69 19.5q43 0 63.5 -24.5t33.5 -54t23.5 -49t28.5 -19.5q16 0 29.5 9t24 23.5t17.5 30t11 27.5q12 29 39 16l20 -6q6 -6 11.5 -12t-0.5 -23q0 -4 -9.5 -27.5t-30 -50t-50 -48t-72.5 -21.5q-41 0 -62.5 26.5t-35 54t-23.5 49 t-27 21.5q-18 0 -31.5 -11t-25.5 -26.5t-19.5 -32t-11.5 -28.5q-10 -29 -36 -14l-19 8q-25 8 -10 37z" />
<glyph unicode="&#x309;" horiz-adv-x="944" d="M582 1237q-12 16 4 35q14 18 37 33q23 14 45 20q29 10 57 10q55 0 86 -30q27 -33 18 -82q-12 -53 -73 -97l-13 -6l-12 -6q-10 -6 -14 -12q-14 -10 -17 -21v-4q-2 -14 -14 -22q-8 -6 -18 -6h-17q-33 0 -26 30v4q8 31 30 56q14 12 43 30l9 7l10 6q10 8 14 14q16 10 19 31 q4 16 -5 26q-8 10 -30 11q-29 0 -51 -15q-10 -6 -17 -12q-6 -2 -10 -10h-4l-2 -2q-23 -18 -41 0z" />
<glyph unicode="&#x31b;" horiz-adv-x="636" d="M350 1102l6 69q61 0 115.5 46.5t77.5 115.5q10 23 29 23h32q20 0 15 -29q-27 -96 -100 -160.5t-175 -64.5z" />
<glyph unicode="&#x323;" horiz-adv-x="442" d="M12 -244q0 37 29 63.5t65 26.5q31 0 49.5 -19.5t18.5 -47.5q0 -37 -26.5 -63.5t-63.5 -26.5q-31 0 -51.5 19.5t-20.5 47.5z" />
<glyph unicode="&#x394;" horiz-adv-x="1316" d="M3 23.5q1 23.5 17 52.5l740 1364q4 6 11 10t13 4h7q6 0 12 -2t10 -12l348 -1368q2 -10 3 -22.5t-2 -24t-13 -18.5t-31 -7h-1081q-35 0 -34 23.5zM131 86h926l-285 1196h-4z" />
<glyph unicode="&#x3a9;" horiz-adv-x="1579" d="M100 27l6 30q4 27 27 27h264q-66 47 -119 112.5t-87.5 146.5t-47 175t1.5 197q20 154 90 289t172.5 234t232.5 157.5t271 58.5q135 0 248 -58.5t189.5 -157.5t110.5 -234.5t14 -288.5q-29 -207 -142.5 -372t-279.5 -259h254q10 0 17 -8t5 -19l-6 -30q-4 -27 -27 -27h-436 q-10 0 -16 8t-4 19l6 30q2 18 24 27q98 27 184.5 86t154 142t112.5 185.5t61 217.5q18 135 -9.5 252.5t-92 206t-161.5 139.5t-218 51t-232.5 -51t-200.5 -139.5t-149.5 -206t-78.5 -252.5q-16 -115 0 -217.5t59 -185.5t112.5 -142t159.5 -86q23 -8 21 -27l-6 -30 q-4 -27 -25 -27h-436q-27 0 -23 27z" />
<glyph unicode="&#x3bc;" horiz-adv-x="1024" d="M53 -457l193 1372q2 12 11 21.5t19 9.5h33q12 0 20.5 -9t6.5 -22l-76 -520q-25 -166 17 -249t165 -83q66 0 117 25t88 55.5t57.5 57t24.5 30.5l96 684q2 31 33 31h33q10 0 18.5 -9t3.5 -22l-120 -884q-2 -12 -9.5 -21.5t-19.5 -9.5h-25q-12 0 -17 9t-5 20l4 86 q-10 -12 -33.5 -36t-61.5 -46.5t-89.5 -39t-114.5 -16.5q-78 0 -129 25t-82 70l-76 -529q-4 -31 -33 -30h-26q-14 0 -19.5 9t-3.5 21z" />
<glyph unicode="&#x3c0;" horiz-adv-x="1241" d="M96 889l2 26q2 12 11.5 21.5t21.5 9.5h1079q29 0 25 -28l-4 -33q-4 -27 -31 -27h-229l-119 -827q-4 -31 -35 -31h-33q-10 0 -17 9t-5 22l119 827h-441l-118 -827q-2 -16 -14.5 -23.5t-22.5 -7.5h-33q-12 0 -19.5 9t-5.5 22l119 827h-227q-14 0 -19.5 10.5t-3.5 20.5z" />
<glyph unicode="&#x1e80;" horiz-adv-x="1656" d="M188 1407q-2 27 27 27h49q16 0 21 -23l133 -1169h6l491 1194q8 18 23 18h12q16 0 21 -18l164 -1192h4l460 1167q8 23 27 23h53q29 0 21 -27l-565 -1413q-8 -14 -19 -14h-14q-16 0 -19 14l-165 1218h-7l-499 -1218q-6 -14 -19 -14h-14q-18 0 -19 14zM819 1796l25 39 q12 20 35 6l270 -184q16 -10 8 -29l-12 -18q-6 -8 -12.5 -10.5t-20.5 4.5l-291 161q-16 10 -2 31z" />
<glyph unicode="&#x1e81;" horiz-adv-x="1329" d="M135 907q-6 39 23 39h41q10 0 17 -4t9 -18l97 -727h4l352 747q10 23 29 23h10q16 0 22 -23l148 -747h2l297 727q6 14 15 18t20 4h47q16 0 19 -11t-5 -28l-387 -907q-10 -23 -27 -23h-8q-16 0 -20 23l-150 778h-2l-366 -778q-10 -23 -29 -23h-10q-12 0 -17 23zM549 1339 l24 39q6 10 16.5 11.5t18.5 -5.5l271 -184q16 -10 8 -29l-13 -18q-6 -8 -12 -10t-20 4l-291 162q-16 10 -2 30z" />
<glyph unicode="&#x1e82;" horiz-adv-x="1656" d="M188 1407q-2 27 27 27h49q16 0 21 -23l133 -1169h6l491 1194q8 18 23 18h12q16 0 21 -18l164 -1192h4l460 1167q8 23 27 23h53q29 0 21 -27l-565 -1413q-8 -14 -19 -14h-14q-16 0 -19 14l-165 1218h-7l-499 -1218q-6 -14 -19 -14h-14q-18 0 -19 14zM791 1628q-6 16 16 29 l321 184q6 4 17.5 4t15.5 -10l19 -43q6 -20 -13 -31l-338 -162q-25 -10 -30 7z" />
<glyph unicode="&#x1e83;" horiz-adv-x="1329" d="M135 907q-6 39 23 39h41q10 0 17 -4t9 -18l97 -727h4l352 747q10 23 29 23h10q16 0 22 -23l148 -747h2l297 727q6 14 15 18t20 4h47q16 0 19 -11t-5 -28l-387 -907q-10 -23 -27 -23h-8q-16 0 -20 23l-150 778h-2l-366 -778q-10 -23 -29 -23h-10q-12 0 -17 23zM602 1174 q-6 16 16 28l322 184q6 4 17.5 4.5t15.5 -10.5l18 -43q6 -20 -12 -30l-338 -162q-25 -10 -31 6z" />
<glyph unicode="&#x1e84;" horiz-adv-x="1656" d="M188 1407q-2 27 27 27h49q16 0 21 -23l133 -1169h6l491 1194q8 18 23 18h12q16 0 21 -18l164 -1192h4l460 1167q8 23 27 23h53q29 0 21 -27l-565 -1413q-8 -14 -19 -14h-14q-16 0 -19 14l-165 1218h-7l-499 -1218q-6 -14 -19 -14h-14q-18 0 -19 14zM713 1700 q0 39 27.5 65.5t62.5 26.5q31 0 51 -21.5t20 -52.5q0 -37 -27.5 -63.5t-64.5 -26.5q-31 0 -50 21.5t-19 50.5zM1098 1700q0 39 27.5 65.5t62.5 26.5q31 0 51.5 -21.5t20.5 -52.5q0 -37 -28 -63.5t-65 -26.5q-29 0 -49 21.5t-20 50.5z" />
<glyph unicode="&#x1e85;" horiz-adv-x="1329" d="M135 907q-6 39 23 39h41q10 0 17 -4t9 -18l97 -727h4l352 747q10 23 29 23h10q16 0 22 -23l148 -747h2l297 727q6 14 15 18t20 4h47q16 0 19 -11t-5 -28l-387 -907q-10 -23 -27 -23h-8q-16 0 -20 23l-150 778h-2l-366 -778q-10 -23 -29 -23h-10q-12 0 -17 23zM500 1280 q0 39 27.5 65.5t62.5 26.5q33 0 51 -21.5t18 -52.5q0 -37 -25.5 -63.5t-62.5 -26.5q-31 0 -51 21.5t-20 50.5zM854 1280q0 39 26.5 65.5t61.5 26.5q33 0 53.5 -21.5t20.5 -52.5q0 -37 -27.5 -63.5t-64.5 -26.5q-31 0 -50.5 21.5t-19.5 50.5z" />
<glyph unicode="&#x1ea0;" horiz-adv-x="1239" d="M-49 29l758 1411q6 14 26 14h6q8 0 14.5 -2t10.5 -12l373 -1415q4 -10 -1 -17.5t-22 -7.5h-53q-14 0 -19.5 6t-7.5 12l-94 377h-692l-197 -377q-4 -6 -11 -12t-22 -6h-59q-25 0 -10 29zM297 475h623l-197 815h-6zM428 -244q0 37 29 63.5t65 26.5q31 0 49.5 -19.5 t18.5 -47.5q0 -37 -26.5 -63.5t-63.5 -26.5q-31 0 -51.5 19.5t-20.5 47.5z" />
<glyph unicode="&#x1ea1;" d="M98 412q0 113 38 214t102.5 177t151.5 120t185 44q57 0 103.5 -14.5t79.5 -33t52 -37t26 -26.5l20 64q8 27 29 26h20q10 0 18.5 -9t4.5 -22l-121 -884q-2 -12 -12.5 -21.5t-20.5 -9.5h-18q-29 0 -27 33l4 82q-10 -12 -36.5 -35t-66.5 -46.5t-91.5 -40t-112.5 -16.5 q-74 0 -134.5 33t-103.5 91.5t-66.5 138t-23.5 172.5zM188 412q0 -68 18.5 -131.5t51.5 -111.5t80 -77t104 -29q66 0 121 26t95 56.5t62.5 58t24.5 32.5l70 520q-2 4 -17.5 23.5t-45 42t-73.5 40t-106 17.5q-82 0 -151.5 -38t-121.5 -102.5t-82 -148.5t-30 -178zM327 -244 q0 37 29 63.5t65 26.5q31 0 49.5 -19.5t18.5 -47.5q0 -37 -26.5 -63.5t-63.5 -26.5q-31 0 -51.5 19.5t-20.5 47.5z" />
<glyph unicode="&#x1ea2;" horiz-adv-x="1239" d="M-49 29l758 1411q6 14 26 14h6q8 0 14.5 -2t10.5 -12l373 -1415q4 -10 -1 -17.5t-22 -7.5h-53q-14 0 -19.5 6t-7.5 12l-94 377h-692l-197 -377q-4 -6 -11 -12t-22 -6h-59q-25 0 -10 29zM297 475h623l-197 815h-6zM656 1724q-12 16 4 35q14 18 37 33q23 14 45 20 q29 10 57 10q55 0 86 -30q27 -33 18 -82q-12 -53 -73 -97l-13 -6l-12 -6q-10 -6 -14 -12q-14 -10 -17 -21v-4q-2 -14 -14 -22q-8 -6 -18 -6h-17q-33 0 -26 30v4q8 31 30 56q14 12 43 30l9 7l10 6q10 8 14 14q16 10 19 31q4 16 -5 26q-8 10 -30 11q-29 0 -51 -15 q-10 -6 -17 -12q-6 -2 -10 -10h-4l-2 -2q-23 -18 -41 0z" />
<glyph unicode="&#x1ea3;" d="M98 412q0 113 38 214t102.5 177t151.5 120t185 44q57 0 103.5 -14.5t79.5 -33t52 -37t26 -26.5l20 64q8 27 29 26h20q10 0 18.5 -9t4.5 -22l-121 -884q-2 -12 -12.5 -21.5t-20.5 -9.5h-18q-29 0 -27 33l4 82q-10 -12 -36.5 -35t-66.5 -46.5t-91.5 -40t-112.5 -16.5 q-74 0 -134.5 33t-103.5 91.5t-66.5 138t-23.5 172.5zM188 412q0 -68 18.5 -131.5t51.5 -111.5t80 -77t104 -29q66 0 121 26t95 56.5t62.5 58t24.5 32.5l70 520q-2 4 -17.5 23.5t-45 42t-73.5 40t-106 17.5q-82 0 -151.5 -38t-121.5 -102.5t-82 -148.5t-30 -178zM537 1237 q-12 16 4 35q14 18 37 33q23 14 45 20q29 10 57 10q55 0 86 -30q27 -33 18 -82q-12 -53 -73 -97l-13 -6l-12 -6q-10 -6 -14 -12q-14 -10 -17 -21v-4q-2 -14 -14 -22q-8 -6 -18 -6h-17q-33 0 -26 30v4q8 31 30 56q14 12 43 30l9 7l10 6q10 8 14 14q16 10 19 31q4 16 -5 26 q-8 10 -30 11q-29 0 -51 -15q-10 -6 -17 -12q-6 -2 -10 -10h-4l-2 -2q-23 -18 -41 0z" />
<glyph unicode="&#x1ea4;" horiz-adv-x="1239" d="M-49 29l758 1411q6 14 26 14h6q8 0 14.5 -2t10.5 -12l373 -1415q4 -10 -1 -17.5t-22 -7.5h-53q-14 0 -19.5 6t-7.5 12l-94 377h-692l-197 -377q-4 -6 -11 -12t-22 -6h-59q-25 0 -10 29zM297 475h623l-197 815h-6zM563 1581q-10 18 10 37l201 160q12 10 27 10q10 0 22 -10 l158 -162q6 -6 10 -15t-8 -22l-10 -12q-6 -6 -16.5 -12t-22.5 8l-142 127l-178 -133q-16 -12 -25.5 -6t-13.5 12zM655 1849q-10 25 19 39l223 129q10 4 23.5 4t21.5 -14l12 -31q8 -27 -14 -41l-258 -122v2q-10 -6 -21 20z" />
<glyph unicode="&#x1ea5;" d="M98 412q0 113 38 214t102.5 177t151.5 120t185 44q57 0 103.5 -14.5t79.5 -33t52 -37t26 -26.5l20 64q8 27 29 26h20q10 0 18.5 -9t4.5 -22l-121 -884q-2 -12 -12.5 -21.5t-20.5 -9.5h-18q-29 0 -27 33l4 82q-10 -12 -36.5 -35t-66.5 -46.5t-91.5 -40t-112.5 -16.5 q-74 0 -134.5 33t-103.5 91.5t-66.5 138t-23.5 172.5zM188 412q0 -68 18.5 -131.5t51.5 -111.5t80 -77t104 -29q66 0 121 26t95 56.5t62.5 58t24.5 32.5l70 520q-2 4 -17.5 23.5t-45 42t-73.5 40t-106 17.5q-82 0 -151.5 -38t-121.5 -102.5t-82 -148.5t-30 -178zM377 1087 q-10 18 10 37l201 160q12 10 27 10q10 0 22 -10l158 -162q6 -6 10 -15t-8 -22l-10 -12q-6 -6 -16.5 -12t-22.5 8l-142 127l-178 -133q-16 -12 -25.5 -6t-13.5 12zM487 1359q-10 25 19 39l223 129q10 4 23.5 4t21.5 -14l12 -31q8 -27 -14 -41l-258 -122v2q-10 -6 -21 20z" />
<glyph unicode="&#x1ea6;" horiz-adv-x="1239" d="M-49 29l758 1411q6 14 26 14h6q8 0 14.5 -2t10.5 -12l373 -1415q4 -10 -1 -17.5t-22 -7.5h-53q-14 0 -19.5 6t-7.5 12l-94 377h-692l-197 -377q-4 -6 -11 -12t-22 -6h-59q-25 0 -10 29zM297 475h623l-197 815h-6zM563 1581q-10 18 10 37l201 160q12 10 27 10q10 0 22 -10 l158 -162q6 -6 10 -15t-8 -22l-10 -12q-6 -6 -16.5 -12t-22.5 8l-142 127l-178 -133q-16 -12 -25.5 -6t-13.5 12zM659 1981l21 31q6 12 20 13t25 -7l217 -146q20 -16 10 -39l-10 -18q-8 -8 -17.5 -11t-23.5 3l-236 129q-23 16 -6 45z" />
<glyph unicode="&#x1ea7;" d="M98 412q0 113 38 214t102.5 177t151.5 120t185 44q57 0 103.5 -14.5t79.5 -33t52 -37t26 -26.5l20 64q8 27 29 26h20q10 0 18.5 -9t4.5 -22l-121 -884q-2 -12 -12.5 -21.5t-20.5 -9.5h-18q-29 0 -27 33l4 82q-10 -12 -36.5 -35t-66.5 -46.5t-91.5 -40t-112.5 -16.5 q-74 0 -134.5 33t-103.5 91.5t-66.5 138t-23.5 172.5zM188 412q0 -68 18.5 -131.5t51.5 -111.5t80 -77t104 -29q66 0 121 26t95 56.5t62.5 58t24.5 32.5l70 520q-2 4 -17.5 23.5t-45 42t-73.5 40t-106 17.5q-82 0 -151.5 -38t-121.5 -102.5t-82 -148.5t-30 -178zM377 1087 q-10 18 10 37l201 160q12 10 27 10q10 0 22 -10l158 -162q6 -6 10 -15t-8 -22l-10 -12q-6 -6 -16.5 -12t-22.5 8l-142 127l-178 -133q-16 -12 -25.5 -6t-13.5 12zM493 1479l21 31q6 12 20 13t25 -7l217 -146q20 -16 10 -39l-10 -18q-8 -8 -17.5 -11t-23.5 3l-236 129 q-23 16 -6 45z" />
<glyph unicode="&#x1ea8;" horiz-adv-x="1239" d="M-49 29l758 1411q6 14 26 14h6q8 0 14.5 -2t10.5 -12l373 -1415q4 -10 -1 -17.5t-22 -7.5h-53q-14 0 -19.5 6t-7.5 12l-94 377h-692l-197 -377q-4 -6 -11 -12t-22 -6h-59q-25 0 -10 29zM297 475h623l-197 815h-6zM561 1581q-10 18 10 37l201 160q12 10 27 10q10 0 22 -10 l158 -162q6 -6 10 -15t-8 -22l-10 -12q-6 -6 -16.5 -12t-22.5 8l-142 127l-178 -133q-16 -12 -25.5 -6t-13.5 12zM885 1899q-12 16 4 35q14 18 37 33q23 14 45 20q29 10 57 10q55 0 86 -30q27 -33 18 -82q-12 -53 -73 -97l-13 -6l-12 -6q-10 -6 -14 -12q-14 -10 -17 -21v-4 q-2 -14 -14 -22q-8 -6 -18 -6h-17q-33 0 -26 30v4q8 31 30 56q14 12 43 30l9 7l10 6q10 8 14 14q16 10 19 31q4 16 -5 26q-8 10 -30 11q-29 0 -51 -15q-10 -6 -17 -12q-6 -2 -10 -10h-4l-2 -2q-23 -18 -41 0z" />
<glyph unicode="&#x1ea9;" d="M98 412q0 113 38 214t102.5 177t151.5 120t185 44q57 0 103.5 -14.5t79.5 -33t52 -37t26 -26.5l20 64q8 27 29 26h20q10 0 18.5 -9t4.5 -22l-121 -884q-2 -12 -12.5 -21.5t-20.5 -9.5h-18q-29 0 -27 33l4 82q-10 -12 -36.5 -35t-66.5 -46.5t-91.5 -40t-112.5 -16.5 q-74 0 -134.5 33t-103.5 91.5t-66.5 138t-23.5 172.5zM188 412q0 -68 18.5 -131.5t51.5 -111.5t80 -77t104 -29q66 0 121 26t95 56.5t62.5 58t24.5 32.5l70 520q-2 4 -17.5 23.5t-45 42t-73.5 40t-106 17.5q-82 0 -151.5 -38t-121.5 -102.5t-82 -148.5t-30 -178zM371 1087 q-10 18 10 37l201 160q12 10 27 10q10 0 22 -10l158 -162q6 -6 10 -15t-8 -22l-10 -12q-6 -6 -16.5 -12t-22.5 8l-142 127l-178 -133q-16 -12 -25.5 -6t-13.5 12zM732 1450q-12 16 4 35q14 18 37 33q23 14 45 20q29 10 57 10q55 0 86 -30q27 -33 18 -82q-12 -53 -73 -97 l-13 -6l-12 -6q-10 -6 -14 -12q-14 -10 -17 -21v-4q-2 -14 -14 -22q-8 -6 -18 -6h-17q-33 0 -26 30v4q8 31 30 56q14 12 43 30l9 7l10 6q10 8 14 14q16 10 19 31q4 16 -5 26q-8 10 -30 11q-29 0 -51 -15q-10 -6 -17 -12q-6 -2 -10 -10h-4l-2 -2q-23 -18 -41 0z" />
<glyph unicode="&#x1eaa;" horiz-adv-x="1239" d="M-49 29l758 1411q6 14 26 14h6q8 0 14.5 -2t10.5 -12l373 -1415q4 -10 -1 -17.5t-22 -7.5h-53q-14 0 -19.5 6t-7.5 12l-94 377h-692l-197 -377q-4 -6 -11 -12t-22 -6h-59q-25 0 -10 29zM297 475h623l-197 815h-6zM563 1581q-10 18 10 37l201 160q12 10 27 10q10 0 22 -10 l158 -162q6 -6 10 -15t-8 -22l-10 -12q-6 -6 -16.5 -12t-22.5 8l-142 127l-178 -133q-16 -12 -25.5 -6t-13.5 12zM659 1864q4 10 15 33.5t30.5 48t47.5 44t69 19.5q43 0 63.5 -24.5t33.5 -54t23.5 -49t28.5 -19.5q16 0 29.5 9t24 23.5t17.5 30t11 27.5q12 29 39 16l20 -6 q6 -6 11.5 -12t-0.5 -23q0 -4 -9.5 -27.5t-30 -50t-50 -48t-72.5 -21.5q-41 0 -62.5 26.5t-35 54t-23.5 49t-27 21.5q-18 0 -31.5 -11t-25.5 -26.5t-19.5 -32t-11.5 -28.5q-10 -29 -36 -14l-19 8q-25 8 -10 37z" />
<glyph unicode="&#x1eab;" d="M98 412q0 113 38 214t102.5 177t151.5 120t185 44q57 0 103.5 -14.5t79.5 -33t52 -37t26 -26.5l20 64q8 27 29 26h20q10 0 18.5 -9t4.5 -22l-121 -884q-2 -12 -12.5 -21.5t-20.5 -9.5h-18q-29 0 -27 33l4 82q-10 -12 -36.5 -35t-66.5 -46.5t-91.5 -40t-112.5 -16.5 q-74 0 -134.5 33t-103.5 91.5t-66.5 138t-23.5 172.5zM188 412q0 -68 18.5 -131.5t51.5 -111.5t80 -77t104 -29q66 0 121 26t95 56.5t62.5 58t24.5 32.5l70 520q-2 4 -17.5 23.5t-45 42t-73.5 40t-106 17.5q-82 0 -151.5 -38t-121.5 -102.5t-82 -148.5t-30 -178zM371 1087 q-10 18 10 37l201 160q12 10 27 10q10 0 22 -10l158 -162q6 -6 10 -15t-8 -22l-10 -12q-6 -6 -16.5 -12t-22.5 8l-142 127l-178 -133q-16 -12 -25.5 -6t-13.5 12zM440 1436q4 10 15 33.5t30.5 48t47.5 44t69 19.5q43 0 63.5 -24.5t33.5 -54t23.5 -49t28.5 -19.5q16 0 29.5 9 t24 23.5t17.5 30t11 27.5q12 29 39 16l20 -6q6 -6 11.5 -12t-0.5 -23q0 -4 -9.5 -27.5t-30 -50t-50 -48t-72.5 -21.5q-41 0 -62.5 26.5t-35 54t-23.5 49t-27 21.5q-18 0 -31.5 -11t-25.5 -26.5t-19.5 -32t-11.5 -28.5q-10 -29 -36 -14l-19 8q-25 8 -10 37z" />
<glyph unicode="&#x1eac;" horiz-adv-x="1239" d="M-49 29l758 1411q6 14 26 14h6q8 0 14.5 -2t10.5 -12l373 -1415q4 -10 -1 -17.5t-22 -7.5h-53q-14 0 -19.5 6t-7.5 12l-94 377h-692l-197 -377q-4 -6 -11 -12t-22 -6h-59q-25 0 -10 29zM297 475h623l-197 815h-6zM428 -244q0 37 29 63.5t65 26.5q31 0 49.5 -19.5 t18.5 -47.5q0 -37 -26.5 -63.5t-63.5 -26.5q-31 0 -51.5 19.5t-20.5 47.5zM561 1574q-10 18 10 37l201 160q12 10 27 10q10 0 22 -10l158 -162q6 -6 10 -15t-8 -22l-10 -12q-6 -6 -16.5 -12t-22.5 8l-142 127l-178 -133q-16 -12 -25.5 -6t-13.5 12z" />
<glyph unicode="&#x1ead;" d="M98 412q0 113 38 214t102.5 177t151.5 120t185 44q57 0 103.5 -14.5t79.5 -33t52 -37t26 -26.5l20 64q8 27 29 26h20q10 0 18.5 -9t4.5 -22l-121 -884q-2 -12 -12.5 -21.5t-20.5 -9.5h-18q-29 0 -27 33l4 82q-10 -12 -36.5 -35t-66.5 -46.5t-91.5 -40t-112.5 -16.5 q-74 0 -134.5 33t-103.5 91.5t-66.5 138t-23.5 172.5zM188 412q0 -68 18.5 -131.5t51.5 -111.5t80 -77t104 -29q66 0 121 26t95 56.5t62.5 58t24.5 32.5l70 520q-2 4 -17.5 23.5t-45 42t-73.5 40t-106 17.5q-82 0 -151.5 -38t-121.5 -102.5t-82 -148.5t-30 -178zM325 -244 q0 37 29 63.5t65 26.5q31 0 49.5 -19.5t18.5 -47.5q0 -37 -26.5 -63.5t-63.5 -26.5q-31 0 -51.5 19.5t-20.5 47.5zM371 1087q-10 18 10 37l201 160q12 10 27 10q10 0 22 -10l158 -162q6 -6 10 -15t-8 -22l-10 -12q-6 -6 -16.5 -12t-22.5 8l-142 127l-178 -133 q-16 -12 -25.5 -6t-13.5 12z" />
<glyph unicode="&#x1eae;" horiz-adv-x="1239" d="M-49 29l758 1411q6 14 26 14h6q8 0 14.5 -2t10.5 -12l373 -1415q4 -10 -1 -17.5t-22 -7.5h-53q-14 0 -19.5 6t-7.5 12l-94 377h-692l-197 -377q-4 -6 -11 -12t-22 -6h-59q-25 0 -10 29zM297 475h623l-197 815h-6zM557 1737q0 33 29 33h18q23 0 27 -27q4 -53 32.5 -87 t77.5 -34q45 0 86 35t58 88q12 25 33 25h26q29 0 21 -35q-23 -80 -83.5 -134t-146.5 -54q-37 0 -68.5 14t-56 41t-38 61.5t-15.5 73.5zM690 1812q-10 25 19 39l223 129q10 4 23.5 4t21.5 -14l12 -31q8 -27 -14 -41l-258 -122v2q-10 -6 -21 20z" />
<glyph unicode="&#x1eaf;" d="M98 412q0 113 38 214t102.5 177t151.5 120t185 44q57 0 103.5 -14.5t79.5 -33t52 -37t26 -26.5l20 64q8 27 29 26h20q10 0 18.5 -9t4.5 -22l-121 -884q-2 -12 -12.5 -21.5t-20.5 -9.5h-18q-29 0 -27 33l4 82q-10 -12 -36.5 -35t-66.5 -46.5t-91.5 -40t-112.5 -16.5 q-74 0 -134.5 33t-103.5 91.5t-66.5 138t-23.5 172.5zM188 412q0 -68 18.5 -131.5t51.5 -111.5t80 -77t104 -29q66 0 121 26t95 56.5t62.5 58t24.5 32.5l70 520q-2 4 -17.5 23.5t-45 42t-73.5 40t-106 17.5q-82 0 -151.5 -38t-121.5 -102.5t-82 -148.5t-30 -178zM434 1245 q0 33 29 33h18q23 0 27 -27q4 -53 32.5 -87t77.5 -34q45 0 86 35t58 88q12 25 33 25h26q29 0 21 -35q-23 -80 -83.5 -134t-146.5 -54q-37 0 -68.5 14t-56 41t-38 61.5t-15.5 73.5zM612 1376q-10 25 19 39l223 129q10 4 23.5 4t21.5 -14l12 -31q8 -27 -14 -41l-258 -122v2 q-10 -6 -21 20z" />
<glyph unicode="&#x1eb0;" horiz-adv-x="1239" d="M-49 29l758 1411q6 14 26 14h6q8 0 14.5 -2t10.5 -12l373 -1415q4 -10 -1 -17.5t-22 -7.5h-53q-14 0 -19.5 6t-7.5 12l-94 377h-692l-197 -377q-4 -6 -11 -12t-22 -6h-59q-25 0 -10 29zM297 475h623l-197 815h-6zM563 1739q0 33 29 33h18q23 0 27 -27q4 -53 32.5 -87 t77.5 -34q45 0 86 35t58 88q12 25 33 25h26q29 0 21 -35q-23 -80 -83.5 -134t-146.5 -54q-37 0 -68.5 14t-56 41t-38 61.5t-15.5 73.5zM563 1938l21 31q6 12 20 13t25 -7l217 -146q20 -16 10 -39l-10 -18q-8 -8 -17.5 -11t-23.5 3l-236 129q-23 16 -6 45z" />
<glyph unicode="&#x1eb1;" d="M98 412q0 113 38 214t102.5 177t151.5 120t185 44q57 0 103.5 -14.5t79.5 -33t52 -37t26 -26.5l20 64q8 27 29 26h20q10 0 18.5 -9t4.5 -22l-121 -884q-2 -12 -12.5 -21.5t-20.5 -9.5h-18q-29 0 -27 33l4 82q-10 -12 -36.5 -35t-66.5 -46.5t-91.5 -40t-112.5 -16.5 q-74 0 -134.5 33t-103.5 91.5t-66.5 138t-23.5 172.5zM188 412q0 -68 18.5 -131.5t51.5 -111.5t80 -77t104 -29q66 0 121 26t95 56.5t62.5 58t24.5 32.5l70 520q-2 4 -17.5 23.5t-45 42t-73.5 40t-106 17.5q-82 0 -151.5 -38t-121.5 -102.5t-82 -148.5t-30 -178zM397 1505 l21 31q6 12 20 13t25 -7l217 -146q20 -16 10 -39l-10 -18q-8 -8 -17.5 -11t-23.5 3l-236 129q-23 16 -6 45zM434 1245q0 33 29 33h18q23 0 27 -27q4 -53 32.5 -87t77.5 -34q45 0 86 35t58 88q12 25 33 25h26q29 0 21 -35q-23 -80 -83.5 -134t-146.5 -54q-37 0 -68.5 14 t-56 41t-38 61.5t-15.5 73.5z" />
<glyph unicode="&#x1eb2;" horiz-adv-x="1239" d="M-49 29l758 1411q6 14 26 14h6q8 0 14.5 -2t10.5 -12l373 -1415q4 -10 -1 -17.5t-22 -7.5h-53q-14 0 -19.5 6t-7.5 12l-94 377h-692l-197 -377q-4 -6 -11 -12t-22 -6h-59q-25 0 -10 29zM297 475h623l-197 815h-6zM557 1739q0 33 29 33h18q23 0 27 -27q4 -53 32.5 -87 t77.5 -34q45 0 86 35t58 88q12 25 33 25h26q29 0 21 -35q-23 -80 -83.5 -134t-146.5 -54q-37 0 -68.5 14t-56 41t-38 61.5t-15.5 73.5zM652 1909q-12 12 4 26q14 13 37 25q23 10 45 15q29 7 57 7q55 0 86 -22q27 -25 18 -62q-12 -40 -73 -72l-13 -5l-12 -5q-10 -4 -14 -8 q-14 -8 -17 -16v-3q-2 -11 -14 -17q-8 -4 -18 -4h-17q-33 0 -26 22v3q8 23 30 42q14 9 43 23l9 5l10 5q10 6 14 10q16 8 19 23q4 12 -5 20q-8 7 -30 8q-29 0 -51 -11q-10 -5 -17 -9q-6 -2 -10 -8h-4l-2 -1q-23 -14 -41 0z" />
<glyph unicode="&#x1eb3;" d="M98 412q0 113 38 214t102.5 177t151.5 120t185 44q57 0 103.5 -14.5t79.5 -33t52 -37t26 -26.5l20 64q8 27 29 26h20q10 0 18.5 -9t4.5 -22l-121 -884q-2 -12 -12.5 -21.5t-20.5 -9.5h-18q-29 0 -27 33l4 82q-10 -12 -36.5 -35t-66.5 -46.5t-91.5 -40t-112.5 -16.5 q-74 0 -134.5 33t-103.5 91.5t-66.5 138t-23.5 172.5zM188 412q0 -68 18.5 -131.5t51.5 -111.5t80 -77t104 -29q66 0 121 26t95 56.5t62.5 58t24.5 32.5l70 520q-2 4 -17.5 23.5t-45 42t-73.5 40t-106 17.5q-82 0 -151.5 -38t-121.5 -102.5t-82 -148.5t-30 -178zM434 1245 q0 33 29 33h18q23 0 27 -27q4 -53 32.5 -87t77.5 -34q45 0 86 35t58 88q12 25 33 25h26q29 0 21 -35q-23 -80 -83.5 -134t-146.5 -54q-37 0 -68.5 14t-56 41t-38 61.5t-15.5 73.5zM557 1448q-12 16 4 35q14 18 37 33q23 14 45 20q29 10 57 10q55 0 86 -30q27 -33 18 -82 q-12 -53 -73 -97l-13 -6l-12 -6q-10 -6 -14 -12q-14 -10 -17 -21v-4q-2 -14 -14 -22q-8 -6 -18 -6h-17q-33 0 -26 30v4q8 31 30 56q14 12 43 30l9 7l10 6q10 8 14 14q16 10 19 31q4 16 -5 26q-8 10 -30 11q-29 0 -51 -15q-10 -6 -17 -12q-6 -2 -10 -10h-4l-2 -2 q-23 -18 -41 0z" />
<glyph unicode="&#x1eb4;" horiz-adv-x="1239" d="M-49 29l758 1411q6 14 26 14h6q8 0 14.5 -2t10.5 -12l373 -1415q4 -10 -1 -17.5t-22 -7.5h-53q-14 0 -19.5 6t-7.5 12l-94 377h-692l-197 -377q-4 -6 -11 -12t-22 -6h-59q-25 0 -10 29zM297 475h623l-197 815h-6zM563 1741q0 33 29 33h18q23 0 27 -27q4 -53 32.5 -87 t77.5 -34q45 0 86 35t58 88q12 25 33 25h26q29 0 21 -35q-23 -80 -83.5 -134t-146.5 -54q-37 0 -68.5 14t-56 41t-38 61.5t-15.5 73.5zM565 1909q4 10 15 33.5t30.5 48t47.5 44t69 19.5q43 0 63.5 -24.5t33.5 -54t23.5 -49t28.5 -19.5q16 0 29.5 9t24 23.5t17.5 30t11 27.5 q12 29 39 16l20 -6q6 -6 11.5 -12t-0.5 -23q0 -4 -9.5 -27.5t-30 -50t-50 -48t-72.5 -21.5q-41 0 -62.5 26.5t-35 54t-23.5 49t-27 21.5q-18 0 -31.5 -11t-25.5 -26.5t-19.5 -32t-11.5 -28.5q-10 -29 -36 -14l-19 8q-25 8 -10 37z" />
<glyph unicode="&#x1eb5;" d="M98 412q0 113 38 214t102.5 177t151.5 120t185 44q57 0 103.5 -14.5t79.5 -33t52 -37t26 -26.5l20 64q8 27 29 26h20q10 0 18.5 -9t4.5 -22l-121 -884q-2 -12 -12.5 -21.5t-20.5 -9.5h-18q-29 0 -27 33l4 82q-10 -12 -36.5 -35t-66.5 -46.5t-91.5 -40t-112.5 -16.5 q-74 0 -134.5 33t-103.5 91.5t-66.5 138t-23.5 172.5zM188 412q0 -68 18.5 -131.5t51.5 -111.5t80 -77t104 -29q66 0 121 26t95 56.5t62.5 58t24.5 32.5l70 520q-2 4 -17.5 23.5t-45 42t-73.5 40t-106 17.5q-82 0 -151.5 -38t-121.5 -102.5t-82 -148.5t-30 -178zM434 1245 q0 33 29 33h18q23 0 27 -27q4 -53 32.5 -87t77.5 -34q45 0 86 35t58 88q12 25 33 25h26q29 0 21 -35q-23 -80 -83.5 -134t-146.5 -54q-37 0 -68.5 14t-56 41t-38 61.5t-15.5 73.5zM440 1403q4 10 15 33.5t30.5 48t47.5 44t69 19.5q43 0 63.5 -24.5t33.5 -54t23.5 -49 t28.5 -19.5q16 0 29.5 9t24 23.5t17.5 30t11 27.5q12 29 39 16l20 -6q6 -6 11.5 -12t-0.5 -23q0 -4 -9.5 -27.5t-30 -50t-50 -48t-72.5 -21.5q-41 0 -62.5 26.5t-35 54t-23.5 49t-27 21.5q-18 0 -31.5 -11t-25.5 -26.5t-19.5 -32t-11.5 -28.5q-10 -29 -36 -14l-19 8 q-25 8 -10 37z" />
<glyph unicode="&#x1eb6;" horiz-adv-x="1239" d="M-49 29l758 1411q6 14 26 14h6q8 0 14.5 -2t10.5 -12l373 -1415q4 -10 -1 -17.5t-22 -7.5h-53q-14 0 -19.5 6t-7.5 12l-94 377h-692l-197 -377q-4 -6 -11 -12t-22 -6h-59q-25 0 -10 29zM297 475h623l-197 815h-6zM428 -244q0 37 29 63.5t65 26.5q31 0 49.5 -19.5 t18.5 -47.5q0 -37 -26.5 -63.5t-63.5 -26.5q-31 0 -51.5 19.5t-20.5 47.5zM567 1732q0 33 29 33h18q23 0 27 -27q4 -53 32.5 -87t77.5 -34q45 0 86 35t58 88q12 25 33 25h26q29 0 21 -35q-23 -80 -83.5 -134t-146.5 -54q-37 0 -68.5 14t-56 41t-38 61.5t-15.5 73.5z" />
<glyph unicode="&#x1eb7;" d="M98 412q0 113 38 214t102.5 177t151.5 120t185 44q57 0 103.5 -14.5t79.5 -33t52 -37t26 -26.5l20 64q8 27 29 26h20q10 0 18.5 -9t4.5 -22l-121 -884q-2 -12 -12.5 -21.5t-20.5 -9.5h-18q-29 0 -27 33l4 82q-10 -12 -36.5 -35t-66.5 -46.5t-91.5 -40t-112.5 -16.5 q-74 0 -134.5 33t-103.5 91.5t-66.5 138t-23.5 172.5zM188 412q0 -68 18.5 -131.5t51.5 -111.5t80 -77t104 -29q66 0 121 26t95 56.5t62.5 58t24.5 32.5l70 520q-2 4 -17.5 23.5t-45 42t-73.5 40t-106 17.5q-82 0 -151.5 -38t-121.5 -102.5t-82 -148.5t-30 -178zM323 -244 q0 37 29 63.5t65 26.5q31 0 49.5 -19.5t18.5 -47.5q0 -37 -26.5 -63.5t-63.5 -26.5q-31 0 -51.5 19.5t-20.5 47.5zM434 1245q0 33 29 33h18q23 0 27 -27q4 -53 32.5 -87t77.5 -34q45 0 86 35t58 88q12 25 33 25h26q29 0 21 -35q-23 -80 -83.5 -134t-146.5 -54 q-37 0 -68.5 14t-56 41t-38 61.5t-15.5 73.5z" />
<glyph unicode="&#x1eb8;" horiz-adv-x="1101" d="M129 27l195 1380q2 10 10 18.5t18 8.5h738q27 0 22 -27l-4 -35q-4 -27 -31 -26h-663l-80 -566h573q27 0 23 -26l-4 -35q-4 -27 -31 -27h-573l-86 -606h665q27 0 23 -27l-6 -32q-4 -27 -29 -27h-737q-27 0 -23 27zM407 -244q0 37 29 63.5t65 26.5q31 0 49.5 -19.5 t18.5 -47.5q0 -37 -26.5 -63.5t-63.5 -26.5q-31 0 -51.5 19.5t-20.5 47.5z" />
<glyph unicode="&#x1eb9;" horiz-adv-x="970" d="M96 395q0 117 36 220.5t100.5 181t153.5 124t198 46.5q125 0 207.5 -64.5t82.5 -175.5q0 -106 -65.5 -166.5t-166.5 -89.5t-222 -32t-232 5q-8 -82 7.5 -151.5t50.5 -120.5t88 -80t123 -29q51 0 92 10.5t73.5 25t57.5 30.5t41 29q29 20 45 -8l14 -23q4 -8 4 -17.5 t-10 -19.5q-23 -16 -53.5 -35.5t-71.5 -37t-91 -29t-112 -11.5q-84 0 -148.5 33t-109.5 89.5t-68.5 133t-23.5 162.5zM201 526q109 -8 213 -6t187 23.5t133 63.5t50 114q0 74 -59 116t-152 42q-68 0 -130 -28t-112 -76t-85 -111.5t-45 -137.5zM323 -244q0 37 29 63.5 t65 26.5q31 0 49.5 -19.5t18.5 -47.5q0 -37 -26.5 -63.5t-63.5 -26.5q-31 0 -51.5 19.5t-20.5 47.5z" />
<glyph unicode="&#x1eba;" horiz-adv-x="1101" d="M129 27l195 1380q2 10 10 18.5t18 8.5h738q27 0 22 -27l-4 -35q-4 -27 -31 -26h-663l-80 -566h573q27 0 23 -26l-4 -35q-4 -27 -31 -27h-573l-86 -606h665q27 0 23 -27l-6 -32q-4 -27 -29 -27h-737q-27 0 -23 27zM633 1724q-12 16 4 35q14 18 37 33q23 14 45 20 q29 10 57 10q55 0 86 -30q27 -33 18 -82q-12 -53 -73 -97l-13 -6l-12 -6q-10 -6 -14 -12q-14 -10 -17 -21v-4q-2 -14 -14 -22q-8 -6 -18 -6h-17q-33 0 -26 30v4q8 31 30 56q14 12 43 30l9 7l10 6q10 8 14 14q16 10 19 31q4 16 -5 26q-8 10 -30 11q-29 0 -51 -15 q-10 -6 -17 -12q-6 -2 -10 -10h-4l-2 -2q-23 -18 -41 0z" />
<glyph unicode="&#x1ebb;" horiz-adv-x="970" d="M96 395q0 117 36 220.5t100.5 181t153.5 124t198 46.5q125 0 207.5 -64.5t82.5 -175.5q0 -106 -65.5 -166.5t-166.5 -89.5t-222 -32t-232 5q-8 -82 7.5 -151.5t50.5 -120.5t88 -80t123 -29q51 0 92 10.5t73.5 25t57.5 30.5t41 29q29 20 45 -8l14 -23q4 -8 4 -17.5 t-10 -19.5q-23 -16 -53.5 -35.5t-71.5 -37t-91 -29t-112 -11.5q-84 0 -148.5 33t-109.5 89.5t-68.5 133t-23.5 162.5zM201 526q109 -8 213 -6t187 23.5t133 63.5t50 114q0 74 -59 116t-152 42q-68 0 -130 -28t-112 -76t-85 -111.5t-45 -137.5zM516 1237q-12 16 4 35 q14 18 37 33q23 14 45 20q29 10 57 10q55 0 86 -30q27 -33 18 -82q-12 -53 -73 -97l-13 -6l-12 -6q-10 -6 -14 -12q-14 -10 -17 -21v-4q-2 -14 -14 -22q-8 -6 -18 -6h-17q-33 0 -26 30v4q8 31 30 56q14 12 43 30l9 7l10 6q10 8 14 14q16 10 19 31q4 16 -5 26q-8 10 -30 11 q-29 0 -51 -15q-10 -6 -17 -12q-6 -2 -10 -10h-4l-2 -2q-23 -18 -41 0z" />
<glyph unicode="&#x1ebc;" horiz-adv-x="1101" d="M129 27l195 1380q2 10 10 18.5t18 8.5h738q27 0 22 -27l-4 -35q-4 -27 -31 -26h-663l-80 -566h573q27 0 23 -26l-4 -35q-4 -27 -31 -27h-573l-86 -606h665q27 0 23 -27l-6 -32q-4 -27 -29 -27h-737q-27 0 -23 27zM524 1628q4 10 15 33.5t30.5 48t47.5 44t69 19.5 q43 0 63.5 -24.5t33.5 -54t23.5 -49t28.5 -19.5q16 0 29.5 9t24 23.5t17.5 30t11 27.5q12 29 39 16l20 -6q6 -6 11.5 -12t-0.5 -23q0 -4 -9.5 -27.5t-30 -50t-50 -48t-72.5 -21.5q-41 0 -62.5 26.5t-35 54t-23.5 49t-27 21.5q-18 0 -31.5 -11t-25.5 -26.5t-19.5 -32 t-11.5 -28.5q-10 -29 -36 -14l-19 8q-25 8 -10 37z" />
<glyph unicode="&#x1ebd;" horiz-adv-x="970" d="M96 395q0 117 36 220.5t100.5 181t153.5 124t198 46.5q125 0 207.5 -64.5t82.5 -175.5q0 -106 -65.5 -166.5t-166.5 -89.5t-222 -32t-232 5q-8 -82 7.5 -151.5t50.5 -120.5t88 -80t123 -29q51 0 92 10.5t73.5 25t57.5 30.5t41 29q29 20 45 -8l14 -23q4 -8 4 -17.5 t-10 -19.5q-23 -16 -53.5 -35.5t-71.5 -37t-91 -29t-112 -11.5q-84 0 -148.5 33t-109.5 89.5t-68.5 133t-23.5 162.5zM201 526q109 -8 213 -6t187 23.5t133 63.5t50 114q0 74 -59 116t-152 42q-68 0 -130 -28t-112 -76t-85 -111.5t-45 -137.5zM393 1139q4 10 15 33.5 t30.5 48t47.5 44t69 19.5q43 0 63.5 -24.5t33.5 -54t23.5 -49t28.5 -19.5q16 0 29.5 9t24 23.5t17.5 30t11 27.5q12 29 39 16l20 -6q6 -6 11.5 -12t-0.5 -23q0 -4 -9.5 -27.5t-30 -50t-50 -48t-72.5 -21.5q-41 0 -62.5 26.5t-35 54t-23.5 49t-27 21.5q-18 0 -31.5 -11 t-25.5 -26.5t-19.5 -32t-11.5 -28.5q-10 -29 -36 -14l-19 8q-25 8 -10 37z" />
<glyph unicode="&#x1ebe;" horiz-adv-x="1101" d="M129 27l195 1380q2 10 10 18.5t18 8.5h738q27 0 22 -27l-4 -35q-4 -27 -31 -26h-663l-80 -566h573q27 0 23 -26l-4 -35q-4 -27 -31 -27h-573l-86 -606h665q27 0 23 -27l-6 -32q-4 -27 -29 -27h-737q-27 0 -23 27zM539 1581q-10 18 10 37l201 160q12 10 27 10q10 0 22 -10 l158 -162q6 -6 10 -15t-8 -22l-10 -12q-6 -6 -16.5 -12t-22.5 8l-142 127l-178 -133q-16 -12 -25.5 -6t-13.5 12zM631 1849q-10 25 19 39l223 129q10 4 23.5 4t21.5 -14l12 -31q8 -27 -14 -41l-258 -122v2q-10 -6 -21 20z" />
<glyph unicode="&#x1ebf;" horiz-adv-x="970" d="M96 395q0 117 36 220.5t100.5 181t153.5 124t198 46.5q125 0 207.5 -64.5t82.5 -175.5q0 -106 -65.5 -166.5t-166.5 -89.5t-222 -32t-232 5q-8 -82 7.5 -151.5t50.5 -120.5t88 -80t123 -29q51 0 92 10.5t73.5 25t57.5 30.5t41 29q29 20 45 -8l14 -23q4 -8 4 -17.5 t-10 -19.5q-23 -16 -53.5 -35.5t-71.5 -37t-91 -29t-112 -11.5q-84 0 -148.5 33t-109.5 89.5t-68.5 133t-23.5 162.5zM201 526q109 -8 213 -6t187 23.5t133 63.5t50 114q0 74 -59 116t-152 42q-68 0 -130 -28t-112 -76t-85 -111.5t-45 -137.5zM358 1087q-10 18 10 37 l201 160q12 10 27 10q10 0 22 -10l158 -162q6 -6 10 -15t-8 -22l-10 -12q-6 -6 -16.5 -12t-22.5 8l-142 127l-178 -133q-16 -12 -25.5 -6t-13.5 12zM436 1376q-10 25 19 39l223 129q10 4 23.5 4t21.5 -14l12 -31q8 -27 -14 -41l-258 -122v2q-10 -6 -21 20z" />
<glyph unicode="&#x1ec0;" horiz-adv-x="1101" d="M129 27l195 1380q2 10 10 18.5t18 8.5h738q27 0 22 -27l-4 -35q-4 -27 -31 -26h-663l-80 -566h573q27 0 23 -26l-4 -35q-4 -27 -31 -27h-573l-86 -606h665q27 0 23 -27l-6 -32q-4 -27 -29 -27h-737q-27 0 -23 27zM541 1581q-10 18 10 37l201 160q12 10 27 10q10 0 22 -10 l158 -162q6 -6 10 -15t-8 -22l-10 -12q-6 -6 -16.5 -12t-22.5 8l-142 127l-178 -133q-16 -12 -25.5 -6t-13.5 12zM637 1981l21 31q6 12 20 13t25 -7l217 -146q20 -16 10 -39l-10 -18q-8 -8 -17.5 -11t-23.5 3l-236 129q-23 16 -6 45z" />
<glyph unicode="&#x1ec1;" horiz-adv-x="970" d="M96 395q0 117 36 220.5t100.5 181t153.5 124t198 46.5q125 0 207.5 -64.5t82.5 -175.5q0 -106 -65.5 -166.5t-166.5 -89.5t-222 -32t-232 5q-8 -82 7.5 -151.5t50.5 -120.5t88 -80t123 -29q51 0 92 10.5t73.5 25t57.5 30.5t41 29q29 20 45 -8l14 -23q4 -8 4 -17.5 t-10 -19.5q-23 -16 -53.5 -35.5t-71.5 -37t-91 -29t-112 -11.5q-84 0 -148.5 33t-109.5 89.5t-68.5 133t-23.5 162.5zM201 526q109 -8 213 -6t187 23.5t133 63.5t50 114q0 74 -59 116t-152 42q-68 0 -130 -28t-112 -76t-85 -111.5t-45 -137.5zM358 1087q-10 18 10 37 l201 160q12 10 27 10q10 0 22 -10l158 -162q6 -6 10 -15t-8 -22l-10 -12q-6 -6 -16.5 -12t-22.5 8l-142 127l-178 -133q-16 -12 -25.5 -6t-13.5 12zM442 1503l21 31q6 12 20 13t25 -7l217 -146q20 -16 10 -39l-10 -18q-8 -8 -17.5 -11t-23.5 3l-236 129q-23 16 -6 45z" />
</font>
</defs>
</svg>
